<?xml version="1.0" standalone="no"?>
<!DOCTYPE svg PUBLIC "-//W3C//DTD SVG 1.1//EN" "http://www.w3.org/Graphics/SVG/1.1/DTD/svg11.dtd" >
<svg xmlns="http://www.w3.org/2000/svg">
<metadata>
Created by FontPrep 20130207 at Wed Apr 30 17:27:09 2014
 By Max Quattromani
Copyright (c) 2011 - 2012 Linotype Corp., www.linotype.com. All rights reserved. This font software may not be reproduced, modified, disclosed or transferred without the express written approval of Linotype Corp. Neue Haas Grotesk is a trademark of Linotype Corp. registered in the U.S. Patent and Trademark Office and may be registered in certain other jurisdictions in the name of Linotype Corp. or its licensee Linotype GmbH. This typeface is original artwork of Christian Schwartz. The design may be protected in certain jurisdictions.
</metadata>
<defs>
<font id="1af8a305ccdaf7fd37619de1aa605cb8" horiz-adv-x='1024' >
  <font-face 
    font-family="NHaasGroteskDSPro-35XLt"
    font-weight="350"
    font-stretch="normal"
    units-per-em="2048"
    panose-1="2 11 3 4 2 2 2 2 2 4"
    ascent="1569"
    descent="-479"
    x-height="1059"
    cap-height="1464"
    bbox="-381 -418 2232 1868"
    underline-thickness="40"
    underline-position="-231"
    unicode-range="U+000D-FB04"
  />
<missing-glyph 
 />
    <glyph glyph-name="f_f" unicode="ff" horiz-adv-x="946" 
d="M612 975h-329v-975h-101v975h-157v84h157v192q0 213 228 213h63v-88h-57q-78 0 -105.5 -33.5t-27.5 -93.5v-190h329v201q0 213 228 213h63v-89h-57q-78 0 -105.5 -33.5t-27.5 -93.5v-198h196v-84h-196v-975h-101v975z" />
    <glyph glyph-name="fi" unicode="fi" horiz-adv-x="821" 
d="M612 1464h101v-164h-101v164zM612 1059h101v-1059h-101v1059zM25 1059h157v201q0 213 228 213h63v-89h-57q-78 0 -105.5 -33.5t-27.5 -93.5v-198h196v-84h-196v-975h-101v975h-157v84z" />
    <glyph glyph-name="fl" unicode="fl" horiz-adv-x="821" 
d="M612 1464h101v-1464h-101v1464zM25 1059h157v201q0 213 228 213h63v-89h-57q-78 0 -105.5 -33.5t-27.5 -93.5v-198h196v-84h-196v-975h-101v975h-157v84z" />
    <glyph glyph-name="f_f_i" unicode="ffi" horiz-adv-x="1251" 
d="M1042 1464h101v-164h-101v164zM1042 1059h101v-1059h-101v1059zM612 975h-329v-975h-101v975h-157v84h157v192q0 213 228 213h63v-88h-57q-78 0 -105.5 -33.5t-27.5 -93.5v-190h329v201q0 213 228 213h63v-89h-57q-78 0 -105.5 -33.5t-27.5 -93.5v-198h196v-84h-196v-975
h-101v975z" />
    <glyph glyph-name="f_f_l" unicode="ffl" horiz-adv-x="1251" 
d="M1042 1464h101v-1464h-101v1464zM612 975h-329v-975h-101v975h-157v84h157v192q0 213 228 213h63v-88h-57q-78 0 -105.5 -33.5t-27.5 -93.5v-190h329v201q0 213 228 213h63v-89h-57q-78 0 -105.5 -33.5t-27.5 -93.5v-198h196v-84h-196v-975h-101v975z" />
    <glyph glyph-name=".notdef" 
 />
    <glyph glyph-name=".null" horiz-adv-x="0" 
 />
    <glyph glyph-name=".null" horiz-adv-x="0" 
 />
    <glyph glyph-name="nonmarkingreturn" unicode="&#xd;" horiz-adv-x="0" 
 />
    <glyph glyph-name="space" unicode=" " horiz-adv-x="329" 
 />
    <glyph glyph-name="exclam" unicode="!" horiz-adv-x="403" 
d="M139 162h125v-162h-125v162zM145 1464h113v-469l-20 -641h-72l-21 641v469z" />
    <glyph glyph-name="quotedbl" unicode="&#x22;" horiz-adv-x="536" 
d="M90 1464h100v-438h-100v438zM346 1464h100v-438h-100v438z" />
    <glyph glyph-name="numbersign" unicode="#" horiz-adv-x="1128" 
d="M385 526h307l51 369h-307zM150 985h204l60 420h94l-59 -420h307l59 420h94l-59 -420h209l-15 -90h-206l-52 -369h205l-14 -90h-203l-59 -436h-94l59 436h-307l-60 -436h-94l60 436h-209l14 90h207l51 369h-207z" />
    <glyph glyph-name="dollar" unicode="$" horiz-adv-x="1103" 
d="M203 1070q0 -114 69 -169.5t246 -93.5v534q-150 -8 -232.5 -82.5t-82.5 -188.5zM863 589.5q-71 60.5 -263 102.5v-600q146 8 240 89.5t94 214.5t-71 193.5zM214.5 1322q114.5 100 303.5 110v118h82v-120q178 -16 279.5 -120t117.5 -261h-100q-14 131 -95 204.5t-202 85.5
v-548q217 -42 327.5 -122t110.5 -257q0 -176 -123.5 -290t-314.5 -118v-178h-82v180q-214 15 -336.5 142t-130.5 315h101q6 -160 105 -256t261 -113v615q-216 44 -317 121t-101 234q0 158 114.5 258z" />
    <glyph glyph-name="percent" unicode="%" horiz-adv-x="1617" 
d="M1167 1403h95l-811 -1403h-95zM580 1038q0 160 -62.5 237t-148.5 77t-144.5 -78.5t-58.5 -235.5t58.5 -237t149.5 -80q87 0 146.5 78.5t59.5 238.5zM1452 370q0 160 -62.5 237t-148.5 77t-144.5 -78.5t-58.5 -235.5t58.5 -237t149.5 -80q88 0 147 78.5t59 238.5zM942 325
q0 140 24.5 213.5t65.5 124t96.5 76t152 25.5t182 -105t85.5 -289t-85.5 -290.5t-217.5 -106.5t-217.5 106t-85.5 246zM70 993.5q0 139.5 24.5 213t65.5 123.5t96 76t151.5 26t182.5 -105t86 -289t-85 -290.5t-218 -106.5t-218 106.5t-85 246z" />
    <glyph glyph-name="ampersand" unicode="&#x26;" horiz-adv-x="1169" 
d="M354 1170q0 -76 19.5 -127.5t68.5 -116.5l50 -66q123 68 183 132.5t60 160.5t-53 148.5t-133 52.5t-137.5 -54t-57.5 -130zM508 66q215 0 334 178l-385 497q-138 -75 -190 -133.5t-75.5 -115t-23.5 -130.5q0 -135 92 -215.5t248 -80.5zM57 362q0 225 137.5 317.5
t208.5 131.5l-32 43q-66 86 -94.5 153t-28.5 137q0 135 87 217.5t213 82.5t209 -79t83 -235t-119 -232.5t-176 -106.5l348 -451q52 122 61 317h101q0 -229 -94 -405l194 -252h-125l-127 164q-148 -191 -399 -191q-193 0 -320 105t-127 284z" />
    <glyph glyph-name="quotesingle" unicode="'" horiz-adv-x="280" 
d="M90 1464h100v-438h-100v438z" />
    <glyph glyph-name="parenleft" unicode="(" horiz-adv-x="555" 
d="M266 686q0 -511 250 -928h-94q-272 413 -271 912q1 498 271 874h94q-246 -390 -250 -858z" />
    <glyph glyph-name="parenright" unicode=")" horiz-adv-x="555" 
d="M133 1544q270 -421 270 -915t-270 -871h-94q246 396 250 858q0 511 -250 928h94z" />
    <glyph glyph-name="asterisk" unicode="*" horiz-adv-x="724" 
d="M319 1464h87v-245l212 75l27 -69l-211 -76l137 -193l-63 -45l-146 207l-145 -207l-63 45l137 193l-211 76l26 69l213 -75v245z" />
    <glyph glyph-name="plus" unicode="+" horiz-adv-x="1044" 
d="M115 715h356v383h102v-383h357v-94h-357v-390h-102v390h-356v94z" />
    <glyph glyph-name="comma" unicode="," horiz-adv-x="292" 
d="M137 -12v12h-53v162h125v-168q0 -96 -34 -136t-93 -51v60q27 10 41 34.5t14 86.5z" />
    <glyph glyph-name="hyphen" unicode="-" horiz-adv-x="643" 
d="M68 623h507v-91h-507v91z" />
    <glyph glyph-name="period" unicode="." horiz-adv-x="292" 
d="M84 162h125v-162h-125v162z" />
    <glyph glyph-name="slash" unicode="/" horiz-adv-x="753" 
d="M614 1464h107l-582 -1464h-106z" />
    <glyph glyph-name="zero" unicode="0" horiz-adv-x="1142" 
d="M865.5 233.5q99.5 167.5 99.5 464.5t-104 470t-291 173t-289.5 -168.5t-102.5 -467.5t104 -469t294 -170t289.5 167.5zM70 704q0 340 135 534t368 194t366.5 -193.5t133.5 -534.5t-130.5 -536t-370.5 -195q-241 0 -371.5 195.5t-130.5 535.5z" />
    <glyph glyph-name="one" unicode="1" horiz-adv-x="645" 
d="M354 1077h-286v72q174 12 234.5 59.5t80.5 202.5h76v-1411h-105v1077z" />
    <glyph glyph-name="two" unicode="2" horiz-adv-x="1015" 
d="M66 0q0 324 179 445.5t255 168.5t137 86t131 110.5t70 222.5t-82 228.5t-224 77.5t-232.5 -90t-96.5 -276h-105q0 216 125.5 337.5t312.5 121.5t298.5 -114.5t111.5 -281.5q0 -257 -167 -361t-235 -146t-206 -133.5t-158 -299.5h754v-96h-868z" />
    <glyph glyph-name="three" unicode="3" horiz-adv-x="1028" 
d="M961 381q0 -186 -122.5 -297t-321.5 -111t-329.5 122t-130.5 321h109q8 -170 104 -257t254 -87t243 88t85 230t-87 224t-243 82h-104v92h102q131 0 207 75t76 204t-80 201.5t-215 72.5t-218 -97.5t-83 -246.5h-107q0 189 113.5 312t294.5 123t291 -101t110 -266
q0 -229 -196 -311v-6q248 -93 248 -367z" />
    <glyph glyph-name="four" unicode="4" horiz-adv-x="1060" 
d="M158 461h538v770h-4l-534 -764v-6zM696 369h-651v102l662 946h94v-956h207v-92h-207v-369h-105v369z" />
    <glyph glyph-name="five" unicode="5" horiz-adv-x="991" 
d="M213 791q121 108 288 108q182 0 302.5 -118.5t120.5 -329.5t-118 -344.5t-312 -133.5t-315.5 110t-121.5 277h105q16 -133 92 -210.5t232 -77.5t242.5 103t86.5 272q0 168 -87 263t-230 95q-211 0 -303 -143h-101l103 741h667v-94h-585l-70 -518h4z" />
    <glyph glyph-name="six" unicode="6" horiz-adv-x="1062" 
d="M795.5 169.5q91.5 106.5 91.5 271.5t-89 263.5t-239 98.5t-248 -105.5t-98 -268.5t95 -264.5t245 -101.5q151 0 242.5 106.5zM70 676q0 350 132 553t376 203q164 0 262 -96t114 -251h-106q-10 111 -81 182.5t-181 71.5q-209 0 -311.5 -187t-98.5 -509h4
q59 121 156.5 185.5t209.5 64.5t191.5 -33t137 -92t89 -141t31.5 -235t-120.5 -286t-307.5 -133t-315 115q-182 164 -182 588z" />
    <glyph glyph-name="seven" unicode="7" horiz-adv-x="968" 
d="M813 1309h-766v94h877v-96q-325 -347 -420.5 -724.5t-114.5 -582.5h-115q31 357 177.5 712t361.5 593v4z" />
    <glyph glyph-name="eight" unicode="8" horiz-adv-x="1069" 
d="M746.5 880q82.5 79 82.5 189q0 181 -112.5 226.5t-214.5 45.5t-184 -77t-82 -192q0 -116 77.5 -193.5t214.5 -77.5q136 0 218.5 79zM895 389q0 141 -99.5 231.5t-266.5 90.5t-261 -90.5t-94 -231.5t95 -232t265 -91q162 0 261.5 91t99.5 232zM200 87q-134 114 -134 302
q0 143 74.5 234.5t191.5 134.5v6q-96 41 -149.5 121t-53.5 173q0 169 114 271.5t293 102.5q178 0 289 -103.5t111 -255.5q0 -109 -56.5 -186.5t-152.5 -118.5v-6q120 -38 198.5 -140.5t78.5 -216.5t-37 -192t-134 -159t-298 -81t-335 114z" />
    <glyph glyph-name="nine" unicode="9" horiz-adv-x="1058" 
d="M176 963q0 -164 87 -262.5t238 -98.5t249 104t98 267t-92.5 265.5t-243.5 102.5q-152 0 -244 -107t-92 -271zM502 -27q-186 0 -291 94.5t-115 251.5h109q10 -117 86 -185t211 -68t223 90q168 172 160 604h-4q-55 -119 -153 -183.5t-210 -64.5t-192 33t-137.5 92t-89 141
t-31.5 234.5t123 286t309 133.5q185 0 311 -113q104 -90 141 -246.5t37 -360.5q0 -422 -178 -610q-123 -129 -309 -129z" />
    <glyph glyph-name="colon" unicode=":" horiz-adv-x="313" 
d="M94 162h125v-162h-125v162zM94 795h125v-162h-125v162z" />
    <glyph glyph-name="semicolon" unicode=";" horiz-adv-x="313" 
d="M94 795h125v-162h-125v162zM147 -12v12h-53v162h125v-168q0 -96 -33.5 -136t-93.5 -51v60q27 10 41 34.5t14 86.5z" />
    <glyph glyph-name="less" unicode="&#x3c;" horiz-adv-x="1005" 
d="M102 580v116l793 340v-100l-702 -297v-4l702 -295v-100z" />
    <glyph glyph-name="equal" unicode="=" horiz-adv-x="1044" 
d="M115 526h815v-94h-815v94zM115 834h815v-95h-815v95z" />
    <glyph glyph-name="greater" unicode="&#x3e;" horiz-adv-x="1005" 
d="M903 696v-116l-792 -340v100l702 297v4l-702 295v100z" />
    <glyph glyph-name="question" unicode="?" horiz-adv-x="1009" 
d="M393 162h125v-162h-125v162zM406 354q0 170 43.5 259.5t162.5 187.5q35 29 113 96.5t78 235.5q0 122 -81 193t-223 71t-231.5 -96.5t-93.5 -241.5h-104q0 174 115.5 303t334.5 129q177 0 284 -103.5t107 -261.5q0 -200 -95 -281t-140 -119q-100 -85 -135 -154t-35 -218
h-100z" />
    <glyph glyph-name="at" unicode="@" horiz-adv-x="1767" 
d="M820 252q72 0 188 67.5t116 374.5q0 131 -56 214t-192 83t-215 -124t-79 -324t83 -245.5t155 -45.5zM84 598q0 203 71.5 362.5t189.5 270t268.5 168t304.5 57.5t291 -49t242 -144.5t168.5 -236.5t63.5 -347t-96 -348.5t-262 -142.5q-137 0 -170 68t-37 96h-2
q-39 -78 -122 -131t-183 -53q-156 0 -243 106.5t-87 280.5q0 234 114 376t290 142q100 0 166.5 -46t101.5 -118h6l23 148h86l-70 -578q-12 -92 18.5 -151.5t102.5 -59.5q137 0 203.5 117t66.5 299q0 336 -185.5 511t-489.5 175q-305 0 -460 -153.5t-215.5 -296t-60.5 -312.5
q0 -339 183.5 -533t517.5 -194q186 0 399 84l31 -78q-210 -92 -413 -92q-387 0 -599.5 218t-212.5 585z" />
    <glyph glyph-name="A" unicode="A" horiz-adv-x="1277" 
d="M336 559h604l-221 582q-62 160 -80 217h-4l-25 -74q-10 -33 -24.5 -70.5t-26.5 -72.5zM578 1464h120l568 -1464h-111l-180 469h-674l-180 -469h-109z" />
    <glyph glyph-name="B" unicode="B" horiz-adv-x="1247" 
d="M737 809q135 0 207 79t72 209t-78 200.5t-209 70.5h-496v-559h504zM741 98q172 0 255 84t83 227.5t-89 224.5t-240 81h-517v-617h508zM127 1464h600q177 0 287 -97t110 -267q0 -125 -50 -203t-165 -121v-4q129 -41 204 -131.5t75 -254.5t-105 -269q-121 -117 -333 -117
h-623v1464z" />
    <glyph glyph-name="C" unicode="C" horiz-adv-x="1343" 
d="M1155 166q-164 -193 -454 -193t-460.5 209t-170.5 549t175 551t470 211q217 0 360.5 -111.5t186.5 -318.5h-107q-31 150 -143.5 244t-296.5 94q-258 0 -396.5 -189.5t-138.5 -481.5t136 -477t393 -185q209 0 334.5 129.5t146.5 332.5h100q-21 -229 -135 -364z" />
    <glyph glyph-name="D" unicode="D" horiz-adv-x="1318" 
d="M621 94q259 0 388.5 167t129.5 547t-185.5 470t-318.5 90h-402v-1274h388zM127 1464h512q310 0 460 -200t150 -535.5t-157 -532t-467 -196.5h-498v1464z" />
    <glyph glyph-name="E" unicode="E" horiz-adv-x="1191" 
d="M127 1464h971v-94h-865v-569h795v-92h-795v-611h885v-98h-991v1464z" />
    <glyph glyph-name="F" unicode="F" horiz-adv-x="1110" 
d="M127 1464h930v-94h-824v-563h711v-92h-711v-715h-106v1464z" />
    <glyph glyph-name="G" unicode="G" horiz-adv-x="1452" 
d="M729 -27q-319 0 -489 211t-170 548t182.5 549t501.5 212q215 0 366 -110t197 -332h-107q-35 172 -160.5 261t-283.5 89q-159 0 -268 -53.5t-179.5 -144.5t-104.5 -213t-34 -336.5t139 -400t403 -185.5q263 0 390 147.5t127 364.5v63h-491v94h593v-737h-81l-13 262h-8
q-156 -289 -510 -289z" />
    <glyph glyph-name="H" unicode="H" horiz-adv-x="1327" 
d="M127 1464h106v-641h861v641h106v-1464h-106v733h-861v-733h-106v1464z" />
    <glyph glyph-name="I" unicode="I" horiz-adv-x="376" 
d="M135 1464h107v-1464h-107v1464z" />
    <glyph glyph-name="J" unicode="J" horiz-adv-x="942" 
d="M45 377v78h105v-74q0 -170 76 -240.5t212 -70.5q276 0 277 274v1120h106v-1128q0 -161 -95 -262t-282 -101q-188 0 -293.5 98.5t-105.5 305.5z" />
    <glyph glyph-name="K" unicode="K" horiz-adv-x="1255" 
d="M127 1464h106v-817l838 819h141l-624 -604l653 -862h-129l-600 788l-279 -272v-516h-106v1464z" />
    <glyph glyph-name="L" unicode="L" horiz-adv-x="1073" 
d="M127 1464h106v-1366h789v-98h-895v1464z" />
    <glyph glyph-name="M" unicode="M" horiz-adv-x="1607" 
d="M127 1464h154l526 -1319h4l510 1319h160v-1464h-105v1323h-4q-12 -33 -23 -67t-24.5 -69.5t-26.5 -70.5l-438 -1116h-106l-447 1116q-30 73 -46 122q-15 48 -28 85h-4v-1323h-102v1464z" />
    <glyph glyph-name="N" unicode="N" horiz-adv-x="1329" 
d="M127 1464h119l680 -1034q33 -51 64.5 -99t55.5 -92t50 -85h4v1310h102v-1464h-112l-672 1012q-125 189 -185 293h-4v-1305h-102v1464z" />
    <glyph glyph-name="O" unicode="O" horiz-adv-x="1454" 
d="M725 70q133 0 235.5 52t172 143t105.5 212t36 256t-36 256t-105.5 212t-172 143.5t-235.5 52.5t-235.5 -52.5t-171 -143.5t-103.5 -212t-35 -256t35 -256t103.5 -212t171 -143t235.5 -52zM70 734q0 331 180.5 545t475.5 214t476.5 -215t181.5 -544t-181 -545t-477 -216
t-476 215t-180 546z" />
    <glyph glyph-name="P" unicode="P" horiz-adv-x="1177" 
d="M233 748h424q195 0 277 84t82 230t-86 226t-258 80h-439v-620zM1124 1063q0 -410 -458 -410h-433v-653h-106v1464h553q123 0 283.5 -60t160.5 -341z" />
    <glyph glyph-name="Q" unicode="Q" horiz-adv-x="1454" 
d="M1274 733q0 283 -145.5 473.5t-404 190.5t-401.5 -190t-143 -474t142.5 -473.5t402.5 -189.5q155 0 283 77l-166 140l61 75l184 -151q187 187 187 522zM725 -27q-295 0 -475 215t-180 546t180.5 545t475.5 214t476.5 -215t181.5 -563q0 -347 -221 -568l189 -153l-62 -78
l-203 168q-159 -111 -362 -111z" />
    <glyph glyph-name="R" unicode="R" horiz-adv-x="1259" 
d="M233 772h492q164 0 248 77t84 218t-71 222t-238 81h-515v-598zM127 1464h633q203 0 304 -102t101 -289q0 -270 -239 -346v-6q113 -37 157.5 -130t48.5 -225q11 -327 64 -358v-8h-115q-35 17 -42 124.5t-11 207.5q-8 199 -78 272.5t-245 73.5h-472v-678h-106v1464z" />
    <glyph glyph-name="S" unicode="S" horiz-adv-x="1189" 
d="M288 172.5q124 -104.5 312 -104.5t299 88.5t111 240.5t-93.5 214t-341.5 107q-249 45 -362 130.5t-113 258.5t136 279.5t353 106.5t343.5 -112.5t142.5 -295.5h-106q-16 151 -120.5 232.5t-272.5 81.5t-267.5 -82t-99.5 -211t87.5 -186.5t329.5 -104.5
q242 -46 368 -128.5t126 -277.5t-137.5 -315.5t-376.5 -120.5q-254 0 -400.5 135.5t-158.5 354.5h109q8 -186 132 -290.5z" />
    <glyph glyph-name="T" unicode="T" horiz-adv-x="1175" 
d="M35 1464h1106v-96h-500v-1368h-106v1368h-500v96z" />
    <glyph glyph-name="U" unicode="U" horiz-adv-x="1273" 
d="M637 72q416 0 416 397v995h106v-1003q0 -242 -141.5 -363t-383.5 -121q-243 0 -381 120t-138 364v1003h106v-995q0 -215 107.5 -306t308.5 -91z" />
    <glyph glyph-name="V" unicode="V" horiz-adv-x="1216" 
d="M12 1464h109l391 -1075q14 -41 29.5 -88t30.5 -92t30 -92h4q72 220 96 282l396 1065h106l-542 -1464h-113z" />
    <glyph glyph-name="W" unicode="W" horiz-adv-x="1755" 
d="M23 1464h106l270 -1011q10 -43 24.5 -97.5t26.5 -107.5t25 -111h4q13 55 25 105t25.5 101.5t23.5 92.5l272 1028h113l274 -1024q23 -95 43 -170q19 -75 33 -133h4q38 183 74 316l264 1011h103l-390 -1464h-114l-287 1090q-23 85 -35 144q-12 58 -22 103h-4
q-10 -43 -26 -120t-32 -127l-286 -1090h-119z" />
    <glyph glyph-name="X" unicode="X" horiz-adv-x="1173" 
d="M524 748l-479 716h121l424 -639h4l412 639h118l-471 -719l498 -745h-121l-442 668h-4l-443 -668h-118z" />
    <glyph glyph-name="Y" unicode="Y" horiz-adv-x="1185" 
d="M645 0h-106v651l-529 813h117l465 -716h4l465 716h115l-531 -817v-647z" />
    <glyph glyph-name="Z" unicode="Z" horiz-adv-x="1173" 
d="M954 1372h-848v92h973v-98l-907 -1266v-6h940v-94h-1063v104l905 1262v6z" />
    <glyph glyph-name="bracketleft" unicode="[" horiz-adv-x="577" 
d="M168 1544h338v-92h-236v-1599h236v-95h-338v1786z" />
    <glyph glyph-name="backslash" unicode="\" horiz-adv-x="753" 
d="M33 1464h106l582 -1464h-107z" />
    <glyph glyph-name="bracketright" unicode="]" horiz-adv-x="577" 
d="M410 -242h-338v95h235v1599h-235v92h338v-1786z" />
    <glyph glyph-name="asciicircum" unicode="^" horiz-adv-x="780" 
d="M25 938l307 526h117l307 -526h-109l-256 444h-4l-254 -444h-108z" />
    <glyph glyph-name="underscore" unicode="_" horiz-adv-x="753" 
d="M-4 -256h762v-84h-762v84z" />
    <glyph glyph-name="grave" unicode="`" 
d="M506 1204l-207 260h141l156 -260h-90z" />
    <glyph glyph-name="a" unicode="a" horiz-adv-x="1007" 
d="M414 57q70 0 140.5 28t144 97t73.5 195v196q-55 -29 -134 -41t-155 -21q-176 -21 -254.5 -64.5t-78.5 -182.5q0 -207 264 -207zM908 -16q-56 0 -95 34.5t-39 108.5v37h-6q-62 -83 -150.5 -137t-232.5 -54q-236 0 -287 110.5t-51 194.5q0 160 110 228.5t301 85.5t239 36
t61.5 41.5t13.5 59.5v37q0 121 -68.5 175t-197.5 54q-297 0 -320 -237h-102q16 154 119.5 238.5t302.5 84.5q366 0 366 -321v-623q0 -74 68 -74q18 0 49 11h6v-74q-31 -16 -87 -16z" />
    <glyph glyph-name="b" unicode="b" horiz-adv-x="1056" 
d="M777 132.5q126 75.5 126 398.5q0 209 -89 336.5t-256 127.5t-266 -131.5t-99 -341.5t97.5 -337.5t272.5 -127.5q88 0 214 75.5zM203 174v-174h-101v1464h101v-608h4q53 100 144 162.5t205 62.5q214 0 332 -150.5t118 -398.5t-118 -403.5t-339 -155.5t-342 201h-4z" />
    <glyph glyph-name="c" unicode="c" horiz-adv-x="966" 
d="M514 995q-184 0 -272 -131.5t-88 -335.5t89.5 -335.5t268.5 -131.5q139 0 225 83t103 214h94q-20 -174 -131.5 -279.5t-290.5 -105.5q-221 0 -341 153t-120 400t121 401t342 154q166 0 274.5 -84t133.5 -243h-99q-51 241 -309 241z" />
    <glyph glyph-name="d" unicode="d" horiz-adv-x="1060" 
d="M868 521q0 211 -95 342.5t-263 131.5t-262 -128.5t-94 -336.5t88 -340.5t258 -132.5t269 126.5t99 337.5zM854 176q-122 -203 -343 -203t-340.5 155t-119.5 404t126 399t319 150q252 0 358 -215h4v598h100v-1464h-100v176h-4z" />
    <glyph glyph-name="e" unicode="e" horiz-adv-x="1005" 
d="M523 995q-167 0 -258.5 -109t-108.5 -286h696q-7 271 -124.5 333t-204.5 62zM530 61q245 0 322 254h96q-52 -240 -191 -291t-241 -51t-191 41t-150.5 115t-92.5 175.5t-31 286.5t129.5 337.5t341.5 152.5q169 0 268 -92t132.5 -205.5t31.5 -265.5h-800q0 -315 139 -386
t237 -71z" />
    <glyph glyph-name="f" unicode="f" horiz-adv-x="516" 
d="M25 1059h157v201q0 213 228 213h63v-89h-57q-78 0 -105.5 -33.5t-27.5 -93.5v-198h196v-84h-196v-975h-101v975h-157v84z" />
    <glyph glyph-name="g" unicode="g" horiz-adv-x="1058" 
d="M771 213q93 119 93 325t-91.5 331.5t-258.5 125.5t-263.5 -125t-96.5 -326t88.5 -325.5t262.5 -124.5q173 0 266 119zM850 209q-120 -199 -340 -199q-219 0 -339 146.5t-120 390.5t129.5 389t325.5 145q129 0 210 -56t134 -148h6v182h100v-1028q0 -180 -104 -291
q-124 -123 -330 -123q-285 0 -348 106.5t-70 159.5h101q23 -96 107 -138t186 -42q184 0 271 87t87 239v180h-6z" />
    <glyph glyph-name="h" unicode="h" horiz-adv-x="1003" 
d="M213 881h4q53 86 143.5 142t225.5 56q220 0 271.5 -121.5t51.5 -201.5v-756h-100v745q0 131 -65.5 189.5t-157.5 58.5q-162 0 -267.5 -89.5t-105.5 -219.5v-684h-100v1464h100v-583z" />
    <glyph glyph-name="i" unicode="i" horiz-adv-x="317" 
d="M109 1464h100v-164h-100v164zM109 1059h100v-1059h-100v1059z" />
    <glyph glyph-name="j" unicode="j" horiz-adv-x="317" 
d="M109 1464h100v-164h-100v164zM-31 -254h21q61 0 90 30.5t29 102.5v1180h100v-1182q0 -117 -53.5 -167t-159.5 -50h-27v86z" />
    <glyph glyph-name="k" unicode="k" horiz-adv-x="956" 
d="M203 0h-101v1464h101v-952l569 547h127l-403 -383l452 -676h-114l-410 608l-221 -213v-395z" />
    <glyph glyph-name="l" unicode="l" horiz-adv-x="317" 
d="M109 1464h100v-1464h-100v1464z" />
    <glyph glyph-name="m" unicode="m" horiz-adv-x="1591" 
d="M207 893q119 186 315 186q110 0 189.5 -48t109.5 -146h6q112 194 351 194q139 0 229 -86t90 -237v-756h-100v745q0 131 -65.5 189.5t-187.5 58.5t-208 -81t-86 -228v-684h-100v745q0 131 -67 189.5t-147 58.5q-147 0 -240 -90.5t-93 -218.5v-684h-101v1059h101v-166h4z
" />
    <glyph glyph-name="n" unicode="n" horiz-adv-x="993" 
d="M207 881q122 198 355 198t285 -121.5t52 -201.5v-756h-100v745q0 131 -65.5 189.5t-157.5 58.5q-164 0 -268.5 -90t-104.5 -219v-684h-101v1059h101v-178h4z" />
    <glyph glyph-name="o" unicode="o" horiz-adv-x="1052" 
d="M526 59q92 0 162 37t117 100.5t70.5 149.5t23.5 182.5t-23.5 182.5t-70.5 149.5t-117 100t-162 36.5t-161.5 -36.5t-116.5 -100t-70.5 -149.5t-23.5 -182.5t23.5 -182.5t70.5 -149.5t116.5 -100.5t161.5 -37zM51 528q0 243 129.5 398t347.5 155q217 0 345 -153t128 -400
t-128 -401t-346 -154q-217 0 -346.5 156t-129.5 399z" />
    <glyph glyph-name="p" unicode="p" horiz-adv-x="1056" 
d="M193 523q0 -210 96 -336t267 -126t259 132.5t88 340.5t-88 334.5t-256 126.5q-167 0 -266.5 -131t-99.5 -341zM203 174v-514h-101v1399h101v-203h4q117 225 371 225q190 0 309 -147.5t119 -396.5t-118 -404.5t-319 -155.5q-240 0 -362 197h-4z" />
    <glyph glyph-name="q" unicode="q" horiz-adv-x="1060" 
d="M498 61q174 0 272 126.5t98 335.5t-95 340.5t-262 131.5q-166 0 -261.5 -128t-95.5 -343q0 -318 128 -390.5t216 -72.5zM502 1081q237 0 352 -207h4v185h100v-1399h-100v516h-4q-120 -199 -358 -199q-211 0 -328 154.5t-117 401.5t128.5 397.5t322.5 150.5z" />
    <glyph glyph-name="r" unicode="r" horiz-adv-x="583" 
d="M203 850h4q57 115 149 168q76 47 195 47v-100q-191 4 -269.5 -116t-78.5 -237v-612h-101v1059h101v-209z" />
    <glyph glyph-name="s" unicode="s" horiz-adv-x="886" 
d="M454 59q134 0 208.5 61.5t74.5 157.5t-59.5 140t-185.5 73q-125 29 -273.5 76.5t-148.5 231.5q0 129 102.5 205.5t257.5 76.5q255 0 311 -118.5t66 -182.5h-98q-10 102 -84 157.5t-199 55.5t-190.5 -54t-65.5 -140t73 -128t198 -69q124 -28 188.5 -51t136.5 -75.5
t72 -188.5q0 -137 -104.5 -225.5t-286.5 -88.5q-188 0 -295.5 98t-116.5 248h102q10 -131 96.5 -195.5t220.5 -64.5z" />
    <glyph glyph-name="t" unicode="t" horiz-adv-x="544" 
d="M193 172v803h-164v84h164v319h100v-319h192v-84h-192v-795q0 -59 23.5 -80.5t74.5 -21.5t82 18h6v-86q-45 -18 -117 -18t-120.5 43t-48.5 137z" />
    <glyph glyph-name="u" unicode="u" horiz-adv-x="980" 
d="M778 0v162h-4q-64 -92 -140.5 -139.5t-212.5 -47.5t-231.5 86.5t-95.5 241.5v756h101v-746q0 -131 69.5 -191.5t197.5 -60.5t222 93.5t94 234.5v670h101v-1059h-101z" />
    <glyph glyph-name="v" unicode="v" horiz-adv-x="925" 
d="M18 1059h107l233 -672q14 -41 34.5 -107t62.5 -190h4q15 56 33 106t34.5 100t32.5 91l246 672h102l-387 -1059h-125z" />
    <glyph glyph-name="w" unicode="w" horiz-adv-x="1423" 
d="M29 1059h104l180 -656q33 -128 47 -190q14 -63 29 -121h4q25 115 45.5 185.5t30.5 111.5l182 670h113l176 -670q10 -41 22.5 -91t23.5 -100t26 -106h4q43 177 84 311l194 656h101l-324 -1059h-121l-184 700q-27 112 -37 161q-10 48 -20 91h-4q-30 -129 -60 -252
l-190 -700h-125z" />
    <glyph glyph-name="x" unicode="x" horiz-adv-x="954" 
d="M414 563l-355 496h119l293 -424h4l285 424h117l-340 -494l399 -565h-119l-340 494h-4l-338 -494h-117z" />
    <glyph glyph-name="y" unicode="y" horiz-adv-x="931" 
d="M211 -258q134 0 184 154l31 88l-406 1075h105l258 -701q14 -41 34 -96t58 -168h4q13 45 27 89t29.5 89t29.5 86l246 701h102l-426 -1186q-47 -129 -114 -176t-176 -47q-32 0 -80 12v90h4q30 -10 90 -10z" />
    <glyph glyph-name="z" unicode="z" horiz-adv-x="882" 
d="M688 971h-594v88h721v-84l-645 -881v-6h661v-88h-782v92l639 873v6z" />
    <glyph glyph-name="braceleft" unicode="{" horiz-adv-x="577" 
d="M190 1290q0 254 248 254h37v-92h-33q-78 0 -113.5 -36t-35.5 -128v-444q0 -80 -27.5 -123t-87.5 -59v-5q59 -16 87 -59t28 -123v-461q0 -92 36 -126.5t113 -34.5h33v-95h-37q-248 0 -248 254v455q0 72 -29.5 107.5t-111.5 37.5v95q82 2 111.5 37.5t29.5 107.5v438z" />
    <glyph glyph-name="bar" unicode="|" horiz-adv-x="411" 
d="M158 1544h96v-1786h-96v1786z" />
    <glyph glyph-name="braceright" unicode="}" horiz-adv-x="577" 
d="M387 12q0 -254 -248 -254h-37v95h33q78 0 114 34.5t36 126.5v461q0 80 27.5 123t86.5 59v5q-59 16 -86.5 59t-27.5 123v444q0 92 -36 128t-114 36h-33v92h37q248 0 248 -254v-438q0 -72 29.5 -107.5t111.5 -37.5v-95q-82 -2 -111.5 -37.5t-29.5 -107.5v-455z" />
    <glyph glyph-name="asciitilde" unicode="~" horiz-adv-x="776" 
d="M249 696q-30 0 -52.5 -26.5t-26.5 -79.5h-92q8 102 56 151.5t106 49.5t97.5 -19.5t93.5 -54.5t88 -35t58.5 25.5t28.5 78.5h92q-6 -98 -55 -148t-115 -50t-126 37t-91.5 54t-61.5 17z" />
    <glyph glyph-name="uni00A0" unicode="&#xa0;" horiz-adv-x="329" 
 />
    <glyph glyph-name="exclamdown" unicode="&#xa1;" horiz-adv-x="403" 
d="M264 1042h-125v162h125v-162zM258 -260h-113v469l21 641h72l20 -641v-469z" />
    <glyph glyph-name="cent" unicode="&#xa2;" horiz-adv-x="980" 
d="M233.5 208.5q77.5 -128.5 237.5 -145.5v930q-159 -19 -237 -144t-78 -319q0 -193 77.5 -321.5zM53 528q0 235 109 385t309 166v131h82v-131q152 -10 250 -92t121 -233h-99q-48 223 -272 239v-930q123 12 197.5 92.5t91.5 202.5h94q-31 -256 -166 -316t-217 -67v-149h-82
v149q-199 15 -308.5 166.5t-109.5 386.5z" />
    <glyph glyph-name="sterling" unicode="&#xa3;" horiz-adv-x="1073" 
d="M283 440q0 106 -35 201h-172v86h141q-29 72 -52.5 146.5t-23.5 155.5q0 168 110 285.5t304 117.5t311 -116t121 -317h-100q-4 173 -97 257.5t-239 84.5t-225.5 -86t-79.5 -223q0 -76 25.5 -151.5t54.5 -153.5h350v-86h-322q25 -102 25 -162q0 -227 -146 -352l3 -4
q76 41 137 41t106 -14.5t122.5 -46t146.5 -31.5q105 0 210 100l58 -76q-59 -53 -119.5 -84.5t-142.5 -31.5t-128 15t-86 33.5t-82 34t-103.5 15.5t-118 -29t-103.5 -59l-59 90q209 153 209 360z" />
    <glyph glyph-name="currency" unicode="&#xa4;" horiz-adv-x="997" 
d="M498 1137q153 0 254 -88l151 161l62 -61l-154 -164q78 -106 78 -266t-80 -275l156 -163l-62 -62l-151 162q-105 -88 -255 -88t-251 88l-152 -162l-61 62l153 165q-78 109 -78 269t78 268l-153 166l61 61l150 -161q101 88 254 88zM711.5 960.5q-74.5 96.5 -212.5 96.5
t-214 -96.5t-76 -243t76 -242.5t214 -96t212.5 95.5t74.5 242.5t-74.5 243.5z" />
    <glyph glyph-name="yen" unicode="&#xa5;" horiz-adv-x="1085" 
d="M119 668h348l-442 737h118l398 -678h4l403 678h113l-445 -737h347v-84h-371v-154h371v-84h-371v-346h-103v346h-370v84h370v154h-370v84z" />
    <glyph glyph-name="brokenbar" unicode="&#xa6;" horiz-adv-x="411" 
d="M158 1544h96v-809h-96v809zM254 -242h-96v842h96v-842z" />
    <glyph glyph-name="section" unicode="&#xa7;" horiz-adv-x="1122" 
d="M958 380q0 60 -24.5 104t-70.5 84t-114.5 79t-190.5 106t-200 121q-195 -41 -194 -206q0 -106 80.5 -174.5t273.5 -175.5t248 -148q109 29 150.5 89.5t41.5 120.5zM922 -93q0 -120 -88 -200t-262 -80t-288 110.5t-118 266.5h108q6 -123 87 -203t219 -80q233 0 233 195
q0 82 -55 128t-205 133q-149 87 -230 137.5t-173.5 131.5t-92.5 216q0 207 230 276q-76 84 -76 205q0 120 94 204.5t256 84.5t263.5 -97t109.5 -250h-109q-8 121 -81.5 186.5t-191.5 65.5t-175.5 -58t-57.5 -148t64.5 -145t204.5 -131q139 -77 308 -173.5t169 -298.5
t-227 -272q84 -84 84 -204z" />
    <glyph glyph-name="dieresis" unicode="&#xa8;" horiz-adv-x="1064" 
d="M637 1464h100v-164h-100v164zM328 1464h100v-164h-100v164z" />
    <glyph glyph-name="copyright" unicode="&#xa9;" horiz-adv-x="1662" 
d="M835 250q-187 0 -302 132t-115 347t114.5 348t307.5 133q147 0 240.5 -77.5t115.5 -206.5h-102q-16 88 -82 142t-159 54q-165 0 -247 -111.5t-82 -282.5t81.5 -280.5t218.5 -109.5t206.5 72.5t79.5 183.5h100q-4 -66 -61 -205t-314 -139zM831.5 31q289.5 0 476.5 198.5
t187 497.5t-186.5 498.5t-477 199.5t-477 -199.5t-186.5 -498.5t187 -497.5t476.5 -198.5zM830 -35q-157 0 -292 57.5t-236 159t-158.5 241.5t-57.5 304t57.5 304t215 300t472.5 160q156 0 292.5 -57.5t237.5 -160t158.5 -242.5t57.5 -304t-57.5 -304t-158.5 -241.5
t-237.5 -159t-293.5 -57.5z" />
    <glyph glyph-name="ordfeminine" unicode="&#xaa;" horiz-adv-x="948" 
d="M707 821v166q-69 -34 -189 -47q-120 -14 -171.5 -24.5t-109 -42.5t-57.5 -134t59.5 -145t145.5 -43q154 0 238 80t84 190zM707 1153q0 197 -231 197t-255 -205h-98q16 135 105 211t248 76q329 0 329 -287v-516q0 -72 65 -72q18 0 50 10h6v-73q-34 -17 -88 -17t-92.5 34
t-38.5 105v13h-5q-53 -72 -126 -117t-198 -45t-213.5 68t-88.5 194q0 211 148.5 243t224.5 39q156 14 207 36.5t51 82.5v23z" />
    <glyph glyph-name="guillemotleft" unicode="&#xab;" horiz-adv-x="823" 
d="M123 487v138l254 229v-127l-191 -170v-4l191 -168v-127zM446 487v138l254 229v-127l-190 -170v-4l190 -168v-127z" />
    <glyph glyph-name="logicalnot" unicode="&#xac;" horiz-adv-x="1044" 
d="M115 760h774v-484h-103v390h-671v94z" />
    <glyph glyph-name="uni00AD" unicode="&#xad;" horiz-adv-x="643" 
d="M68 623h507v-91h-507v91z" />
    <glyph glyph-name="registered" unicode="&#xae;" horiz-adv-x="1081" 
d="M573 1028q101 0 101 88t-99 88h-143v-176h141zM756 1124q0 -100 -99 -129v-2q41 -10 59.5 -38.5t23.5 -84.5t8.5 -90.5t13.5 -40.5v-4h-80q-10 4 -14 37t-9 86q-2 104 -108 105h-119v-228h-82v537h242q74 0 119 -41t45 -107zM541 561q90 0 165.5 33t130 90t85 137
t30.5 174.5t-30.5 173t-85 137t-130 91.5t-165.5 33t-166 -33t-130.5 -91.5t-85 -137t-30.5 -173t30.5 -174.5t85 -137t130.5 -90t166 -33zM55 996q0 212 141.5 353.5t344 141.5t344 -141.5t141.5 -353.5t-139 -354t-346.5 -142t-346.5 142t-139 354z" />
    <glyph glyph-name="macron" unicode="&#xaf;" 
d="M264 1391h496v-101h-496v101z" />
    <glyph glyph-name="degree" unicode="&#xb0;" horiz-adv-x="651" 
d="M327 1022q69 0 108.5 47t39.5 119t-40.5 119t-108.5 47t-109 -47t-41 -119t41 -119t110 -47zM325.5 944q-51.5 0 -95.5 19.5t-76.5 52.5t-51 77t-18.5 95t18.5 95t51 77t76.5 52.5t95.5 19.5t95.5 -19.5t76.5 -52.5t51 -77t18.5 -95t-18.5 -95t-51 -77t-76.5 -52.5
t-95.5 -19.5z" />
    <glyph glyph-name="plusminus" unicode="&#xb1;" horiz-adv-x="1044" 
d="M115 94h815v-94h-815v94zM115 735h356v363h102v-363h357v-94h-357v-369h-102v369h-356v94z" />
    <glyph glyph-name="twosuperior" unicode="&#xb2;" horiz-adv-x="681" 
d="M516 1254q0 62 -44 104.5t-121 42.5t-124 -50.5t-51 -150.5h-90q0 139 77 210t193 71t186 -68t70 -174q0 -147 -94 -206t-132 -83q-93 -57 -145 -104.5t-63 -116.5h430v-80h-545q5 181 125 266.5t182 123.5t88.5 63.5t42 57.5t15.5 94z" />
    <glyph glyph-name="threesuperior" unicode="&#xb3;" horiz-adv-x="696" 
d="M598 1264q0 -128 -123 -177v-4q154 -47 154 -209q0 -117 -79 -179t-205 -62t-207 73.5t-81 196.5h95q4 -92 55 -141t140 -49t136 45t47 122.5t-48 119.5t-136 42h-57v76h55q76 0 118 39t42 107t-44 105.5t-121 37.5t-120 -53.5t-45 -130.5h-90q2 115 71 186.5t185 71.5
t187 -57.5t71 -159.5z" />
    <glyph glyph-name="acute" unicode="&#xb4;" 
d="M584 1464h141l-207 -260h-90z" />
    <glyph glyph-name="mu" unicode="&#xb5;" horiz-adv-x="989" 
d="M203 86v-426h-101v1399h101v-746q0 -131 69.5 -191.5t197.5 -60.5t222 93.5t94 234.5v670h101v-1059h-101v162h-4q-64 -92 -140.5 -139.5t-199.5 -47.5q-157 0 -235 111h-4z" />
    <glyph glyph-name="paragraph" unicode="&#xb6;" horiz-adv-x="995" 
d="M440 782q-190 0 -285.5 91.5t-95.5 246.5q1 156 95 250t272 94h442v-1464h-106v1362h-152v-1362h-106v782h-64z" />
    <glyph glyph-name="periodcentered" unicode="&#xb7;" horiz-adv-x="292" 
d="M84 717h125v-162h-125v162z" />
    <glyph glyph-name="cedilla" unicode="&#xb8;" 
d="M547.5 -219q0.5 47 -79.5 47q-32 0 -89 -14l-27 45l146 141h96l-113 -102v-4q72 4 118 -29t46 -101t-55 -104.5t-148 -36.5t-176 45l27 51q76 -26 135 -26t89 20.5t30.5 67.5z" />
    <glyph glyph-name="onesuperior" unicode="&#xb9;" horiz-adv-x="528" 
d="M248 1253h-180v66q92 2 139 34.5t59 116.5h76v-821h-94v604z" />
    <glyph glyph-name="ordmasculine" unicode="&#xba;" horiz-adv-x="940" 
d="M702.5 664q83.5 113 83.5 286q0 174 -83.5 288t-233.5 114t-233.5 -114t-83.5 -288t83.5 -286.5t233.5 -112.5t233.5 113zM471 467q-98 0 -177 37t-132 101.5t-82 152.5t-29 192.5t29 192.5t82 152.5t132 100.5t177 36t176 -36t131 -100.5t82 -152.5t29 -192.5
t-29 -192.5t-82 -152.5t-131 -101.5t-176 -37z" />
    <glyph glyph-name="guillemotright" unicode="&#xbb;" horiz-adv-x="823" 
d="M700 625v-138l-254 -229v127l191 170v4l-191 168v127zM377 625v-138l-254 -229v127l190 170v4l-190 168v127z" />
    <glyph glyph-name="onequarter" unicode="&#xbc;" horiz-adv-x="1441" 
d="M868 279h295v405h-2l-293 -401v-4zM1163 203h-379v92l383 528h88v-544h123v-76h-123v-203h-92v203zM1171 1464h109l-1049 -1464h-108zM258 1253h-180v66q92 2 139 34.5t59 116.5h76v-821h-94v604z" />
    <glyph glyph-name="onehalf" unicode="&#xbd;" horiz-adv-x="1521" 
d="M258 1253h-180v66q92 2 139 34.5t59 116.5h76v-821h-94v604zM1153 1464h109l-1049 -1464h-109zM1346 606q0 62 -45 104t-121 42t-123 -50.5t-51 -150.5h-91q0 139 77 209.5t193 70.5t186.5 -68t70.5 -173q0 -147 -94.5 -206.5t-132.5 -83.5q-89 -55 -142.5 -102.5
t-64.5 -117.5h430v-80h-545q5 181 115.5 259.5t182 123.5t98 70.5t42 58t15.5 94.5z" />
    <glyph glyph-name="threequarters" unicode="&#xbe;" horiz-adv-x="1576" 
d="M1004 279h294v405h-2l-292 -401v-4zM1298 203h-378v92l383 528h88v-544h122v-76h-122v-203h-93v203zM1319 1464h108l-1048 -1464h-109zM608 1264q0 -129 -123 -177v-4q154 -47 154 -209q0 -117 -79 -179t-205 -62t-206.5 74t-80.5 196h94q4 -92 55 -141t140 -49t136.5 45
t47.5 122.5t-48.5 119.5t-136.5 42h-57v76h55q76 0 118 39t42 107t-44 105.5t-121 37.5t-120 -53.5t-45 -130.5h-90q2 115 71 186.5t185 71.5t187 -57.5t71 -159.5z" />
    <glyph glyph-name="questiondown" unicode="&#xbf;" horiz-adv-x="1009" 
d="M616 1042h-124v162h124v-162zM604 850q0 -171 -44.5 -260.5t-151.5 -177.5t-154 -152.5t-47 -187.5t81 -194t222 -71t231.5 96.5t94.5 241.5h104q0 -174 -116.5 -303t-334.5 -129q-175 0 -283 104t-108 261q0 202 138.5 318t174 154t64.5 96t29 204h100z" />
    <glyph glyph-name="Agrave" unicode="&#xc0;" horiz-adv-x="1277" 
d="M612 1542l-206 225h141l155 -225h-90zM336 559h604l-221 582q-62 160 -80 217h-4l-25 -74q-10 -33 -24.5 -70.5t-26.5 -72.5zM578 1464h120l568 -1464h-111l-180 469h-674l-180 -469h-109z" />
    <glyph glyph-name="Aacute" unicode="&#xc1;" horiz-adv-x="1277" 
d="M729 1767h141l-206 -225h-91zM336 559h604l-221 582q-62 160 -80 217h-4l-25 -74q-10 -33 -24.5 -70.5t-26.5 -72.5zM578 1464h120l568 -1464h-111l-180 469h-674l-180 -469h-109z" />
    <glyph glyph-name="Acircumflex" unicode="&#xc2;" horiz-adv-x="1277" 
d="M575 1747h127l193 -207h-121l-135 146h-4l-137 -146h-115zM336 559h604l-221 582q-62 160 -80 217h-4l-25 -74q-10 -33 -24.5 -70.5t-26.5 -72.5zM578 1464h120l568 -1464h-111l-180 469h-674l-180 -469h-109z" />
    <glyph glyph-name="Atilde" unicode="&#xc3;" horiz-adv-x="1277" 
d="M774 1556q-45 0 -78.5 13.5t-64.5 31t-59.5 31t-51 13.5t-41 -21.5t-22.5 -62.5h-86q8 88 49 130t87 42t77.5 -13.5t85.5 -44t86 -30.5q59 0 67 84h86q-6 -86 -48 -129.5t-87 -43.5zM336 559h604l-221 582q-62 160 -80 217h-4l-25 -74q-10 -33 -24.5 -70.5t-26.5 -72.5z
M578 1464h120l568 -1464h-111l-180 469h-674l-180 -469h-109z" />
    <glyph glyph-name="Adieresis" unicode="&#xc4;" horiz-adv-x="1277" 
d="M743 1710h101v-164h-101v164zM434 1710h101v-164h-101v164zM336 559h604l-221 582q-62 160 -80 217h-4l-25 -74q-10 -33 -24.5 -70.5t-26.5 -72.5zM578 1464h120l568 -1464h-111l-180 469h-674l-180 -469h-109z" />
    <glyph glyph-name="Aring" unicode="&#xc5;" horiz-adv-x="1277" 
d="M639 1587q45 0 72.5 31t27.5 76t-27.5 75.5t-72.5 30.5t-72.5 -30.5t-27.5 -75.5t27.5 -76t72.5 -31zM639 1520q-37 0 -69.5 13t-56.5 36.5t-38 55.5t-14 69t14 68.5t38 55t56.5 37t69.5 13.5t69.5 -13.5t56 -37t38 -55t14.5 -68.5t-14.5 -69t-38 -55.5t-56 -36.5
t-69.5 -13zM336 559h604l-221 582q-62 160 -80 217h-4l-25 -74q-10 -33 -24.5 -70.5t-26.5 -72.5zM578 1464h120l568 -1464h-111l-180 469h-674l-180 -469h-109z" />
    <glyph glyph-name="AE" unicode="&#xc6;" horiz-adv-x="1935" 
d="M952 559v811h-258l-336 -811h594zM1059 709v-611h803v-98h-910v469h-630l-195 -469h-109l609 1464h1214v-94h-782v-569h713v-92h-713z" />
    <glyph glyph-name="Ccedilla" unicode="&#xc7;" horiz-adv-x="1343" 
d="M743 -219q0 47 -78 47q-31 0 -90 -14l-26 45l119 116q-279 12 -438.5 219.5t-159.5 542.5t175 545.5t470 210.5q217 0 360.5 -111.5t186.5 -318.5h-107q-31 150 -143.5 244t-296.5 94q-258 0 -396.5 -189.5t-138.5 -481.5t136 -477t393 -185q209 0 334.5 129.5
t146.5 332.5h100q-33 -365 -218 -454.5t-308 -100.5l-86 -77v-4q72 4 118 -29t46 -101t-55.5 -104.5t-148.5 -36.5t-175 45l26 51q76 -26 135 -26q60 0 89.5 20.5t29.5 67.5z" />
    <glyph glyph-name="Egrave" unicode="&#xc8;" horiz-adv-x="1191" 
d="M610 1542l-207 225h142l155 -225h-90zM127 1464h971v-94h-865v-569h795v-92h-795v-611h885v-98h-991v1464z" />
    <glyph glyph-name="Eacute" unicode="&#xc9;" horiz-adv-x="1191" 
d="M727 1767h141l-206 -225h-91zM127 1464h971v-94h-865v-569h795v-92h-795v-611h885v-98h-991v1464z" />
    <glyph glyph-name="Ecircumflex" unicode="&#xca;" horiz-adv-x="1191" 
d="M573 1747h127l193 -207h-121l-135 146h-4l-137 -146h-115zM127 1464h971v-94h-865v-569h795v-92h-795v-611h885v-98h-991v1464z" />
    <glyph glyph-name="Edieresis" unicode="&#xcb;" horiz-adv-x="1191" 
d="M741 1710h101v-164h-101v164zM432 1710h100v-164h-100v164zM127 1464h971v-94h-865v-569h795v-92h-795v-611h885v-98h-991v1464z" />
    <glyph glyph-name="Igrave" unicode="&#xcc;" horiz-adv-x="376" 
d="M145 1542l-206 225h141l156 -225h-91zM135 1464h107v-1464h-107v1464z" />
    <glyph glyph-name="Iacute" unicode="&#xcd;" horiz-adv-x="376" 
d="M295 1767h141l-207 -225h-90zM135 1464h107v-1464h-107v1464z" />
    <glyph glyph-name="Icircumflex" unicode="&#xce;" horiz-adv-x="376" 
d="M125 1747h127l192 -207h-120l-136 146h-4l-137 -146h-115zM135 1464h107v-1464h-107v1464z" />
    <glyph glyph-name="Idieresis" unicode="&#xcf;" horiz-adv-x="376" 
d="M293 1710h100v-164h-100v164zM-16 1710h100v-164h-100v164zM135 1464h107v-1464h-107v1464z" />
    <glyph glyph-name="Eth" unicode="&#xd0;" horiz-adv-x="1351" 
d="M641 94q260 0 389 166t129 547.5t-185.5 471t-318.5 89.5h-401v-588h528v-92h-528v-594h387zM2 780h145v684h512q311 0 461 -200.5t150 -535t-157.5 -531.5t-467.5 -197h-498v688h-145v92z" />
    <glyph glyph-name="Ntilde" unicode="&#xd1;" horiz-adv-x="1329" 
d="M835 1556q-45 0 -78.5 13.5t-64 31t-59.5 31t-51.5 13.5t-41 -21.5t-22.5 -62.5h-86q8 88 49 130t87 42q62 0 139 -44t107 -44q63 0 71 84h86q-6 -86 -48.5 -129.5t-87.5 -43.5zM127 1464h119l680 -1034q33 -51 64.5 -99t55.5 -92t50 -85h4v1310h102v-1464h-112
l-672 1012q-125 189 -185 293h-4v-1305h-102v1464z" />
    <glyph glyph-name="Ograve" unicode="&#xd2;" horiz-adv-x="1454" 
d="M707 1542l-207 225h141l156 -225h-90zM725 70q133 0 235.5 52t172 143t105.5 212t36 256t-36 256t-105.5 212t-172 143.5t-235.5 52.5t-235.5 -52.5t-171 -143.5t-103.5 -212t-35 -256t35 -256t103.5 -212t171 -143t235.5 -52zM70 734q0 331 180.5 545t475.5 214
t476.5 -215t181.5 -544t-181 -545t-477 -216t-476 215t-180 546z" />
    <glyph glyph-name="Oacute" unicode="&#xd3;" horiz-adv-x="1454" 
d="M811 1767h141l-207 -225h-90zM725 70q133 0 235.5 52t172 143t105.5 212t36 256t-36 256t-105.5 212t-172 143.5t-235.5 52.5t-235.5 -52.5t-171 -143.5t-103.5 -212t-35 -256t35 -256t103.5 -212t171 -143t235.5 -52zM70 734q0 331 180.5 545t475.5 214t476.5 -215
t181.5 -544t-181 -545t-477 -216t-476 215t-180 546z" />
    <glyph glyph-name="Ocircumflex" unicode="&#xd4;" horiz-adv-x="1454" 
d="M664 1747h127l192 -207h-121l-135 146h-4l-137 -146h-115zM725 70q133 0 235.5 52t172 143t105.5 212t36 256t-36 256t-105.5 212t-172 143.5t-235.5 52.5t-235.5 -52.5t-171 -143.5t-103.5 -212t-35 -256t35 -256t103.5 -212t171 -143t235.5 -52zM70 734
q0 331 180.5 545t475.5 214t476.5 -215t181.5 -544t-181 -545t-477 -216t-476 215t-180 546z" />
    <glyph glyph-name="Otilde" unicode="&#xd5;" horiz-adv-x="1454" 
d="M844 1645q59 0 67 84h86q-6 -86 -48 -129.5t-87 -43.5t-78.5 13.5t-64.5 31t-59.5 31t-51 13.5t-41 -21.5t-22.5 -62.5h-86q8 88 49 130t87 42q63 0 139.5 -44t109.5 -44zM725 70q133 0 235.5 52t172 143t105.5 212t36 256t-36 256t-105.5 212t-172 143.5t-235.5 52.5
t-235.5 -52.5t-171 -143.5t-103.5 -212t-35 -256t35 -256t103.5 -212t171 -143t235.5 -52zM70 734q0 331 180.5 545t475.5 214t476.5 -215t181.5 -544t-181 -545t-477 -216t-476 215t-180 546z" />
    <glyph glyph-name="Odieresis" unicode="&#xd6;" horiz-adv-x="1454" 
d="M831 1710h101v-164h-101v164zM522 1710h101v-164h-101v164zM725 70q133 0 235.5 52t172 143t105.5 212t36 256t-36 256t-105.5 212t-172 143.5t-235.5 52.5t-235.5 -52.5t-171 -143.5t-103.5 -212t-35 -256t35 -256t103.5 -212t171 -143t235.5 -52zM70 734
q0 331 180.5 545t475.5 214t476.5 -215t181.5 -544t-181 -545t-477 -216t-476 215t-180 546z" />
    <glyph glyph-name="multiply" unicode="&#xd7;" horiz-adv-x="1038" 
d="M227 1032l291 -303l293 303l66 -65l-293 -303l293 -304l-66 -65l-293 301l-291 -301l-65 65l293 304l-293 303z" />
    <glyph glyph-name="Oslash" unicode="&#xd8;" horiz-adv-x="1454" 
d="M342 236q149 -166 395 -166t391.5 190t145.5 456t-113 443zM1112 1225q-150 172 -398 172t-391 -190t-143 -461t113 -445zM223 223q-153 207 -153 524q0 318 180.5 532t465.5 214t464 -193l170 193l59 -55l-176 -199q151 -210 151 -522t-181 -528t-464 -216
q-282 0 -465 187l-170 -193l-59 56z" />
    <glyph glyph-name="Ugrave" unicode="&#xd9;" horiz-adv-x="1273" 
d="M610 1542l-207 225h142l155 -225h-90zM637 72q416 0 416 397v995h106v-1003q0 -242 -141.5 -363t-383.5 -121q-243 0 -381 120t-138 364v1003h106v-995q0 -215 107.5 -306t308.5 -91z" />
    <glyph glyph-name="Uacute" unicode="&#xda;" horiz-adv-x="1273" 
d="M727 1767h141l-206 -225h-91zM637 72q416 0 416 397v995h106v-1003q0 -242 -141.5 -363t-383.5 -121q-243 0 -381 120t-138 364v1003h106v-995q0 -215 107.5 -306t308.5 -91z" />
    <glyph glyph-name="Ucircumflex" unicode="&#xdb;" horiz-adv-x="1273" 
d="M573 1747h127l193 -207h-121l-135 146h-4l-137 -146h-115zM637 72q416 0 416 397v995h106v-1003q0 -242 -141.5 -363t-383.5 -121q-243 0 -381 120t-138 364v1003h106v-995q0 -215 107.5 -306t308.5 -91z" />
    <glyph glyph-name="Udieresis" unicode="&#xdc;" horiz-adv-x="1273" 
d="M741 1710h101v-164h-101v164zM432 1710h100v-164h-100v164zM637 72q416 0 416 397v995h106v-1003q0 -242 -141.5 -363t-383.5 -121q-243 0 -381 120t-138 364v1003h106v-995q0 -215 107.5 -306t308.5 -91z" />
    <glyph glyph-name="Yacute" unicode="&#xdd;" horiz-adv-x="1185" 
d="M682 1767h141l-207 -225h-90zM645 0h-106v651l-529 813h117l465 -716h4l465 716h115l-531 -817v-647z" />
    <glyph glyph-name="Thorn" unicode="&#xde;" horiz-adv-x="1183" 
d="M233 1085v-620h424q195 0 277 84t82 230t-86 226t-258 80h-439zM1124 780q0 -409 -458 -409h-433v-371h-106v1464h106v-282h447q123 0 283.5 -61t160.5 -341z" />
    <glyph glyph-name="germandbls" unicode="&#xdf;" horiz-adv-x="960" 
d="M829 1137q0 -233 -198 -308v-4q129 -41 203.5 -141t74.5 -260q0 -210 -114 -322t-306 -112q-62 0 -118 14v86h4q50 -12 102 -12q152 0 240 87t88 250t-84 262t-248 99h-88v84h94q182 0 216 109.5t34 165.5q0 117 -68.5 189.5t-190.5 72.5t-194.5 -75t-72.5 -212v-1110
h-101v1114q0 168 101 267.5t264 99.5t262.5 -99.5t99.5 -244.5z" />
    <glyph glyph-name="agrave" unicode="&#xe0;" horiz-adv-x="1007" 
d="M498 1204l-207 260h141l156 -260h-90zM414 57q70 0 140.5 28t144 97t73.5 195v196q-55 -29 -134 -41t-155 -21q-176 -21 -254.5 -64.5t-78.5 -182.5q0 -207 264 -207zM908 -16q-56 0 -95 34.5t-39 108.5v37h-6q-62 -83 -150.5 -137t-232.5 -54q-236 0 -287 110.5
t-51 194.5q0 160 110 228.5t301 85.5t239 36t61.5 41.5t13.5 59.5v37q0 121 -68.5 175t-197.5 54q-297 0 -320 -237h-102q16 154 119.5 238.5t302.5 84.5q366 0 366 -321v-623q0 -74 68 -74q18 0 49 11h6v-74q-31 -16 -87 -16z" />
    <glyph glyph-name="aacute" unicode="&#xe1;" horiz-adv-x="1007" 
d="M586 1464h141l-207 -260h-90zM414 57q70 0 140.5 28t144 97t73.5 195v196q-55 -29 -134 -41t-155 -21q-176 -21 -254.5 -64.5t-78.5 -182.5q0 -207 264 -207zM908 -16q-56 0 -95 34.5t-39 108.5v37h-6q-62 -83 -150.5 -137t-232.5 -54q-236 0 -287 110.5t-51 194.5
q0 160 110 228.5t301 85.5t239 36t61.5 41.5t13.5 59.5v37q0 121 -68.5 175t-197.5 54q-297 0 -320 -237h-102q16 154 119.5 238.5t302.5 84.5q366 0 366 -321v-623q0 -74 68 -74q18 0 49 11h6v-74q-31 -16 -87 -16z" />
    <glyph glyph-name="acircumflex" unicode="&#xe2;" horiz-adv-x="1007" 
d="M449 1430h126l164 -218h-116l-111 156h-4l-113 -156h-110zM414 57q70 0 140.5 28t144 97t73.5 195v196q-55 -29 -134 -41t-155 -21q-176 -21 -254.5 -64.5t-78.5 -182.5q0 -207 264 -207zM908 -16q-56 0 -95 34.5t-39 108.5v37h-6q-62 -83 -150.5 -137t-232.5 -54
q-236 0 -287 110.5t-51 194.5q0 160 110 228.5t301 85.5t239 36t61.5 41.5t13.5 59.5v37q0 121 -68.5 175t-197.5 54q-297 0 -320 -237h-102q16 154 119.5 238.5t302.5 84.5q366 0 366 -321v-623q0 -74 68 -74q18 0 49 11h6v-74q-31 -16 -87 -16z" />
    <glyph glyph-name="atilde" unicode="&#xe3;" horiz-adv-x="1007" 
d="M629 1317q59 0 67 84h86q-6 -86 -48 -129t-87 -43t-78.5 13t-64.5 30.5t-59.5 31t-51 13.5t-41 -21.5t-22.5 -62.5h-86q8 88 49 130t87 42t77.5 -13.5t85.5 -44t86 -30.5zM414 57q70 0 140.5 28t144 97t73.5 195v196q-55 -29 -134 -41t-155 -21q-176 -21 -254.5 -64.5
t-78.5 -182.5q0 -207 264 -207zM908 -16q-56 0 -95 34.5t-39 108.5v37h-6q-62 -83 -150.5 -137t-232.5 -54q-236 0 -287 110.5t-51 194.5q0 160 110 228.5t301 85.5t239 36t61.5 41.5t13.5 59.5v37q0 121 -68.5 175t-197.5 54q-297 0 -320 -237h-102q16 154 119.5 238.5
t302.5 84.5q366 0 366 -321v-623q0 -74 68 -74q18 0 49 11h6v-74q-31 -16 -87 -16z" />
    <glyph glyph-name="adieresis" unicode="&#xe4;" horiz-adv-x="1007" 
d="M616 1464h101v-164h-101v164zM307 1464h101v-164h-101v164zM414 57q70 0 140.5 28t144 97t73.5 195v196q-55 -29 -134 -41t-155 -21q-176 -21 -254.5 -64.5t-78.5 -182.5q0 -207 264 -207zM908 -16q-56 0 -95 34.5t-39 108.5v37h-6q-62 -83 -150.5 -137t-232.5 -54
q-236 0 -287 110.5t-51 194.5q0 160 110 228.5t301 85.5t239 36t61.5 41.5t13.5 59.5v37q0 121 -68.5 175t-197.5 54q-297 0 -320 -237h-102q16 154 119.5 238.5t302.5 84.5q366 0 366 -321v-623q0 -74 68 -74q18 0 49 11h6v-74q-31 -16 -87 -16z" />
    <glyph glyph-name="aring" unicode="&#xe5;" horiz-adv-x="1007" 
d="M512 1247q45 0 72.5 31t27.5 76t-27.5 75.5t-72.5 30.5t-72.5 -30.5t-27.5 -75.5t27.5 -76t72.5 -31zM512 1180q-37 0 -69.5 13t-56.5 36.5t-38 55.5t-14 69t14 68.5t38 55t56.5 37t69.5 13.5t69.5 -13.5t56.5 -37t38 -55t14 -68.5t-14 -69t-38 -55.5t-56.5 -36.5
t-69.5 -13zM414 57q70 0 140.5 28t144 97t73.5 195v196q-55 -29 -134 -41t-155 -21q-176 -21 -254.5 -64.5t-78.5 -182.5q0 -207 264 -207zM908 -16q-56 0 -95 34.5t-39 108.5v37h-6q-62 -83 -150.5 -137t-232.5 -54q-236 0 -287 110.5t-51 194.5q0 160 110 228.5t301 85.5
t239 36t61.5 41.5t13.5 59.5v37q0 121 -68.5 175t-197.5 54q-297 0 -320 -237h-102q16 154 119.5 238.5t302.5 84.5q366 0 366 -321v-623q0 -74 68 -74q18 0 49 11h6v-74q-31 -16 -87 -16z" />
    <glyph glyph-name="ae" unicode="&#xe6;" horiz-adv-x="1724" 
d="M1242 995q-167 0 -258 -108.5t-110 -286.5h697q-7 271 -124.5 333t-204.5 62zM772 377v198q-55 -29 -134 -41t-155 -21t-136 -19.5t-128.5 -50t-68.5 -175.5q0 -209 284 -209q148 0 243 95.5t95 222.5zM1241 1081q167 0 279 -102q88 -82 121.5 -195.5t31.5 -265.5h-801
q0 -200 96 -328.5t286 -128.5q191 0 245.5 100.5t71.5 153.5h96q-52 -240 -191 -291t-227 -51q-293 0 -415 250h-3q-122 -250 -419 -250q-160 0 -262.5 78.5t-102.5 220.5q0 173 111 238t301 82t238 36t61.5 41.5t13.5 59.5v29q0 237 -269 237t-302 -237h-101
q20 154 122 238.5t288 84.5q291 0 344 -229q120 229 387 229z" />
    <glyph glyph-name="ccedilla" unicode="&#xe7;" horiz-adv-x="966" 
d="M530 -219q0 47 -78 47q-31 0 -90 -14l-26 45l121 118q-196 15 -301 166t-105 391t121 393.5t342 153.5q166 0 274.5 -84t133.5 -243h-99q-51 241 -309 241q-184 0 -272 -131.5t-88 -335.5t89.5 -335.5t268.5 -131.5q139 0 225 83t103 214h94q-31 -257 -167 -316.5
t-218 -66.5l-84 -77v-4q72 4 118 -29t46 -101t-55.5 -104.5t-148.5 -36.5t-175 45l26 51q76 -26 135 -26q60 0 89.5 20.5t29.5 67.5z" />
    <glyph glyph-name="egrave" unicode="&#xe8;" horiz-adv-x="1005" 
d="M502 1204l-207 260h141l156 -260h-90zM523 995q-167 0 -258.5 -109t-108.5 -286h696q-7 271 -124.5 333t-204.5 62zM530 61q245 0 322 254h96q-52 -240 -191 -291t-241 -51t-191 41t-150.5 115t-92.5 175.5t-31 286.5t129.5 337.5t341.5 152.5q169 0 268 -92
t132.5 -205.5t31.5 -265.5h-800q0 -315 139 -386t237 -71z" />
    <glyph glyph-name="eacute" unicode="&#xe9;" horiz-adv-x="1005" 
d="M590 1464h141l-207 -260h-90zM523 995q-167 0 -258.5 -109t-108.5 -286h696q-7 271 -124.5 333t-204.5 62zM530 61q245 0 322 254h96q-52 -240 -191 -291t-241 -51t-191 41t-150.5 115t-92.5 175.5t-31 286.5t129.5 337.5t341.5 152.5q169 0 268 -92t132.5 -205.5
t31.5 -265.5h-800q0 -315 139 -386t237 -71z" />
    <glyph glyph-name="ecircumflex" unicode="&#xea;" horiz-adv-x="1005" 
d="M453 1430h127l163 -218h-116l-111 156h-4l-113 -156h-110zM523 995q-167 0 -258.5 -109t-108.5 -286h696q-7 271 -124.5 333t-204.5 62zM530 61q245 0 322 254h96q-52 -240 -191 -291t-241 -51t-191 41t-150.5 115t-92.5 175.5t-31 286.5t129.5 337.5t341.5 152.5
q169 0 268 -92t132.5 -205.5t31.5 -265.5h-800q0 -315 139 -386t237 -71z" />
    <glyph glyph-name="edieresis" unicode="&#xeb;" horiz-adv-x="1005" 
d="M621 1464h100v-164h-100v164zM311 1464h101v-164h-101v164zM523 995q-167 0 -258.5 -109t-108.5 -286h696q-7 271 -124.5 333t-204.5 62zM530 61q245 0 322 254h96q-52 -240 -191 -291t-241 -51t-191 41t-150.5 115t-92.5 175.5t-31 286.5t129.5 337.5t341.5 152.5
q169 0 268 -92t132.5 -205.5t31.5 -265.5h-800q0 -315 139 -386t237 -71z" />
    <glyph glyph-name="igrave" unicode="&#xec;" horiz-adv-x="317" 
d="M117 1204l-164 260h133l119 -260h-88zM109 1059h100v-1059h-100v1059z" />
    <glyph glyph-name="iacute" unicode="&#xed;" horiz-adv-x="317" 
d="M236 1464h133l-164 -260h-88zM109 1059h100v-1059h-100v1059z" />
    <glyph glyph-name="icircumflex" unicode="&#xee;" horiz-adv-x="317" 
d="M94 1430h127l131 -218h-106l-88 154h-4l-91 -154h-100zM109 1059h100v-1059h-100v1059z" />
    <glyph glyph-name="idieresis" unicode="&#xef;" horiz-adv-x="317" 
d="M213 1464h100v-164h-100v164zM4 1464h100v-164h-100v164zM109 1059h100v-1059h-100v1059z" />
    <glyph glyph-name="eth" unicode="&#xf0;" horiz-adv-x="1052" 
d="M899 530q0 206 -98 336.5t-275 130.5t-274.5 -131.5t-97.5 -336.5t98 -337.5t274.5 -132.5t274.5 132.5t98 338.5zM1001 551q0 -264 -127 -421t-346 -157t-348 155.5t-129 398.5q0 242 130.5 398t332.5 156t330 -155h2q-73 188 -215 340l-275 -111l-28 64l250 100
q-81 77 -177 145h131q31 -23 66 -48t72 -60l207 84l26 -64l-180 -73q278 -288 278 -752z" />
    <glyph glyph-name="ntilde" unicode="&#xf1;" horiz-adv-x="993" 
d="M625 1317q59 0 67 84h86q-6 -86 -48 -129t-87 -43t-79 13t-64.5 30.5t-59 31t-51 13.5t-41 -21.5t-22.5 -62.5h-86q8 88 49 130t87 42t77.5 -13.5t85.5 -44t86 -30.5zM207 881q122 198 355 198t285 -121.5t52 -201.5v-756h-100v745q0 131 -65.5 189.5t-157.5 58.5
q-164 0 -268.5 -90t-104.5 -219v-684h-101v1059h101v-178h4z" />
    <glyph glyph-name="ograve" unicode="&#xf2;" horiz-adv-x="1052" 
d="M512 1204l-207 260h141l156 -260h-90zM526 59q92 0 162 37t117 100.5t70.5 149.5t23.5 182.5t-23.5 182.5t-70.5 149.5t-117 100t-162 36.5t-161.5 -36.5t-116.5 -100t-70.5 -149.5t-23.5 -182.5t23.5 -182.5t70.5 -149.5t116.5 -100.5t161.5 -37zM51 528
q0 243 129.5 398t347.5 155q217 0 345 -153t128 -400t-128 -401t-346 -154q-217 0 -346.5 156t-129.5 399z" />
    <glyph glyph-name="oacute" unicode="&#xf3;" horiz-adv-x="1052" 
d="M600 1464h141l-206 -260h-91zM526 59q92 0 162 37t117 100.5t70.5 149.5t23.5 182.5t-23.5 182.5t-70.5 149.5t-117 100t-162 36.5t-161.5 -36.5t-116.5 -100t-70.5 -149.5t-23.5 -182.5t23.5 -182.5t70.5 -149.5t116.5 -100.5t161.5 -37zM51 528q0 243 129.5 398
t347.5 155q217 0 345 -153t128 -400t-128 -401t-346 -154q-217 0 -346.5 156t-129.5 399z" />
    <glyph glyph-name="ocircumflex" unicode="&#xf4;" horiz-adv-x="1052" 
d="M463 1430h127l164 -218h-117l-111 156h-4l-112 -156h-111zM526 59q92 0 162 37t117 100.5t70.5 149.5t23.5 182.5t-23.5 182.5t-70.5 149.5t-117 100t-162 36.5t-161.5 -36.5t-116.5 -100t-70.5 -149.5t-23.5 -182.5t23.5 -182.5t70.5 -149.5t116.5 -100.5t161.5 -37z
M51 528q0 243 129.5 398t347.5 155q217 0 345 -153t128 -400t-128 -401t-346 -154q-217 0 -346.5 156t-129.5 399z" />
    <glyph glyph-name="otilde" unicode="&#xf5;" horiz-adv-x="1052" 
d="M661 1229q-45 0 -78.5 13t-64.5 30.5t-59.5 31t-51 13.5t-41 -21.5t-22.5 -62.5h-86q8 88 49 130t87 42q62 0 139 -44t107 -44q63 0 71 84h86q-6 -86 -48.5 -129t-87.5 -43zM526 59q92 0 162 37t117 100.5t70.5 149.5t23.5 182.5t-23.5 182.5t-70.5 149.5t-117 100
t-162 36.5t-161.5 -36.5t-116.5 -100t-70.5 -149.5t-23.5 -182.5t23.5 -182.5t70.5 -149.5t116.5 -100.5t161.5 -37zM51 528q0 243 129.5 398t347.5 155q217 0 345 -153t128 -400t-128 -401t-346 -154q-217 0 -346.5 156t-129.5 399z" />
    <glyph glyph-name="odieresis" unicode="&#xf6;" horiz-adv-x="1052" 
d="M631 1464h100v-164h-100v164zM322 1464h100v-164h-100v164zM526 59q92 0 162 37t117 100.5t70.5 149.5t23.5 182.5t-23.5 182.5t-70.5 149.5t-117 100t-162 36.5t-161.5 -36.5t-116.5 -100t-70.5 -149.5t-23.5 -182.5t23.5 -182.5t70.5 -149.5t116.5 -100.5t161.5 -37z
M51 528q0 243 129.5 398t347.5 155q217 0 345 -153t128 -400t-128 -401t-346 -154q-217 0 -346.5 156t-129.5 399z" />
    <glyph glyph-name="divide" unicode="&#xf7;" horiz-adv-x="1044" 
d="M459 1083h125v-153h-125v153zM459 406h125v-154h-125v154zM115 715h815v-94h-815v94z" />
    <glyph glyph-name="oslash" unicode="&#xf8;" horiz-adv-x="1052" 
d="M264 176q100 -117 270 -117t267.5 132.5t97.5 320.5q0 189 -70 307zM788 879q-101 118 -270 118t-266.5 -131.5t-97.5 -322.5t69 -307zM156 158q-105 143 -105 378t129.5 390t339.5 155q209 0 332 -129l117 133l53 -47l-125 -143q104 -147 104 -381t-128 -387.5
t-338 -153.5t-334 129l-117 -133l-53 47z" />
    <glyph glyph-name="ugrave" unicode="&#xf9;" horiz-adv-x="980" 
d="M477 1204l-207 260h142l155 -260h-90zM778 0v162h-4q-64 -92 -140.5 -139.5t-212.5 -47.5t-231.5 86.5t-95.5 241.5v756h101v-746q0 -131 69.5 -191.5t197.5 -60.5t222 93.5t94 234.5v670h101v-1059h-101z" />
    <glyph glyph-name="uacute" unicode="&#xfa;" horiz-adv-x="980" 
d="M565 1464h142l-207 -260h-90zM778 0v162h-4q-64 -92 -140.5 -139.5t-212.5 -47.5t-231.5 86.5t-95.5 241.5v756h101v-746q0 -131 69.5 -191.5t197.5 -60.5t222 93.5t94 234.5v670h101v-1059h-101z" />
    <glyph glyph-name="ucircumflex" unicode="&#xfb;" horiz-adv-x="980" 
d="M428 1430h127l164 -218h-117l-110 156h-5l-112 -156h-111zM778 0v162h-4q-64 -92 -140.5 -139.5t-212.5 -47.5t-231.5 86.5t-95.5 241.5v756h101v-746q0 -131 69.5 -191.5t197.5 -60.5t222 93.5t94 234.5v670h101v-1059h-101z" />
    <glyph glyph-name="udieresis" unicode="&#xfc;" horiz-adv-x="980" 
d="M596 1464h100v-164h-100v164zM287 1464h100v-164h-100v164zM778 0v162h-4q-64 -92 -140.5 -139.5t-212.5 -47.5t-231.5 86.5t-95.5 241.5v756h101v-746q0 -131 69.5 -191.5t197.5 -60.5t222 93.5t94 234.5v670h101v-1059h-101z" />
    <glyph glyph-name="yacute" unicode="&#xfd;" horiz-adv-x="931" 
d="M547 1464h141l-207 -260h-90zM211 -258q134 0 184 154l31 88l-406 1075h105l258 -701q14 -41 34 -96t58 -168h4q13 45 27 89t29.5 89t29.5 86l246 701h102l-426 -1186q-47 -129 -114 -176t-176 -47q-32 0 -80 12v90h4q30 -10 90 -10z" />
    <glyph glyph-name="thorn" unicode="&#xfe;" horiz-adv-x="1056" 
d="M193 523q0 -210 96 -336t267 -126t259 132.5t88 340.5t-88 334.5t-256 126.5q-167 0 -266.5 -131t-99.5 -341zM203 174v-514h-101v1804h101v-608h4q117 225 371 225q190 0 309 -147.5t119 -396.5t-118 -404.5t-319 -155.5q-240 0 -362 197h-4z" />
    <glyph glyph-name="ydieresis" unicode="&#xff;" horiz-adv-x="931" 
d="M578 1464h100v-164h-100v164zM268 1464h101v-164h-101v164zM211 -258q134 0 184 154l31 88l-406 1075h105l258 -701q14 -41 34 -96t58 -168h4q13 45 27 89t29.5 89t29.5 86l246 701h102l-426 -1186q-47 -129 -114 -176t-176 -47q-32 0 -80 12v90h4q30 -10 90 -10z" />
    <glyph glyph-name="Amacron" unicode="&#x100;" horiz-adv-x="1277" 
d="M391 1661h496v-100h-496v100zM336 559h604l-221 582q-62 160 -80 217h-4l-25 -74q-10 -33 -24.5 -70.5t-26.5 -72.5zM578 1464h120l568 -1464h-111l-180 469h-674l-180 -469h-109z" />
    <glyph glyph-name="amacron" unicode="&#x101;" horiz-adv-x="1007" 
d="M264 1391h496v-101h-496v101zM414 57q70 0 140.5 28t144 97t73.5 195v196q-55 -29 -134 -41t-155 -21q-176 -21 -254.5 -64.5t-78.5 -182.5q0 -207 264 -207zM908 -16q-56 0 -95 34.5t-39 108.5v37h-6q-62 -83 -150.5 -137t-232.5 -54q-236 0 -287 110.5t-51 194.5
q0 160 110 228.5t301 85.5t239 36t61.5 41.5t13.5 59.5v37q0 121 -68.5 175t-197.5 54q-297 0 -320 -237h-102q16 154 119.5 238.5t302.5 84.5q366 0 366 -321v-623q0 -74 68 -74q18 0 49 11h6v-74q-31 -16 -87 -16z" />
    <glyph glyph-name="Abreve" unicode="&#x102;" horiz-adv-x="1277" 
d="M639 1542q-104 0 -170 58.5t-72 150.5h95q22 -115 147 -115t147 115h95q-6 -92 -72 -150.5t-170 -58.5zM336 559h604l-221 582q-62 160 -80 217h-4l-25 -74q-10 -33 -24.5 -70.5t-26.5 -72.5zM578 1464h120l568 -1464h-111l-180 469h-674l-180 -469h-109z" />
    <glyph glyph-name="abreve" unicode="&#x103;" horiz-adv-x="1007" 
d="M512 1206q-104 0 -170 62.5t-72 154.5h95q10 -53 45.5 -86.5t101.5 -33.5t101.5 33.5t45.5 86.5h95q-6 -92 -72 -154.5t-170 -62.5zM414 57q70 0 140.5 28t144 97t73.5 195v196q-55 -29 -134 -41t-155 -21q-176 -21 -254.5 -64.5t-78.5 -182.5q0 -207 264 -207zM908 -16
q-56 0 -95 34.5t-39 108.5v37h-6q-62 -83 -150.5 -137t-232.5 -54q-236 0 -287 110.5t-51 194.5q0 160 110 228.5t301 85.5t239 36t61.5 41.5t13.5 59.5v37q0 121 -68.5 175t-197.5 54q-297 0 -320 -237h-102q16 154 119.5 238.5t302.5 84.5q366 0 366 -321v-623
q0 -74 68 -74q18 0 49 11h6v-74q-31 -16 -87 -16z" />
    <glyph glyph-name="Aogonek" unicode="&#x104;" horiz-adv-x="1277" 
d="M336 559h604l-221 582q-62 160 -80 217h-4l-25 -74q-10 -33 -24.5 -70.5t-26.5 -72.5zM1159 -279q41 0 103 23h6v-72q-50 -30 -130 -30t-122.5 39t-42.5 89q0 79 52.5 140.5t125.5 101.5l-176 457h-674l-180 -469h-109l566 1464h120l564 -1454q-92 -59 -139.5 -111.5
t-47.5 -107.5q0 -70 84 -70z" />
    <glyph glyph-name="aogonek" unicode="&#x105;" horiz-adv-x="1007" 
d="M414 57q70 0 140.5 28t144 97t73.5 195v196q-55 -29 -134 -41t-155 -21q-176 -21 -254.5 -64.5t-78.5 -182.5q0 -207 264 -207zM895 -281q42 0 102 23h7v-72q-47 -28 -128 -28t-124 38.5t-43 104t47 119t104 88.5q-86 22 -86 135v37h-6q-62 -83 -150.5 -137t-232.5 -54
q-236 0 -287 110.5t-51 194.5q0 160 110 228.5t301 85.5t239 36t61.5 41.5t13.5 59.5v37q0 121 -68.5 175t-197.5 54q-297 0 -320 -237h-102q16 154 119.5 238.5t302.5 84.5q366 0 366 -321v-623q0 -74 68 -74q18 0 49 11h6v-74q-78 -41 -131 -96.5t-53 -112.5q0 -72 84 -72
z" />
    <glyph glyph-name="Cacute" unicode="&#x106;" horiz-adv-x="1343" 
d="M803 1767h141l-207 -225h-90zM1155 166q-164 -193 -454 -193t-460.5 209t-170.5 549t175 551t470 211q217 0 360.5 -111.5t186.5 -318.5h-107q-31 150 -143.5 244t-296.5 94q-258 0 -396.5 -189.5t-138.5 -481.5t136 -477t393 -185q209 0 334.5 129.5t146.5 332.5h100
q-21 -229 -135 -364z" />
    <glyph glyph-name="cacute" unicode="&#x107;" horiz-adv-x="966" 
d="M573 1464h142l-207 -260h-90zM514 995q-184 0 -272 -131.5t-88 -335.5t89.5 -335.5t268.5 -131.5q139 0 225 83t103 214h94q-20 -174 -131.5 -279.5t-290.5 -105.5q-221 0 -341 153t-120 400t121 401t342 154q166 0 274.5 -84t133.5 -243h-99q-51 241 -309 241z" />
    <glyph glyph-name="Ccircumflex" unicode="&#x108;" horiz-adv-x="1343" 
d="M649 1747h127l193 -207h-121l-135 146h-4l-138 -146h-114zM1155 166q-164 -193 -454 -193t-460.5 209t-170.5 549t175 551t470 211q217 0 360.5 -111.5t186.5 -318.5h-107q-31 150 -143.5 244t-296.5 94q-258 0 -396.5 -189.5t-138.5 -481.5t136 -477t393 -185
q209 0 334.5 129.5t146.5 332.5h100q-21 -229 -135 -364z" />
    <glyph glyph-name="ccircumflex" unicode="&#x109;" horiz-adv-x="966" 
d="M436 1430h127l164 -218h-117l-110 156h-4l-113 -156h-111zM514 995q-184 0 -272 -131.5t-88 -335.5t89.5 -335.5t268.5 -131.5q139 0 225 83t103 214h94q-20 -174 -131.5 -279.5t-290.5 -105.5q-221 0 -341 153t-120 400t121 401t342 154q166 0 274.5 -84t133.5 -243h-99
q-51 241 -309 241z" />
    <glyph glyph-name="Cdotaccent" unicode="&#x10a;" horiz-adv-x="1343" 
d="M664 1710h100v-164h-100v164zM1155 166q-164 -193 -454 -193t-460.5 209t-170.5 549t175 551t470 211q217 0 360.5 -111.5t186.5 -318.5h-107q-31 150 -143.5 244t-296.5 94q-258 0 -396.5 -189.5t-138.5 -481.5t136 -477t393 -185q209 0 334.5 129.5t146.5 332.5h100
q-21 -229 -135 -364z" />
    <glyph glyph-name="cdotaccent" unicode="&#x10b;" horiz-adv-x="966" 
d="M451 1464h100v-164h-100v164zM514 995q-184 0 -272 -131.5t-88 -335.5t89.5 -335.5t268.5 -131.5q139 0 225 83t103 214h94q-20 -174 -131.5 -279.5t-290.5 -105.5q-221 0 -341 153t-120 400t121 401t342 154q166 0 274.5 -84t133.5 -243h-99q-51 241 -309 241z" />
    <glyph glyph-name="Ccaron" unicode="&#x10c;" horiz-adv-x="1343" 
d="M776 1540h-127l-192 207h121l135 -145h4l137 145h115zM1155 166q-164 -193 -454 -193t-460.5 209t-170.5 549t175 551t470 211q217 0 360.5 -111.5t186.5 -318.5h-107q-31 150 -143.5 244t-296.5 94q-258 0 -396.5 -189.5t-138.5 -481.5t136 -477t393 -185
q209 0 334.5 129.5t146.5 332.5h100q-21 -229 -135 -364z" />
    <glyph glyph-name="ccaron" unicode="&#x10d;" horiz-adv-x="966" 
d="M563 1212h-127l-164 218h117l111 -156h4l112 156h111zM514 995q-184 0 -272 -131.5t-88 -335.5t89.5 -335.5t268.5 -131.5q139 0 225 83t103 214h94q-20 -174 -131.5 -279.5t-290.5 -105.5q-221 0 -341 153t-120 400t121 401t342 154q166 0 274.5 -84t133.5 -243h-99
q-51 241 -309 241z" />
    <glyph glyph-name="Dcaron" unicode="&#x10e;" horiz-adv-x="1318" 
d="M659 1540h-127l-192 207h121l135 -145h4l137 145h115zM621 94q259 0 388.5 167t129.5 547t-185.5 470t-318.5 90h-402v-1274h388zM127 1464h512q310 0 460 -200t150 -535.5t-157 -532t-467 -196.5h-498v1464z" />
    <glyph glyph-name="dcaron" unicode="&#x10f;" horiz-adv-x="1060" 
d="M1083 1307v6h-53v151h121v-149q0 -152 -125 -172v59q57 25 57 105zM868 521q0 211 -95 342.5t-263 131.5t-262 -128.5t-94 -336.5t88 -340.5t258 -132.5t269 126.5t99 337.5zM854 176q-122 -203 -343 -203t-340.5 155t-119.5 404t126 399t319 150q252 0 358 -215h4v598
h100v-1464h-100v176h-4z" />
    <glyph glyph-name="Dcroat" unicode="&#x110;" horiz-adv-x="1351" 
d="M641 94q260 0 389 166t129 547.5t-185.5 471t-318.5 89.5h-401v-588h528v-92h-528v-594h387zM2 780h145v684h512q311 0 461 -200.5t150 -535t-157.5 -531.5t-467.5 -197h-498v688h-145v92z" />
    <glyph glyph-name="dcroat" unicode="&#x111;" horiz-adv-x="1060" 
d="M868 521q0 211 -95 342.5t-263 131.5t-262 -128.5t-94 -336.5t88 -340.5t258 -132.5t269 126.5t99 337.5zM496 1081q252 0 358 -215h4v338h-260v84h260v176h100v-176h117v-84h-117v-1204h-100v176h-4q-122 -203 -343 -203t-340.5 155t-119.5 404t126 399t319 150z" />
    <glyph glyph-name="Emacron" unicode="&#x112;" horiz-adv-x="1191" 
d="M389 1661h496v-100h-496v100zM127 1464h971v-94h-865v-569h795v-92h-795v-611h885v-98h-991v1464z" />
    <glyph glyph-name="emacron" unicode="&#x113;" horiz-adv-x="1005" 
d="M268 1391h496v-101h-496v101zM523 995q-167 0 -258.5 -109t-108.5 -286h696q-7 271 -124.5 333t-204.5 62zM530 61q245 0 322 254h96q-52 -240 -191 -291t-241 -51t-191 41t-150.5 115t-92.5 175.5t-31 286.5t129.5 337.5t341.5 152.5q169 0 268 -92t132.5 -205.5
t31.5 -265.5h-800q0 -315 139 -386t237 -71z" />
    <glyph glyph-name="Ebreve" unicode="&#x114;" horiz-adv-x="1191" 
d="M634.5 1542q-104.5 0 -170 58.5t-71.5 150.5h94q22 -115 147.5 -115t147.5 115h95q-6 -92 -72 -150.5t-170.5 -58.5zM127 1464h971v-94h-865v-569h795v-92h-795v-611h885v-98h-991v1464z" />
    <glyph glyph-name="ebreve" unicode="&#x115;" horiz-adv-x="1005" 
d="M543 1303q94 0 119 120h94q-6 -92 -72 -154.5t-170 -62.5t-169.5 62.5t-72.5 154.5h95q10 -53 46 -86.5t130 -33.5zM523 995q-167 0 -258.5 -109t-108.5 -286h696q-7 271 -124.5 333t-204.5 62zM530 61q245 0 322 254h96q-52 -240 -191 -291t-241 -51t-191 41t-150.5 115
t-92.5 175.5t-31 286.5t129.5 337.5t341.5 152.5q169 0 268 -92t132.5 -205.5t31.5 -265.5h-800q0 -315 139 -386t237 -71z" />
    <glyph glyph-name="Edotaccent" unicode="&#x116;" horiz-adv-x="1191" 
d="M588 1710h100v-164h-100v164zM127 1464h971v-94h-865v-569h795v-92h-795v-611h885v-98h-991v1464z" />
    <glyph glyph-name="edotaccent" unicode="&#x117;" horiz-adv-x="1005" 
d="M467 1464h100v-164h-100v164zM523 995q-167 0 -258.5 -109t-108.5 -286h696q-7 271 -124.5 333t-204.5 62zM530 61q245 0 322 254h96q-52 -240 -191 -291t-241 -51t-191 41t-150.5 115t-92.5 175.5t-31 286.5t129.5 337.5t341.5 152.5q169 0 268 -92t132.5 -205.5
t31.5 -265.5h-800q0 -315 139 -386t237 -71z" />
    <glyph glyph-name="Eogonek" unicode="&#x118;" horiz-adv-x="1191" 
d="M930 -358q-80 0 -123 38.5t-43 104t45 122t111 93.5h-793v1464h971v-94h-865v-569h795v-92h-795v-611h885v-98h-82q-78 -53 -124 -103.5t-46 -105.5q0 -70 84 -70q41 0 103 23h6v-72q-49 -30 -129 -30z" />
    <glyph glyph-name="eogonek" unicode="&#x119;" horiz-adv-x="1005" 
d="M523 995q-167 0 -258.5 -109t-108.5 -286h696q-7 271 -124.5 333t-204.5 62zM530 -27q-226 0 -352.5 152.5t-126.5 401.5t129.5 401.5t341.5 152.5q169 0 268 -92t132.5 -205.5t31.5 -265.5h-800q0 -315 139 -386t237 -71q245 0 322 254h96q-25 -115 -80.5 -182
t-123.5 -123t-117 -110t-49 -111q0 -70 84 -70q40 0 102 23h6v-72q-47 -28 -128 -28t-124 39t-43 101q0 109 133 200q-36 -9 -78 -9z" />
    <glyph glyph-name="Ecaron" unicode="&#x11a;" horiz-adv-x="1191" 
d="M700 1540h-127l-192 207h121l135 -145h4l137 145h115zM127 1464h971v-94h-865v-569h795v-92h-795v-611h885v-98h-991v1464z" />
    <glyph glyph-name="ecaron" unicode="&#x11b;" horiz-adv-x="1005" 
d="M580 1212h-127l-164 218h117l110 -156h4l113 156h110zM523 995q-167 0 -258.5 -109t-108.5 -286h696q-7 271 -124.5 333t-204.5 62zM530 61q245 0 322 254h96q-52 -240 -191 -291t-241 -51t-191 41t-150.5 115t-92.5 175.5t-31 286.5t129.5 337.5t341.5 152.5
q169 0 268 -92t132.5 -205.5t31.5 -265.5h-800q0 -315 139 -386t237 -71z" />
    <glyph glyph-name="Gcircumflex" unicode="&#x11c;" horiz-adv-x="1452" 
d="M668 1747h127l192 -207h-121l-135 146h-4l-137 -146h-115zM729 -27q-319 0 -489 211t-170 548t182.5 549t501.5 212q215 0 366 -110t197 -332h-107q-35 172 -160.5 261t-283.5 89q-159 0 -268 -53.5t-179.5 -144.5t-104.5 -213t-34 -336.5t139 -400t403 -185.5
q263 0 390 147.5t127 364.5v63h-491v94h593v-737h-81l-13 262h-8q-156 -289 -510 -289z" />
    <glyph glyph-name="gcircumflex" unicode="&#x11d;" horiz-adv-x="1058" 
d="M461 1430h127l164 -218h-117l-111 156h-4l-112 -156h-111zM771 213q93 119 93 325t-91.5 331.5t-258.5 125.5t-263.5 -125t-96.5 -326t88.5 -325.5t262.5 -124.5q173 0 266 119zM850 209q-120 -199 -340 -199q-219 0 -339 146.5t-120 390.5t129.5 389t325.5 145
q129 0 210 -56t134 -148h6v182h100v-1028q0 -180 -104 -291q-124 -123 -330 -123q-285 0 -348 106.5t-70 159.5h101q23 -96 107 -138t186 -42q184 0 271 87t87 239v180h-6z" />
    <glyph glyph-name="Gbreve" unicode="&#x11e;" horiz-adv-x="1452" 
d="M730.5 1636q124.5 0 148.5 115h94q-6 -92 -71.5 -150.5t-170 -58.5t-170 58.5t-72.5 150.5h95q22 -115 146.5 -115zM729 -27q-319 0 -489 211t-170 548t182.5 549t501.5 212q215 0 366 -110t197 -332h-107q-35 172 -160.5 261t-283.5 89q-159 0 -268 -53.5t-179.5 -144.5
t-104.5 -213t-34 -336.5t139 -400t403 -185.5q263 0 390 147.5t127 364.5v63h-491v94h593v-737h-81l-13 262h-8q-156 -289 -510 -289z" />
    <glyph glyph-name="gbreve" unicode="&#x11f;" horiz-adv-x="1058" 
d="M524.5 1206q-104.5 0 -170 62.5t-71.5 154.5h94q10 -53 46 -86.5t101.5 -33.5t101.5 33.5t46 86.5h94q-6 -92 -71.5 -154.5t-170 -62.5zM771 213q93 119 93 325t-91.5 331.5t-258.5 125.5t-263.5 -125t-96.5 -326t88.5 -325.5t262.5 -124.5q173 0 266 119zM850 209
q-120 -199 -340 -199q-219 0 -339 146.5t-120 390.5t129.5 389t325.5 145q129 0 210 -56t134 -148h6v182h100v-1028q0 -180 -104 -291q-124 -123 -330 -123q-285 0 -348 106.5t-70 159.5h101q23 -96 107 -138t186 -42q184 0 271 87t87 239v180h-6z" />
    <glyph glyph-name="Gdotaccent" unicode="&#x120;" horiz-adv-x="1452" 
d="M682 1710h100v-164h-100v164zM729 -27q-319 0 -489 211t-170 548t182.5 549t501.5 212q215 0 366 -110t197 -332h-107q-35 172 -160.5 261t-283.5 89q-159 0 -268 -53.5t-179.5 -144.5t-104.5 -213t-34 -336.5t139 -400t403 -185.5q263 0 390 147.5t127 364.5v63h-491v94
h593v-737h-81l-13 262h-8q-156 -289 -510 -289z" />
    <glyph glyph-name="gdotaccent" unicode="&#x121;" horiz-adv-x="1058" 
d="M475 1464h100v-164h-100v164zM771 213q93 119 93 325t-91.5 331.5t-258.5 125.5t-263.5 -125t-96.5 -326t88.5 -325.5t262.5 -124.5q173 0 266 119zM850 209q-120 -199 -340 -199q-219 0 -339 146.5t-120 390.5t129.5 389t325.5 145q129 0 210 -56t134 -148h6v182h100
v-1028q0 -180 -104 -291q-124 -123 -330 -123q-285 0 -348 106.5t-70 159.5h101q23 -96 107 -138t186 -42q184 0 271 87t87 239v180h-6z" />
    <glyph glyph-name="Gcommaaccent" unicode="&#x122;" horiz-adv-x="1452" 
d="M727 -250v6h-53v146h121v-144q0 -156 -125 -176v60q27 12 42 34.5t15 73.5zM729 -27q-319 0 -489 211t-170 548t182.5 549t501.5 212q215 0 366 -110t197 -332h-107q-35 172 -160.5 261t-283.5 89q-159 0 -268 -53.5t-179.5 -144.5t-104.5 -213t-34 -336.5t139 -400
t403 -185.5q263 0 390 147.5t127 364.5v63h-491v94h593v-737h-81l-13 262h-8q-156 -289 -510 -289z" />
    <glyph glyph-name="gcommaaccent" unicode="&#x123;" horiz-adv-x="1058" 
d="M524 1376v-6h54v-145h-121v143q0 156 125 176v-59q-27 -12 -42.5 -35t-15.5 -74zM771 213q93 119 93 325t-91.5 331.5t-258.5 125.5t-263.5 -125t-96.5 -326t88.5 -325.5t262.5 -124.5q173 0 266 119zM850 209q-120 -199 -340 -199q-219 0 -339 146.5t-120 390.5
t129.5 389t325.5 145q129 0 210 -56t134 -148h6v182h100v-1028q0 -180 -104 -291q-124 -123 -330 -123q-285 0 -348 106.5t-70 159.5h101q23 -96 107 -138t186 -42q184 0 271 87t87 239v180h-6z" />
    <glyph glyph-name="Hcircumflex" unicode="&#x124;" horiz-adv-x="1327" 
d="M600 1747h127l193 -207h-121l-135 146h-5l-137 -146h-114zM127 1464h106v-641h861v641h106v-1464h-106v733h-861v-733h-106v1464z" />
    <glyph glyph-name="hcircumflex" unicode="&#x125;" horiz-adv-x="1003" 
d="M446 1747h127l193 -207h-121l-135 146h-4l-137 -146h-115zM213 881h4q53 86 143.5 142t225.5 56q220 0 271.5 -121.5t51.5 -201.5v-756h-100v745q0 131 -65.5 189.5t-157.5 58.5q-162 0 -267.5 -89.5t-105.5 -219.5v-684h-100v1464h100v-583z" />
    <glyph glyph-name="Hbar" unicode="&#x126;" horiz-adv-x="1327" 
d="M1094 823v248h-861v-248h861zM-16 1161h143v303h106v-303h861v303h106v-303h143v-90h-143v-1071h-106v733h-861v-733h-106v1071h-143v90z" />
    <glyph glyph-name="hbar" unicode="&#x127;" horiz-adv-x="1003" 
d="M213 1288h260v-84h-260v-323h4q53 86 143.5 142t225.5 56q220 0 271.5 -121.5t51.5 -201.5v-756h-100v745q0 131 -65.5 189.5t-157.5 58.5q-162 0 -267.5 -89.5t-105.5 -219.5v-684h-100v1204h-117v84h117v176h100v-176z" />
    <glyph glyph-name="Itilde" unicode="&#x128;" horiz-adv-x="376" 
d="M323 1556q-45 0 -78.5 13.5t-64 31t-59.5 31t-51.5 13.5t-41 -21.5t-22.5 -62.5h-86q8 88 49 130t87 42q62 0 139 -44t107 -44q63 0 71 84h86q-6 -86 -48.5 -129.5t-87.5 -43.5zM135 1464h107v-1464h-107v1464z" />
    <glyph glyph-name="itilde" unicode="&#x129;" horiz-adv-x="317" 
d="M248 1321q46 0 53 80h86q-4 -86 -42 -127t-79 -41q-58 0 -121.5 40t-78.5 40q-43 0 -50 -80h-86q4 88 42 128t80 40t68.5 -12.5t49.5 -27.5t42 -27.5t36 -12.5zM109 1059h100v-1059h-100v1059z" />
    <glyph glyph-name="Imacron" unicode="&#x12a;" horiz-adv-x="376" 
d="M23 1655h331v-90h-331v90zM135 1464h107v-1464h-107v1464z" />
    <glyph glyph-name="imacron" unicode="&#x12b;" horiz-adv-x="317" 
d="M-8 1391h332v-101h-332v101zM109 1059h100v-1059h-100v1059z" />
    <glyph glyph-name="Ibreve" unicode="&#x12c;" horiz-adv-x="376" 
d="M188.5 1636q125.5 0 147.5 115h94q-6 -92 -71.5 -150.5t-170 -58.5t-170 58.5t-71.5 150.5h94q22 -115 147.5 -115zM135 1464h107v-1464h-107v1464z" />
    <glyph glyph-name="ibreve" unicode="&#x12d;" horiz-adv-x="317" 
d="M157.5 1206q-104.5 0 -170 62.5t-71.5 154.5h94q10 -53 46 -86.5t101.5 -33.5t101.5 33.5t46 86.5h94q-6 -92 -71.5 -154.5t-170 -62.5zM109 1059h100v-1059h-100v1059z" />
    <glyph glyph-name="Iogonek" unicode="&#x12e;" horiz-adv-x="376" 
d="M170 -279q38 0 98 23h6v-72q-50 -30 -126 -30t-119 38.5t-43 106.5t46 124t103 91v1462h107v-1460q-154 -118 -154 -213q0 -70 82 -70z" />
    <glyph glyph-name="iogonek" unicode="&#x12f;" horiz-adv-x="317" 
d="M109 1464h100v-164h-100v164zM114 -358q-76 0 -117.5 38.5t-41.5 106.5t48 125t106 92v1055h100v-1061q-72 -55 -112 -103.5t-40 -103.5q0 -72 80 -72q36 0 96 23h7v-70q-50 -30 -126 -30z" />
    <glyph glyph-name="Idotaccent" unicode="&#x130;" horiz-adv-x="376" 
d="M139 1710h101v-164h-101v164zM135 1464h107v-1464h-107v1464z" />
    <glyph glyph-name="dotlessi" unicode="&#x131;" horiz-adv-x="317" 
d="M109 1059h100v-1059h-100v1059z" />
    <glyph glyph-name="IJ" unicode="&#x132;" horiz-adv-x="1292" 
d="M395 377v78h105v-74q0 -170 76 -240.5t212 -70.5q276 0 277 274v1120h106v-1128q0 -161 -95 -262t-282 -101q-188 0 -293.5 98.5t-105.5 305.5zM135 1464h107v-1464h-107v1464z" />
    <glyph glyph-name="ij" unicode="&#x133;" horiz-adv-x="634" 
d="M426 1464h100v-164h-100v164zM287 -254h20q61 0 90 30.5t29 102.5v1180h100v-1182q0 -117 -53 -167t-160 -50h-26v86zM109 1464h100v-164h-100v164zM109 1059h100v-1059h-100v1059z" />
    <glyph glyph-name="Jcircumflex" unicode="&#x134;" horiz-adv-x="942" 
d="M705 1747h126l193 -207h-121l-135 146h-4l-137 -146h-115zM45 377v78h105v-74q0 -170 76 -240.5t212 -70.5q276 0 277 274v1120h106v-1128q0 -161 -95 -262t-282 -101q-188 0 -293.5 98.5t-105.5 305.5z" />
    <glyph glyph-name="jcircumflex" unicode="&#x135;" horiz-adv-x="317" 
d="M94 1430h127l131 -218h-106l-88 154h-4l-91 -154h-100zM-31 -254h21q61 0 90 30.5t29 102.5v1180h100v-1182q0 -117 -53.5 -167t-159.5 -50h-27v86z" />
    <glyph glyph-name="Kcommaaccent" unicode="&#x136;" horiz-adv-x="1255" 
d="M610 -250v6h-53v146h121v-144q0 -156 -125 -176v60q27 12 42 34.5t15 73.5zM127 1464h106v-817l838 819h141l-624 -604l653 -862h-129l-600 788l-279 -272v-516h-106v1464z" />
    <glyph glyph-name="kcommaaccent" unicode="&#x137;" horiz-adv-x="956" 
d="M463 -250v6h-53v146h120v-144q0 -156 -124 -176v60q27 12 42 34.5t15 73.5zM203 0h-101v1464h101v-952l569 547h127l-403 -383l452 -676h-114l-410 608l-221 -213v-395z" />
    <glyph glyph-name="kgreenlandic" unicode="&#x138;" horiz-adv-x="956" 
d="M203 0h-101v1059h101v-547l569 547h127l-403 -383l452 -676h-114l-410 608l-221 -213v-395z" />
    <glyph glyph-name="Lacute" unicode="&#x139;" horiz-adv-x="1073" 
d="M295 1767h141l-207 -225h-90zM127 1464h106v-1366h789v-98h-895v1464z" />
    <glyph glyph-name="lacute" unicode="&#x13a;" horiz-adv-x="317" 
d="M268 1767h142l-207 -225h-90zM109 1464h100v-1464h-100v1464z" />
    <glyph glyph-name="Lcommaaccent" unicode="&#x13b;" horiz-adv-x="1073" 
d="M549 -250v6h-53v146h120v-144q0 -156 -124 -176v60q27 12 42 34.5t15 73.5zM127 1464h106v-1366h789v-98h-895v1464z" />
    <glyph glyph-name="lcommaaccent" unicode="&#x13c;" horiz-adv-x="317" 
d="M154 -250v6h-54v146h121v-144q0 -156 -125 -176v60q27 12 42.5 34.5t15.5 73.5zM109 1464h100v-1464h-100v1464z" />
    <glyph glyph-name="Lcaron" unicode="&#x13d;" horiz-adv-x="1073" 
d="M594 1307v6h-53v151h121v-149q0 -152 -125 -172v59q57 25 57 105zM127 1464h106v-1366h789v-98h-895v1464z" />
    <glyph glyph-name="lcaron" unicode="&#x13e;" horiz-adv-x="317" 
d="M334 1307v6h-53v151h120v-149q0 -152 -125 -172v59q58 26 58 105zM109 1464h100v-1464h-100v1464z" />
    <glyph glyph-name="Ldot" unicode="&#x13f;" horiz-adv-x="1073" 
d="M698 717h125v-162h-125v162zM127 1464h106v-1366h789v-98h-895v1464z" />
    <glyph glyph-name="ldot" unicode="&#x140;" horiz-adv-x="487" 
d="M340 717h125v-162h-125v162zM109 1464h100v-1464h-100v1464z" />
    <glyph glyph-name="Lslash" unicode="&#x141;" horiz-adv-x="1114" 
d="M168 1464h106v-798l555 295v-99l-555 -295v-469h789v-98h-895v510l-178 -94v98l178 94v856z" />
    <glyph glyph-name="lslash" unicode="&#x142;" horiz-adv-x="399" 
d="M150 1464h100v-555l153 131v-108l-153 -131v-801h-100v715l-140 -119v109l140 118v641z" />
    <glyph glyph-name="Nacute" unicode="&#x143;" horiz-adv-x="1329" 
d="M791 1767h141l-207 -225h-90zM127 1464h119l680 -1034q33 -51 64.5 -99t55.5 -92t50 -85h4v1310h102v-1464h-112l-672 1012q-125 189 -185 293h-4v-1305h-102v1464z" />
    <glyph glyph-name="nacute" unicode="&#x144;" horiz-adv-x="993" 
d="M582 1464h141l-207 -260h-90zM207 881q122 198 355 198t285 -121.5t52 -201.5v-756h-100v745q0 131 -65.5 189.5t-157.5 58.5q-164 0 -268.5 -90t-104.5 -219v-684h-101v1059h101v-178h4z" />
    <glyph glyph-name="Ncommaaccent" unicode="&#x145;" horiz-adv-x="1329" 
d="M629 -250v6h-54v146h121v-144q0 -156 -125 -176v60q27 12 42.5 34.5t15.5 73.5zM127 1464h119l680 -1034q33 -51 64.5 -99t55.5 -92t50 -85h4v1310h102v-1464h-112l-672 1012q-125 189 -185 293h-4v-1305h-102v1464z" />
    <glyph glyph-name="ncommaaccent" unicode="&#x146;" horiz-adv-x="993" 
d="M504 -250v6h-53v146h120v-144q0 -156 -125 -176v60q27 12 42.5 34.5t15.5 73.5zM207 881q122 198 355 198t285 -121.5t52 -201.5v-756h-100v745q0 131 -65.5 189.5t-157.5 58.5q-164 0 -268.5 -90t-104.5 -219v-684h-101v1059h101v-178h4z" />
    <glyph glyph-name="Ncaron" unicode="&#x147;" horiz-adv-x="1329" 
d="M764 1540h-127l-193 207h121l135 -145h5l137 145h114zM127 1464h119l680 -1034q33 -51 64.5 -99t55.5 -92t50 -85h4v1310h102v-1464h-112l-672 1012q-125 189 -185 293h-4v-1305h-102v1464z" />
    <glyph glyph-name="ncaron" unicode="&#x148;" horiz-adv-x="993" 
d="M571 1212h-127l-163 218h116l111 -156h4l113 156h110zM207 881q122 198 355 198t285 -121.5t52 -201.5v-756h-100v745q0 131 -65.5 189.5t-157.5 58.5q-164 0 -268.5 -90t-104.5 -219v-684h-101v1059h101v-178h4z" />
    <glyph glyph-name="napostrophe" unicode="&#x149;" horiz-adv-x="993" 
d="M207 881q122 198 355 198t285 -121.5t52 -201.5v-756h-100v745q0 131 -65.5 189.5t-157.5 58.5q-164 0 -268.5 -90t-104.5 -219v-684h-101v1059h101v-178h4zM51 1307v6h-53v151h121v-149q0 -152 -125 -172v59q57 25 57 105z" />
    <glyph glyph-name="Eng" unicode="&#x14a;" horiz-adv-x="1329" 
d="M807 -287q291 0 291 275l-680 1024q-125 189 -185 293h-4v-1305h-102v1464h119l680 -1034q33 -51 64.5 -99t55.5 -92t50 -85h4v1310h102v-1484q0 -256 -141.5 -309.5t-217.5 -53.5t-120 8v96q36 -8 84 -8z" />
    <glyph glyph-name="eng" unicode="&#x14b;" horiz-adv-x="993" 
d="M207 881q122 198 355 198t285 -121.5t52 -201.5v-879q0 -117 -53 -167t-160 -50h-27v86h21q61 0 90 30.5t29 102.5v866q0 131 -65.5 189.5t-157.5 58.5q-164 0 -268.5 -90t-104.5 -219v-684h-101v1059h101v-178h4z" />
    <glyph glyph-name="Omacron" unicode="&#x14c;" horiz-adv-x="1454" 
d="M479 1661h496v-100h-496v100zM725 70q133 0 235.5 52t172 143t105.5 212t36 256t-36 256t-105.5 212t-172 143.5t-235.5 52.5t-235.5 -52.5t-171 -143.5t-103.5 -212t-35 -256t35 -256t103.5 -212t171 -143t235.5 -52zM70 734q0 331 180.5 545t475.5 214t476.5 -215
t181.5 -544t-181 -545t-477 -216t-476 215t-180 546z" />
    <glyph glyph-name="omacron" unicode="&#x14d;" horiz-adv-x="1052" 
d="M279 1391h495v-101h-495v101zM526 59q92 0 162 37t117 100.5t70.5 149.5t23.5 182.5t-23.5 182.5t-70.5 149.5t-117 100t-162 36.5t-161.5 -36.5t-116.5 -100t-70.5 -149.5t-23.5 -182.5t23.5 -182.5t70.5 -149.5t116.5 -100.5t161.5 -37zM51 528q0 243 129.5 398
t347.5 155q217 0 345 -153t128 -400t-128 -401t-346 -154q-217 0 -346.5 156t-129.5 399z" />
    <glyph glyph-name="Obreve" unicode="&#x14e;" horiz-adv-x="1454" 
d="M727 1636q125 0 147 115h95q-6 -92 -72 -150.5t-170 -58.5t-169.5 58.5t-72.5 150.5h95q22 -115 147 -115zM725 70q133 0 235.5 52t172 143t105.5 212t36 256t-36 256t-105.5 212t-172 143.5t-235.5 52.5t-235.5 -52.5t-171 -143.5t-103.5 -212t-35 -256t35 -256
t103.5 -212t171 -143t235.5 -52zM70 734q0 331 180.5 545t475.5 214t476.5 -215t181.5 -544t-181 -545t-477 -216t-476 215t-180 546z" />
    <glyph glyph-name="obreve" unicode="&#x14f;" horiz-adv-x="1052" 
d="M526.5 1206q-104.5 0 -170 62.5t-71.5 154.5h94q10 -53 46 -86.5t101.5 -33.5t101.5 33.5t46 86.5h94q-6 -92 -71.5 -154.5t-170 -62.5zM526 59q92 0 162 37t117 100.5t70.5 149.5t23.5 182.5t-23.5 182.5t-70.5 149.5t-117 100t-162 36.5t-161.5 -36.5t-116.5 -100
t-70.5 -149.5t-23.5 -182.5t23.5 -182.5t70.5 -149.5t116.5 -100.5t161.5 -37zM51 528q0 243 129.5 398t347.5 155q217 0 345 -153t128 -400t-128 -401t-346 -154q-217 0 -346.5 156t-129.5 399z" />
    <glyph glyph-name="Ohungarumlaut" unicode="&#x150;" horiz-adv-x="1454" 
d="M889 1767h123l-117 -225h-88zM625 1767h123l-117 -225h-88zM725 70q133 0 235.5 52t172 143t105.5 212t36 256t-36 256t-105.5 212t-172 143.5t-235.5 52.5t-235.5 -52.5t-171 -143.5t-103.5 -212t-35 -256t35 -256t103.5 -212t171 -143t235.5 -52zM70 734
q0 331 180.5 545t475.5 214t476.5 -215t181.5 -544t-181 -545t-477 -216t-476 215t-180 546z" />
    <glyph glyph-name="ohungarumlaut" unicode="&#x151;" horiz-adv-x="1052" 
d="M694 1464h123l-117 -260h-88zM430 1464h123l-117 -260h-88zM526 59q92 0 162 37t117 100.5t70.5 149.5t23.5 182.5t-23.5 182.5t-70.5 149.5t-117 100t-162 36.5t-161.5 -36.5t-116.5 -100t-70.5 -149.5t-23.5 -182.5t23.5 -182.5t70.5 -149.5t116.5 -100.5t161.5 -37z
M51 528q0 243 129.5 398t347.5 155q217 0 345 -153t128 -400t-128 -401t-346 -154q-217 0 -346.5 156t-129.5 399z" />
    <glyph glyph-name="OE" unicode="&#x152;" horiz-adv-x="2244" 
d="M710 70q224 0 367.5 139t143.5 354v367q-8 203 -148.5 335t-347.5 132q-259 0 -402 -190t-143 -474t103.5 -421.5t206 -189.5t220.5 -52zM727 -27q-297 0 -477 215t-180 546t180.5 545t476.5 214q174 0 298 -76t196 -207v254h929v-94h-823v-569h774v-92h-774v-611h844
v-98h-950v252q-161 -279 -494 -279z" />
    <glyph glyph-name="oe" unicode="&#x153;" horiz-adv-x="1853" 
d="M1371 995q-167 0 -258.5 -109t-108.5 -286h696q-7 271 -124.5 333t-204.5 62zM526 59q92 0 162 37t117 100.5t70.5 149.5t23.5 182.5t-23.5 182.5t-70.5 149.5t-117 100t-162 36.5t-161.5 -36.5t-116.5 -100t-70.5 -149.5t-23.5 -182.5t23.5 -182.5t70.5 -149.5
t116.5 -100.5t161.5 -37zM526 -27q-216 0 -345.5 155.5t-129.5 399.5q0 243 129.5 398t345.5 155q160 0 267.5 -81.5t156.5 -221.5q51 141 157.5 222t267.5 81t274 -102q88 -82 121.5 -195.5t31.5 -265.5h-801q0 -200 96 -328.5t286 -128.5q191 0 245.5 100.5t71.5 153.5h96
q-52 -240 -191 -291t-227 -51q-166 0 -273.5 81t-154.5 220q-51 -139 -157.5 -220t-266.5 -81z" />
    <glyph glyph-name="Racute" unicode="&#x154;" horiz-adv-x="1259" 
d="M702 1767h142l-207 -225h-90zM233 772h492q164 0 248 77t84 218t-71 222t-238 81h-515v-598zM127 1464h633q203 0 304 -102t101 -289q0 -270 -239 -346v-6q113 -37 157.5 -130t48.5 -225q11 -327 64 -358v-8h-115q-35 17 -42 124.5t-11 207.5q-8 199 -78 272.5t-245 73.5
h-472v-678h-106v1464z" />
    <glyph glyph-name="racute" unicode="&#x155;" horiz-adv-x="583" 
d="M414 1464h141l-207 -260h-90zM203 850h4q57 115 149 168q76 47 195 47v-100q-191 4 -269.5 -116t-78.5 -237v-612h-101v1059h101v-209z" />
    <glyph glyph-name="Rcommaaccent" unicode="&#x156;" horiz-adv-x="1259" 
d="M608 -250v6h-53v146h121v-144q0 -156 -125 -176v60q27 12 42 34.5t15 73.5zM233 772h492q164 0 248 77t84 218t-71 222t-238 81h-515v-598zM127 1464h633q203 0 304 -102t101 -289q0 -270 -239 -346v-6q113 -37 157.5 -130t48.5 -225q11 -327 64 -358v-8h-115
q-35 17 -42 124.5t-11 207.5q-8 199 -78 272.5t-245 73.5h-472v-678h-106v1464z" />
    <glyph glyph-name="rcommaaccent" unicode="&#x157;" horiz-adv-x="583" 
d="M143 -250v6h-53v146h121v-144q0 -156 -125 -176v60q27 12 42 34.5t15 73.5zM203 850h4q57 115 149 168q76 47 195 47v-100q-191 4 -269.5 -116t-78.5 -237v-612h-101v1059h101v-209z" />
    <glyph glyph-name="Rcaron" unicode="&#x158;" horiz-adv-x="1259" 
d="M676 1540h-127l-193 207h121l135 -145h4l138 145h114zM233 772h492q164 0 248 77t84 218t-71 222t-238 81h-515v-598zM127 1464h633q203 0 304 -102t101 -289q0 -270 -239 -346v-6q113 -37 157.5 -130t48.5 -225q11 -327 64 -358v-8h-115q-35 17 -42 124.5t-11 207.5
q-8 199 -78 272.5t-245 73.5h-472v-678h-106v1464z" />
    <glyph glyph-name="rcaron" unicode="&#x159;" horiz-adv-x="583" 
d="M403 1212h-127l-163 218h116l111 -156h4l113 156h110zM203 850h4q57 115 149 168q76 47 195 47v-100q-191 4 -269.5 -116t-78.5 -237v-612h-101v1059h101v-209z" />
    <glyph glyph-name="Sacute" unicode="&#x15a;" horiz-adv-x="1189" 
d="M674 1767h141l-207 -225h-90zM288 172.5q124 -104.5 312 -104.5t299 88.5t111 240.5t-93.5 214t-341.5 107q-249 45 -362 130.5t-113 258.5t136 279.5t353 106.5t343.5 -112.5t142.5 -295.5h-106q-16 151 -120.5 232.5t-272.5 81.5t-267.5 -82t-99.5 -211t87.5 -186.5
t329.5 -104.5q242 -46 368 -128.5t126 -277.5t-137.5 -315.5t-376.5 -120.5q-254 0 -400.5 135.5t-158.5 354.5h109q8 -186 132 -290.5z" />
    <glyph glyph-name="sacute" unicode="&#x15b;" horiz-adv-x="886" 
d="M520 1464h142l-207 -260h-90zM454 59q134 0 208.5 61.5t74.5 157.5t-59.5 140t-185.5 73q-125 29 -273.5 76.5t-148.5 231.5q0 129 102.5 205.5t257.5 76.5q255 0 311 -118.5t66 -182.5h-98q-10 102 -84 157.5t-199 55.5t-190.5 -54t-65.5 -140t73 -128t198 -69
q124 -28 188.5 -51t136.5 -75.5t72 -188.5q0 -137 -104.5 -225.5t-286.5 -88.5q-188 0 -295.5 98t-116.5 248h102q10 -131 96.5 -195.5t220.5 -64.5z" />
    <glyph glyph-name="Scircumflex" unicode="&#x15c;" horiz-adv-x="1189" 
d="M520 1747h127l193 -207h-121l-135 146h-4l-138 -146h-114zM288 172.5q124 -104.5 312 -104.5t299 88.5t111 240.5t-93.5 214t-341.5 107q-249 45 -362 130.5t-113 258.5t136 279.5t353 106.5t343.5 -112.5t142.5 -295.5h-106q-16 151 -120.5 232.5t-272.5 81.5
t-267.5 -82t-99.5 -211t87.5 -186.5t329.5 -104.5q242 -46 368 -128.5t126 -277.5t-137.5 -315.5t-376.5 -120.5q-254 0 -400.5 135.5t-158.5 354.5h109q8 -186 132 -290.5z" />
    <glyph glyph-name="scircumflex" unicode="&#x15d;" horiz-adv-x="886" 
d="M383 1430h127l164 -218h-117l-111 156h-4l-112 -156h-111zM454 59q134 0 208.5 61.5t74.5 157.5t-59.5 140t-185.5 73q-125 29 -273.5 76.5t-148.5 231.5q0 129 102.5 205.5t257.5 76.5q255 0 311 -118.5t66 -182.5h-98q-10 102 -84 157.5t-199 55.5t-190.5 -54
t-65.5 -140t73 -128t198 -69q124 -28 188.5 -51t136.5 -75.5t72 -188.5q0 -137 -104.5 -225.5t-286.5 -88.5q-188 0 -295.5 98t-116.5 248h102q10 -131 96.5 -195.5t220.5 -64.5z" />
    <glyph glyph-name="Scedilla" unicode="&#x15e;" horiz-adv-x="1189" 
d="M614 -219q0 47 -78 47q-31 0 -90 -14l-26 45l121 118q-231 19 -356.5 150.5t-137.5 335.5h109q8 -186 132 -290.5t312 -104.5t299 88.5t111 240.5t-93.5 214t-341.5 107q-249 45 -362 130.5t-113 258.5t136 279.5t353 106.5t343.5 -112.5t142.5 -295.5h-106
q-16 151 -120.5 232.5t-272.5 81.5t-267.5 -82t-99.5 -211t87.5 -186.5t329.5 -104.5q242 -46 368 -128.5t126 -275.5t-133.5 -313.5t-355.5 -124.5l-82 -75v-4q72 4 118 -29t46 -101t-55.5 -104.5t-148.5 -36.5t-175 45l26 51q76 -26 135 -26q60 0 89.5 20.5t29.5 67.5z
" />
    <glyph glyph-name="scedilla" unicode="&#x15f;" horiz-adv-x="886" 
d="M477 -219q0 47 -78 47q-31 0 -90 -14l-26 45l118 116q-171 11 -266.5 111t-99.5 233h102q10 -131 96.5 -195.5t220.5 -64.5t208.5 61.5t74.5 157.5t-59.5 140t-185.5 73q-125 29 -273.5 76.5t-148.5 231.5q0 129 102.5 205.5t257.5 76.5q255 0 311 -118.5t66 -182.5h-98
q-10 102 -84 157.5t-199 55.5t-190.5 -54t-65.5 -140t73 -128t198 -69q124 -28 188.5 -51t136.5 -75.5t72 -183.5t-88 -217t-254 -100l-84 -77v-4q72 4 117.5 -29t45.5 -101t-55 -104.5t-149 -36.5t-174 45l26 51q76 -26 135 -26t89 20.5t30 67.5z" />
    <glyph glyph-name="Scaron" unicode="&#x160;" horiz-adv-x="1189" 
d="M647 1540h-127l-192 207h121l135 -145h4l137 145h115zM288 172.5q124 -104.5 312 -104.5t299 88.5t111 240.5t-93.5 214t-341.5 107q-249 45 -362 130.5t-113 258.5t136 279.5t353 106.5t343.5 -112.5t142.5 -295.5h-106q-16 151 -120.5 232.5t-272.5 81.5t-267.5 -82
t-99.5 -211t87.5 -186.5t329.5 -104.5q242 -46 368 -128.5t126 -277.5t-137.5 -315.5t-376.5 -120.5q-254 0 -400.5 135.5t-158.5 354.5h109q8 -186 132 -290.5z" />
    <glyph glyph-name="scaron" unicode="&#x161;" horiz-adv-x="886" 
d="M510 1212h-127l-164 218h117l110 -156h5l112 156h111zM454 59q134 0 208.5 61.5t74.5 157.5t-59.5 140t-185.5 73q-125 29 -273.5 76.5t-148.5 231.5q0 129 102.5 205.5t257.5 76.5q255 0 311 -118.5t66 -182.5h-98q-10 102 -84 157.5t-199 55.5t-190.5 -54t-65.5 -140
t73 -128t198 -69q124 -28 188.5 -51t136.5 -75.5t72 -188.5q0 -137 -104.5 -225.5t-286.5 -88.5q-188 0 -295.5 98t-116.5 248h102q10 -131 96.5 -195.5t220.5 -64.5z" />
    <glyph glyph-name="uni0162" unicode="&#x162;" horiz-adv-x="1175" 
d="M584 -250v6h-54v146h121v-144q0 -156 -125 -176v60q27 12 42.5 34.5t15.5 73.5zM35 1464h1106v-96h-500v-1368h-106v1368h-500v96z" />
    <glyph glyph-name="uni0163" unicode="&#x163;" horiz-adv-x="544" 
d="M322 -250v6h-54v146h121v-144q0 -156 -125 -176v60q27 12 42.5 34.5t15.5 73.5zM193 172v803h-164v84h164v319h100v-319h192v-84h-192v-795q0 -59 23.5 -80.5t74.5 -21.5t82 18h6v-86q-45 -18 -117 -18t-120.5 43t-48.5 137z" />
    <glyph glyph-name="Tcaron" unicode="&#x164;" horiz-adv-x="1175" 
d="M651 1540h-127l-192 207h121l135 -145h4l137 145h115zM35 1464h1106v-96h-500v-1368h-106v1368h-500v96z" />
    <glyph glyph-name="tcaron" unicode="&#x165;" horiz-adv-x="544" 
d="M463 1313h-53v151h120v-149q0 -152 -124 -172v59q27 12 42 35t15 76zM193 172v803h-164v84h164v319h100v-319h192v-84h-192v-795q0 -59 23.5 -80.5t74.5 -21.5t82 18h6v-86q-45 -18 -117 -18t-120.5 43t-48.5 137z" />
    <glyph glyph-name="Tbar" unicode="&#x166;" horiz-adv-x="1175" 
d="M35 1464h1106v-96h-500v-537h266v-90h-266v-741h-106v741h-267v90h267v537h-500v96z" />
    <glyph glyph-name="tbar" unicode="&#x167;" horiz-adv-x="544" 
d="M193 172v459h-164v84h164v260h-164v84h164v319h100v-319h192v-84h-192v-260h192v-84h-192v-451q0 -59 23.5 -80.5t74.5 -21.5t82 18h6v-86q-45 -18 -117 -18t-120.5 43t-48.5 137z" />
    <glyph glyph-name="Utilde" unicode="&#x168;" horiz-adv-x="1273" 
d="M772 1556q-45 0 -79 13.5t-64.5 31t-59 31t-51 13.5t-41 -21.5t-22.5 -62.5h-86q8 88 49 130t87 42t77.5 -13.5t85.5 -44t86 -30.5q59 0 67 84h86q-6 -86 -48 -129.5t-87 -43.5zM637 72q416 0 416 397v995h106v-1003q0 -242 -141.5 -363t-383.5 -121q-243 0 -381 120
t-138 364v1003h106v-995q0 -215 107.5 -306t308.5 -91z" />
    <glyph glyph-name="utilde" unicode="&#x169;" horiz-adv-x="980" 
d="M626 1229q-45 0 -78.5 13t-64 30.5t-59.5 31t-51.5 13.5t-41 -21.5t-22.5 -62.5h-86q8 88 49.5 130t87.5 42q62 0 138.5 -44t106.5 -44q63 0 71 84h86q-6 -86 -48.5 -129t-87.5 -43zM778 0v162h-4q-64 -92 -140.5 -139.5t-212.5 -47.5t-231.5 86.5t-95.5 241.5v756h101
v-746q0 -131 69.5 -191.5t197.5 -60.5t222 93.5t94 234.5v670h101v-1059h-101z" />
    <glyph glyph-name="Umacron" unicode="&#x16a;" horiz-adv-x="1273" 
d="M389 1661h496v-100h-496v100zM637 72q416 0 416 397v995h106v-1003q0 -242 -141.5 -363t-383.5 -121q-243 0 -381 120t-138 364v1003h106v-995q0 -215 107.5 -306t308.5 -91z" />
    <glyph glyph-name="umacron" unicode="&#x16b;" horiz-adv-x="980" 
d="M244 1391h495v-101h-495v101zM778 0v162h-4q-64 -92 -140.5 -139.5t-212.5 -47.5t-231.5 86.5t-95.5 241.5v756h101v-746q0 -131 69.5 -191.5t197.5 -60.5t222 93.5t94 234.5v670h101v-1059h-101z" />
    <glyph glyph-name="Ubreve" unicode="&#x16c;" horiz-adv-x="1273" 
d="M636.5 1636q125.5 0 147.5 115h95q-6 -92 -72 -150.5t-170.5 -58.5t-170 58.5t-71.5 150.5h94q22 -115 147.5 -115zM637 72q416 0 416 397v995h106v-1003q0 -242 -141.5 -363t-383.5 -121q-243 0 -381 120t-138 364v1003h106v-995q0 -215 107.5 -306t308.5 -91z" />
    <glyph glyph-name="ubreve" unicode="&#x16d;" horiz-adv-x="980" 
d="M491.5 1206q-104.5 0 -170 62.5t-71.5 154.5h94q10 -53 46 -86.5t101.5 -33.5t101.5 33.5t46 86.5h94q-6 -92 -71.5 -154.5t-170 -62.5zM778 0v162h-4q-64 -92 -140.5 -139.5t-212.5 -47.5t-231.5 86.5t-95.5 241.5v756h101v-746q0 -131 69.5 -191.5t197.5 -60.5
t222 93.5t94 234.5v670h101v-1059h-101z" />
    <glyph glyph-name="Uring" unicode="&#x16e;" horiz-adv-x="1273" 
d="M637 1563q45 0 72.5 30.5t27.5 75.5t-27.5 76t-72.5 31t-72.5 -31t-27.5 -76t27.5 -75.5t72.5 -30.5zM637 1495q-37 0 -69.5 13.5t-56.5 37t-38 55t-14 68.5t14 68.5t38 55.5t56.5 37t69.5 13t69.5 -13t56 -37t38 -55.5t14.5 -68.5t-14.5 -68.5t-38 -55t-56 -37
t-69.5 -13.5zM637 72q416 0 416 397v995h106v-1003q0 -242 -141.5 -363t-383.5 -121q-243 0 -381 120t-138 364v1003h106v-995q0 -215 107.5 -306t308.5 -91z" />
    <glyph glyph-name="uring" unicode="&#x16f;" horiz-adv-x="980" 
d="M491.5 1247q45.5 0 73 31t27.5 76t-27.5 75.5t-73 30.5t-73 -30.5t-27.5 -75.5t27.5 -76t73 -31zM491.5 1180q-36.5 0 -69.5 13t-56.5 36.5t-38 55.5t-14.5 69t14.5 68.5t38 55t56.5 37t69.5 13.5t69.5 -13.5t56.5 -37t38 -55t14.5 -68.5t-14.5 -69t-38 -55.5
t-56.5 -36.5t-69.5 -13zM778 0v162h-4q-64 -92 -140.5 -139.5t-212.5 -47.5t-231.5 86.5t-95.5 241.5v756h101v-746q0 -131 69.5 -191.5t197.5 -60.5t222 93.5t94 234.5v670h101v-1059h-101z" />
    <glyph glyph-name="Uhungarumlaut" unicode="&#x170;" horiz-adv-x="1273" 
d="M799 1767h123l-117 -225h-88zM535 1767h122l-116 -225h-88zM637 72q416 0 416 397v995h106v-1003q0 -242 -141.5 -363t-383.5 -121q-243 0 -381 120t-138 364v1003h106v-995q0 -215 107.5 -306t308.5 -91z" />
    <glyph glyph-name="uhungarumlaut" unicode="&#x171;" horiz-adv-x="980" 
d="M659 1464h123l-116 -260h-88zM395 1464h123l-117 -260h-88zM778 0v162h-4q-64 -92 -140.5 -139.5t-212.5 -47.5t-231.5 86.5t-95.5 241.5v756h101v-746q0 -131 69.5 -191.5t197.5 -60.5t222 93.5t94 234.5v670h101v-1059h-101z" />
    <glyph glyph-name="Uogonek" unicode="&#x172;" horiz-adv-x="1273" 
d="M723 -279q42 0 102 23h6v-72q-50 -30 -129 -30t-122 39t-43 101q0 112 127 195h-33q-240 0 -378 120t-138 364v1003h106v-995q0 -215 107.5 -306t308.5 -91q416 0 416 397v995h106v-1003q0 -323 -268 -438q-39 -16 -78 -31.5t-82 -49.5q-92 -72 -92 -151q0 -70 84 -70z
" />
    <glyph glyph-name="uogonek" unicode="&#x173;" horiz-adv-x="980" 
d="M791 -281q38 0 100 23h6v-70q-51 -30 -129 -30t-120 38.5t-42 106.5t52.5 125t119.5 96v154h-4q-64 -92 -140.5 -139.5t-212.5 -47.5t-231.5 86.5t-95.5 241.5v756h101v-746q0 -131 69.5 -191.5t197.5 -60.5t222 93.5t94 234.5v670h101v-1057q-82 -55 -126 -105.5
t-44 -105.5q0 -72 82 -72z" />
    <glyph glyph-name="Wcircumflex" unicode="&#x174;" horiz-adv-x="1755" 
d="M813 1747h127l193 -207h-121l-135 146h-5l-137 -146h-114zM23 1464h106l270 -1011q10 -43 24.5 -97.5t26.5 -107.5t25 -111h4q13 55 25 105t25.5 101.5t23.5 92.5l272 1028h113l274 -1024q23 -95 43 -170q19 -75 33 -133h4q38 183 74 316l264 1011h103l-390 -1464h-114
l-287 1090q-23 85 -35 144q-12 58 -22 103h-4q-10 -43 -26 -120t-32 -127l-286 -1090h-119z" />
    <glyph glyph-name="wcircumflex" unicode="&#x175;" horiz-adv-x="1423" 
d="M645 1430h127l164 -218h-117l-110 156h-4l-113 -156h-111zM29 1059h104l180 -656q33 -128 47 -190q14 -63 29 -121h4q25 115 45.5 185.5t30.5 111.5l182 670h113l176 -670q10 -41 22.5 -91t23.5 -100t26 -106h4q43 177 84 311l194 656h101l-324 -1059h-121l-184 700
q-27 112 -37 161q-10 48 -20 91h-4q-30 -129 -60 -252l-190 -700h-125z" />
    <glyph glyph-name="Ycircumflex" unicode="&#x176;" horiz-adv-x="1185" 
d="M528 1747h127l193 -207h-121l-135 146h-4l-137 -146h-115zM645 0h-106v651l-529 813h117l465 -716h4l465 716h115l-531 -817v-647z" />
    <glyph glyph-name="ycircumflex" unicode="&#x177;" horiz-adv-x="931" 
d="M410 1430h127l163 -218h-116l-111 156h-4l-113 -156h-110zM211 -258q134 0 184 154l31 88l-406 1075h105l258 -701q14 -41 34 -96t58 -168h4q13 45 27 89t29.5 89t29.5 86l246 701h102l-426 -1186q-47 -129 -114 -176t-176 -47q-32 0 -80 12v90h4q30 -10 90 -10z" />
    <glyph glyph-name="Ydieresis" unicode="&#x178;" horiz-adv-x="1185" 
d="M696 1710h101v-164h-101v164zM387 1710h100v-164h-100v164zM645 0h-106v651l-529 813h117l465 -716h4l465 716h115l-531 -817v-647z" />
    <glyph glyph-name="Zacute" unicode="&#x179;" horiz-adv-x="1173" 
d="M692 1767h142l-207 -225h-90zM954 1372h-848v92h973v-98l-907 -1266v-6h940v-94h-1063v104l905 1262v6z" />
    <glyph glyph-name="zacute" unicode="&#x17a;" horiz-adv-x="882" 
d="M539 1464h141l-207 -260h-90zM688 971h-594v88h721v-84l-645 -881v-6h661v-88h-782v92l639 873v6z" />
    <glyph glyph-name="Zdotaccent" unicode="&#x17b;" horiz-adv-x="1173" 
d="M553 1710h100v-164h-100v164zM954 1372h-848v92h973v-98l-907 -1266v-6h940v-94h-1063v104l905 1262v6z" />
    <glyph glyph-name="zdotaccent" unicode="&#x17c;" horiz-adv-x="882" 
d="M416 1464h100v-164h-100v164zM688 971h-594v88h721v-84l-645 -881v-6h661v-88h-782v92l639 873v6z" />
    <glyph glyph-name="Zcaron" unicode="&#x17d;" horiz-adv-x="1173" 
d="M666 1540h-127l-193 207h121l135 -145h4l137 145h115zM954 1372h-848v92h973v-98l-907 -1266v-6h940v-94h-1063v104l905 1262v6z" />
    <glyph glyph-name="zcaron" unicode="&#x17e;" horiz-adv-x="882" 
d="M528 1212h-127l-163 218h116l111 -156h4l113 156h110zM688 971h-594v88h721v-84l-645 -881v-6h661v-88h-782v92l639 873v6z" />
    <glyph glyph-name="florin" unicode="&#x192;" horiz-adv-x="673" 
d="M90 811h180l54 373q16 109 70.5 164t164.5 55h78v-88h-78q-72 0 -98.5 -36t-36.5 -103l-51 -365h202v-84h-215l-116 -825q-16 -113 -77 -159t-169 -46h-31v88h31q127 0 145 125l115 817h-168v84z" />
    <glyph glyph-name="AEacute" unicode="&#x1fc;" horiz-adv-x="1935" 
d="M1290 1767h142l-207 -225h-90zM952 559v811h-258l-336 -811h594zM1059 709v-611h803v-98h-910v469h-630l-195 -469h-109l609 1464h1214v-94h-782v-569h713v-92h-713z" />
    <glyph glyph-name="aeacute" unicode="&#x1fd;" horiz-adv-x="1724" 
d="M958 1464h142l-207 -260h-90zM1242 995q-167 0 -258 -108.5t-110 -286.5h697q-7 271 -124.5 333t-204.5 62zM772 377v198q-55 -29 -134 -41t-155 -21t-136 -19.5t-128.5 -50t-68.5 -175.5q0 -209 284 -209q148 0 243 95.5t95 222.5zM1241 1081q167 0 279 -102
q88 -82 121.5 -195.5t31.5 -265.5h-801q0 -200 96 -328.5t286 -128.5q191 0 245.5 100.5t71.5 153.5h96q-52 -240 -191 -291t-227 -51q-293 0 -415 250h-3q-122 -250 -419 -250q-160 0 -262.5 78.5t-102.5 220.5q0 173 111 238t301 82t238 36t61.5 41.5t13.5 59.5v29
q0 237 -269 237t-302 -237h-101q20 154 122 238.5t288 84.5q291 0 344 -229q120 229 387 229z" />
    <glyph glyph-name="Oslashacute" unicode="&#x1fe;" horiz-adv-x="1454" 
d="M817 1767h141l-206 -225h-90zM342 236q149 -166 395 -166t391.5 190t145.5 456t-113 443zM1112 1225q-150 172 -398 172t-391 -190t-143 -461t113 -445zM223 223q-153 207 -153 524q0 318 180.5 532t465.5 214t464 -193l170 193l59 -55l-176 -199q151 -210 151 -522
t-181 -528t-464 -216q-282 0 -465 187l-170 -193l-59 56z" />
    <glyph glyph-name="oslashacute" unicode="&#x1ff;" horiz-adv-x="1052" 
d="M600 1464h141l-206 -260h-91zM264 176q100 -117 270 -117t267.5 132.5t97.5 320.5q0 189 -70 307zM788 879q-101 118 -270 118t-266.5 -131.5t-97.5 -322.5t69 -307zM156 158q-105 143 -105 378t129.5 390t339.5 155q209 0 332 -129l117 133l53 -47l-125 -143
q104 -147 104 -381t-128 -387.5t-338 -153.5t-334 129l-117 -133l-53 47z" />
    <glyph glyph-name="Scommaaccent" unicode="&#x218;" horiz-adv-x="1189" 
d="M580 -250v6h-54v146h121v-144q0 -156 -125 -176v60q27 12 42.5 34.5t15.5 73.5zM288 172.5q124 -104.5 312 -104.5t299 88.5t111 240.5t-93.5 214t-341.5 107q-249 45 -362 130.5t-113 258.5t136 279.5t353 106.5t343.5 -112.5t142.5 -295.5h-106q-16 151 -120.5 232.5
t-272.5 81.5t-267.5 -82t-99.5 -211t87.5 -186.5t329.5 -104.5q242 -46 368 -128.5t126 -277.5t-137.5 -315.5t-376.5 -120.5q-254 0 -400.5 135.5t-158.5 354.5h109q8 -186 132 -290.5z" />
    <glyph glyph-name="scommaaccent" unicode="&#x219;" horiz-adv-x="886" 
d="M442 -250v6h-53v146h121v-144q0 -156 -125 -176v60q27 12 42 34.5t15 73.5zM454 59q134 0 208.5 61.5t74.5 157.5t-59.5 140t-185.5 73q-125 29 -273.5 76.5t-148.5 231.5q0 129 102.5 205.5t257.5 76.5q255 0 311 -118.5t66 -182.5h-98q-10 102 -84 157.5t-199 55.5
t-190.5 -54t-65.5 -140t73 -128t198 -69q124 -28 188.5 -51t136.5 -75.5t72 -188.5q0 -137 -104.5 -225.5t-286.5 -88.5q-188 0 -295.5 98t-116.5 248h102q10 -131 96.5 -195.5t220.5 -64.5z" />
    <glyph glyph-name="uni021A" unicode="&#x21a;" horiz-adv-x="1175" 
d="M584 -250v6h-54v146h121v-144q0 -156 -125 -176v60q27 12 42.5 34.5t15.5 73.5zM35 1464h1106v-96h-500v-1368h-106v1368h-500v96z" />
    <glyph glyph-name="uni021B" unicode="&#x21b;" horiz-adv-x="544" 
d="M322 -250v6h-54v146h121v-144q0 -156 -125 -176v60q27 12 42.5 34.5t15.5 73.5zM193 172v803h-164v84h164v319h100v-319h192v-84h-192v-795q0 -59 23.5 -80.5t74.5 -21.5t82 18h6v-86q-45 -18 -117 -18t-120.5 43t-48.5 137z" />
    <glyph glyph-name="uni0237" unicode="&#x237;" horiz-adv-x="317" 
d="M-31 -254h21q61 0 90 30.5t29 102.5v1180h100v-1182q0 -117 -53.5 -167t-159.5 -50h-27v86z" />
    <glyph glyph-name="circumflex" unicode="&#x2c6;" 
d="M449 1430h126l164 -218h-116l-111 156h-4l-113 -156h-110z" />
    <glyph glyph-name="caron" unicode="&#x2c7;" 
d="M575 1212h-126l-164 218h116l111 -156h4l113 156h110z" />
    <glyph glyph-name="uni02C9" unicode="&#x2c9;" 
d="M264 1391h496v-101h-496v101z" />
    <glyph glyph-name="breve" unicode="&#x2d8;" 
d="M550.5 1206q-104.5 0 -170 62.5t-71.5 154.5h94q10 -53 46 -86.5t101.5 -33.5t101.5 33.5t46 86.5h95q-6 -92 -72 -154.5t-170.5 -62.5z" />
    <glyph glyph-name="dotaccent" unicode="&#x2d9;" horiz-adv-x="1064" 
d="M481 1464h101v-164h-101v164z" />
    <glyph glyph-name="ring" unicode="&#x2da;" horiz-adv-x="1042" 
d="M520 1247q45 0 73 31t28 76t-28 75.5t-73 30.5t-72.5 -30.5t-27.5 -75.5t27.5 -76t72.5 -31zM520 1180q-37 0 -69.5 13t-56 36.5t-38 55.5t-14.5 69t14.5 68.5t38 55t56 37t69.5 13.5t70 -13.5t56.5 -37t37.5 -55t14 -68.5t-14 -69t-37.5 -55.5t-56.5 -36.5t-70 -13z" />
    <glyph glyph-name="ogonek" unicode="&#x2db;" 
d="M481 -279q41 0 103 23h6v-72q-50 -30 -130 -30t-122.5 38.5t-42.5 106.5t53 124t115 89h104q-78 -53 -124 -103.5t-46 -105.5q0 -70 84 -70z" />
    <glyph glyph-name="tilde" unicode="&#x2dc;" 
d="M627 1317q59 0 67 84h86q-6 -86 -48 -129t-87 -43t-79 13t-64.5 30.5t-59 31t-51 13.5t-41 -21.5t-22.5 -62.5h-86q8 88 49 130t87 42t77.5 -13.5t85.5 -44t86 -30.5z" />
    <glyph glyph-name="hungarumlaut" unicode="&#x2dd;" 
d="M662 1464h122l-116 -260h-88zM397 1464h123l-117 -260h-88z" />
    <glyph glyph-name="uni0394" unicode="&#x394;" horiz-adv-x="1277" 
d="M156 90h964l-401 1051q-62 160 -80 217h-4l-25 -74q-10 -33 -24.5 -70.5t-26.5 -72.5zM1233 0h-1188v84l533 1380h120l535 -1380v-84z" />
    <glyph glyph-name="uni03A9" unicode="&#x3a9;" horiz-adv-x="1413" 
d="M289 353.5q109 -182.5 303 -255.5v-98h-514v94h352v4q-166 86 -263 259t-97 403q0 324 175 528.5t460 204.5t461.5 -203.5t176.5 -529.5q0 -229 -97 -402.5t-263 -259.5v-4h352v-94h-514v98q200 73 306 251.5t106 433.5t-139 434.5t-388.5 179.5t-387.5 -178.5
t-138 -430.5t109 -434.5z" />
    <glyph glyph-name="uni03BC" unicode="&#x3bc;" horiz-adv-x="989" 
d="M203 86v-426h-101v1399h101v-746q0 -131 69.5 -191.5t197.5 -60.5t222 93.5t94 234.5v670h101v-1059h-101v162h-4q-64 -92 -140.5 -139.5t-199.5 -47.5q-157 0 -235 111h-4z" />
    <glyph glyph-name="pi" unicode="&#x3c0;" horiz-adv-x="1144" 
d="M979 -8q-72 0 -121 43t-49 137v803h-504v-975h-100v975h-168v84h1038v-84h-166v-795q0 -59 23.5 -80.5t73.5 -21.5t84 18h6v-86q-45 -18 -117 -18z" />
    <glyph glyph-name="Wgrave" unicode="&#x1e80;" horiz-adv-x="1755" 
d="M850 1542l-207 225h141l156 -225h-90zM23 1464h106l270 -1011q10 -43 24.5 -97.5t26.5 -107.5t25 -111h4q13 55 25 105t25.5 101.5t23.5 92.5l272 1028h113l274 -1024q23 -95 43 -170q19 -75 33 -133h4q38 183 74 316l264 1011h103l-390 -1464h-114l-287 1090
q-23 85 -35 144q-12 58 -22 103h-4q-10 -43 -26 -120t-32 -127l-286 -1090h-119z" />
    <glyph glyph-name="wgrave" unicode="&#x1e81;" horiz-adv-x="1423" 
d="M694 1204l-207 260h142l155 -260h-90zM29 1059h104l180 -656q33 -128 47 -190q14 -63 29 -121h4q25 115 45.5 185.5t30.5 111.5l182 670h113l176 -670q10 -41 22.5 -91t23.5 -100t26 -106h4q43 177 84 311l194 656h101l-324 -1059h-121l-184 700q-27 112 -37 161
q-10 48 -20 91h-4q-30 -129 -60 -252l-190 -700h-125z" />
    <glyph glyph-name="Wacute" unicode="&#x1e82;" horiz-adv-x="1755" 
d="M967 1767h141l-207 -225h-90zM23 1464h106l270 -1011q10 -43 24.5 -97.5t26.5 -107.5t25 -111h4q13 55 25 105t25.5 101.5t23.5 92.5l272 1028h113l274 -1024q23 -95 43 -170q19 -75 33 -133h4q38 183 74 316l264 1011h103l-390 -1464h-114l-287 1090q-23 85 -35 144
q-12 58 -22 103h-4q-10 -43 -26 -120t-32 -127l-286 -1090h-119z" />
    <glyph glyph-name="wacute" unicode="&#x1e83;" horiz-adv-x="1423" 
d="M782 1464h142l-207 -260h-90zM29 1059h104l180 -656q33 -128 47 -190q14 -63 29 -121h4q25 115 45.5 185.5t30.5 111.5l182 670h113l176 -670q10 -41 22.5 -91t23.5 -100t26 -106h4q43 177 84 311l194 656h101l-324 -1059h-121l-184 700q-27 112 -37 161q-10 48 -20 91
h-4q-30 -129 -60 -252l-190 -700h-125z" />
    <glyph glyph-name="Wdieresis" unicode="&#x1e84;" horiz-adv-x="1755" 
d="M981 1710h100v-164h-100v164zM672 1710h100v-164h-100v164zM23 1464h106l270 -1011q10 -43 24.5 -97.5t26.5 -107.5t25 -111h4q13 55 25 105t25.5 101.5t23.5 92.5l272 1028h113l274 -1024q23 -95 43 -170q19 -75 33 -133h4q38 183 74 316l264 1011h103l-390 -1464h-114
l-287 1090q-23 85 -35 144q-12 58 -22 103h-4q-10 -43 -26 -120t-32 -127l-286 -1090h-119z" />
    <glyph glyph-name="wdieresis" unicode="&#x1e85;" horiz-adv-x="1423" 
d="M813 1464h100v-164h-100v164zM504 1464h100v-164h-100v164zM29 1059h104l180 -656q33 -128 47 -190q14 -63 29 -121h4q25 115 45.5 185.5t30.5 111.5l182 670h113l176 -670q10 -41 22.5 -91t23.5 -100t26 -106h4q43 177 84 311l194 656h101l-324 -1059h-121l-184 700
q-27 112 -37 161q-10 48 -20 91h-4q-30 -129 -60 -252l-190 -700h-125z" />
    <glyph glyph-name="Ygrave" unicode="&#x1ef2;" horiz-adv-x="1185" 
d="M565 1542l-207 225h142l155 -225h-90zM645 0h-106v651l-529 813h117l465 -716h4l465 716h115l-531 -817v-647z" />
    <glyph glyph-name="ygrave" unicode="&#x1ef3;" horiz-adv-x="931" 
d="M459 1204l-207 260h141l156 -260h-90zM211 -258q134 0 184 154l31 88l-406 1075h105l258 -701q14 -41 34 -96t58 -168h4q13 45 27 89t29.5 89t29.5 86l246 701h102l-426 -1186q-47 -129 -114 -176t-176 -47q-32 0 -80 12v90h4q30 -10 90 -10z" />
    <glyph glyph-name="uni2009" unicode="&#x2009;" horiz-adv-x="112" 
 />
    <glyph glyph-name="endash" unicode="&#x2013;" 
d="M0 565h1024v-88h-1024v88z" />
    <glyph glyph-name="emdash" unicode="&#x2014;" horiz-adv-x="2048" 
d="M205 565h1638v-88h-1638v88z" />
    <glyph glyph-name="quoteleft" unicode="&#x2018;" horiz-adv-x="292" 
d="M86 1292q0 156 125 176v-59q-27 -12 -42 -34.5t-15 -74.5v-26h53v-156h-121v174z" />
    <glyph glyph-name="quoteright" unicode="&#x2019;" horiz-adv-x="292" 
d="M139 1282v27h-53v155h121v-174q0 -156 -125 -176v60q27 12 42 34.5t15 73.5z" />
    <glyph glyph-name="quotesinglbase" unicode="&#x201a;" horiz-adv-x="292" 
d="M139 -27v27h-53v156h121v-174q0 -156 -125 -177v60q27 12 42 34.5t15 73.5z" />
    <glyph glyph-name="quotedblleft" unicode="&#x201c;" horiz-adv-x="524" 
d="M317 1292q0 156 125 176v-59q-27 -12 -42 -34.5t-15 -74.5v-26h53v-156h-121v174zM86 1292q0 156 125 176v-59q-27 -12 -42 -34.5t-15 -74.5v-26h53v-156h-121v174z" />
    <glyph glyph-name="quotedblright" unicode="&#x201d;" horiz-adv-x="524" 
d="M139 1282v27h-53v155h121v-174q0 -156 -125 -176v60q27 12 42 34.5t15 73.5zM371 1282v27h-54v155h121v-174q0 -156 -125 -176v60q27 12 42.5 34.5t15.5 73.5z" />
    <glyph glyph-name="quotedblbase" unicode="&#x201e;" horiz-adv-x="524" 
d="M139 -27v27h-53v156h121v-174q0 -156 -125 -177v60q27 12 42 34.5t15 73.5zM371 -27v27h-54v156h121v-174q0 -156 -125 -177v60q27 12 42.5 34.5t15.5 73.5z" />
    <glyph glyph-name="dagger" unicode="&#x2020;" horiz-adv-x="1015" 
d="M80 1053h377v411h102v-411h377v-88h-377v-1178h-102v1178h-377v88z" />
    <glyph glyph-name="daggerdbl" unicode="&#x2021;" horiz-adv-x="1015" 
d="M559 1053h377v-88h-377v-678h377v-88h-377v-412h-102v412h-377v88h377v678h-377v88h377v411h102v-411z" />
    <glyph glyph-name="bullet" unicode="&#x2022;" horiz-adv-x="567" 
d="M285 461q-86 0 -146.5 60.5t-60.5 143t59 145t146 62.5t146.5 -61.5t59.5 -146.5q0 -84 -59 -143.5t-145 -59.5z" />
    <glyph glyph-name="ellipsis" unicode="&#x2026;" horiz-adv-x="1042" 
d="M459 162h125v-162h-125v162zM834 162h124v-162h-124v162zM84 162h125v-162h-125v162z" />
    <glyph glyph-name="perthousand" unicode="&#x2030;" horiz-adv-x="2301" 
d="M1147 1403h94l-811 -1403h-94zM580 1038q0 160 -62.5 237t-148.5 77t-144.5 -78.5t-58.5 -235.5t58.5 -237t149.5 -80q87 0 146.5 78.5t59.5 238.5zM2136 370q0 160 -62.5 237t-148.5 77t-144.5 -78.5t-58.5 -235.5t58.5 -237t149.5 -80q88 0 147 78.5t59 238.5z
M1411 370q0 160 -62.5 237t-148.5 77t-144.5 -78.5t-58.5 -235.5t58.5 -237t149.5 -80q88 0 147 78.5t59 238.5zM1626 325q0 140 24.5 213.5t65.5 124t96.5 76t152 25.5t182 -105t85.5 -289t-85.5 -290.5t-217.5 -106.5t-217.5 106t-85.5 246zM901 325q0 140 24.5 213.5
t65.5 124t96.5 76t152 25.5t182 -105t85.5 -289t-85.5 -290.5t-217.5 -106.5t-217.5 106t-85.5 246zM70 993.5q0 139.5 24.5 213t65.5 123.5t96 76t151.5 26t182.5 -105t86 -289t-85 -290.5t-218 -106.5t-218 106.5t-85 246z" />
    <glyph glyph-name="uni2032" unicode="&#x2032;" horiz-adv-x="350" 
d="M170 1464h100l-90 -438h-100z" />
    <glyph glyph-name="uni2033" unicode="&#x2033;" horiz-adv-x="606" 
d="M170 1464h100l-90 -438h-100zM426 1464h100l-90 -438h-100z" />
    <glyph glyph-name="guilsinglleft" unicode="&#x2039;" horiz-adv-x="520" 
d="M123 487v138l274 229v-127l-211 -170v-4l211 -168v-127z" />
    <glyph glyph-name="guilsinglright" unicode="&#x203a;" horiz-adv-x="520" 
d="M397 625v-138l-274 -229v127l211 170v4l-211 168v127z" />
    <glyph glyph-name="fraction" unicode="&#x2044;" horiz-adv-x="395" 
d="M668 1464h108l-1048 -1464h-109z" />
    <glyph glyph-name="zero.superior" unicode="&#x2070;" horiz-adv-x="770" 
d="M440.5 715q161.5 0 161.5 342q0 164 -55 254t-162 90t-162 -89t-55 -254t55.5 -254t217 -89zM386 633q-153 0 -234.5 114.5t-81.5 311.5t86 309.5t230 112.5t229 -111.5t85 -309.5t-80.5 -312.5t-233.5 -114.5z" />
    <glyph glyph-name="four.superior" unicode="&#x2074;" horiz-adv-x="692" 
d="M129 928h295v405h-2l-293 -401v-4zM424 852h-379v92l383 529h88v-545h123v-76h-123v-203h-92v203z" />
    <glyph glyph-name="five.superior" unicode="&#x2075;" horiz-adv-x="679" 
d="M180 1122q71 62 178 62t180.5 -72.5t73.5 -198.5q0 -125 -76.5 -202.5t-196.5 -77.5t-196.5 64.5t-85.5 170.5h95q21 -153 182 -153q86 0 134 54t48 144.5t-49 140.5t-127 50q-117 0 -170 -76h-88l70 436h421v-82h-354l-41 -260h2z" />
    <glyph glyph-name="six.superior" unicode="&#x2076;" horiz-adv-x="729" 
d="M382 713q83 0 136 52t53 139t-54 142.5t-138 55.5t-142.5 -54.5t-58.5 -140.5t60.5 -140t143.5 -54zM393 1182q116 0 191 -80.5t75 -193.5t-77.5 -194t-199.5 -81q-122 -1 -193 65t-95 151t-24 195q0 208 80 322.5t243 114.5t202.5 -91.5t45.5 -134.5h-94
q-6 59 -48.5 103.5t-106.5 44.5q-117 0 -171.5 -85.5t-58.5 -250.5h6q80 115 225 115z" />
    <glyph glyph-name="seven.superior" unicode="&#x2077;" horiz-adv-x="636" 
d="M494 1382h-447v82h545v-80q-192 -192 -248.5 -405t-64.5 -330h-97q17 306 135.5 489t176.5 242v2z" />
    <glyph glyph-name="eight.superior" unicode="&#x2078;" horiz-adv-x="722" 
d="M359 1128q79 0 122 41t43 100.5t-42 100.5t-121 41t-120.5 -41t-41.5 -100.5t40.5 -100.5t119.5 -41zM360 713q94 0 147.5 49t53.5 124t-51.5 123t-147.5 48t-148 -48t-52 -124t52 -124t146 -48zM104 1274q0 96 73 153.5t187 57.5t183 -58.5t69 -150.5q0 -123 -118 -174
v-4q70 -23 114.5 -78.5t44.5 -125.5t-23.5 -116.5t-63.5 -78t-94 -47t-144.5 -15.5t-178 65t-87.5 181q0 82 44 135t111 78v4q-117 53 -117 174z" />
    <glyph glyph-name="nine.superior" unicode="&#x2079;" horiz-adv-x="731" 
d="M355 1012q89 0 142.5 53t54.5 140t-59.5 143.5t-143.5 56.5t-136 -55.5t-53 -142.5t53 -141t142 -54zM662 1063q0 -430 -304 -430q-123 0 -197.5 63.5t-84.5 173.5h96q6 -66 53 -111.5t134 -45.5t129 47q72 80 81 274h-4q-78 -102 -208 -102t-209.5 80.5t-79.5 194.5
t79 194t201 80q121 -1 193 -59t96.5 -144t24.5 -215z" />
    <glyph glyph-name="zero.inferior" unicode="&#x2080;" horiz-adv-x="770" 
d="M440.5 -242q161.5 0 161.5 342q0 164 -55 254t-162 90t-162 -89t-55 -254t55.5 -254t217 -89zM386 -324q-153 0 -234.5 115t-81.5 311t86 309t230 113t229 -111.5t85 -309.5t-80.5 -312.5t-233.5 -114.5z" />
    <glyph glyph-name="one.inferior" unicode="&#x2081;" horiz-adv-x="528" 
d="M248 297h-180v65q92 2 139 35t59 117h76v-821h-94v604z" />
    <glyph glyph-name="two.inferior" unicode="&#x2082;" horiz-adv-x="681" 
d="M516 298q0 62 -44 104t-121 42t-124 -50t-51 -150h-90q0 139 77 209.5t193 70.5t186 -67t70 -174q0 -146 -94 -206.5t-132 -83.5q-86 -52 -141.5 -101t-66.5 -119h430v-80h-545q5 183 123 265.5t182 122.5t90.5 65.5t42 57.5t15.5 94z" />
    <glyph glyph-name="three.inferior" unicode="&#x2083;" horiz-adv-x="696" 
d="M598 307q0 -127 -123 -176v-4q154 -47 154 -209q0 -117 -79 -179.5t-205 -62.5t-207 74.5t-81 196.5h95q4 -92 55 -141.5t140 -49.5t136 45t47 123t-48 120t-136 42h-57v76h55q76 0 118 39t42 107t-44 105.5t-121 37.5t-120 -53.5t-45 -131.5h-90q2 115 71 186.5
t185 71.5t187 -57t71 -160z" />
    <glyph glyph-name="four.inferior" unicode="&#x2084;" horiz-adv-x="692" 
d="M129 -29h295v406h-2l-293 -402v-4zM424 -104h-379v92l383 528h88v-545h123v-75h-123v-203h-92v203z" />
    <glyph glyph-name="five.inferior" unicode="&#x2085;" horiz-adv-x="679" 
d="M180 166q69 61 177 61t181.5 -72t73.5 -198q0 -125 -76.5 -203t-196.5 -78t-196.5 64.5t-85.5 171.5h95q21 -154 182 -154q86 0 134 54.5t48 144.5t-49 140t-127 50q-116 0 -170 -75h-88l70 436h421v-82h-354l-41 -260h2z" />
    <glyph glyph-name="six.inferior" unicode="&#x2086;" horiz-adv-x="729" 
d="M382 -244q83 0 136 52.5t53 139.5t-54 142t-138 55t-142.5 -54t-58.5 -140t60.5 -140.5t143.5 -54.5zM393 225q115 0 190.5 -79.5t75.5 -193.5t-77.5 -195t-199.5 -81t-193 66t-95 151t-24 195q0 207 79.5 321.5t233.5 114.5q117 0 180.5 -63.5t77.5 -161.5h-94
q-6 59 -48.5 103t-106.5 44q-117 0 -171.5 -85.5t-58.5 -249.5h6q80 114 225 114z" />
    <glyph glyph-name="seven.inferior" unicode="&#x2087;" horiz-adv-x="636" 
d="M494 426h-447v82h545v-80q-192 -192 -248.5 -405t-64.5 -330h-97q17 306 135.5 489t176.5 242v2z" />
    <glyph glyph-name="eight.inferior" unicode="&#x2088;" horiz-adv-x="722" 
d="M359 172q79 0 122 41t43 100.5t-42 100.5t-121 41t-120.5 -41t-41.5 -100.5t40.5 -100.5t119.5 -41zM360 -244q94 0 147.5 50t53.5 124t-51.5 122t-147.5 48t-148 -48t-52 -124t52 -124t146 -48zM104 317q0 96 73 153.5t187 57.5t183 -58t69 -151q0 -123 -118 -174v-4
q70 -23 114.5 -79t44.5 -126t-23.5 -115.5t-63.5 -77.5t-94 -47t-145.5 -15t-178 65.5t-86.5 179.5q0 82 44 135.5t111 77.5v4q-117 53 -117 174z" />
    <glyph glyph-name="nine.inferior" unicode="&#x2089;" horiz-adv-x="731" 
d="M355 55q89 0 142.5 53.5t54.5 140.5t-59.5 143.5t-143.5 56.5t-136 -55.5t-53 -142.5t53 -141.5t142 -54.5zM662 104q0 -428 -308 -428q-119 0 -193.5 63.5t-84.5 174.5h96q6 -66 53 -112t134 -46t129 48q72 81 81 274h-4q-78 -102 -208 -102t-209.5 80t-79.5 194
q0 115 79.5 194.5t200.5 79.5t193 -58t96.5 -144t24.5 -218z" />
    <glyph glyph-name="Euro" unicode="&#x20ac;" horiz-adv-x="1228" 
d="M45 866h141q33 260 166 413t340 153q174 0 289 -106.5t149 -305.5h-102q-29 154 -108.5 237.5t-227.5 83.5q-259 0 -323 -185t-76 -290h442v-84h-448q-2 -20 -2 -25v-63q0 -59 2 -80h448v-84h-440q25 -209 124.5 -336.5t307 -127.5t266 175t66.5 269h100
q-16 -246 -141 -391.5t-332.5 -145.5t-336.5 151t-163 406h-141v84h133q-2 20 -2 26v64q0 58 2 78h-133v84z" />
    <glyph glyph-name="afii61289" unicode="&#x2113;" horiz-adv-x="620" 
d="M356 1401q-106 0 -106 -170v-711q17 15 47 49q160 201 160 635q0 115 -28 156t-73 41zM150 1231q0 113 51 181.5t146 68.5t148.5 -62.5t53.5 -214.5q0 -579 -299 -780v-193q0 -78 25.5 -115.5t100.5 -37.5t116 33h6v-86q-60 -33 -150 -33t-144 53t-54 176v148
q-74 -27 -111 -35v82q84 27 111 39v776z" />
    <glyph glyph-name="trademark" unicode="&#x2122;" horiz-adv-x="1298" 
d="M70 1464h462v-73h-190v-512h-82v512h-190v73zM631 1464h121l161 -483h2l158 483h123v-585h-78v485h-4q-23 -77 -38 -121.5t-25 -77.5l-97 -286h-82l-96 286q-36 104 -63 199h-4v-485h-78v585z" />
    <glyph glyph-name="Omega" unicode="&#x2126;" horiz-adv-x="1413" 
d="M289 353.5q109 -182.5 303 -255.5v-98h-514v94h352v4q-166 86 -263 259t-97 403q0 324 175 528.5t460 204.5t461.5 -203.5t176.5 -529.5q0 -229 -97 -402.5t-263 -259.5v-4h352v-94h-514v98q200 73 306 251.5t106 433.5t-139 434.5t-388.5 179.5t-387.5 -178.5
t-138 -430.5t109 -434.5z" />
    <glyph glyph-name="estimated" unicode="&#x212e;" horiz-adv-x="1271" 
d="M646 1212q-200 0 -318 -125v-401h620v428q-102 98 -302 98zM670 55q348 0 446 326h86q-65 -286 -242.5 -345t-305.5 -59t-242.5 48.5t-233.5 181t-119 423.5t168.5 472.5t431.5 181.5q213 0 355 -121q113 -96 155.5 -232t40.5 -315h-882v-440q121 -121 342 -121z" />
    <glyph glyph-name="onethird" unicode="&#x2153;" horiz-adv-x="1603" 
d="M1495 614q0 -127 -123 -176v-4q154 -47 154 -209q0 -117 -79 -179t-200 -62q-204 0 -248.5 104.5t-44.5 165.5h95q4 -92 55 -141.5t140 -49.5t136 45.5t47 123t-48 119.5t-136 42h-57v76h55q76 0 118 38.5t42 106.5t-44 106t-121 38t-120 -53.5t-45 -131.5h-90
q2 115 70.5 186.5t184.5 71.5t187.5 -57t71.5 -160zM1171 1464h109l-1049 -1464h-108zM258 1253h-180v66q92 2 139 34.5t59 116.5h76v-821h-94v604z" />
    <glyph glyph-name="twothirds" unicode="&#x2154;" horiz-adv-x="1697" 
d="M1333 1464h109l-1049 -1464h-108zM526 1254q0 62 -44 104.5t-120 42.5t-124 -50.5t-52 -150.5h-90q0 139 77 210t193 71t186.5 -68.5t70.5 -173.5q0 -147 -94.5 -206t-132.5 -83q-93 -58 -144.5 -104.5t-63.5 -116.5h430v-80h-544q5 181 123 265t181.5 123.5t90.5 65
t42 57.5t15 94zM1589 614q0 -128 -123 -176v-4q154 -47 154 -209q0 -117 -79 -179t-200 -62q-203 0 -247.5 104.5t-44.5 165.5h94q4 -92 55 -141.5t140 -49.5t136.5 45.5t47.5 123t-48.5 119.5t-136.5 42h-57v76h55q76 0 118 38.5t42 106.5t-44 106t-121 38t-120 -53.5
t-45 -131.5h-90q2 115 70.5 186.5t184.5 71.5t187.5 -57t71.5 -160z" />
    <glyph glyph-name="oneeighth" unicode="&#x215b;" horiz-adv-x="1556" 
d="M1183 479q79 0 122 41t43 100.5t-42 100.5t-121 41t-121 -41t-42 -100.5t41 -100.5t120 -41zM1184 63q94 0 147 49.5t53 123.5t-52 123t-147 49t-147.5 -48.5t-52.5 -124.5t52.5 -124t146.5 -48zM928 625q0 96 72.5 153.5t186.5 57.5t183.5 -58.5t69.5 -150.5
q0 -123 -119 -174v-4q70 -23 115 -79.5t45 -125.5t-23.5 -115.5t-63.5 -78.5t-94.5 -47t-146 -15t-178 65.5t-86.5 179.5q0 82 44 135.5t111 77.5v5q-116 53 -116 174zM1151 1464h109l-1049 -1464h-109zM258 1253h-180v66q92 2 139 34.5t59 116.5h76v-821h-94v604z" />
    <glyph glyph-name="threeeighths" unicode="&#x215c;" horiz-adv-x="1705" 
d="M1332 479q79 0 122 41t43 100.5t-42 100.5t-121 41t-121 -41t-42 -100.5t41 -100.5t120 -41zM1333 63q94 0 147.5 49.5t53.5 123.5t-52 123t-148 49t-147.5 -48.5t-51.5 -124.5t52 -124t146 -48zM1077 625q0 96 72.5 153.5t186.5 57.5t183.5 -58.5t69.5 -150.5
q0 -123 -119 -174v-4q70 -23 115 -79.5t45 -125.5t-23.5 -115.5t-63.5 -78.5t-94 -47t-146 -15t-178.5 65.5t-86.5 179.5q0 82 44 135.5t112 77.5v5q-117 53 -117 174zM1311 1464h108l-1048 -1464h-109zM608 1264q0 -129 -123 -177v-4q154 -47 154 -209q0 -117 -79 -179
t-205 -62t-206.5 74t-80.5 196h94q4 -92 55 -141t140 -49t136.5 45t47.5 122.5t-48.5 119.5t-136.5 42h-57v76h55q76 0 118 39t42 107t-44 105.5t-121 37.5t-120 -53.5t-45 -130.5h-90q2 115 71 186.5t185 71.5t187 -57.5t71 -159.5z" />
    <glyph glyph-name="fiveeighths" unicode="&#x215d;" horiz-adv-x="1679" 
d="M1306 479q79 0 121.5 41t42.5 100.5t-42 100.5t-120 41t-120.5 -41t-42.5 -100.5t41 -100.5t120 -41zM1307 63q94 0 147 49.5t53 123.5t-52 123t-147 49t-147.5 -48.5t-52.5 -124.5t52.5 -124t146.5 -48zM1051 625q0 96 72.5 153.5t186.5 57.5t183.5 -58.5t69.5 -150.5
q0 -123 -119 -174v-4q70 -23 115 -79.5t45 -125.5t-24 -115.5t-63.5 -78.5t-94 -47t-146 -15t-178 65.5t-86.5 179.5q0 82 44 135.5t111 77.5v5q-116 53 -116 174zM1298 1464h109l-1049 -1464h-108zM190 1122q71 62 177 62q107 0 181.5 -72.5t74.5 -197.5q0 -126 -77 -203.5
t-197 -77.5t-196.5 64.5t-84.5 170.5h94q21 -153 182 -153q86 0 134 54t48 144.5t-49 140.5t-127 50q-117 0 -170 -76h-88l70 436h422v-82h-355l-41 -260h2z" />
    <glyph glyph-name="seveneighths" unicode="&#x215e;" horiz-adv-x="1585" 
d="M1211 479q79 0 122 41t43 100.5t-42 100.5t-121 41t-120.5 -41t-41.5 -100.5t40.5 -100.5t119.5 -41zM1212 63q94 0 147.5 49.5t53.5 123.5t-51.5 123t-147.5 49t-148 -48.5t-52 -124.5t52 -124t146 -48zM504 1382h-447v82h545v-80q-192 -192 -248.5 -405t-64.5 -330h-96
q17 307 135 489.5t176 241.5v2zM1153 1464h109l-1049 -1464h-109zM956 625q0 96 73 153.5t187 57.5t183 -58.5t69 -150.5q0 -123 -118 -174v-4q70 -23 114.5 -79.5t44.5 -125.5t-23.5 -115.5t-63.5 -78.5t-94 -47t-145.5 -15t-178 65.5t-86.5 179.5q0 82 44 135.5t111 77.5
v5q-117 53 -117 174z" />
    <glyph glyph-name="partialdiff" unicode="&#x2202;" horiz-adv-x="1013" 
d="M248.5 174q76.5 -113 236.5 -113t258.5 140.5t98.5 319.5t-85 278.5t-241 99.5t-250 -125.5t-94 -306.5q0 -180 76.5 -293zM952 602q0 -118 -29.5 -239t-122 -254.5t-319.5 -133.5q-193 0 -306.5 129.5t-113.5 353.5t130.5 377.5t340.5 153.5q211 0 310 -178
q-61 352 -248.5 454.5t-341.5 120.5v89q258 -23 414.5 -152.5t221 -308.5t64.5 -412z" />
    <glyph glyph-name="Delta" unicode="&#x2206;" horiz-adv-x="1277" 
d="M156 90h964l-401 1051q-62 160 -80 217h-4l-25 -74q-10 -33 -24.5 -70.5t-26.5 -72.5zM1233 0h-1188v84l533 1380h120l535 -1380v-84z" />
    <glyph glyph-name="product" unicode="&#x220f;" horiz-adv-x="1302" 
d="M244 1368v-1573h-107v1669h1028v-1669h-106v1573h-815z" />
    <glyph glyph-name="summation" unicode="&#x2211;" horiz-adv-x="1175" 
d="M86 -205v82l645 793v4l-645 684v106h1016v-94h-887v-4l621 -659v-64l-621 -752v-4h887v-92h-1016z" />
    <glyph glyph-name="minus" unicode="&#x2212;" horiz-adv-x="1044" 
d="M115 715h815v-94h-815v94z" />
    <glyph glyph-name="uni2215" unicode="&#x2215;" horiz-adv-x="395" 
d="M668 1464h108l-1048 -1464h-109z" />
    <glyph glyph-name="uni2219" unicode="&#x2219;" horiz-adv-x="292" 
d="M84 717h125v-162h-125v162z" />
    <glyph glyph-name="radical" unicode="&#x221a;" horiz-adv-x="1134" 
d="M25 623h235l174 -445q16 -43 32 -90t32 -91t30 -87h4q45 178 78 278l400 1276h102l-524 -1669h-113l-297 737h-153v91z" />
    <glyph glyph-name="infinity" unicode="&#x221e;" horiz-adv-x="1464" 
d="M1231 433q53 73 53 192q0 179 -77 221.5t-128 42.5q-88 0 -150 -68t-138 -198q82 -135 140 -199t153 -64q94 0 147 73zM231.5 813q-51.5 -76 -51.5 -188q0 -185 76 -225t128 -40q94 0 160 67.5t142 195.5q-82 134 -146 200t-160 66q-97 0 -148.5 -76zM378 274
q-141 0 -220.5 99t-79.5 252q0 234 115 291t185 57q123 0 207 -72t152 -188q73 121 128 169t103 69.5t109 21.5q145 0 227 -96.5t82 -252.5t-81.5 -253t-231.5 -97t-227.5 104.5t-108.5 156.5q-74 -122 -130 -170t-107.5 -69.5t-121.5 -21.5z" />
    <glyph glyph-name="integral" unicode="&#x222b;" horiz-adv-x="755" 
d="M569 1430q-63 0 -102 -38t-39 -118v-1389q0 -117 -64.5 -181t-146.5 -64t-135 22v88h6q35 -22 98 -22t102.5 37.5t39.5 117.5v1389q0 117 64.5 181.5t146.5 64.5t135 -23v-88h-6q-36 23 -99 23z" />
    <glyph glyph-name="approxequal" unicode="&#x2248;" horiz-adv-x="1044" 
d="M308 489q-44 0 -74.5 -29.5t-34.5 -84.5h-95q10 104 64.5 156.5t133.5 52.5t171 -37t144.5 -53.5t101.5 -16.5q119 0 129 115h92q-16 -209 -219 -209q-82 0 -176 37t-143.5 53t-93.5 16zM308 786q-44 0 -74.5 -29.5t-34.5 -84.5h-95q10 104 64.5 156.5t133.5 52.5
t171 -37t144.5 -53.5t101.5 -16.5q119 0 129 115h92q-16 -209 -219 -209q-82 0 -176 37t-143.5 53t-93.5 16z" />
    <glyph glyph-name="notequal" unicode="&#x2260;" horiz-adv-x="1044" 
d="M115 834h454l115 241h98l-114 -241h262v-95h-307l-101 -213h408v-94h-451l-119 -252h-98l119 252h-266v94h309l100 213h-409v95z" />
    <glyph glyph-name="lessequal" unicode="&#x2264;" horiz-adv-x="1005" 
d="M102 94h793v-94h-793v94zM102 580v116l793 340v-100l-702 -297v-4l702 -295v-100z" />
    <glyph glyph-name="greaterequal" unicode="&#x2265;" horiz-adv-x="1005" 
d="M111 94h792v-94h-792v94zM903 696v-116l-792 -340v100l702 297v4l-702 295v100z" />
    <glyph glyph-name="uni24C5" unicode="&#x24c5;" horiz-adv-x="1662" 
d="M893 731q194 0 194 172q0 82 -48 125t-140 43h-240v-340h234zM561 1157h348q139 0 208 -71q69 -70 69 -188t-72 -183.5t-209 -65.5h-246v-370h-98v878zM831.5 31q289.5 0 476.5 198.5t187 497.5t-186.5 498.5t-477 199.5t-477 -199.5t-186.5 -498.5t187 -497.5
t476.5 -198.5zM830 -35q-157 0 -292 57.5t-236 159t-158.5 241.5t-57.5 304t57.5 304t215 300t472.5 160q156 0 292.5 -57.5t237.5 -160t158.5 -242.5t57.5 -304t-57.5 -304t-158.5 -241.5t-237.5 -159t-293.5 -57.5z" />
    <glyph glyph-name="lozenge" unicode="&#x25ca;" horiz-adv-x="1064" 
d="M537 106l344 621l-349 631h-4l-344 -625l348 -627h5zM584 0h-101l-411 731l409 733h101l411 -735z" />
    <glyph glyph-name="f_i" unicode="&#xf001;" horiz-adv-x="821" 
d="M612 1464h101v-164h-101v164zM612 1059h101v-1059h-101v1059zM25 1059h157v201q0 213 228 213h63v-89h-57q-78 0 -105.5 -33.5t-27.5 -93.5v-198h196v-84h-196v-975h-101v975h-157v84z" />
    <glyph glyph-name="f_l" unicode="&#xf002;" horiz-adv-x="821" 
d="M612 1464h101v-1464h-101v1464zM25 1059h157v201q0 213 228 213h63v-89h-57q-78 0 -105.5 -33.5t-27.5 -93.5v-198h196v-84h-196v-975h-101v975h-157v84z" />
    <glyph glyph-name="uniF8FF" unicode="&#xf8ff;" horiz-adv-x="1732" 
d="M375 588h344v-346h295v346h344v295h-344v334h-295v-334h-344v-295zM133 1466h1466v-1466h-1466v1466z" />
    <glyph glyph-name="dotlessj" horiz-adv-x="317" 
d="M-31 -254h21q61 0 90 30.5t29 102.5v1180h100v-1182q0 -117 -53.5 -167t-159.5 -50h-27v86z" />
    <glyph glyph-name="commaaccent" 
d="M506 -250v6h-53v146h120v-144q0 -156 -124 -176v60q27 12 42 34.5t15 73.5z" />
    <glyph glyph-name="zero.denominator" horiz-adv-x="770" 
d="M440.5 66q161.5 0 161.5 342q0 164 -55 254t-162 90t-162 -90t-55 -254t55.5 -253t217 -89zM386 -16q-153 0 -234.5 114.5t-81.5 311.5t86 309t230 112t229 -111.5t85 -309.5t-80.5 -312t-233.5 -114z" />
    <glyph glyph-name="one.denominator" horiz-adv-x="528" 
d="M248 604h-180v66q92 2 139 34.5t59 116.5h76v-821h-94v604z" />
    <glyph glyph-name="two.denominator" horiz-adv-x="681" 
d="M516 606q0 62 -44 104t-121 42t-124 -50.5t-51 -150.5h-90q0 139 77 209.5t193 70.5t186 -67.5t70 -173.5q0 -147 -94 -206.5t-132 -83.5q-88 -55 -142.5 -102.5t-65.5 -117.5h430v-80h-545q5 181 115.5 259.5t182 123.5t98 70.5t42 58t15.5 94.5z" />
    <glyph glyph-name="three.denominator" horiz-adv-x="696" 
d="M598 614q0 -127 -123 -176v-4q154 -47 154 -209q0 -117 -79 -179t-200 -62q-204 0 -248.5 104.5t-44.5 165.5h95q4 -92 55 -141.5t140 -49.5t136 45.5t47 123t-48 119.5t-136 42h-57v76h55q76 0 118 38.5t42 106.5t-44 106t-121 38t-120 -53.5t-45 -131.5h-90
q2 115 71 186.5t185 71.5t187 -57t71 -160z" />
    <glyph glyph-name="four.denominator" horiz-adv-x="692" 
d="M129 279h295v405h-2l-293 -401v-4zM424 203h-379v92l383 528h88v-544h123v-76h-123v-203h-92v203z" />
    <glyph glyph-name="five.denominator" horiz-adv-x="679" 
d="M180 473q71 62 178 62t180.5 -72.5t73.5 -198.5q0 -125 -76.5 -202.5t-196.5 -77.5t-196.5 64.5t-85.5 170.5h95q21 -153 182 -153q86 0 134 54t48 144t-49 140.5t-127 50.5q-117 0 -170 -76h-88l70 436h421v-82h-354l-41 -260h2z" />
    <glyph glyph-name="six.denominator" horiz-adv-x="729" 
d="M382 63q83 0 136 52.5t53 139.5t-54 142.5t-138 55.5t-142.5 -54.5t-58.5 -140.5t60.5 -140.5t143.5 -54.5zM393 532q115 0 190.5 -79.5t75.5 -194.5q0 -114 -78 -194t-200 -80t-192 65q-71 65 -95 151t-24 196q0 208 79.5 321.5t243.5 113.5t203 -91t45 -134h-94
q-6 59 -48.5 103.5t-106.5 44.5q-118 0 -172 -86t-58 -250h6q80 114 225 114z" />
    <glyph glyph-name="seven.denominator" horiz-adv-x="636" 
d="M494 733h-447v82h545v-80q-192 -192 -248.5 -405t-64.5 -330h-97q17 306 135.5 489t176.5 242v2z" />
    <glyph glyph-name="eight.denominator" horiz-adv-x="722" 
d="M359 479q79 0 122 41t43 100.5t-42 100.5t-121 41t-120.5 -41t-41.5 -100.5t40.5 -100.5t119.5 -41zM360 63q94 0 147.5 49.5t53.5 123.5t-51.5 123t-147.5 49t-148 -48.5t-52 -124.5t52 -124t146 -48zM104 625q0 96 73 153.5t187 57.5t183 -58.5t69 -150.5
q0 -123 -118 -174v-4q70 -23 114.5 -79.5t44.5 -125.5t-23.5 -115.5t-63.5 -78.5t-94 -47t-145.5 -15t-178 65.5t-86.5 179.5q0 82 44 135.5t111 77.5v5q-117 53 -117 174z" />
    <glyph glyph-name="nine.denominator" horiz-adv-x="731" 
d="M355 362q89 0 142.5 53.5t54.5 140.5t-59.5 143.5t-143.5 56.5t-136 -55.5t-53 -142.5t53 -141.5t142 -54.5zM662 414q0 -430 -304 -430q-123 0 -197.5 63.5t-84.5 173.5h96q6 -66 53 -112t134 -46q87 -1 129 47q72 81 81 275h-4q-78 -102 -208 -102t-209.5 79.5
t-79.5 194.5t79.5 194.5t200.5 79.5t193 -58t96.5 -144t24.5 -215z" />
    <glyph glyph-name="zero.numerator" horiz-adv-x="770" 
d="M440.5 715q161.5 0 161.5 342q0 164 -55 254t-162 90t-162 -89t-55 -254t55.5 -254t217 -89zM386 633q-153 0 -234.5 114.5t-81.5 311.5t86 309.5t230 112.5t229 -111.5t85 -309.5t-80.5 -312.5t-233.5 -114.5z" />
    <glyph glyph-name="one.numerator" horiz-adv-x="528" 
d="M248 1253h-180v66q92 2 139 34.5t59 116.5h76v-821h-94v604z" />
    <glyph glyph-name="two.numerator" horiz-adv-x="681" 
d="M516 1254q0 62 -44 104.5t-121 42.5t-124 -50.5t-51 -150.5h-90q0 139 77 210t193 71t186 -68t70 -174q0 -147 -94 -206t-132 -83q-93 -57 -145 -104.5t-63 -116.5h430v-80h-545q5 181 125 266.5t182 123.5t88.5 63.5t42 57.5t15.5 94z" />
    <glyph glyph-name="three.numerator" horiz-adv-x="696" 
d="M598 1264q0 -128 -123 -177v-4q154 -47 154 -209q0 -117 -79 -179t-205 -62t-207 73.5t-81 196.5h95q4 -92 55 -141t140 -49t136 45t47 122.5t-48 119.5t-136 42h-57v76h55q76 0 118 39t42 107t-44 105.5t-121 37.5t-120 -53.5t-45 -130.5h-90q2 115 71 186.5t185 71.5
t187 -57.5t71 -159.5z" />
    <glyph glyph-name="four.numerator" horiz-adv-x="692" 
d="M129 928h295v405h-2l-293 -401v-4zM424 852h-379v92l383 529h88v-545h123v-76h-123v-203h-92v203z" />
    <glyph glyph-name="five.numerator" horiz-adv-x="679" 
d="M180 1122q71 62 178 62t180.5 -72.5t73.5 -198.5q0 -125 -76.5 -202.5t-196.5 -77.5t-196.5 64.5t-85.5 170.5h95q21 -153 182 -153q86 0 134 54t48 144.5t-49 140.5t-127 50q-117 0 -170 -76h-88l70 436h421v-82h-354l-41 -260h2z" />
    <glyph glyph-name="six.numerator" horiz-adv-x="729" 
d="M382 713q83 0 136 52t53 139t-54 142.5t-138 55.5t-142.5 -54.5t-58.5 -140.5t60.5 -140t143.5 -54zM393 1182q116 0 191 -80.5t75 -193.5t-77.5 -194t-199.5 -81q-122 -1 -193 65t-95 151t-24 195q0 208 80 322.5t243 114.5t202.5 -91.5t45.5 -134.5h-94
q-6 59 -48.5 103.5t-106.5 44.5q-117 0 -171.5 -85.5t-58.5 -250.5h6q80 115 225 115z" />
    <glyph glyph-name="seven.numerator" horiz-adv-x="636" 
d="M494 1382h-447v82h545v-80q-192 -192 -248.5 -405t-64.5 -330h-97q17 306 135.5 489t176.5 242v2z" />
    <glyph glyph-name="eight.numerator" horiz-adv-x="722" 
d="M359 1128q79 0 122 41t43 100.5t-42 100.5t-121 41t-120.5 -41t-41.5 -100.5t40.5 -100.5t119.5 -41zM360 713q94 0 147.5 49t53.5 124t-51.5 123t-147.5 48t-148 -48t-52 -124t52 -124t146 -48zM104 1274q0 96 73 153.5t187 57.5t183 -58.5t69 -150.5q0 -123 -118 -174
v-4q70 -23 114.5 -78.5t44.5 -125.5t-23.5 -116.5t-63.5 -78t-94 -47t-144.5 -15.5t-178 65t-87.5 181q0 82 44 135t111 78v4q-117 53 -117 174z" />
    <glyph glyph-name="nine.numerator" horiz-adv-x="731" 
d="M355 1012q89 0 142.5 53t54.5 140t-59.5 143.5t-143.5 56.5t-136 -55.5t-53 -142.5t53 -141t142 -54zM662 1063q0 -430 -304 -430q-123 0 -197.5 63.5t-84.5 173.5h96q6 -66 53 -111.5t134 -45.5t129 47q72 80 81 274h-4q-78 -102 -208 -102t-209.5 80.5t-79.5 194.5
t79 194t201 80q121 -1 193 -59t96.5 -144t24.5 -215z" />
    <glyph glyph-name="acute.cap" 
d="M584 1767h141l-207 -225h-90z" />
    <glyph glyph-name="breve.cap" 
d="M550.5 1636q125.5 0 147.5 115h95q-6 -92 -72 -150.5t-170.5 -58.5t-170 58.5t-71.5 150.5h94q22 -115 147.5 -115z" />
    <glyph glyph-name="caron.alt" 
d="M506 1307v6h-53v151h120v-149q0 -152 -124 -172v59q57 25 57 105z" />
    <glyph glyph-name="caron.cap" 
d="M575 1540h-126l-193 207h121l135 -145h4l137 145h115z" />
    <glyph glyph-name="circumflex.cap" 
d="M449 1747h126l193 -207h-121l-135 146h-4l-137 -146h-115z" />
    <glyph glyph-name="commaaccent.alt" 
d="M506 -250v6h-53v146h120v-144q0 -156 -124 -176v60q27 12 42 34.5t15 73.5z" />
    <glyph glyph-name="dieresis.cap" horiz-adv-x="1064" 
d="M637 1710h100v-164h-100v164zM328 1710h100v-164h-100v164z" />
    <glyph glyph-name="dotaccent.cap" horiz-adv-x="1064" 
d="M481 1710h101v-164h-101v164z" />
    <glyph glyph-name="grave.cap" 
d="M506 1542l-207 225h141l156 -225h-90z" />
    <glyph glyph-name="hungarumlaut.cap" 
d="M662 1767h122l-116 -225h-88zM397 1767h123l-117 -225h-88z" />
    <glyph glyph-name="macron.cap" 
d="M264 1661h496v-100h-496v100z" />
    <glyph glyph-name="ring.cap" horiz-adv-x="1042" 
d="M520 1587q45 0 73 31t28 76t-28 75.5t-73 30.5t-72.5 -30.5t-27.5 -75.5t27.5 -76t72.5 -31zM520 1520q-37 0 -69.5 13t-56 36.5t-38 55.5t-14.5 69t14.5 68.5t38 55t56 37t69.5 13.5t70 -13.5t56.5 -37t37.5 -55t14 -68.5t-14 -69t-37.5 -55.5t-56.5 -36.5t-70 -13z" />
    <glyph glyph-name="tilde.cap" 
d="M627 1645q59 0 67 84h86q-6 -86 -48 -129.5t-87 -43.5t-79 13.5t-64.5 31t-59 31t-51 13.5t-41 -21.5t-22.5 -62.5h-86q8 88 49 130t87 42t77.5 -13.5t85.5 -44t86 -30.5z" />
    <glyph glyph-name="Tcommaaccent" horiz-adv-x="1175" 
d="M584 -250v6h-54v146h121v-144q0 -156 -125 -176v60q27 12 42.5 34.5t15.5 73.5zM35 1464h1106v-96h-500v-1368h-106v1368h-500v96z" />
    <glyph glyph-name="idotaccent" horiz-adv-x="317" 
d="M109 1464h100v-164h-100v164zM109 1059h100v-1059h-100v1059z" />
    <glyph glyph-name="tcommaaccent" horiz-adv-x="544" 
d="M322 -250v6h-54v146h121v-144q0 -156 -125 -176v60q27 12 42.5 34.5t15.5 73.5zM193 172v803h-164v84h164v319h100v-319h192v-84h-192v-795q0 -59 23.5 -80.5t74.5 -21.5t82 18h6v-86q-45 -18 -117 -18t-120.5 43t-48.5 137z" />
    <glyph glyph-name="space_uni0326" 
d="M506 -250v6h-53v146h120v-144q0 -156 -124 -176v60q27 12 42 34.5t15 73.5z" />
    <glyph glyph-name="space_uni0326.alt" 
d="M518 1376v-6h53v-145h-120v143q0 156 124 176v-59q-27 -12 -42 -35t-15 -74z" />
    <glyph glyph-name="R.alt" horiz-adv-x="1218" 
d="M233 754h435q186 0 267 84t81 227t-86 224t-258 81h-439v-616zM1124 1063q0 -310 -274 -385l340 -678h-115l-330 659q-16 -2 -21 -2h-491v-657h-106v1464h553q220 0 332 -109t112 -292z" />
    <glyph glyph-name="a.alt" horiz-adv-x="974" 
d="M772 377v198q-55 -29 -134 -41t-155 -21t-136 -19.5t-128.5 -50t-68.5 -160.5t71 -172.5t201 -51.5q70 0 139.5 27t140 94.5t70.5 196.5zM774 139v25h-6q-63 -84 -146.5 -137.5t-230.5 -53.5t-245.5 78.5t-98.5 220.5q0 173 111 238t301 82t238 36t61.5 41.5t13.5 59.5
v29q0 237 -269 237t-302 -237h-101q20 154 122 238.5t282 84.5t274 -83t94 -246v-600q0 -118 33 -146v-6h-106q-25 36 -25 139z" />
    <glyph glyph-name="Racute.alt" horiz-adv-x="1218" 
d="M674 1767h141l-207 -225h-90zM233 754h435q186 0 267 84t81 227t-86 224t-258 81h-439v-616zM1124 1063q0 -310 -274 -385l340 -678h-115l-330 659q-16 -2 -21 -2h-491v-657h-106v1464h553q220 0 332 -109t112 -292z" />
    <glyph glyph-name="Rcaron.alt" horiz-adv-x="1218" 
d="M647 1540h-127l-192 207h121l135 -145h4l137 145h115zM233 754h435q186 0 267 84t81 227t-86 224t-258 81h-439v-616zM1124 1063q0 -310 -274 -385l340 -678h-115l-330 659q-16 -2 -21 -2h-491v-657h-106v1464h553q220 0 332 -109t112 -292z" />
    <glyph glyph-name="Rcommaaccent.alt" horiz-adv-x="1218" 
d="M580 -250v6h-54v146h121v-144q0 -156 -125 -176v60q27 12 42.5 34.5t15.5 73.5zM233 754h435q186 0 267 84t81 227t-86 224t-258 81h-439v-616zM1124 1063q0 -310 -274 -385l340 -678h-115l-330 659q-16 -2 -21 -2h-491v-657h-106v1464h553q220 0 332 -109t112 -292z" />
    <glyph glyph-name="agrave.alt" horiz-adv-x="974" 
d="M483 1204l-207 260h142l155 -260h-90zM772 377v198q-55 -29 -134 -41t-155 -21t-136 -19.5t-128.5 -50t-68.5 -160.5t71 -172.5t201 -51.5q70 0 139.5 27t140 94.5t70.5 196.5zM774 139v25h-6q-63 -84 -146.5 -137.5t-230.5 -53.5t-245.5 78.5t-98.5 220.5q0 173 111 238
t301 82t238 36t61.5 41.5t13.5 59.5v29q0 237 -269 237t-302 -237h-101q20 154 122 238.5t282 84.5t274 -83t94 -246v-600q0 -118 33 -146v-6h-106q-25 36 -25 139z" />
    <glyph glyph-name="aacute.alt" horiz-adv-x="974" 
d="M571 1464h142l-207 -260h-90zM772 377v198q-55 -29 -134 -41t-155 -21t-136 -19.5t-128.5 -50t-68.5 -160.5t71 -172.5t201 -51.5q70 0 139.5 27t140 94.5t70.5 196.5zM774 139v25h-6q-63 -84 -146.5 -137.5t-230.5 -53.5t-245.5 78.5t-98.5 220.5q0 173 111 238t301 82
t238 36t61.5 41.5t13.5 59.5v29q0 237 -269 237t-302 -237h-101q20 154 122 238.5t282 84.5t274 -83t94 -246v-600q0 -118 33 -146v-6h-106q-25 36 -25 139z" />
    <glyph glyph-name="acircumflex.alt" horiz-adv-x="974" 
d="M434 1430h127l164 -218h-117l-110 156h-4l-113 -156h-111zM772 377v198q-55 -29 -134 -41t-155 -21t-136 -19.5t-128.5 -50t-68.5 -160.5t71 -172.5t201 -51.5q70 0 139.5 27t140 94.5t70.5 196.5zM774 139v25h-6q-63 -84 -146.5 -137.5t-230.5 -53.5t-245.5 78.5
t-98.5 220.5q0 173 111 238t301 82t238 36t61.5 41.5t13.5 59.5v29q0 237 -269 237t-302 -237h-101q20 154 122 238.5t282 84.5t274 -83t94 -246v-600q0 -118 33 -146v-6h-106q-25 36 -25 139z" />
    <glyph glyph-name="atilde.alt" horiz-adv-x="974" 
d="M632 1229q-45 0 -78.5 13t-64 30.5t-59.5 31t-51.5 13.5t-41 -21.5t-22.5 -62.5h-86q8 88 49.5 130t87.5 42t77.5 -13.5t85.5 -44t83 -30.5q62 0 70 84h86q-6 -86 -48.5 -129t-87.5 -43zM772 377v198q-55 -29 -134 -41t-155 -21t-136 -19.5t-128.5 -50t-68.5 -160.5
t71 -172.5t201 -51.5q70 0 139.5 27t140 94.5t70.5 196.5zM774 139v25h-6q-63 -84 -146.5 -137.5t-230.5 -53.5t-245.5 78.5t-98.5 220.5q0 173 111 238t301 82t238 36t61.5 41.5t13.5 59.5v29q0 237 -269 237t-302 -237h-101q20 154 122 238.5t282 84.5t274 -83t94 -246
v-600q0 -118 33 -146v-6h-106q-25 36 -25 139z" />
    <glyph glyph-name="adieresis.alt" horiz-adv-x="974" 
d="M602 1464h100v-164h-100v164zM293 1464h100v-164h-100v164zM772 377v198q-55 -29 -134 -41t-155 -21t-136 -19.5t-128.5 -50t-68.5 -160.5t71 -172.5t201 -51.5q70 0 139.5 27t140 94.5t70.5 196.5zM774 139v25h-6q-63 -84 -146.5 -137.5t-230.5 -53.5t-245.5 78.5
t-98.5 220.5q0 173 111 238t301 82t238 36t61.5 41.5t13.5 59.5v29q0 237 -269 237t-302 -237h-101q20 154 122 238.5t282 84.5t274 -83t94 -246v-600q0 -118 33 -146v-6h-106q-25 36 -25 139z" />
    <glyph glyph-name="amacron.alt" horiz-adv-x="974" 
d="M250 1391h495v-101h-495v101zM772 377v198q-55 -29 -134 -41t-155 -21t-136 -19.5t-128.5 -50t-68.5 -160.5t71 -172.5t201 -51.5q70 0 139.5 27t140 94.5t70.5 196.5zM774 139v25h-6q-63 -84 -146.5 -137.5t-230.5 -53.5t-245.5 78.5t-98.5 220.5q0 173 111 238t301 82
t238 36t61.5 41.5t13.5 59.5v29q0 237 -269 237t-302 -237h-101q20 154 122 238.5t282 84.5t274 -83t94 -246v-600q0 -118 33 -146v-6h-106q-25 36 -25 139z" />
    <glyph glyph-name="abreve.alt" horiz-adv-x="974" 
d="M497.5 1206q-104.5 0 -170 62.5t-71.5 154.5h94q10 -53 46 -86.5t101.5 -33.5t101.5 33.5t46 86.5h94q-6 -92 -71.5 -154.5t-170 -62.5zM772 377v198q-55 -29 -134 -41t-155 -21t-136 -19.5t-128.5 -50t-68.5 -160.5t71 -172.5t201 -51.5q70 0 139.5 27t140 94.5
t70.5 196.5zM774 139v25h-6q-63 -84 -146.5 -137.5t-230.5 -53.5t-245.5 78.5t-98.5 220.5q0 173 111 238t301 82t238 36t61.5 41.5t13.5 59.5v29q0 237 -269 237t-302 -237h-101q20 154 122 238.5t282 84.5t274 -83t94 -246v-600q0 -118 33 -146v-6h-106q-25 36 -25 139z
" />
    <glyph glyph-name="aring.alt" horiz-adv-x="974" 
d="M498 1247q45 0 72.5 31t27.5 76t-27.5 75.5t-72.5 30.5t-73 -30.5t-28 -75.5t28 -76t73 -31zM498 1180q-37 0 -70 13t-56.5 36.5t-38 55.5t-14.5 69t14.5 68.5t38 55t56.5 37t70 13.5t69.5 -13.5t56 -37t38 -55t14.5 -68.5t-14.5 -69t-38 -55.5t-56 -36.5t-69.5 -13z
M772 377v198q-55 -29 -134 -41t-155 -21t-136 -19.5t-128.5 -50t-68.5 -160.5t71 -172.5t201 -51.5q70 0 139.5 27t140 94.5t70.5 196.5zM774 139v25h-6q-63 -84 -146.5 -137.5t-230.5 -53.5t-245.5 78.5t-98.5 220.5q0 173 111 238t301 82t238 36t61.5 41.5t13.5 59.5v29
q0 237 -269 237t-302 -237h-101q20 154 122 238.5t282 84.5t274 -83t94 -246v-600q0 -118 33 -146v-6h-106q-25 36 -25 139z" />
    <glyph glyph-name="aogonek.alt" horiz-adv-x="974" 
d="M772 377v198q-55 -29 -134 -41t-155 -21t-136 -19.5t-128.5 -50t-68.5 -160.5t71 -172.5t201 -51.5q70 0 139.5 27t140 94.5t70.5 196.5zM774 139v25h-6q-63 -84 -146.5 -137.5t-230.5 -53.5t-245.5 78.5t-98.5 220.5q0 173 111 238t301 82t238 36t61.5 41.5t13.5 59.5
v29q0 237 -269 237t-302 -237h-101q20 154 122 238.5t282 84.5t274 -83t94 -246v-600q0 -100 27 -146v-6q-76 -41 -128 -96.5t-52 -112.5q0 -72 84 -72q42 0 102 23h6v-72q-47 -28 -127 -28q-81 0 -124.5 38.5t-43.5 104t50.5 124t128.5 103.5q-21 42 -21 127z" />
    <glyph glyph-name="Ccedilla.alt" horiz-adv-x="1343" 
d="M649 -197v131h121v-116q0 -156 -125 -162v59q25 6 40 23.5t17 64.5h-53zM1155 166q-164 -193 -454 -193t-460.5 209t-170.5 549t175 551t470 211q217 0 360.5 -111.5t186.5 -318.5h-107q-31 150 -143.5 244t-296.5 94q-258 0 -396.5 -189.5t-138.5 -481.5t136 -477
t393 -185q209 0 334.5 129.5t146.5 332.5h100q-21 -229 -135 -364z" />
    <glyph glyph-name="Scedilla.alt" horiz-adv-x="1189" 
d="M288 172.5q124 -104.5 312 -104.5t299 88.5t111 240.5t-93.5 214t-341.5 107q-249 45 -362 130.5t-113 258.5t136 279.5t353 106.5t343.5 -112.5t142.5 -295.5h-106q-16 151 -120.5 232.5t-272.5 81.5t-267.5 -82t-99.5 -211t87.5 -186.5t329.5 -104.5
q242 -46 368 -128.5t126 -277.5t-137.5 -315.5t-376.5 -120.5q-254 0 -400.5 135.5t-158.5 354.5h109q8 -186 132 -290.5zM526 -197v131h121v-116q0 -156 -125 -162v59q25 6 40.5 23.5t17.5 64.5h-54z" />
    <glyph glyph-name="ccedilla.alt" horiz-adv-x="966" 
d="M514 995q-184 0 -272 -131.5t-88 -335.5t89.5 -335.5t268.5 -131.5q139 0 225 83t103 214h94q-20 -174 -131.5 -279.5t-290.5 -105.5q-221 0 -341 153t-120 400t121 401t342 154q166 0 274.5 -84t133.5 -243h-99q-51 241 -309 241zM438 -197v131h121v-116
q0 -156 -125 -162v59q25 6 40 23.5t18 64.5h-54z" />
    <glyph glyph-name="scedilla.alt" horiz-adv-x="886" 
d="M454 59q134 0 208.5 61.5t74.5 157.5t-59.5 140t-185.5 73q-125 29 -273.5 76.5t-148.5 231.5q0 129 102.5 205.5t257.5 76.5q255 0 311 -118.5t66 -182.5h-98q-10 102 -84 157.5t-199 55.5t-190.5 -54t-65.5 -140t73 -128t198 -69q124 -28 188.5 -51t136.5 -75.5
t72 -188.5q0 -137 -104.5 -225.5t-286.5 -88.5q-188 0 -295.5 98t-116.5 248h102q10 -131 96.5 -195.5t220.5 -64.5zM389 -197v131h121v-116q0 -156 -125 -162v59q25 6 40 23.5t17 64.5h-53z" />
    <glyph glyph-name="hyphen.cap" horiz-adv-x="671" 
d="M68 717h536v-92h-536v92z" />
    <glyph glyph-name="endash.cap" 
d="M0 715h1024v-88h-1024v88z" />
    <glyph glyph-name="emdash.cap" horiz-adv-x="2048" 
d="M205 715h1638v-88h-1638v88z" />
    <glyph glyph-name="questiondown.cap" horiz-adv-x="1009" 
d="M616 1303h-124v161h124v-161zM604 1110q0 -171 -45 -261t-150 -176t-153.5 -152t-48.5 -189t81 -193.5t223 -70.5t231.5 96t93.5 242h104q0 -175 -116.5 -304t-334.5 -129q-175 0 -283 104t-108 261q0 202 138.5 318t174 154t64.5 96t29 204h100z" />
    <glyph glyph-name="exclamdown.cap" horiz-adv-x="403" 
d="M264 1303h-125v161h125v-161zM258 0h-113v469l21 641h72l20 -641v-469z" />
    <glyph glyph-name="parenleft.cap" horiz-adv-x="555" 
d="M266 748q0 -511 250 -928h-94q-272 413 -271 912q1 498 271 874h94q-246 -390 -250 -858z" />
    <glyph glyph-name="parenright.cap" horiz-adv-x="555" 
d="M133 1606q270 -421 270 -915t-270 -871h-94q246 396 250 858q0 511 -250 928h94z" />
    <glyph glyph-name="bracketleft.cap" horiz-adv-x="577" 
d="M168 1606h338v-93h-236v-1599h236v-94h-338v1786z" />
    <glyph glyph-name="bracketright.cap" horiz-adv-x="577" 
d="M410 -180h-338v94h235v1599h-235v93h338v-1786z" />
    <glyph glyph-name="braceleft.cap" horiz-adv-x="577" 
d="M293 537v-461q0 -92 36 -127t113 -35h33v-94h-37q-248 0 -248 254v454q0 72 -29.5 108t-111.5 38v94q82 2 111.5 38t29.5 107v439q0 254 248 254h37v-93h-33q-78 0 -113.5 -35.5t-35.5 -127.5v-445q0 -80 -27.5 -123t-87.5 -59v-4q115 -31 115 -182z" />
    <glyph glyph-name="braceright.cap" horiz-adv-x="577" 
d="M387 74q0 -254 -248 -254h-37v94h33q78 0 114 35t36 127v461q0 80 27.5 122.5t86.5 59.5v4q-59 16 -86.5 59t-27.5 123v445q0 92 -36 127.5t-114 35.5h-33v93h37q248 0 248 -254v-439q0 -72 29.5 -107.5t111.5 -37.5v-94q-82 -2 -111.5 -38t-29.5 -108v-454z" />
    <glyph glyph-name="guillemotleft.cap" horiz-adv-x="823" 
d="M123 580v137l254 229v-127l-191 -170v-4l191 -168v-127zM446 580v137l254 229v-127l-190 -170v-4l190 -168v-127z" />
    <glyph glyph-name="guillemotright.cap" horiz-adv-x="823" 
d="M700 717v-137l-254 -230v127l191 170v4l-191 168v127zM377 717v-137l-254 -230v127l190 170v4l-190 168v127z" />
    <glyph glyph-name="guilsinglleft.cap" horiz-adv-x="520" 
d="M123 580v137l274 229v-127l-211 -170v-4l211 -168v-127z" />
    <glyph glyph-name="guilsinglright.cap" horiz-adv-x="520" 
d="M397 717v-137l-274 -230v127l211 170v4l-211 168v127z" />
    <glyph glyph-name="registered.alt" horiz-adv-x="1662" 
d="M1069 958.5q0 116.5 -170 116.5h-268v-317h258q90 0 135 42t45 158.5zM532 1161h383q121 0 187.5 -63.5t66.5 -171.5q0 -162 -151 -207v-4q68 -20 95.5 -69.5t34.5 -189.5t36 -153v-6h-101q-16 8 -22 49.5t-10 145.5t-47 144t-136 40h-237v-379h-99v864zM831.5 31
q289.5 0 476.5 198.5t187 497.5t-186.5 498.5t-477 199.5t-477 -199.5t-186.5 -498.5t187 -497.5t476.5 -198.5zM830 -35q-157 0 -292 57.5t-236 159t-158.5 241.5t-57.5 304t57.5 304t215 300t472.5 160q156 0 292.5 -57.5t237.5 -160t158.5 -242.5t57.5 -304t-57.5 -304
t-158.5 -241.5t-237.5 -159t-293.5 -57.5z" />
    <glyph glyph-name="dollar.cap" horiz-adv-x="1126" 
d="M205 1110q0 -117 73.5 -176t249.5 -96v551q-154 -8 -238.5 -85t-84.5 -194zM879.5 618q-74.5 62 -267.5 105v-617q148 8 245 92t97 221t-74.5 199zM218.5 1369q116.5 102 309.5 110v120h84v-122q182 -16 287 -123t119 -267h-103q-12 135 -96 211t-207 88v-565
q220 -42 334.5 -123.5t114.5 -259.5q0 -179 -126 -297.5t-323 -122.5v-182h-84v184q-214 15 -341.5 146t-135.5 321h103q6 -166 107 -264t267 -114v630q-216 42 -321 122t-105 243t116.5 265z" />
    <glyph glyph-name="Euro.cap" horiz-adv-x="1275" 
d="M766 905v-86h-473q-2 -23 -2 -28v-66q0 -61 2 -84h473v-86h-465q46 -347 184 -416t271 -69t230 125.5t118 336.5h102q-20 -259 -148.5 -409t-342.5 -150q-325 0 -415.5 224.5t-106.5 357.5h-148v86h139q-2 23 -2 29v66q0 61 2 83h-139v86h148q33 271 172 429.5t356 158.5
q182 0 301 -110.5t154 -317.5h-105q-61 334 -342 334q-282 0 -350 -191.5t-80 -302.5h467z" />
    <glyph glyph-name="sterling.cap" horiz-adv-x="1120" 
d="M295 458q0 110 -37 214h-178v88h147q-29 74 -54.5 151.5t-25.5 162.5q0 179 116 299t318 120t323.5 -121.5t125.5 -329.5h-102q-4 182 -103 270.5t-250 88.5t-236 -90t-85 -234q0 -78 27.5 -156.5t56.5 -160.5h360v-88h-329q24 -98 24 -172q0 -242 -149 -371l2 -4
q39 20 70.5 31.5t83.5 11.5t99.5 -15.5t92.5 -33t89.5 -32.5t104.5 -15q95 0 215 104l60 -76q-69 -60 -132.5 -90t-146.5 -30q-82 0 -130 16t-89 34.5t-85 35t-107 16.5q-101 0 -232 -92l-61 90q100 74 158.5 171t58.5 207z" />
    <glyph glyph-name="yen.cap" horiz-adv-x="1077" 
d="M102 696h357l-434 768h122l390 -704h4l393 704h119l-439 -768h357v-84h-381v-163h381v-87h-381v-362h-107v362h-381v87h381v163h-381v84z" />
    <glyph glyph-name="zero.cap" horiz-adv-x="1216" 
d="M611 70q204 0 314.5 165.5t110.5 494.5t-112.5 498t-314.5 169t-315.5 -165t-113.5 -495t113.5 -498.5t317.5 -168.5zM70 734q0 357 146.5 558t394.5 201t392 -202t144 -557t-142 -558t-396.5 -203t-396.5 202t-142 559z" />
    <glyph glyph-name="one.cap" horiz-adv-x="673" 
d="M371 1128h-301v70q193 12 257 62.5t76 212.5h74v-1473h-106v1128z" />
    <glyph glyph-name="two.cap" horiz-adv-x="1050" 
d="M66 0q0 336 187 465t365 239.5t216 198.5t38 178q0 160 -83.5 239t-233.5 79t-246 -92.5t-104 -290.5h-105q0 228 133 352.5t327 124.5t307.5 -113.5t113.5 -302.5t-97.5 -285t-172 -143t-145.5 -91t-217.5 -142.5t-166.5 -319.5h787v-96h-903z" />
    <glyph glyph-name="three.cap" horiz-adv-x="1067" 
d="M999 397q0 -194 -124.5 -309t-333.5 -115t-345.5 125.5t-136.5 335.5h109q8 -178 111.5 -270t268.5 -92t253 91t88 243t-90 237.5t-254 85.5h-109v94h107q137 0 216 76t79 216t-83 213t-225 73t-230.5 -102t-88.5 -259h-107q0 201 117.5 327t308.5 126t303.5 -104
t112.5 -277q0 -129 -57.5 -208t-149.5 -118v-6q260 -93 260 -383z" />
    <glyph glyph-name="four.cap" horiz-adv-x="1107" 
d="M158 481h569v809h-4l-565 -803v-6zM727 389h-680v103l690 987h94v-998h222v-92h-222v-389h-104v389z" />
    <glyph glyph-name="five.cap" horiz-adv-x="1030" 
d="M217 823q126 113 302 113q193 0 318.5 -123.5t125.5 -343.5t-125 -358t-330 -138q-204 0 -325.5 114t-125.5 290h105q18 -143 99 -225t244 -82t255 111.5t92 283.5t-91 274.5t-243 102.5q-224 0 -321 -152h-101l107 774h698v-94h-616l-74 -547h6z" />
    <glyph glyph-name="six.cap" horiz-adv-x="1095" 
d="M825 178q95 112 95 282t-94 275t-248.5 105t-259.5 -108.5t-105 -279.5t99 -278.5t258 -107.5q160 0 255 112zM580 932q200 0 324 -128t124 -340t-122.5 -351.5t-317.5 -139.5t-330 121q-188 166 -188 612q0 371 137 579t389 208q176 0 277.5 -100.5t117.5 -259.5h-106
q-12 125 -88 195.5t-192 70.5q-219 0 -325 -191.5t-102 -537.5h4q130 262 398 262z" />
    <glyph glyph-name="seven.cap" horiz-adv-x="1003" 
d="M846 1370h-799v94h911v-96q-219 -227 -368.5 -586t-190.5 -782h-114q31 378 185.5 751.5t375.5 614.5v4z" />
    <glyph glyph-name="eight.cap" horiz-adv-x="1112" 
d="M548 834q145 0 232.5 82t87.5 200t-83 202.5t-231 84.5t-231 -84.5t-83 -202.5q0 -119 81.5 -200.5t226.5 -81.5zM832.5 649q-105.5 94 -282.5 94t-276.5 -95t-99.5 -242.5t103.5 -243.5t276.5 -96q175 0 279.5 97t104.5 244.5t-105.5 241.5zM206.5 91.5
q-140.5 118.5 -140.5 314.5q0 150 79.5 246t204.5 139v6q-102 41 -159.5 126t-57.5 181q0 175 118.5 282t306.5 107t302.5 -108t114.5 -265q0 -113 -60.5 -195.5t-162.5 -123.5v-6q127 -37 211 -145.5t84 -227.5q0 -118 -39 -199.5t-140.5 -165.5t-311 -84t-350 118.5z" />
    <glyph glyph-name="nine.cap" horiz-adv-x="1097" 
d="M178 1005q0 -171 93 -273.5t252 -102.5t260.5 108.5t101.5 279.5t-98.5 277.5t-255.5 106.5t-255 -112.5t-98 -283.5zM504 -27q-173 0 -283.5 98t-122.5 263h111q12 -125 91.5 -195.5t219.5 -70.5t233 94q177 179 169 633h-4q-57 -123 -161.5 -190.5t-220.5 -67.5
t-199 33.5t-143.5 95t-93 147.5t-32.5 242.5t127.5 297t322.5 140.5t324 -117q109 -92 147.5 -257t38.5 -376q0 -441 -186 -634q-125 -136 -338 -136z" />
    <glyph glyph-name="percent.cap" horiz-adv-x="1617" 
d="M1167 1464h95l-811 -1464h-95zM580 1099q0 161 -62.5 237.5t-148.5 76.5t-144.5 -78.5t-58.5 -235.5t58.5 -237t149.5 -80q87 0 146.5 78t59.5 239zM1452 370q0 160 -62.5 237t-148.5 77t-144.5 -78.5t-58.5 -235.5t58.5 -237t149.5 -80q88 0 147 78.5t59 238.5zM942 325
q0 140 24.5 213.5t65.5 124t96.5 76t152 25.5t182 -105t85.5 -289t-85.5 -290.5t-217.5 -106.5t-217.5 106t-85.5 246zM70 1097.5q0 183.5 86 289.5t217.5 106t217 -105t85.5 -289t-85.5 -290.5t-217.5 -106.5t-217.5 106t-85.5 289.5z" />
    <glyph glyph-name="perthousand.cap" horiz-adv-x="2301" 
d="M1147 1464h94l-811 -1464h-94zM580 1099q0 161 -62.5 237.5t-148.5 76.5t-144.5 -78.5t-58.5 -235.5t58.5 -237t149.5 -80q87 0 146.5 78t59.5 239zM2136 370q0 160 -62.5 237t-148.5 77t-144.5 -78.5t-58.5 -235.5t58.5 -237t149.5 -80q88 0 147 78.5t59 238.5z
M1411 370q0 160 -62.5 237t-148.5 77t-144.5 -78.5t-58.5 -235.5t58.5 -237t149.5 -80q88 0 147 78.5t59 238.5zM1626 325q0 140 24.5 213.5t65.5 124t96.5 76t152 25.5t182 -105t85.5 -289t-85.5 -290.5t-217.5 -106.5t-217.5 106t-85.5 246zM901 325q0 140 24.5 213.5
t65.5 124t96.5 76t152 25.5t182 -105t85.5 -289t-85.5 -290.5t-217.5 -106.5t-217.5 106t-85.5 246zM70 1097.5q0 183.5 86 289.5t217.5 106t217 -105t85.5 -289t-85.5 -290.5t-217.5 -106.5t-217.5 106t-85.5 289.5z" />
    </font>
</defs>
</svg>
