<?xml version="1.0" standalone="no"?>
<!DOCTYPE svg PUBLIC "-//W3C//DTD SVG 1.1//EN" "http://www.w3.org/Graphics/SVG/1.1/DTD/svg11.dtd" >
<svg xmlns="http://www.w3.org/2000/svg">
<metadata>
Created by FontPrep 20130207 at Wed Apr 30 17:27:14 2014
 By Max Quattromani
Copyright (c) 2011 - 2012 Linotype Corp., www.linotype.com. All rights reserved. This font software may not be reproduced, modified, disclosed or transferred without the express written approval of Linotype Corp. Neue Haas Grotesk is a trademark of Linotype Corp. registered in the U.S. Patent and Trademark Office and may be registered in certain other jurisdictions in the name of Linotype Corp. or its licensee Linotype GmbH. This typeface is original artwork of Christian Schwartz. The design may be protected in certain jurisdictions.
</metadata>
<defs>
<font id="3c83350684bc0527723a7e2b4313fd29" horiz-adv-x='1024' >
  <font-face 
    font-family="NHaasGroteskDSPro-75Bd"
    font-weight="700"
    font-stretch="normal"
    units-per-em="2048"
    panose-1="2 11 8 4 2 2 2 2 2 4"
    ascent="1577"
    descent="-471"
    x-height="1047"
    cap-height="1464"
    bbox="-371 -539 2556 1915"
    underline-thickness="40"
    underline-position="-231"
    unicode-range="U+000D-FB04"
  />
<missing-glyph 
 />
    <glyph glyph-name="f_f" unicode="ff" horiz-adv-x="1337" 
d="M158 836h-135v213h135v65q0 136 63 215q85 118 233 122.5t216 -3.5v-236q-95 5 -136.5 -17.5t-41.5 -102.5v-43h288v75q0 133 62 211q116 161 467 123v-235q-104 4 -150.5 -19.5t-46.5 -103.5v-51h197v-213h-197v-836h-332v836h-288v-836h-334v836z" />
    <glyph glyph-name="fi" unicode="fi" horiz-adv-x="1204" 
d="M791 1464h333v-270h-333v270zM791 1049h333v-1049h-333v1049zM156 836h-138v213h138v75q0 135 61 209q117 163 467 125v-235q-104 4 -150.5 -19.5t-46.5 -103.5v-51h197v-213h-197v-836h-331v836z" />
    <glyph glyph-name="fl" unicode="fl" horiz-adv-x="1214" 
d="M795 1464h338v-1464h-338v1464zM158 836h-135v213h135v75q0 131 61 209q86 120 239.5 126.5t229.5 -1.5v-235q-104 4 -150 -19t-46 -104v-51h196v-213h-196v-836h-334v836z" />
    <glyph glyph-name="f_f_i" unicode="ffi" horiz-adv-x="1828" 
d="M1415 1464h334v-270h-334v270zM1415 1049h334v-1049h-334v1049zM158 836h-135v213h135v65q0 136 63 215q85 118 233 122.5t216 -3.5v-236q-95 5 -136.5 -17.5t-41.5 -102.5v-43h288v75q0 133 62 211q116 161 467 123v-235q-104 4 -150.5 -19.5t-46.5 -103.5v-51h197v-213
h-197v-836h-332v836h-288v-836h-334v836z" />
    <glyph glyph-name="f_f_l" unicode="ffl" horiz-adv-x="1837" 
d="M1417 1464h338v-1464h-338v1464zM158 836h-135v213h135v65q0 136 63 215q85 118 233 122.5t216 -3.5v-236q-95 5 -136.5 -17.5t-41.5 -102.5v-43h288v75q0 137 62 211q63 86 190 113t277 10v-235q-104 4 -150.5 -19.5t-46.5 -103.5v-51h197v-213h-197v-836h-332v836h-288
v-836h-334v836z" />
    <glyph glyph-name=".notdef" 
 />
    <glyph glyph-name=".null" horiz-adv-x="0" 
 />
    <glyph glyph-name=".null" horiz-adv-x="0" 
 />
    <glyph glyph-name="nonmarkingreturn" unicode="&#xd;" horiz-adv-x="0" 
 />
    <glyph glyph-name="space" unicode=" " horiz-adv-x="317" 
 />
    <glyph glyph-name="exclam" unicode="!" horiz-adv-x="540" 
d="M96 344h348v-344h-348v344zM98 1464h344v-346l-86 -639h-172l-86 639v346z" />
    <glyph glyph-name="quotedbl" unicode="&#x22;" horiz-adv-x="870" 
d="M498 1464h288v-551h-288v551zM84 1464h289v-551h-289v551z" />
    <glyph glyph-name="numbersign" unicode="#" horiz-adv-x="1228" 
d="M707 612l32 205h-211l-32 -205h211zM240 354h-191l45 258h189l32 205h-190l45 258h188l56 330h213l-56 -330h211l56 330h213l-56 -330h193l-45 -258h-191l-32 -205h188l-43 -258h-188l-58 -354h-213l58 354h-211l-58 -354h-213z" />
    <glyph glyph-name="dollar" unicode="$" horiz-adv-x="1275" 
d="M872 388q0 64 -43 95t-129 56v-295q72 10 122 45t50 99zM408 1036q0 -56 39.5 -84t127.5 -53v270q-82 -8 -124.5 -42.5t-42.5 -90.5zM212 1317q140 105 363 115v124h125v-126q215 -16 344.5 -124t139.5 -313h-322q-19 143 -162 172v-299q262 -60 388 -157t126 -296
t-143 -314.5t-371 -127.5v-182h-125v184q-256 16 -397 138t-145 342h340q20 -182 202 -209v331q-104 27 -196 57t-199.5 105t-107.5 275t140 305z" />
    <glyph glyph-name="percent" unicode="%" horiz-adv-x="1777" 
d="M987 376q0 184 105.5 297t272.5 113t270.5 -112t103.5 -297.5t-105 -298.5t-271 -113q-164 0 -270 113.5t-106 297.5zM1364 612q-123 0 -123 -234.5t123 -234.5t123 234q0 102 -30 168.5t-93 66.5zM1171 1405h193l-758 -1405h-190zM147 725.5q-106 113.5 -106 299.5
t106.5 297.5t270.5 111.5t268.5 -113.5t104.5 -297.5t-105 -297.5t-269 -113.5t-270 113.5zM293 1026q0 -234 123 -234.5t123 234t-123 234.5t-123 -234z" />
    <glyph glyph-name="ampersand" unicode="&#x26;" horiz-adv-x="1427" 
d="M784 1118q0 47 -30.5 80t-79.5 33t-79 -32t-30 -98t103 -159q116 68 116 176zM592 244q94 0 186 63l-248 322q-78 -47 -108.5 -100t-30.5 -123t53.5 -116t147.5 -46zM45 406q0 225 128 311t196 117q-113 134 -113 287q0 152 114 252t296 100t298.5 -96.5t116.5 -267.5
t-107.5 -241.5t-162.5 -97.5l176 -221q40 95 55 184h289q-20 -215 -160 -418l252 -315h-407l-72 92q-185 -117 -379 -117q-247 0 -383.5 122t-136.5 309z" />
    <glyph glyph-name="quotesingle" unicode="'" horiz-adv-x="456" 
d="M84 1464h289v-551h-289v551z" />
    <glyph glyph-name="parenleft" unicode="(" horiz-adv-x="698" 
d="M446 604q0 -435 218 -887h-281q-184 278 -245 623q-45 256 0 547q63 385 243 657h283q-216 -418 -218 -940z" />
    <glyph glyph-name="parenright" unicode=")" horiz-adv-x="698" 
d="M582 651q0 -259 -74 -509t-193 -425h-280q214 437 215 920q2 483 -215 907h282q265 -405 265 -893z" />
    <glyph glyph-name="asterisk" unicode="*" horiz-adv-x="903" 
d="M356 1464h193v-260l227 80l66 -170l-240 -80l152 -200l-148 -111l-151 213l-152 -213l-151 111l151 200l-240 80l66 170l227 -80v260z" />
    <glyph glyph-name="plus" unicode="+" horiz-adv-x="1159" 
d="M436 541h-354v268h354v377h287v-377h354v-268h-354v-379h-287v379z" />
    <glyph glyph-name="comma" unicode="," horiz-adv-x="481" 
d="M229 0h-163v344h350v-317q0 -182 -97 -281q-94 -102 -249 -113v142q74 20 116.5 78.5t42.5 146.5z" />
    <glyph glyph-name="hyphen" unicode="-" horiz-adv-x="686" 
d="M66 657h557v-286h-557v286z" />
    <glyph glyph-name="period" unicode="." horiz-adv-x="481" 
d="M66 344h350v-344h-350v344z" />
    <glyph glyph-name="slash" unicode="/" horiz-adv-x="894" 
d="M571 1464h287l-547 -1464h-286z" />
    <glyph glyph-name="zero" unicode="0" horiz-adv-x="1337" 
d="M221.5 1234.5q172.5 199.5 450.5 199.5t448 -199t170 -534t-172.5 -534.5t-448.5 -199.5q-275 0 -447.5 199.5t-172.5 534t172.5 534zM934 700q0 332 -98 398.5t-168 66.5t-120 -33.5t-82 -95t-47.5 -147.5t-15.5 -243.5t65 -282.5t265.5 -125t200.5 462z" />
    <glyph glyph-name="one" unicode="1" horiz-adv-x="831" 
d="M354 897h-301v233q141 4 243.5 73t129.5 212h274v-1415h-346v897z" />
    <glyph glyph-name="two" unicode="2" horiz-adv-x="1189" 
d="M786 986q0 68 -46 117.5t-141 49.5t-146 -63q-60 -68 -64 -207h-323q0 123 22.5 204.5t73.5 151.5q59 86 171.5 139.5t258.5 53.5q267 0 404 -128.5t137 -318.5q0 -191 -109.5 -295t-190.5 -162.5t-165 -118t-144 -122.5v-2h611v-285h-1090q7 291 248 487
q96 82 206.5 159.5t174.5 133.5t88 97t24 109z" />
    <glyph glyph-name="three" unicode="3" horiz-adv-x="1226" 
d="M1182 422q0 -229 -159.5 -342t-395.5 -113q-289 0 -444 136t-154 382h325q6 -113 65 -183.5t179 -70.5t176.5 53.5t56.5 141.5q0 184 -239 184h-84v240h76q98 0 157.5 42t59.5 118t-48 120t-149 44t-153 -61.5t-58 -154.5h-321q4 216 148.5 345t389.5 129t388 -106.5
t143 -295.5q0 -190 -213 -274v-4q117 -35 185.5 -119t68.5 -211z" />
    <glyph glyph-name="four" unicode="4" horiz-adv-x="1269" 
d="M696 573v482h-4l-389 -477v-5h393zM696 311h-653v318l649 788h340v-844h203v-262h-203v-311h-336v311z" />
    <glyph glyph-name="five" unicode="5" horiz-adv-x="1234" 
d="M432 877q94 84 286 84t331 -133t139 -357t-157.5 -364t-407.5 -140t-411.5 116t-184.5 337h338q16 -90 84.5 -134t167.5 -44t161 66t62 174t-63 169.5t-149 61.5q-149 0 -218 -86h-324l143 776h871v-277h-623l-49 -249h4z" />
    <glyph glyph-name="six" unicode="6" horiz-adv-x="1265" 
d="M897 464.5q0 104.5 -67.5 175.5t-177.5 71t-175 -70t-65 -175t67 -173t174 -68t175.5 67.5t68.5 172zM397 831q129 134 315 134q215 0 364 -138.5t149 -360.5t-156.5 -360.5t-400.5 -138.5q-298 0 -457.5 199t-159.5 524q-4 364 163 553t452 189q219 0 352 -101.5
t166 -273.5h-330q-39 129 -176 129q-268 0 -285 -355h4z" />
    <glyph glyph-name="seven" unicode="7" horiz-adv-x="1116" 
d="M711 1110h-676v293h1038v-266q-199 -199 -335 -495t-148 -642h-361q11 344 154.5 630.5t327.5 475.5v4z" />
    <glyph glyph-name="eight" unicode="8" horiz-adv-x="1247" 
d="M622.5 852q98.5 0 153.5 48t55 124t-55 123t-153.5 47t-152.5 -47t-54 -123t54 -124t152.5 -48zM624 223q110 0 176 54.5t66 147.5t-64.5 150.5t-175 57.5t-178 -57.5t-67.5 -150.5t66.5 -147.5t176.5 -54.5zM1151 1047q0 -180 -184 -281v-6q117 -45 180 -136.5
t63 -203.5q0 -213 -161 -333t-421 -120t-424.5 118t-164.5 316q0 121 64.5 211t179.5 140v6q-187 90 -187 274t144.5 292t387.5 108t383 -102.5t140 -282.5z" />
    <glyph glyph-name="nine" unicode="9" horiz-adv-x="1263" 
d="M613 690q112 0 182.5 67.5t70.5 174t-69.5 175.5t-180 69t-178 -69t-67.5 -173.5t65 -174t177 -69.5zM868 573q-123 -137 -327 -137t-351 136.5t-147 360.5t160 361.5t416 137.5q257 0 411 -158q184 -178 184 -563q0 -542 -221 -643t-355 -101q-239 0 -381 104t-171 277
h328q16 -53 62 -93t134 -40q121 0 183 80q74 88 79 278h-4z" />
    <glyph glyph-name="colon" unicode=":" horiz-adv-x="493" 
d="M72 979h350v-344h-350v344zM72 344h350v-344h-350v344z" />
    <glyph glyph-name="semicolon" unicode=";" horiz-adv-x="493" 
d="M72 979h350v-344h-350v344zM236 0h-164v344h350v-317q0 -181 -95 -282t-251 -112v142q74 20 117 78.5t43 146.5z" />
    <glyph glyph-name="less" unicode="&#x3c;" horiz-adv-x="1028" 
d="M88 481v303l844 355v-293l-375 -146q-70 -24 -115 -41q-45 -16 -80 -28v-4q35 -11 67 -21t65.5 -19t62.5 -20l375 -135v-305z" />
    <glyph glyph-name="equal" unicode="=" horiz-adv-x="1153" 
d="M104 981h959v-260h-959v260zM104 547h959v-260h-959v260z" />
    <glyph glyph-name="greater" unicode="&#x3e;" horiz-adv-x="1028" 
d="M96 422l375 145q29 10 62.5 22.5t65.5 22.5t67 23v4q-106 30 -195 61l-375 136v303l844 -355v-303l-844 -354v295z" />
    <glyph glyph-name="question" unicode="?" horiz-adv-x="1132" 
d="M358 344h351v-344h-351v344zM391 479q0 146 29.5 210t111.5 132q33 31 70 55.5t87 64.5t50 116t-50 116.5t-133 40.5t-140.5 -56t-57.5 -154h-329q4 220 151 353.5t389 133.5q241 0 381 -117t140 -300t-80 -246.5t-130 -95.5t-90 -58.5t-72 -65.5t-32 -129h-295z" />
    <glyph glyph-name="at" unicode="@" horiz-adv-x="1861" 
d="M768 575q0 -188 135 -188q74 0 123 75t49 174q0 208 -133 208q-79 0 -126.5 -78t-47.5 -191zM72 595q0 198 75.5 362.5t201.5 276.5t287 170t331 58q355 0 594 -205.5t239 -562.5q0 -252 -115 -393t-301 -141q-233 0 -301 166h-4q-95 -160 -261 -160q-167 0 -257 107.5
t-90 310.5t108 340t283 137t236 -148h4l14 125h281l-66 -555q-20 -147 80 -147q75 0 133 85t58 252q0 309 -174 461t-465 152t-487.5 -190t-196.5 -514q0 -283 168 -457t471 -174q186 0 364 76l66 -162q-183 -88 -399 -88t-370.5 57t-267 161.5t-176 253t-63.5 346.5z" />
    <glyph glyph-name="A" unicode="A" horiz-adv-x="1427" 
d="M874 524l-110 355q-35 102 -57 206h-5q-10 -39 -20 -73t-19.5 -69.5t-19.5 -63.5l-113 -355h344zM524 1464h373l528 -1464h-381l-86 264h-512l-84 -264h-364z" />
    <glyph glyph-name="B" unicode="B" horiz-adv-x="1374" 
d="M754 885q78 0 127 38.5t49 108.5t-47 108t-127 38h-297v-293h295zM782 291q90 0 141.5 47t51.5 130t-56.5 127t-140.5 44h-319v-348h323zM1276 1083q0 -209 -205 -286v-6q121 -37 191.5 -132.5t70.5 -216.5q0 -220 -141 -331t-369 -111h-723v1464h707q216 0 343 -102
q126 -102 126 -279z" />
    <glyph glyph-name="C" unicode="C" horiz-adv-x="1437" 
d="M240.5 1276.5q199.5 216.5 521.5 216.5q247 0 426 -134t211 -398h-363q-14 98 -86 164.5t-176 66.5t-169.5 -35t-108.5 -97.5t-64.5 -147.5t-21.5 -237t96.5 -281.5t255.5 -129.5q123 0 197.5 68.5t87.5 175.5h362q-16 -224 -183 -382q-167 -159 -465 -159
q-159 0 -292 57.5t-280.5 214.5t-147.5 489t199.5 548.5z" />
    <glyph glyph-name="D" unicode="D" horiz-adv-x="1443" 
d="M100 1464h625q303 0 490.5 -202.5t187.5 -538.5q0 -396 -254 -590q-173 -133 -447 -133h-602v1464zM676 305q180 0 270 107.5t90 309.5t-92 320.5t-264 118.5h-217v-856h213z" />
    <glyph glyph-name="E" unicode="E" horiz-adv-x="1286" 
d="M100 1464h1110v-299h-747v-262h641v-282h-641v-314h760v-307h-1123v1464z" />
    <glyph glyph-name="F" unicode="F" horiz-adv-x="1232" 
d="M100 1464h1090v-305h-727v-297h608v-293h-608v-569h-363v1464z" />
    <glyph glyph-name="G" unicode="G" horiz-adv-x="1509" 
d="M1155 176q-133 -209 -428 -209t-489 209q-195 209 -195 557t217 565q195 195 487 195t459.5 -135.5t204.5 -372.5h-352q-20 90 -91.5 149.5t-177.5 59.5t-174.5 -36t-113.5 -98.5t-67.5 -147.5t-22.5 -237t99 -283.5t269 -131.5q138 0 221.5 76.5t96.5 179.5v4h-275v266
h611v-786h-254l-21 176h-4z" />
    <glyph glyph-name="H" unicode="H" horiz-adv-x="1439" 
d="M100 1464h363v-555h514v555h362v-1464h-362v610h-514v-610h-363v1464z" />
    <glyph glyph-name="I" unicode="I" horiz-adv-x="565" 
d="M102 1464h363v-1464h-363v1464z" />
    <glyph glyph-name="J" unicode="J" horiz-adv-x="1116" 
d="M516 272q152 0 152 172v1020h362v-1028q0 -320 -181 -391.5t-371.5 -71.5t-320.5 126t-130 341v129h329v-120q0 -177 160 -177z" />
    <glyph glyph-name="K" unicode="K" horiz-adv-x="1427" 
d="M100 1464h363v-530l504 530h430l-561 -587l594 -877h-422l-422 633l-123 -129v-504h-363v1464z" />
    <glyph glyph-name="L" unicode="L" horiz-adv-x="1157" 
d="M100 1464h363v-1157h657v-307h-1020v1464z" />
    <glyph glyph-name="M" unicode="M" horiz-adv-x="1708" 
d="M426 0h-326v1464h488l178 -641q10 -35 23.5 -91t28.5 -114t32 -129h4q31 157 82 334l180 641h492v-1464h-332v413q0 413 6 617h-4q-16 -63 -36 -149t-32 -123l-211 -758h-299l-208 756q-26 87 -40 149q-13 61 -28 125h-4l6 -295v-735z" />
    <glyph glyph-name="N" unicode="N" horiz-adv-x="1454" 
d="M455 0h-355v1464h365l434 -735q8 -16 34.5 -63t65.5 -123h5q-5 122 -5 133v788h355v-1464h-365l-430 725q-26 36 -53 94q-28 58 -51 103h-4q0 -53 2 -101l2 -139v-682z" />
    <glyph glyph-name="O" unicode="O" horiz-adv-x="1529" 
d="M764 -35q-166 0 -300 57.5t-227.5 160t-144.5 242.5t-51 304t51 304.5t144.5 242.5t227.5 159.5t300 57.5t300 -57.5t228 -159.5t145.5 -242.5t51.5 -304.5t-51.5 -304t-145.5 -242.5t-228 -160t-300 -57.5zM766 260q88 0 154.5 36t111.5 98.5t66.5 148.5t21.5 186
t-21.5 186t-66.5 149.5t-111.5 99.5t-154.5 36t-154.5 -36t-111.5 -99.5t-67.5 -149.5t-22.5 -186t22.5 -186t67.5 -148.5t111.5 -98.5t154.5 -36z" />
    <glyph glyph-name="P" unicode="P" horiz-adv-x="1335" 
d="M737 776q98 0 151.5 53.5t53.5 141.5t-53 138t-152 50h-268v-383h268zM100 1464h660q262 0 399 -135q148 -136 148 -354t-136 -352t-360 -134h-342v-489h-369v1464z" />
    <glyph glyph-name="Q" unicode="Q" horiz-adv-x="1525" 
d="M41 729q0 164 50 304.5t144.5 242.5t227.5 159.5t380 57.5t444.5 -214.5t197.5 -536.5t-168 -527l166 -156l-168 -178l-185 176q-159 -92 -347 -92q-187 0 -320 57.5t-227.5 160t-144.5 242.5t-50 304zM1116 698q0 131 -21.5 217t-65.5 149.5t-110.5 99.5t-154.5 36
t-154.5 -36t-110.5 -99.5t-66.5 -149.5t-22.5 -240t92 -284.5t262 -130.5q72 0 131 25l-133 129l168 174l135 -129q51 108 51 239z" />
    <glyph glyph-name="R" unicode="R" horiz-adv-x="1374" 
d="M735 817q109 0 163 47t54 129t-52 133.5t-157 51.5h-280v-361h272zM1313 1042q0 -265 -254 -354v-6q181 -62 211 -249q14 -91 17 -159.5t9.5 -156t36.5 -99.5v-18h-352q-22 13 -30.5 92.5t-12.5 136t-12 111.5q-14 102 -70.5 155.5t-173.5 53.5h-219v-549h-363v1464h701
q226 0 369 -110.5t143 -311.5z" />
    <glyph glyph-name="S" unicode="S" horiz-adv-x="1331" 
d="M479 301q72 -49 217 -49t183.5 56.5t38.5 98.5q0 77 -67.5 111t-208.5 68q-140 33 -233.5 61.5t-213 108t-119.5 293.5t160 328t416 114q255 0 413 -114t170 -337h-354q-10 86 -71.5 131.5t-161.5 45.5t-157 -38.5t-57 -88.5t21.5 -75.5t65 -45t195.5 -55.5t360 -104
t208 -368q0 -223 -170 -350t-439 -127q-289 0 -464.5 129t-179.5 367h364q12 -111 84 -160z" />
    <glyph glyph-name="T" unicode="T" horiz-adv-x="1288" 
d="M461 1157h-426v307h1218v-307h-430v-1157h-362v1157z" />
    <glyph glyph-name="U" unicode="U" horiz-adv-x="1404" 
d="M703 -27q-307 0 -460 142.5t-153 400.5v948h363v-960q0 -109 57.5 -174.5t189.5 -65.5t192 68.5t60 177.5v954h363v-948q0 -254 -152.5 -398.5t-459.5 -144.5z" />
    <glyph glyph-name="V" unicode="V" horiz-adv-x="1333" 
d="M-4 1464h377l229 -768q20 -70 38 -142q17 -73 30 -116h4q12 43 29 116t38 142l228 768h366l-481 -1464h-375z" />
    <glyph glyph-name="W" unicode="W" horiz-adv-x="1925" 
d="M0 1464h367l147 -614q15 -67 35 -184q20 -116 33 -179h4q21 121 40 207t31 142l138 628h335l138 -624q34 -159 45 -226q12 -67 24 -127h4q12 63 27 140t47 227l146 610h364l-401 -1464h-355l-153 702q-10 43 -18.5 91.5t-16.5 92.5t-16 89h-4q-9 -45 -17 -89t-15 -92.5
t-18 -91.5l-153 -702h-357z" />
    <glyph glyph-name="X" unicode="X" horiz-adv-x="1415" 
d="M492 768l-445 696h414l248 -426h4l252 426h393l-434 -692l485 -772h-428l-274 496h-5l-284 -496h-412z" />
    <glyph glyph-name="Y" unicode="Y" horiz-adv-x="1357" 
d="M860 0h-362v541l-496 923h395l189 -379q46 -100 96 -223h4q23 60 52.5 122.5t47.5 100.5l187 379h383l-496 -923v-541z" />
    <glyph glyph-name="Z" unicode="Z" horiz-adv-x="1327" 
d="M784 1161q-62 -4 -72 -4h-608v307h1141v-284l-614 -738q-14 -16 -33.5 -36.5t-40.5 -44.5t-45 -50v-6q33 0 63 2l99 2h598v-309h-1219v289l633 758q10 10 36 41t62 67v6z" />
    <glyph glyph-name="bracketleft" unicode="[" horiz-adv-x="815" 
d="M119 1544h629v-256h-314v-1315h314v-256h-629v1827z" />
    <glyph glyph-name="backslash" unicode="\" horiz-adv-x="894" 
d="M25 1464h286l547 -1464h-287z" />
    <glyph glyph-name="bracketright" unicode="]" horiz-adv-x="815" 
d="M70 -27h313v1315h-313v256h628v-1827h-628v256z" />
    <glyph glyph-name="asciicircum" unicode="^" horiz-adv-x="954" 
d="M354 1464h246l342 -594h-297l-168 308h-2l-174 -308h-289z" />
    <glyph glyph-name="underscore" unicode="_" horiz-adv-x="880" 
d="M-6 -139h893v-207h-893v207z" />
    <glyph glyph-name="grave" unicode="`" 
d="M172 1475h385l117 -304h-254z" />
    <glyph glyph-name="a" unicode="a" horiz-adv-x="1107" 
d="M352 301q0 -115 160 -115q78 0 136.5 51.5t58.5 137.5v125q-53 -26 -160 -52q-108 -27 -151.5 -56.5t-43.5 -90.5zM31 297q0 156 107 228.5t274 93.5q167 22 226.5 44.5t59.5 74.5q0 114 -148 114t-165 -135h-307q4 156 126 258t472 102t350 -385v-528q0 -63 7 -99
t30 -51v-14h-324q-21 28 -34 117h-5q-103 -144 -311 -144q-250 0 -304 121t-54 203z" />
    <glyph glyph-name="b" unicode="b" horiz-adv-x="1200" 
d="M624 231q101 0 153 79t52 215t-52.5 218t-158.5 82t-160.5 -86t-54.5 -216t60 -211t161 -81zM420 930q107 149 304 149t320 -156.5t123 -408.5q0 -251 -121 -399t-331 -148t-312 166h-4v-133h-319v1464h334v-534h6z" />
    <glyph glyph-name="c" unicode="c" horiz-adv-x="1114" 
d="M586 831q-109 0 -162 -82.5t-53 -224.5t53 -224.5t162 -82.5q160 0 182 180h319q-8 -186 -142.5 -308t-369.5 -122q-236 0 -389 158.5t-153 398t151 396.5t398 157q210 0 341 -110.5t156 -290.5h-321q-34 155 -172 155z" />
    <glyph glyph-name="d" unicode="d" horiz-adv-x="1204" 
d="M581 231q101 0 159.5 82t58.5 211q0 212 -81 257.5t-136 45.5q-100 0 -155.5 -82.5t-55.5 -218.5t54.5 -215.5t155.5 -79.5zM801 141q-100 -174 -306 -174t-334 148.5t-128 402.5t128 407.5t331 153.5q111 0 178 -42t114 -107h7v534h333v-1464h-319v141h-4z" />
    <glyph glyph-name="e" unicode="e" horiz-adv-x="1146" 
d="M570 842q-88 0 -139.5 -55.5t-68.5 -149.5h414q-10 94 -64 149.5t-142 55.5zM592 -31q-258 0 -408.5 158t-150.5 398t151 397t376 157q226 0 370 -131q188 -172 184 -510h-754q35 -229 248 -229q116 0 162 104h326q-33 -150 -176 -247q-136 -97 -328 -97z" />
    <glyph glyph-name="f" unicode="f" horiz-adv-x="714" 
d="M158 836h-135v213h135v75q0 285 197.5 317t332.5 17v-235q-104 4 -150 -19t-46 -104v-51h196v-213h-196v-836h-334v836z" />
    <glyph glyph-name="g" unicode="g" horiz-adv-x="1171" 
d="M572 305q102 0 154 76t52 186q0 177 -81 218.5t-132 41.5q-94 0 -150.5 -70.5t-56.5 -190.5t56 -190.5t158 -70.5zM756 178q-106 -121 -264 -121q-188 0 -323.5 133t-135.5 365t123 378t316 146t296 -143h4v113h320v-947q0 -221 -140 -348q-133 -116 -368 -116
q-234 0 -369 86t-160 251h324q35 -102 195 -102q190 0 190 201v104h-8z" />
    <glyph glyph-name="h" unicode="h" horiz-adv-x="1167" 
d="M420 920q119 159 299 159t278.5 -109t98.5 -288v-682h-334v614q0 84 -41 135.5t-124 51.5t-133 -61.5t-50 -159.5v-580h-334v1464h334v-544h6z" />
    <glyph glyph-name="i" unicode="i" horiz-adv-x="493" 
d="M80 1464h334v-270h-334v270zM80 1049h334v-1049h-334v1049z" />
    <glyph glyph-name="j" unicode="j" horiz-adv-x="493" 
d="M80 1464h334v-270h-334v270zM75 -352q-93 0 -171 16v232q101 0 138.5 17.5t37.5 94.5v1041h334v-1057q0 -178 -80 -262q-45 -45 -105.5 -63.5t-153.5 -18.5z" />
    <glyph glyph-name="k" unicode="k" horiz-adv-x="1146" 
d="M80 1464h330v-770l311 355h385l-369 -394l412 -655h-387l-252 428l-100 -106v-322h-330v1464z" />
    <glyph glyph-name="l" unicode="l" horiz-adv-x="501" 
d="M82 1464h338v-1464h-338v1464z" />
    <glyph glyph-name="m" unicode="m" horiz-adv-x="1779" 
d="M727 623q0 178 -147 178q-78 0 -122 -59.5t-44 -153.5v-588h-334v1049h319v-150h7q108 180 317 180q104 0 179 -49t116 -135h4q117 184 330 184q262 0 309 -154.5t47 -242.5v-682h-334v623q0 178 -147 178q-80 0 -123 -59.5t-43 -153.5v-588h-334v623z" />
    <glyph glyph-name="n" unicode="n" horiz-adv-x="1167" 
d="M731 1079q168 0 266.5 -109t98.5 -288v-682h-334v614q0 84 -41 135.5t-124 51.5t-133 -61.5t-50 -159.5v-580h-334v1049h321v-144h7q119 174 323 174z" />
    <glyph glyph-name="o" unicode="o" horiz-adv-x="1185" 
d="M594 -33q-127 0 -230.5 42t-177 117t-113.5 176t-40 220t40 220.5t113.5 176t177 116.5t230.5 42t230.5 -42t176 -116.5t112.5 -176t40 -220.5t-40 -220t-112.5 -176t-176 -117t-230.5 -42zM591.5 205q110.5 0 167 87t56.5 230.5t-56.5 231.5t-167 88t-165.5 -88
t-55 -231.5t55 -230.5t165.5 -87z" />
    <glyph glyph-name="p" unicode="p" horiz-adv-x="1204" 
d="M622 225q102 0 157 76t55 211t-51.5 217t-159.5 82t-164 -82t-56 -214t58.5 -211t160.5 -79zM414 109v-455h-334v1395h319v-127h7q116 157 318 157q203 0 325 -155.5t122 -405.5t-125.5 -400.5t-324 -150.5t-303.5 142h-4z" />
    <glyph glyph-name="q" unicode="q" horiz-adv-x="1204" 
d="M587 231q99 0 157.5 78t58.5 207q0 207 -82 254t-135 47q-109 0 -158 -83t-49 -218t54.5 -210t153.5 -75zM807 915v134h317v-1395h-331v457h-7q-98 -144 -295 -144t-323.5 152.5t-126.5 401.5t123.5 403.5t327.5 154.5t309 -164h6z" />
    <glyph glyph-name="r" unicode="r" horiz-adv-x="784" 
d="M406 885q106 180 262 180q72 0 90 -8v-287h-8q-154 23 -245 -52t-91 -247v-471h-334v1049h319v-164h7z" />
    <glyph glyph-name="s" unicode="s" horiz-adv-x="1032" 
d="M524 184q76 0 120 27t44 70t-22.5 64.5t-59.5 34.5t-84.5 20.5t-107.5 18.5q-173 32 -271 95.5t-98 225.5q0 163 129 251t338 88t327.5 -90t131.5 -246h-307q-10 72 -54.5 97.5t-109.5 25.5t-107.5 -23.5t-42.5 -62.5t20.5 -55t58.5 -28.5t140 -29.5q103 -17 269 -59.5
t166 -292.5q0 -168 -132.5 -258t-354.5 -90t-357 99.5t-144 273.5h316q20 -156 192 -156z" />
    <glyph glyph-name="t" unicode="t" horiz-adv-x="718" 
d="M162 276v564h-139v209h139v331h325v-331h191v-209h-191v-492q0 -61 32 -81.5t85 -20.5l74 2v-244q-61 -16 -159 -16q-183 0 -270 64t-87 224z" />
    <glyph glyph-name="u" unicode="u" horiz-adv-x="1159" 
d="M403 430q0 -178 158 -178q86 0 135 58.5t49 152.5v586h334v-1049h-319v129h-6q-57 -78 -130 -119t-184 -41q-182 0 -275 107.5t-93 283.5v689h331v-619z" />
    <glyph glyph-name="v" unicode="v" horiz-adv-x="1073" 
d="M-6 1049h344l143 -474q10 -41 21.5 -78.5t19.5 -69.5t17 -62h4q8 31 21 82t36 128l145 474h334l-362 -1049h-361z" />
    <glyph glyph-name="w" unicode="w" horiz-adv-x="1603" 
d="M-4 1049h340l115 -435q8 -33 17 -67.5t16 -68.5t14 -66h4l14 71q13 70 33 138l110 428h283l115 -428q8 -35 16.5 -72t16.5 -71l16 -68h4l16 68t15.5 69t17.5 67l117 435h330l-322 -1049h-313l-123 475q-21 65 -45 189h-4q-11 -57 -25 -107.5t-22 -81.5l-125 -475h-310z
" />
    <glyph glyph-name="x" unicode="x" horiz-adv-x="1146" 
d="M379 551l-330 498h381l156 -271h4l147 271h350l-311 -494l357 -555h-388l-172 313h-4l-190 -313h-365z" />
    <glyph glyph-name="y" unicode="y" horiz-adv-x="1083" 
d="M229 -86q138 0 138 111q0 54 -64 217l-309 807h352l141 -447q15 -47 35 -124t31 -118h4q23 120 61 242l138 447h334l-363 -1063q-62 -184 -150.5 -258t-244.5 -74h-217v260h114z" />
    <glyph glyph-name="z" unicode="z" horiz-adv-x="1034" 
d="M989 258v-258h-940v248l416 448q10 10 25.5 24t30.5 32t34 36v7q-29 -2 -53 -2h-404v254h860v-244l-397 -432l-65 -66q-20 -20 -41 -43v-6h59l96 2h379z" />
    <glyph glyph-name="braceleft" unicode="{" horiz-adv-x="815" 
d="M696 -283q-248 0 -360.5 85.5t-112.5 312.5v241q0 76 -38 113t-134 41v246q96 4 134 42t38 111v242q0 224 111 308.5t362 84.5h52v-256h-37q-90 0 -131 -24.5t-41 -112.5v-293q0 -102 -34 -148t-99 -73v-6q66 -27 99.5 -73t33.5 -146v-299q0 -86 41 -113t131 -27h37v-256
h-52z" />
    <glyph glyph-name="bar" unicode="|" horiz-adv-x="438" 
d="M119 1544h203v-1827h-203v1827z" />
    <glyph glyph-name="braceright" unicode="}" horiz-adv-x="815" 
d="M70 -27h36q88 0 130.5 25t42.5 113v299q0 100 32.5 146t100.5 73v6q-68 29 -100.5 74t-32.5 147v293q0 86 -42 112.5t-131 26.5h-36v256h51q248 0 360.5 -84.5t112.5 -310.5v-240q0 -76 38 -112.5t132 -40.5v-246q-94 -4 -132 -41t-38 -113v-243q0 -227 -112.5 -311.5
t-360.5 -84.5h-51v256z" />
    <glyph glyph-name="asciitilde" unicode="~" horiz-adv-x="907" 
d="M49 489q0 176 72.5 267.5t183.5 91.5q65 0 135 -32t95.5 -43t59.5 -11t49 21.5t20 64.5h208q0 -164 -60 -256t-181 -92q-83 0 -147 30t-93 41t-57 11q-68 0 -76 -93h-209z" />
    <glyph glyph-name="uni00A0" unicode="&#xa0;" horiz-adv-x="317" 
 />
    <glyph glyph-name="exclamdown" unicode="&#xa1;" horiz-adv-x="540" 
d="M96 1204h348v-344h-348v344zM442 -260h-344v348l86 639h172l86 -639v-348z" />
    <glyph glyph-name="cent" unicode="&#xa2;" horiz-adv-x="1114" 
d="M514 823q-154 -51 -154 -301t154 -299v600zM164 900q131 153 350 173v144h125v-142q186 -18 298 -126.5t134 -272.5h-311q-26 115 -121 147v-602q113 33 131 176h309q-8 -175 -129 -293.5t-311 -134.5v-188h-125v190q-219 24 -350 176t-131 376t131 377z" />
    <glyph glyph-name="sterling" unicode="&#xa3;" horiz-adv-x="1210" 
d="M867 -31q-85 0 -139 15.5t-100 35t-92.5 35t-107.5 15.5t-112.5 -27t-102.5 -63l-166 251q195 125 195 279q0 36 -11 82h-174v190h82q-57 103 -57 204q0 201 143.5 323.5t392.5 122.5t390 -115q78 -63 119.5 -156.5t46.5 -240.5h-332q-2 129 -59.5 185t-151.5 56
t-140.5 -48.5t-46.5 -116.5t20.5 -116.5t45.5 -97.5h276v-190h-215q2 -8 2 -10v-23q0 -142 -153 -252l4 -6q80 31 141 31q78 0 160.5 -25.5t128.5 -25.5q95 0 188 81l142 -268q-59 -53 -145.5 -89t-171.5 -36z" />
    <glyph glyph-name="currency" unicode="&#xa4;" horiz-adv-x="1048" 
d="M523 487q87 0 132 61.5t45 166t-45 167t-132 62.5t-134 -62.5t-47 -167t47 -166t134 -61.5zM109 714q0 118 51 214l-131 135l172 168l133 -139q86 41 189 41t190 -41l135 139l172 -168l-135 -135q53 -94 53 -212t-51 -214l133 -133l-172 -168l-135 137q-88 -39 -193 -39
t-184 39l-135 -137l-172 168l131 131q-51 96 -51 214z" />
    <glyph glyph-name="yen" unicode="&#xa5;" horiz-adv-x="1323" 
d="M492 262h-347v131h347v117h-347v133h293l-436 762h383l186 -358q16 -35 33 -70t30 -67t25 -60h5q14 29 30 67t60 130l184 358h375l-439 -762h295v-133h-344v-117h344v-131h-344v-262h-333v262z" />
    <glyph glyph-name="brokenbar" unicode="&#xa6;" horiz-adv-x="438" 
d="M119 1544h203v-758h-203v758zM119 502h203v-785h-203v785z" />
    <glyph glyph-name="section" unicode="&#xa7;" horiz-adv-x="1280" 
d="M915 494q0 55 -68.5 89.5t-152.5 70.5t-137 55.5t-98 42.5q-96 -25 -97 -103q0 -44 45.5 -72.5t217.5 -105.5l184 -82q106 27 106 105zM1001 260q132 -98 132 -266q0 -167 -128 -266t-350 -99q-221 0 -355 114t-140 312h305q2 -82 51 -127t130 -45t121 34t40 78
t-21.5 67.5t-63.5 45t-106.5 44t-154.5 57.5q-211 82 -306.5 167.5t-95.5 231.5q0 109 64.5 182.5t177.5 106.5q-47 41 -73.5 89t-26.5 129q0 159 124.5 253t326.5 94t328 -100t136 -291h-289q-13 148 -165 148q-72 0 -106 -29t-34 -66t17.5 -57t54.5 -40.5t93 -42
t135 -53.5q195 -79 301 -160.5t106 -214.5q0 -132 -61.5 -198.5t-166.5 -97.5z" />
    <glyph glyph-name="dieresis" unicode="&#xa8;" 
d="M586 1444h313v-262h-313v262zM125 1444h313v-262h-313v262z" />
    <glyph glyph-name="copyright" unicode="&#xa9;" horiz-adv-x="1673" 
d="M837.5 -35q-157.5 0 -296 57.5t-240.5 159t-160.5 241.5t-58.5 304t58.5 304t160.5 242.5t240.5 160t296 57.5t296 -57.5t240 -160t159.5 -242.5t58 -304t-58 -304t-159.5 -241.5t-240 -159t-296 -57.5zM837.5 72q135.5 0 250 50t198.5 137t132 207t48 261t-48 262
t-132 208t-198.5 137t-250 50t-251 -50t-199.5 -137t-132 -208t-48 -262t48 -261t132 -207t199.5 -137t251 -50zM846 1196q148 0 258 -80q118 -90 135 -252h-246q-10 49 -47.5 84t-115.5 35t-123 -70.5t-45 -178.5t50 -177.5t128 -69.5t116.5 39t44.5 92h248
q-12 -143 -114 -243q-103 -99 -295 -99t-314.5 130.5t-122.5 330.5t124 329.5t319 129.5z" />
    <glyph glyph-name="ordfeminine" unicode="&#xaa;" horiz-adv-x="1044" 
d="M342 754q0 -103 138 -103q68 0 120.5 44t52.5 118v111q-45 -25 -143 -46q-98 -22 -133 -48.5t-35 -75.5zM51 743q0 203 141.5 241t213.5 47q132 16 185.5 37.5t53.5 66.5q0 96 -130 96t-142 -117h-281q4 136 116 227t314 91t301 -76q121 -85 121 -262v-465
q0 -109 33 -131v-15h-295q-24 38 -31 103h-4q-88 -123 -274 -123q-141 0 -231.5 72.5t-90.5 207.5z" />
    <glyph glyph-name="guillemotleft" unicode="&#xab;" horiz-adv-x="901" 
d="M487 356v320l310 268v-291l-162 -139v-4l162 -137v-287zM90 356v320l316 268v-291l-166 -139v-4l166 -137v-287z" />
    <glyph glyph-name="logicalnot" unicode="&#xac;" horiz-adv-x="1073" 
d="M676 612h-594v269h879v-607h-285v338z" />
    <glyph glyph-name="uni00AD" unicode="&#xad;" horiz-adv-x="686" 
d="M66 657h557v-286h-557v286z" />
    <glyph glyph-name="registered" unicode="&#xae;" horiz-adv-x="1087" 
d="M544.5 500q-102.5 0 -192.5 37.5t-156.5 103.5t-104.5 157t-38 197.5t38 197.5t104.5 156.5t156.5 103.5t192.5 38t191.5 -38t155.5 -103.5t104.5 -156.5t38 -197.5t-38 -197.5t-104.5 -157t-155.5 -103.5t-191.5 -37.5zM826.5 697q113.5 117 113.5 297q0 179 -113.5 297
t-283.5 118t-283 -118.5t-113 -296.5t113 -296t283 -118t283.5 117zM561 1030q70 0 70 55.5t-70 55.5h-78v-111h78zM328 1262h258q80 0 139 -39t59 -125t-88 -117v-4q59 -17 72 -77q12 -60 12 -101t17 -49v-13h-152q-10 6 -13 45t-9 76q-8 63 -76 64h-64v-185h-155v525z" />
    <glyph glyph-name="macron" unicode="&#xaf;" 
d="M225 1409h586v-207h-586v207z" />
    <glyph glyph-name="degree" unicode="&#xb0;" horiz-adv-x="768" 
d="M384 819q-131 0 -224.5 89t-93.5 218t95 218.5t222 89.5t224.5 -89.5t97.5 -218.5t-95 -218t-226 -89zM385 979q66 0 102.5 43t36.5 102.5t-36.5 104.5t-102.5 45t-102.5 -45t-36.5 -104.5t36.5 -102.5t102.5 -43z" />
    <glyph glyph-name="plusminus" unicode="&#xb1;" horiz-adv-x="1159" 
d="M82 254h995v-254h-995v254zM440 633h-358v266h358v287h279v-287h358v-266h-358v-289h-279v289z" />
    <glyph glyph-name="twosuperior" unicode="&#xb2;" horiz-adv-x="811" 
d="M506 1210q0 86 -94 86q-53 0 -86 -36.5t-33 -104.5h-225q0 160 97 243t251 83t239.5 -75.5t85.5 -168.5q0 -94 -30.5 -144.5t-70.5 -84.5t-133.5 -87.5t-119.5 -80.5v-2h356v-187h-688q3 180 152 299q61 53 122.5 88t102.5 65t57.5 52.5t16.5 54.5z" />
    <glyph glyph-name="threesuperior" unicode="&#xb3;" horiz-adv-x="798" 
d="M756 889q0 -188 -136 -222t-208 -34q-186 0 -276.5 82t-92.5 213h231q9 -123 127 -123q55 0 83 26.5t28 67.5q0 94 -129 94h-47v156h41q119 0 119 84q0 35 -24 57.5t-76 22.5t-75.5 -31t-27.5 -72h-225q4 117 93 194t241 77t240.5 -61.5t88.5 -170.5t-119 -159v-3
q144 -54 144 -198z" />
    <glyph glyph-name="acute" unicode="&#xb4;" 
d="M467 1475h385l-248 -304h-254z" />
    <glyph glyph-name="mu" unicode="&#xb5;" horiz-adv-x="1167" 
d="M514 -27q-61 0 -102 31h-4v-350h-328v1395h332v-621q0 -178 157 -178q86 0 135.5 57.5t49.5 153.5v588h333v-1049h-319v129h-6q-94 -156 -248 -156z" />
    <glyph glyph-name="paragraph" unicode="&#xb6;" horiz-adv-x="1234" 
d="M569 686h-127q-178 0 -282.5 108t-104.5 282q-1 176 113 282t315 106h641v-1464h-211v1268h-131v-1268h-213v686z" />
    <glyph glyph-name="periodcentered" unicode="&#xb7;" horiz-adv-x="481" 
d="M66 823h350v-344h-350v344z" />
    <glyph glyph-name="cedilla" unicode="&#xb8;" 
d="M451 -180q-38 0 -72 -15l-35 50l145 145h129l-114 -96v-4q88 10 152.5 -24t64.5 -111t-72.5 -118.5t-164.5 -41.5q-151 0 -248 59l40 72q64 -31 142 -31q110 -1 110 57t-77 58z" />
    <glyph glyph-name="onesuperior" unicode="&#xb9;" horiz-adv-x="557" 
d="M475 1473v-822h-248v479h-186v166q205 9 238 177h196z" />
    <glyph glyph-name="ordmasculine" unicode="&#xba;" horiz-adv-x="1067" 
d="M534.5 457q-112.5 0 -204.5 36.5t-156.5 102.5t-100.5 155t-36 193.5t36 193.5t100.5 154.5t156.5 102.5t204.5 37t203.5 -37t155.5 -102.5t100.5 -154.5t36 -193.5t-36 -193.5t-100.5 -155t-155.5 -102.5t-203.5 -36.5zM532.5 668q94.5 0 142.5 76.5t48 199.5t-48 200
t-142.5 77t-141.5 -77t-47 -200t47 -199.5t141.5 -76.5z" />
    <glyph glyph-name="guillemotright" unicode="&#xbb;" horiz-adv-x="901" 
d="M496 377l166 139v4l-166 137v287l315 -270v-320l-315 -268v291zM104 377l162 139v4l-162 137v287l310 -270v-320l-310 -268v291z" />
    <glyph glyph-name="onequarter" unicode="&#xbc;" horiz-adv-x="1671" 
d="M1270 1464h209l-1117 -1464h-206zM481 1473v-822h-248v479h-186v166q205 9 238 177h196zM1047 340h213v250h-3l-210 -248v-2zM1499 823v-483h119v-170h-119v-170h-239v170h-392v195l392 458h239z" />
    <glyph glyph-name="onehalf" unicode="&#xbd;" horiz-adv-x="1742" 
d="M1257 1464h209l-1116 -1464h-207zM481 1473v-822h-248v479h-186v166q205 9 238 177h196zM1432 561q0 37 -23 60.5t-74 23.5t-83.5 -37t-32.5 -104h-226q0 160 97.5 242.5t250.5 82.5t239.5 -74.5t86.5 -169.5q0 -94 -30.5 -144t-70.5 -84t-75 -54t-96.5 -56t-81.5 -59v-2
h356v-186h-688q3 180 152 299q59 51 119.5 85t102.5 64t59.5 53t17.5 60z" />
    <glyph glyph-name="threequarters" unicode="&#xbe;" horiz-adv-x="1808" 
d="M1427 1464h209l-1116 -1464h-207zM1186 340h213v250h-2l-211 -248v-2zM1638 823v-483h119v-170h-119v-170h-239v170h-391v195l391 458h239zM762 889q0 -188 -136 -222t-208 -34q-186 0 -276.5 82t-92.5 213h232q9 -123 127 -123q55 0 82.5 26.5t27.5 67.5q0 94 -129 94
h-47v156h41q119 0 119 84q0 35 -23.5 57.5t-75.5 22.5t-76 -31t-28 -72h-225q4 117 93 194t241 77t240.5 -61.5t88.5 -170.5t-119 -159v-3q144 -54 144 -198z" />
    <glyph glyph-name="questiondown" unicode="&#xbf;" horiz-adv-x="1120" 
d="M418 1204h348v-344h-348v344zM35 129q0 183 91 257t169.5 122.5t110.5 87.5t32 131h297q0 -148 -25.5 -202t-52 -82.5t-62.5 -59.5t-73 -54.5t-86 -66t-49 -116.5q0 -75 50 -115.5t133 -40.5t139.5 56t58.5 157h328q-4 -221 -151 -355.5t-392 -134.5q-233 0 -375.5 116.5
t-142.5 299.5z" />
    <glyph glyph-name="Agrave" unicode="&#xc0;" horiz-adv-x="1427" 
d="M387 1802h383l88 -266h-254zM874 524l-110 355q-35 102 -57 206h-5q-10 -39 -20 -73t-19.5 -69.5t-19.5 -63.5l-113 -355h344zM524 1464h373l528 -1464h-381l-86 264h-512l-84 -264h-364z" />
    <glyph glyph-name="Aacute" unicode="&#xc1;" horiz-adv-x="1427" 
d="M664 1802h383l-218 -266h-254zM874 524l-110 355q-35 102 -57 206h-5q-10 -39 -20 -73t-19.5 -69.5t-19.5 -63.5l-113 -355h344zM524 1464h373l528 -1464h-381l-86 264h-512l-84 -264h-364z" />
    <glyph glyph-name="Acircumflex" unicode="&#xc2;" horiz-adv-x="1427" 
d="M551 1792h319l220 -256h-281l-92 111h-4l-95 -111h-286zM874 524l-110 355q-35 102 -57 206h-5q-10 -39 -20 -73t-19.5 -69.5t-19.5 -63.5l-113 -355h344zM524 1464h373l528 -1464h-381l-86 264h-512l-84 -264h-364z" />
    <glyph glyph-name="Atilde" unicode="&#xc3;" horiz-adv-x="1427" 
d="M369 1538q0 139 61.5 208t137.5 69t147 -39q35 -16 56 -26.5t49 -10.5t40 19.5t17 51.5h172q0 -121 -52.5 -195.5t-140.5 -74.5t-158.5 36t-95.5 36q-51 0 -61 -74h-172zM874 524l-110 355q-35 102 -57 206h-5q-10 -39 -20 -73t-19.5 -69.5t-19.5 -63.5l-113 -355h344z
M524 1464h373l528 -1464h-381l-86 264h-512l-84 -264h-364z" />
    <glyph glyph-name="Adieresis" unicode="&#xc4;" horiz-adv-x="1427" 
d="M774 1804h313v-262h-313v262zM334 1804h313v-262h-313v262zM874 524l-110 355q-35 102 -57 206h-5q-10 -39 -20 -73t-19.5 -69.5t-19.5 -63.5l-113 -355h344zM524 1464h373l528 -1464h-381l-86 264h-512l-84 -264h-364z" />
    <glyph glyph-name="Aring" unicode="&#xc5;" horiz-adv-x="1427" 
d="M711 1513q-43 0 -81 15.5t-66.5 42t-45 63.5t-16.5 80t16.5 79t45 63.5t66.5 43t81 15.5t80.5 -15.5t66.5 -43t45.5 -63.5t16.5 -79t-16.5 -80t-45.5 -63.5t-66.5 -42t-80.5 -15.5zM712 1626q38 0 61.5 26.5t23.5 61.5t-23.5 61.5t-61.5 26.5t-61.5 -26.5t-23.5 -61.5
t23.5 -61.5t61.5 -26.5zM874 524l-110 355q-35 102 -57 206h-5q-10 -39 -20 -73t-19.5 -69.5t-19.5 -63.5l-113 -355h344zM524 1464h373l528 -1464h-381l-86 264h-512l-84 -264h-364z" />
    <glyph glyph-name="AE" unicode="&#xc6;" horiz-adv-x="2037" 
d="M883 510v653h-150l-211 -653h361zM1956 1464v-301h-707v-264h600v-281h-600v-301h729v-317h-1095v258h-443l-84 -258h-358l496 1464h1462z" />
    <glyph glyph-name="Ccedilla" unicode="&#xc7;" horiz-adv-x="1437" 
d="M682 -180q-36 0 -72 -15l-35 50l115 116q-290 24 -469.5 234t-179.5 533t199.5 539t521.5 216q247 0 426 -134t211 -398h-363q-14 98 -86 164.5t-176 66.5t-169.5 -35t-108.5 -97.5t-64.5 -147.5t-21.5 -237t96.5 -281.5t255.5 -129.5q123 0 197.5 68.5t87.5 175.5h362
q-16 -224 -176 -375q-156 -152 -422 -164l-76 -65v-4q88 10 152.5 -24t64.5 -111t-72 -118.5t-164 -41.5q-151 0 -249 59l41 72q64 -31 141 -31q111 -1 111 57t-78 58z" />
    <glyph glyph-name="Egrave" unicode="&#xc8;" horiz-adv-x="1286" 
d="M100 1464h1110v-299h-747v-262h641v-282h-641v-314h760v-307h-1123v1464zM350 1802h383l88 -266h-254z" />
    <glyph glyph-name="Eacute" unicode="&#xc9;" horiz-adv-x="1286" 
d="M100 1464h1110v-299h-747v-262h641v-282h-641v-314h760v-307h-1123v1464zM627 1802h383l-217 -266h-254z" />
    <glyph glyph-name="Ecircumflex" unicode="&#xca;" horiz-adv-x="1286" 
d="M514 1792h320l219 -256h-281l-92 111h-4l-94 -111h-287zM100 1464h1110v-299h-747v-262h641v-282h-641v-314h760v-307h-1123v1464z" />
    <glyph glyph-name="Edieresis" unicode="&#xcb;" horiz-adv-x="1286" 
d="M100 1464h1110v-299h-747v-262h641v-282h-641v-314h760v-307h-1123v1464zM737 1804h314v-262h-314v262zM297 1804h313v-262h-313v262z" />
    <glyph glyph-name="Igrave" unicode="&#xcc;" horiz-adv-x="565" 
d="M-41 1802h383l88 -266h-254zM102 1464h363v-1464h-363v1464z" />
    <glyph glyph-name="Iacute" unicode="&#xcd;" horiz-adv-x="565" 
d="M236 1802h382l-217 -266h-254zM102 1464h363v-1464h-363v1464z" />
    <glyph glyph-name="Icircumflex" unicode="&#xce;" horiz-adv-x="565" 
d="M123 1792h319l220 -256h-281l-92 111h-4l-95 -111h-286zM102 1464h363v-1464h-363v1464z" />
    <glyph glyph-name="Idieresis" unicode="&#xcf;" horiz-adv-x="565" 
d="M346 1804h313v-262h-313v262zM-94 1804h313v-262h-313v262zM102 1464h363v-1464h-363v1464z" />
    <glyph glyph-name="Eth" unicode="&#xd0;" horiz-adv-x="1462" 
d="M119 606h-113v281h113v577h624q304 0 491 -202.5t187 -552.5t-215 -543q-183 -166 -485 -166h-602v606zM694 305q180 0 270.5 107.5t90.5 309.5t-92.5 320.5t-264.5 118.5h-217v-274h320v-281h-320v-301h213z" />
    <glyph glyph-name="Ntilde" unicode="&#xd1;" horiz-adv-x="1454" 
d="M455 0h-355v1464h365l434 -735q8 -16 34.5 -63t65.5 -123h5q-5 122 -5 133v788h355v-1464h-365l-430 725q-26 36 -53 94q-28 58 -51 103h-4q0 -53 2 -101l2 -139v-682zM387 1538q0 139 61.5 208t138.5 69t146 -39q35 -16 56.5 -26.5t49.5 -10.5q47 0 56 71h172
q0 -121 -52 -195.5t-141 -74.5t-159 36t-94 36q-51 0 -62 -74h-172z" />
    <glyph glyph-name="Ograve" unicode="&#xd2;" horiz-adv-x="1529" 
d="M764 -35q-166 0 -300 57.5t-227.5 160t-144.5 242.5t-51 304t51 304.5t144.5 242.5t227.5 159.5t300 57.5t300 -57.5t228 -159.5t145.5 -242.5t51.5 -304.5t-51.5 -304t-145.5 -242.5t-228 -160t-300 -57.5zM766 260q88 0 154.5 36t111.5 98.5t66.5 148.5t21.5 186
t-21.5 186t-66.5 149.5t-111.5 99.5t-154.5 36t-154.5 -36t-111.5 -99.5t-67.5 -149.5t-22.5 -186t22.5 -186t67.5 -148.5t111.5 -98.5t154.5 -36zM440 1802h383l88 -266h-254z" />
    <glyph glyph-name="Oacute" unicode="&#xd3;" horiz-adv-x="1529" 
d="M764 -35q-166 0 -300 57.5t-227.5 160t-144.5 242.5t-51 304t51 304.5t144.5 242.5t227.5 159.5t300 57.5t300 -57.5t228 -159.5t145.5 -242.5t51.5 -304.5t-51.5 -304t-145.5 -242.5t-228 -160t-300 -57.5zM766 260q88 0 154.5 36t111.5 98.5t66.5 148.5t21.5 186
t-21.5 186t-66.5 149.5t-111.5 99.5t-154.5 36t-154.5 -36t-111.5 -99.5t-67.5 -149.5t-22.5 -186t22.5 -186t67.5 -148.5t111.5 -98.5t154.5 -36zM717 1802h383l-217 -266h-254z" />
    <glyph glyph-name="Ocircumflex" unicode="&#xd4;" horiz-adv-x="1529" 
d="M604 1792h320l219 -256h-281l-92 111h-4l-94 -111h-287zM764 -35q-166 0 -300 57.5t-227.5 160t-144.5 242.5t-51 304t51 304.5t144.5 242.5t227.5 159.5t300 57.5t300 -57.5t228 -159.5t145.5 -242.5t51.5 -304.5t-51.5 -304t-145.5 -242.5t-228 -160t-300 -57.5z
M766 260q88 0 154.5 36t111.5 98.5t66.5 148.5t21.5 186t-21.5 186t-66.5 149.5t-111.5 99.5t-154.5 36t-154.5 -36t-111.5 -99.5t-67.5 -149.5t-22.5 -186t22.5 -186t67.5 -148.5t111.5 -98.5t154.5 -36z" />
    <glyph glyph-name="Otilde" unicode="&#xd5;" horiz-adv-x="1529" 
d="M766 260q88 0 154.5 36t111.5 98.5t66.5 148.5t21.5 186t-21.5 186t-66.5 149.5t-111.5 99.5t-154.5 36t-154.5 -36t-111.5 -99.5t-67.5 -149.5t-22.5 -186t22.5 -186t67.5 -148.5t111.5 -98.5t154.5 -36zM764 -35q-166 0 -300 57.5t-227.5 160t-144.5 242.5t-51 304
t51 304.5t144.5 242.5t227.5 159.5t300 57.5t300 -57.5t228 -159.5t145.5 -242.5t51.5 -304.5t-51.5 -304t-145.5 -242.5t-228 -160t-300 -57.5zM434 1538q0 139 61.5 208t138.5 69t146 -39q35 -16 56.5 -26.5t49.5 -10.5q47 0 56 71h172q0 -121 -52 -195.5t-141 -74.5
t-159 36t-94 36q-51 0 -62 -74h-172z" />
    <glyph glyph-name="Odieresis" unicode="&#xd6;" horiz-adv-x="1529" 
d="M764 -35q-166 0 -300 57.5t-227.5 160t-144.5 242.5t-51 304t51 304.5t144.5 242.5t227.5 159.5t300 57.5t300 -57.5t228 -159.5t145.5 -242.5t51.5 -304.5t-51.5 -304t-145.5 -242.5t-228 -160t-300 -57.5zM766 260q88 0 154.5 36t111.5 98.5t66.5 148.5t21.5 186
t-21.5 186t-66.5 149.5t-111.5 99.5t-154.5 36t-154.5 -36t-111.5 -99.5t-67.5 -149.5t-22.5 -186t22.5 -186t67.5 -148.5t111.5 -98.5t154.5 -36zM827 1804h314v-262h-314v262zM387 1804h313v-262h-313v262z" />
    <glyph glyph-name="multiply" unicode="&#xd7;" horiz-adv-x="1159" 
d="M80 350l311 318l-309 317l190 180l301 -309l306 309l188 -180l-309 -317l309 -316l-188 -182l-304 311l-305 -313z" />
    <glyph glyph-name="Oslash" unicode="&#xd8;" horiz-adv-x="1529" 
d="M1120 729q0 138 -39 238l-546 -615q88 -92 244 -92t248.5 128.5t92.5 340.5zM410 729q0 -148 41 -244l548 619q-92 96 -233 96q-170 0 -263 -131.5t-93 -339.5zM209 215q-168 205 -168 526t197 536.5t526 215.5q263 0 450 -147l156 174l115 -101l-162 -180
q166 -208 166 -525t-198 -533t-527 -216q-254 0 -447 144l-159 -181l-113 103z" />
    <glyph glyph-name="Ugrave" unicode="&#xd9;" horiz-adv-x="1404" 
d="M703 -27q-307 0 -460 142.5t-153 400.5v948h363v-960q0 -109 57.5 -174.5t189.5 -65.5t192 68.5t60 177.5v954h363v-948q0 -254 -152.5 -398.5t-459.5 -144.5zM377 1802h383l88 -266h-254z" />
    <glyph glyph-name="Uacute" unicode="&#xda;" horiz-adv-x="1404" 
d="M703 -27q-307 0 -460 142.5t-153 400.5v948h363v-960q0 -109 57.5 -174.5t189.5 -65.5t192 68.5t60 177.5v954h363v-948q0 -254 -152.5 -398.5t-459.5 -144.5zM653 1802h383l-217 -266h-254z" />
    <glyph glyph-name="Ucircumflex" unicode="&#xdb;" horiz-adv-x="1404" 
d="M541 1792h319l219 -256h-280l-92 111h-5l-94 -111h-286zM703 -27q-307 0 -460 142.5t-153 400.5v948h363v-960q0 -109 57.5 -174.5t189.5 -65.5t192 68.5t60 177.5v954h363v-948q0 -254 -152.5 -398.5t-459.5 -144.5z" />
    <glyph glyph-name="Udieresis" unicode="&#xdc;" horiz-adv-x="1404" 
d="M703 -27q-307 0 -460 142.5t-153 400.5v948h363v-960q0 -109 57.5 -174.5t189.5 -65.5t192 68.5t60 177.5v954h363v-948q0 -254 -152.5 -398.5t-459.5 -144.5zM764 1804h313v-262h-313v262zM324 1804h313v-262h-313v262z" />
    <glyph glyph-name="Yacute" unicode="&#xdd;" horiz-adv-x="1357" 
d="M635 1802h383l-217 -266h-254zM860 0h-362v541l-496 923h395l189 -379q46 -100 96 -223h4q23 60 52.5 122.5t47.5 100.5l187 379h383l-496 -923v-541z" />
    <glyph glyph-name="Thorn" unicode="&#xde;" horiz-adv-x="1331" 
d="M737 571q98 0 151.5 53.5t53.5 142.5t-53 138t-152 49h-268v-383h268zM100 1464h369v-202h291q262 -2 399 -138q148 -136 148 -354t-135.5 -351.5t-360.5 -133.5h-342v-285h-369v1464z" />
    <glyph glyph-name="germandbls" unicode="&#xdf;" horiz-adv-x="1179" 
d="M760 1083q0 70 -42 114t-123 44t-131 -49t-50 -148v-1044h-334v1053q0 205 138.5 322.5t365.5 117.5t357 -105t130 -288q0 -182 -180 -256v-6q125 -41 190.5 -139.5t65.5 -228.5q0 -241 -129.5 -364.5t-339.5 -123.5q-92 0 -156 20v242q141 -16 218 44t77 199
q0 240 -235 240h-56v191h43q191 9 191 165z" />
    <glyph glyph-name="agrave" unicode="&#xe0;" horiz-adv-x="1107" 
d="M209 1475h385l117 -304h-254zM352 301q0 -115 160 -115q78 0 136.5 51.5t58.5 137.5v125q-53 -26 -160 -52q-108 -27 -151.5 -56.5t-43.5 -90.5zM31 297q0 156 107 228.5t274 93.5q167 22 226.5 44.5t59.5 74.5q0 114 -148 114t-165 -135h-307q4 156 126 258t472 102
t350 -385v-528q0 -63 7 -99t30 -51v-14h-324q-21 28 -34 117h-5q-103 -144 -311 -144q-250 0 -304 121t-54 203z" />
    <glyph glyph-name="aacute" unicode="&#xe1;" horiz-adv-x="1107" 
d="M545 1475h385l-248 -304h-254zM352 301q0 -115 160 -115q78 0 136.5 51.5t58.5 137.5v125q-53 -26 -160 -52q-108 -27 -151.5 -56.5t-43.5 -90.5zM31 297q0 156 107 228.5t274 93.5q167 22 226.5 44.5t59.5 74.5q0 114 -148 114t-165 -135h-307q4 156 126 258t472 102
t350 -385v-528q0 -63 7 -99t30 -51v-14h-324q-21 28 -34 117h-5q-103 -144 -311 -144q-250 0 -304 121t-54 203z" />
    <glyph glyph-name="acircumflex" unicode="&#xe2;" horiz-adv-x="1107" 
d="M403 1456h320l219 -280h-280l-93 135h-4l-94 -135h-287zM352 301q0 -115 160 -115q78 0 136.5 51.5t58.5 137.5v125q-53 -26 -160 -52q-108 -27 -151.5 -56.5t-43.5 -90.5zM31 297q0 156 107 228.5t274 93.5q167 22 226.5 44.5t59.5 74.5q0 114 -148 114t-165 -135h-307
q4 156 126 258t472 102t350 -385v-528q0 -63 7 -99t30 -51v-14h-324q-21 28 -34 117h-5q-103 -144 -311 -144q-250 0 -304 121t-54 203z" />
    <glyph glyph-name="atilde" unicode="&#xe3;" horiz-adv-x="1107" 
d="M223 1169q0 139 61.5 208t138.5 69t146 -39q35 -16 56.5 -26.5t49.5 -10.5t40 19.5t16 52.5h172q0 -121 -52 -196t-141 -75t-159 36t-94 36q-51 0 -62 -74h-172zM352 301q0 -115 160 -115q78 0 136.5 51.5t58.5 137.5v125q-53 -26 -160 -52q-108 -27 -151.5 -56.5
t-43.5 -90.5zM31 297q0 156 107 228.5t274 93.5q167 22 226.5 44.5t59.5 74.5q0 114 -148 114t-165 -135h-307q4 156 126 258t472 102t350 -385v-528q0 -63 7 -99t30 -51v-14h-324q-21 28 -34 117h-5q-103 -144 -311 -144q-250 0 -304 121t-54 203z" />
    <glyph glyph-name="adieresis" unicode="&#xe4;" horiz-adv-x="1107" 
d="M637 1444h313v-262h-313v262zM176 1444h313v-262h-313v262zM352 301q0 -115 160 -115q78 0 136.5 51.5t58.5 137.5v125q-53 -26 -160 -52q-108 -27 -151.5 -56.5t-43.5 -90.5zM31 297q0 156 107 228.5t274 93.5q167 22 226.5 44.5t59.5 74.5q0 114 -148 114t-165 -135
h-307q4 156 126 258t472 102t350 -385v-528q0 -63 7 -99t30 -51v-14h-324q-21 28 -34 117h-5q-103 -144 -311 -144q-250 0 -304 121t-54 203z" />
    <glyph glyph-name="aring" unicode="&#xe5;" horiz-adv-x="1107" 
d="M563 1143q-43 0 -81 15.5t-66.5 43t-45 63t-16.5 78.5t16.5 80t45 65t66.5 43t81 15t81 -15t66.5 -43t45 -65t16.5 -80t-16.5 -78.5t-45 -63t-66.5 -43t-81 -15.5zM564 1257q38 0 61.5 26t23.5 60.5t-23.5 61.5t-61.5 27t-61.5 -27t-23.5 -61.5t23.5 -60.5t61.5 -26z
M352 301q0 -115 160 -115q78 0 136.5 51.5t58.5 137.5v125q-53 -26 -160 -52q-108 -27 -151.5 -56.5t-43.5 -90.5zM31 297q0 156 107 228.5t274 93.5q167 22 226.5 44.5t59.5 74.5q0 114 -148 114t-165 -135h-307q4 156 126 258t472 102t350 -385v-528q0 -63 7 -99t30 -51
v-14h-324q-21 28 -34 117h-5q-103 -144 -311 -144q-250 0 -304 121t-54 203z" />
    <glyph glyph-name="ae" unicode="&#xe6;" horiz-adv-x="1812" 
d="M1235 842q-90 0 -141.5 -55.5t-67.5 -149.5h414q-10 94 -62.5 149.5t-142.5 55.5zM348 303q0 -117 166 -117q80 0 140.5 51.5t60.5 137.5v125q-52 -25 -166 -52t-157.5 -56.5t-43.5 -88.5zM1024 438q35 -229 248 -229q115 0 164 104h323q-34 -145 -166 -239
q-136 -105 -338 -105q-257 0 -403 168q-80 -84 -174 -125t-261 -41t-276.5 83t-109.5 239q0 227 159.5 272t239.5 57q171 25 224 44.5t53 71.5q0 114 -155 114t-167 -135h-307q4 157 127.5 258.5t351.5 101.5q111 0 201 -22.5t149 -87.5q133 112 333 112t337 -114
q205 -173 201 -527h-754z" />
    <glyph glyph-name="ccedilla" unicode="&#xe7;" horiz-adv-x="1114" 
d="M586 831q-109 0 -162 -82.5t-53 -224.5t53 -224.5t162 -82.5q160 0 182 180h319q-8 -174 -127 -293t-317 -135l-78 -65v-4q88 10 152.5 -24t64.5 -111t-72 -118.5t-164 -41.5q-151 0 -249 59l41 72q64 -31 141 -31q111 -1 111 57t-78 58q-36 0 -72 -15l-34 50l116 116
q-220 19 -354.5 173t-134.5 386t151 389.5t398 157.5q210 0 341 -110.5t156 -290.5h-321q-34 155 -172 155z" />
    <glyph glyph-name="egrave" unicode="&#xe8;" horiz-adv-x="1146" 
d="M219 1475h385l117 -304h-254zM570 842q-88 0 -139.5 -55.5t-68.5 -149.5h414q-10 94 -64 149.5t-142 55.5zM592 -31q-258 0 -408.5 158t-150.5 398t151 397t376 157q226 0 370 -131q188 -172 184 -510h-754q35 -229 248 -229q116 0 162 104h326q-33 -150 -176 -247
q-136 -97 -328 -97z" />
    <glyph glyph-name="eacute" unicode="&#xe9;" horiz-adv-x="1146" 
d="M570 842q-88 0 -139.5 -55.5t-68.5 -149.5h414q-10 94 -64 149.5t-142 55.5zM592 -31q-258 0 -408.5 158t-150.5 398t151 397t376 157q226 0 370 -131q188 -172 184 -510h-754q35 -229 248 -229q116 0 162 104h326q-33 -150 -176 -247q-136 -97 -328 -97zM555 1475h385
l-248 -304h-254z" />
    <glyph glyph-name="ecircumflex" unicode="&#xea;" horiz-adv-x="1146" 
d="M570 842q-88 0 -139.5 -55.5t-68.5 -149.5h414q-10 94 -64 149.5t-142 55.5zM592 -31q-258 0 -408.5 158t-150.5 398t151 397t376 157q226 0 370 -131q188 -172 184 -510h-754q35 -229 248 -229q116 0 162 104h326q-33 -150 -176 -247q-136 -97 -328 -97zM414 1456h319
l219 -280h-280l-92 135h-5l-94 -135h-286z" />
    <glyph glyph-name="edieresis" unicode="&#xeb;" horiz-adv-x="1146" 
d="M570 842q-88 0 -139.5 -55.5t-68.5 -149.5h414q-10 94 -64 149.5t-142 55.5zM592 -31q-258 0 -408.5 158t-150.5 398t151 397t376 157q226 0 370 -131q188 -172 184 -510h-754q35 -229 248 -229q116 0 162 104h326q-33 -150 -176 -247q-136 -97 -328 -97zM647 1444h314
v-262h-314v262zM186 1444h314v-262h-314v262z" />
    <glyph glyph-name="igrave" unicode="&#xec;" horiz-adv-x="493" 
d="M-106 1475h385l116 -304h-254zM80 1049h334v-1049h-334v1049z" />
    <glyph glyph-name="iacute" unicode="&#xed;" horiz-adv-x="493" 
d="M80 1049h334v-1049h-334v1049zM229 1475h385l-247 -304h-254z" />
    <glyph glyph-name="icircumflex" unicode="&#xee;" horiz-adv-x="493" 
d="M80 1456h336l162 -280h-265l-61 127h-4l-64 -127h-270zM80 1049h334v-1049h-334v1049z" />
    <glyph glyph-name="idieresis" unicode="&#xef;" horiz-adv-x="493" 
d="M414 1049v-1049h-334v1049h334zM301 1444h252v-262h-252v262zM-59 1444h254v-262h-254v262z" />
    <glyph glyph-name="eth" unicode="&#xf0;" horiz-adv-x="1185" 
d="M591.5 205q110.5 0 167 86t56.5 229.5t-56.5 228.5t-167 85t-165.5 -85t-55 -228.5t55 -229.5t165.5 -86zM864 1284q283 -293 283 -708q0 -416 -202 -512.5t-341 -96.5t-242.5 42t-176 117t-112.5 176t-40 279.5t131.5 327t351.5 148.5q125 0 215 -86h4q-68 111 -168 215
l-274 -90l-47 108l223 74q-104 90 -244 186h418q69 -45 123 -88l201 66l49 -109z" />
    <glyph glyph-name="ntilde" unicode="&#xf1;" horiz-adv-x="1167" 
d="M254 1169q0 139 61.5 208t137.5 69t147 -39q35 -16 56.5 -26.5t49.5 -10.5q48 0 56 72h172q0 -121 -52.5 -196t-140.5 -75t-158.5 36t-95.5 36q-51 0 -61 -74h-172zM731 1079q168 0 266.5 -109t98.5 -288v-682h-334v614q0 84 -41 135.5t-124 51.5t-133 -61.5t-50 -159.5
v-580h-334v1049h321v-144h7q119 174 323 174z" />
    <glyph glyph-name="ograve" unicode="&#xf2;" horiz-adv-x="1185" 
d="M240 1475h385l116 -304h-254zM594 -33q-127 0 -230.5 42t-177 117t-113.5 176t-40 220t40 220.5t113.5 176t177 116.5t230.5 42t230.5 -42t176 -116.5t112.5 -176t40 -220.5t-40 -220t-112.5 -176t-176 -117t-230.5 -42zM591.5 205q110.5 0 167 87t56.5 230.5
t-56.5 231.5t-167 88t-165.5 -88t-55 -231.5t55 -230.5t165.5 -87z" />
    <glyph glyph-name="oacute" unicode="&#xf3;" horiz-adv-x="1185" 
d="M594 -33q-127 0 -230.5 42t-177 117t-113.5 176t-40 220t40 220.5t113.5 176t177 116.5t230.5 42t230.5 -42t176 -116.5t112.5 -176t40 -220.5t-40 -220t-112.5 -176t-176 -117t-230.5 -42zM591.5 205q110.5 0 167 87t56.5 230.5t-56.5 231.5t-167 88t-165.5 -88
t-55 -231.5t55 -230.5t165.5 -87zM575 1475h386l-248 -304h-254z" />
    <glyph glyph-name="ocircumflex" unicode="&#xf4;" horiz-adv-x="1185" 
d="M594 -33q-127 0 -230.5 42t-177 117t-113.5 176t-40 220t40 220.5t113.5 176t177 116.5t230.5 42t230.5 -42t176 -116.5t112.5 -176t40 -220.5t-40 -220t-112.5 -176t-176 -117t-230.5 -42zM591.5 205q110.5 0 167 87t56.5 230.5t-56.5 231.5t-167 88t-165.5 -88
t-55 -231.5t55 -230.5t165.5 -87zM434 1456h320l219 -280h-281l-92 135h-4l-94 -135h-287z" />
    <glyph glyph-name="otilde" unicode="&#xf5;" horiz-adv-x="1185" 
d="M254 1169q0 139 61.5 208t137.5 69t147 -39q35 -16 56.5 -26.5t49.5 -10.5q48 0 56 72h172q0 -121 -52.5 -196t-140.5 -75t-158.5 36t-95.5 36q-51 0 -61 -74h-172zM594 -33q-127 0 -230.5 42t-177 117t-113.5 176t-40 220t40 220.5t113.5 176t177 116.5t230.5 42
t230.5 -42t176 -116.5t112.5 -176t40 -220.5t-40 -220t-112.5 -176t-176 -117t-230.5 -42zM591.5 205q110.5 0 167 87t56.5 230.5t-56.5 231.5t-167 88t-165.5 -88t-55 -231.5t55 -230.5t165.5 -87z" />
    <glyph glyph-name="odieresis" unicode="&#xf6;" horiz-adv-x="1185" 
d="M594 -33q-127 0 -230.5 42t-177 117t-113.5 176t-40 220t40 220.5t113.5 176t177 116.5t230.5 42t230.5 -42t176 -116.5t112.5 -176t40 -220.5t-40 -220t-112.5 -176t-176 -117t-230.5 -42zM591.5 205q110.5 0 167 87t56.5 230.5t-56.5 231.5t-167 88t-165.5 -88
t-55 -231.5t55 -230.5t165.5 -87zM668 1444h313v-262h-313v262zM207 1444h313v-262h-313v262z" />
    <glyph glyph-name="divide" unicode="&#xf7;" horiz-adv-x="1159" 
d="M82 541v268h995v-268h-995zM403 1229h351v-305h-351v305zM403 426h351v-305h-351v305z" />
    <glyph glyph-name="oslash" unicode="&#xf8;" horiz-adv-x="1185" 
d="M582 842q-100 0 -155.5 -88t-55.5 -232q0 -78 18 -135l352 389q-59 66 -159 66zM602 205q100 0 156.5 87t56.5 230q0 70 -16 131l-350 -389q53 -59 153 -59zM172 143q-139 152 -139 386t155 391t406 157q185 0 330 -96l118 131l91 -86l-115 -127q135 -151 135 -383
t-153 -390.5t-406 -158.5q-186 0 -328 94l-121 -135l-90 88z" />
    <glyph glyph-name="ugrave" unicode="&#xf9;" horiz-adv-x="1159" 
d="M223 1475h385l117 -304h-254zM403 430q0 -178 158 -178q86 0 135 58.5t49 152.5v586h334v-1049h-319v129h-6q-57 -78 -130 -119t-184 -41q-182 0 -275 107.5t-93 283.5v689h331v-619z" />
    <glyph glyph-name="uacute" unicode="&#xfa;" horiz-adv-x="1159" 
d="M403 430q0 -178 158 -178q86 0 135 58.5t49 152.5v586h334v-1049h-319v129h-6q-57 -78 -130 -119t-184 -41q-182 0 -275 107.5t-93 283.5v689h331v-619zM559 1475h385l-248 -304h-254z" />
    <glyph glyph-name="ucircumflex" unicode="&#xfb;" horiz-adv-x="1159" 
d="M403 430q0 -178 158 -178q86 0 135 58.5t49 152.5v586h334v-1049h-319v129h-6q-57 -78 -130 -119t-184 -41q-182 0 -275 107.5t-93 283.5v689h331v-619zM418 1456h319l219 -280h-280l-92 135h-4l-95 -135h-286z" />
    <glyph glyph-name="udieresis" unicode="&#xfc;" horiz-adv-x="1159" 
d="M403 430q0 -178 158 -178q86 0 135 58.5t49 152.5v586h334v-1049h-319v129h-6q-57 -78 -130 -119t-184 -41q-182 0 -275 107.5t-93 283.5v689h331v-619zM651 1444h314v-262h-314v262zM190 1444h314v-262h-314v262z" />
    <glyph glyph-name="yacute" unicode="&#xfd;" horiz-adv-x="1083" 
d="M528 1475h385l-247 -304h-254zM229 -86q138 0 138 111q0 54 -64 217l-309 807h352l141 -447q15 -47 35 -124t31 -118h4q23 120 61 242l138 447h334l-363 -1063q-62 -184 -150.5 -258t-244.5 -74h-217v260h114z" />
    <glyph glyph-name="thorn" unicode="&#xfe;" horiz-adv-x="1204" 
d="M622 225q102 0 157 77t55 213t-51.5 220t-158.5 84t-164 -84.5t-57 -216.5q0 -131 58.5 -212t160.5 -81zM414 109v-455h-334v1812h334v-536h6q107 149 307 149t322 -155.5t122 -405.5t-125.5 -400.5t-325.5 -150.5t-302 142h-4z" />
    <glyph glyph-name="ydieresis" unicode="&#xff;" horiz-adv-x="1083" 
d="M621 1444h313v-262h-313v262zM160 1444h313v-262h-313v262zM229 -86q138 0 138 111q0 54 -64 217l-309 807h352l141 -447q15 -47 35 -124t31 -118h4q23 120 61 242l138 447h334l-363 -1063q-62 -184 -150.5 -258t-244.5 -74h-217v260h114z" />
    <glyph glyph-name="Amacron" unicode="&#x100;" horiz-adv-x="1427" 
d="M418 1767h586v-206h-586v206zM874 524l-110 355q-35 102 -57 206h-5q-10 -39 -20 -73t-19.5 -69.5t-19.5 -63.5l-113 -355h344zM524 1464h373l528 -1464h-381l-86 264h-512l-84 -264h-364z" />
    <glyph glyph-name="amacron" unicode="&#x101;" horiz-adv-x="1107" 
d="M270 1409h586v-207h-586v207zM352 301q0 -115 160 -115q78 0 136.5 51.5t58.5 137.5v125q-53 -26 -160 -52q-108 -27 -151.5 -56.5t-43.5 -90.5zM31 297q0 156 107 228.5t274 93.5q167 22 226.5 44.5t59.5 74.5q0 114 -148 114t-165 -135h-307q4 156 126 258t472 102
t350 -385v-528q0 -63 7 -99t30 -51v-14h-324q-21 28 -34 117h-5q-103 -144 -311 -144q-250 0 -304 121t-54 203z" />
    <glyph glyph-name="Abreve" unicode="&#x102;" horiz-adv-x="1427" 
d="M710 1724q64 0 102 29t42 68h188q-6 -131 -95 -214t-231 -83t-236.5 80.5t-98.5 216.5h188q4 -43 40.5 -70t100.5 -27zM874 524l-110 355q-35 102 -57 206h-5q-10 -39 -20 -73t-19.5 -69.5t-19.5 -63.5l-113 -355h344zM524 1464h373l528 -1464h-381l-86 264h-512
l-84 -264h-364z" />
    <glyph glyph-name="abreve" unicode="&#x103;" horiz-adv-x="1107" 
d="M563 1360q63 0 101 28.5t43 67.5h188q-6 -131 -95.5 -214t-231.5 -83t-235.5 81t-99.5 216h189q4 -43 41 -69.5t100 -26.5zM352 301q0 -115 160 -115q78 0 136.5 51.5t58.5 137.5v125q-53 -26 -160 -52q-108 -27 -151.5 -56.5t-43.5 -90.5zM31 297q0 156 107 228.5
t274 93.5q167 22 226.5 44.5t59.5 74.5q0 114 -148 114t-165 -135h-307q4 156 126 258t472 102t350 -385v-528q0 -63 7 -99t30 -51v-14h-324q-21 28 -34 117h-5q-103 -144 -311 -144q-250 0 -304 121t-54 203z" />
    <glyph glyph-name="Aogonek" unicode="&#x104;" horiz-adv-x="1427" 
d="M874 524l-110 355q-35 102 -57 206h-5q-10 -39 -20 -73t-19.5 -69.5t-19.5 -63.5l-113 -355h344zM1288 -362q-246 0 -246 176q0 110 123 186h-121l-86 264h-512l-84 -264h-364l526 1464h373l524 -1452q-127 -84 -127 -141q0 -51 66 -51q37 0 61 10h2v-174
q-45 -18 -135 -18z" />
    <glyph glyph-name="aogonek" unicode="&#x105;" horiz-adv-x="1107" 
d="M352 301q0 -115 160 -115q78 0 136.5 51.5t58.5 137.5v125q-53 -26 -160 -52q-108 -27 -151.5 -56.5t-43.5 -90.5zM692 -190q0 72 47 119.5t97 70.5h-97q-21 28 -34 117h-5q-103 -144 -311 -144q-250 0 -304 121t-54 203q0 156 107 228.5t274 93.5q167 22 226.5 44.5
t59.5 74.5q0 114 -148 114t-165 -135h-307q4 156 126 258t472 102t350 -385v-528q0 -63 7 -99t30 -51v-14q-119 -63 -119 -129q0 -51 64 -51q37 0 61 10h2v-174q-45 -18 -125 -18q-254 0 -254 172z" />
    <glyph glyph-name="Cacute" unicode="&#x106;" horiz-adv-x="1437" 
d="M700 1802h383l-217 -266h-254zM240.5 1276.5q199.5 216.5 521.5 216.5q247 0 426 -134t211 -398h-363q-14 98 -86 164.5t-176 66.5t-169.5 -35t-108.5 -97.5t-64.5 -147.5t-21.5 -237t96.5 -281.5t255.5 -129.5q123 0 197.5 68.5t87.5 175.5h362q-16 -224 -183 -382
q-167 -159 -465 -159q-159 0 -292 57.5t-280.5 214.5t-147.5 489t199.5 548.5z" />
    <glyph glyph-name="cacute" unicode="&#x107;" horiz-adv-x="1114" 
d="M586 831q-109 0 -162 -82.5t-53 -224.5t53 -224.5t162 -82.5q160 0 182 180h319q-8 -186 -142.5 -308t-369.5 -122q-236 0 -389 158.5t-153 398t151 396.5t398 157q210 0 341 -110.5t156 -290.5h-321q-34 155 -172 155zM557 1475h385l-248 -304h-254z" />
    <glyph glyph-name="Ccircumflex" unicode="&#x108;" horiz-adv-x="1437" 
d="M588 1792h319l219 -256h-280l-92 111h-4l-95 -111h-286zM240.5 1276.5q199.5 216.5 521.5 216.5q247 0 426 -134t211 -398h-363q-14 98 -86 164.5t-176 66.5t-169.5 -35t-108.5 -97.5t-64.5 -147.5t-21.5 -237t96.5 -281.5t255.5 -129.5q123 0 197.5 68.5t87.5 175.5h362
q-16 -224 -183 -382q-167 -159 -465 -159q-159 0 -292 57.5t-280.5 214.5t-147.5 489t199.5 548.5z" />
    <glyph glyph-name="ccircumflex" unicode="&#x109;" horiz-adv-x="1114" 
d="M586 831q-109 0 -162 -82.5t-53 -224.5t53 -224.5t162 -82.5q160 0 182 180h319q-8 -186 -142.5 -308t-369.5 -122q-236 0 -389 158.5t-153 398t151 396.5t398 157q210 0 341 -110.5t156 -290.5h-321q-34 155 -172 155zM416 1456h319l219 -280h-280l-92 135h-4l-95 -135
h-286z" />
    <glyph glyph-name="Cdotaccent" unicode="&#x10a;" horiz-adv-x="1437" 
d="M240.5 1276.5q199.5 216.5 521.5 216.5q247 0 426 -134t211 -398h-363q-14 98 -86 164.5t-176 66.5t-169.5 -35t-108.5 -97.5t-64.5 -147.5t-21.5 -237t96.5 -281.5t255.5 -129.5q123 0 197.5 68.5t87.5 175.5h362q-16 -224 -183 -382q-167 -159 -465 -159
q-159 0 -292 57.5t-280.5 214.5t-147.5 489t199.5 548.5zM582 1808h331v-266h-331v266z" />
    <glyph glyph-name="cdotaccent" unicode="&#x10b;" horiz-adv-x="1114" 
d="M410 1464h331v-270h-331v270zM586 831q-109 0 -162 -82.5t-53 -224.5t53 -224.5t162 -82.5q160 0 182 180h319q-8 -186 -142.5 -308t-369.5 -122q-236 0 -389 158.5t-153 398t151 396.5t398 157q210 0 341 -110.5t156 -290.5h-321q-34 155 -172 155z" />
    <glyph glyph-name="Ccaron" unicode="&#x10c;" horiz-adv-x="1437" 
d="M369 1792h280l92 -111h4l93 111h286l-217 -256h-321zM240.5 1276.5q199.5 216.5 521.5 216.5q247 0 426 -134t211 -398h-363q-14 98 -86 164.5t-176 66.5t-169.5 -35t-108.5 -97.5t-64.5 -147.5t-21.5 -237t96.5 -281.5t255.5 -129.5q123 0 197.5 68.5t87.5 175.5h362
q-16 -224 -183 -382q-167 -159 -465 -159q-159 0 -292 57.5t-280.5 214.5t-147.5 489t199.5 548.5z" />
    <glyph glyph-name="ccaron" unicode="&#x10d;" horiz-adv-x="1114" 
d="M586 831q-109 0 -162 -82.5t-53 -224.5t53 -224.5t162 -82.5q160 0 182 180h319q-8 -186 -142.5 -308t-369.5 -122q-236 0 -389 158.5t-153 398t151 396.5t398 157q210 0 341 -110.5t156 -290.5h-321q-34 155 -172 155zM199 1452h280l92 -135h4l93 135h286l-217 -283
h-321z" />
    <glyph glyph-name="Dcaron" unicode="&#x10e;" horiz-adv-x="1443" 
d="M100 1464h625q303 0 490.5 -202.5t187.5 -538.5q0 -396 -254 -590q-173 -133 -447 -133h-602v1464zM676 305q180 0 270 107.5t90 309.5t-92 320.5t-264 118.5h-217v-856h213zM285 1792h280l92 -111h5l92 111h286l-217 -256h-321z" />
    <glyph glyph-name="dcaron" unicode="&#x10f;" horiz-adv-x="1204" 
d="M581 231q101 0 159.5 82t58.5 211q0 212 -81 257.5t-136 45.5q-100 0 -155.5 -82.5t-55.5 -218.5t54.5 -215.5t155.5 -79.5zM801 141q-100 -174 -306 -174t-334 148.5t-128 402.5t128 407.5t331 153.5q111 0 178 -42t114 -107h7v534h333v-1464h-319v141h-4zM1313 1257
h-117v207h256v-161q0 -165 -101.5 -196.5t-156.5 -33.5v96q119 18 119 88z" />
    <glyph glyph-name="Dcroat" unicode="&#x110;" horiz-adv-x="1462" 
d="M119 606h-113v281h113v577h624q304 0 491 -202.5t187 -538.5q0 -401 -258 -592q-179 -131 -442 -131h-602v606zM694 305q180 0 270.5 107.5t90.5 309.5t-92.5 320.5t-264.5 118.5h-217v-274h320v-281h-320v-301h213z" />
    <glyph glyph-name="dcroat" unicode="&#x111;" horiz-adv-x="1204" 
d="M581 231q101 0 159.5 82t58.5 211q0 212 -81 257.5t-136 45.5q-100 0 -155.5 -82.5t-55.5 -218.5t54.5 -215.5t155.5 -79.5zM801 141q-100 -174 -306 -174t-334 148.5t-128 402.5t128 407.5t331 153.5q111 0 178 -42t114 -107h7v229h-246v168h246v137h333v-137h105v-168
h-105v-1159h-319v141h-4z" />
    <glyph glyph-name="Emacron" unicode="&#x112;" horiz-adv-x="1286" 
d="M100 1464h1110v-299h-747v-262h641v-282h-641v-314h760v-307h-1123v1464zM381 1767h586v-206h-586v206z" />
    <glyph glyph-name="emacron" unicode="&#x113;" horiz-adv-x="1146" 
d="M281 1409h585v-207h-585v207zM570 842q-88 0 -139.5 -55.5t-68.5 -149.5h414q-10 94 -64 149.5t-142 55.5zM592 -31q-258 0 -408.5 158t-150.5 398t151 397t376 157q226 0 370 -131q188 -172 184 -510h-754q35 -229 248 -229q116 0 162 104h326q-33 -150 -176 -247
q-136 -97 -328 -97z" />
    <glyph glyph-name="Ebreve" unicode="&#x114;" horiz-adv-x="1286" 
d="M100 1464h1110v-299h-747v-262h641v-282h-641v-314h760v-307h-1123v1464zM674 1724q64 0 101.5 29t41.5 68h189q-6 -131 -95.5 -214t-231.5 -83t-236.5 80.5t-98.5 216.5h188q4 -43 41 -70t101 -27z" />
    <glyph glyph-name="ebreve" unicode="&#x115;" horiz-adv-x="1146" 
d="M571 1360q63 0 101.5 28.5t42.5 67.5h188q-6 -131 -95.5 -214t-231.5 -83t-236 81.5t-98 215.5h188q4 -43 41 -69.5t100 -26.5zM570 842q-88 0 -139.5 -55.5t-68.5 -149.5h414q-10 94 -64 149.5t-142 55.5zM592 -31q-258 0 -408.5 158t-150.5 398t151 397t376 157
q226 0 370 -131q188 -172 184 -510h-754q35 -229 248 -229q116 0 162 104h326q-33 -150 -176 -247q-136 -97 -328 -97z" />
    <glyph glyph-name="Edotaccent" unicode="&#x116;" horiz-adv-x="1286" 
d="M100 1464h1110v-299h-747v-262h641v-282h-641v-314h760v-307h-1123v1464zM508 1808h332v-266h-332v266z" />
    <glyph glyph-name="edotaccent" unicode="&#x117;" horiz-adv-x="1146" 
d="M408 1464h331v-270h-331v270zM570 842q-88 0 -139.5 -55.5t-68.5 -149.5h414q-10 94 -64 149.5t-142 55.5zM592 -31q-258 0 -408.5 158t-150.5 398t151 397t376 157q226 0 370 -131q188 -172 184 -510h-754q35 -229 248 -229q116 0 162 104h326q-33 -150 -176 -247
q-136 -97 -328 -97z" />
    <glyph glyph-name="Eogonek" unicode="&#x118;" horiz-adv-x="1286" 
d="M786 -186q0 110 123 186h-809v1464h1110v-299h-747v-262h641v-282h-641v-314h760v-307h-68q-117 -64 -117 -129q0 -51 66 -51q37 0 61 10h2v-174q-45 -18 -133 -18q-248 0 -248 176z" />
    <glyph glyph-name="eogonek" unicode="&#x119;" horiz-adv-x="1146" 
d="M570 842q-88 0 -139.5 -55.5t-68.5 -149.5h414q-10 94 -64 149.5t-142 55.5zM360 438q35 -229 248 -229q116 0 162 104h326q-28 -125 -146 -229q-31 -27 -65.5 -53.5t-84.5 -69t-50 -92.5q0 -49 63 -49q37 0 61 10h3v-174q-45 -18 -125 -18q-254 0 -254 172q0 96 90 159
q-251 0 -403 157.5t-152 397.5q0 241 151 398t376 157q226 0 370 -131q188 -172 184 -510h-754z" />
    <glyph glyph-name="Ecaron" unicode="&#x11a;" horiz-adv-x="1286" 
d="M100 1464h1110v-299h-747v-262h641v-282h-641v-314h760v-307h-1123v1464zM297 1792h281l92 -111h4l92 111h287l-217 -256h-322z" />
    <glyph glyph-name="ecaron" unicode="&#x11b;" horiz-adv-x="1146" 
d="M570 842q-88 0 -139.5 -55.5t-68.5 -149.5h414q-10 94 -64 149.5t-142 55.5zM592 -31q-258 0 -408.5 158t-150.5 398t151 397t376 157q226 0 370 -131q188 -172 184 -510h-754q35 -229 248 -229q116 0 162 104h326q-33 -150 -176 -247q-136 -97 -328 -97zM195 1452h280
l92 -135h4l93 135h286l-217 -283h-321z" />
    <glyph glyph-name="Gcircumflex" unicode="&#x11c;" horiz-adv-x="1509" 
d="M590 1792h319l219 -256h-280l-92 111h-4l-95 -111h-286zM1155 176q-133 -209 -428 -209t-489 209q-195 209 -195 557t217 565q195 195 487 195t459.5 -135.5t204.5 -372.5h-352q-20 90 -91.5 149.5t-177.5 59.5t-174.5 -36t-113.5 -98.5t-67.5 -147.5t-22.5 -237
t99 -283.5t269 -131.5q138 0 221.5 76.5t96.5 179.5v4h-275v266h611v-786h-254l-21 176h-4z" />
    <glyph glyph-name="gcircumflex" unicode="&#x11d;" horiz-adv-x="1171" 
d="M572 305q102 0 154 76t52 186q0 177 -81 218.5t-132 41.5q-94 0 -150.5 -70.5t-56.5 -190.5t56 -190.5t158 -70.5zM756 178q-106 -121 -264 -121q-188 0 -323.5 133t-135.5 365t123 378t316 146t296 -143h4v113h320v-947q0 -221 -140 -348q-133 -116 -368 -116
q-234 0 -369 86t-160 251h324q35 -102 195 -102q190 0 190 201v104h-8zM420 1456h319l219 -280h-280l-92 135h-4l-95 -135h-286z" />
    <glyph glyph-name="Gbreve" unicode="&#x11e;" horiz-adv-x="1509" 
d="M1155 176q-133 -209 -428 -209t-489 209q-195 209 -195 557t217 565q195 195 487 195t459.5 -135.5t204.5 -372.5h-352q-20 90 -91.5 149.5t-177.5 59.5t-174.5 -36t-113.5 -98.5t-67.5 -147.5t-22.5 -237t99 -283.5t269 -131.5q138 0 221.5 76.5t96.5 179.5v4h-275v266
h611v-786h-254l-21 176h-4zM750 1724q64 0 101.5 29t41.5 68h188q-6 -131 -95 -214t-231 -83t-236.5 80.5t-98.5 216.5h188q4 -43 41 -70t101 -27z" />
    <glyph glyph-name="gbreve" unicode="&#x11f;" horiz-adv-x="1171" 
d="M578 1360q64 0 101.5 28.5t41.5 67.5h188q-6 -131 -95 -214t-231 -83t-236.5 81.5t-98.5 215.5h188q4 -43 41 -69.5t101 -26.5zM572 305q102 0 154 76t52 186q0 177 -81 218.5t-132 41.5q-94 0 -150.5 -70.5t-56.5 -190.5t56 -190.5t158 -70.5zM756 178
q-106 -121 -264 -121q-188 0 -323.5 133t-135.5 365t123 378t316 146t296 -143h4v113h320v-947q0 -221 -140 -348q-133 -116 -368 -116q-234 0 -369 86t-160 251h324q35 -102 195 -102q190 0 190 201v104h-8z" />
    <glyph glyph-name="Gdotaccent" unicode="&#x120;" horiz-adv-x="1509" 
d="M1155 176q-133 -209 -428 -209t-489 209q-195 209 -195 557t217 565q195 195 487 195t459.5 -135.5t204.5 -372.5h-352q-20 90 -91.5 149.5t-177.5 59.5t-174.5 -36t-113.5 -98.5t-67.5 -147.5t-22.5 -237t99 -283.5t269 -131.5q138 0 221.5 76.5t96.5 179.5v4h-275v266
h611v-786h-254l-21 176h-4zM584 1808h331v-266h-331v266z" />
    <glyph glyph-name="gdotaccent" unicode="&#x121;" horiz-adv-x="1171" 
d="M414 1464h331v-270h-331v270zM572 305q102 0 154 76t52 186q0 177 -81 218.5t-132 41.5q-94 0 -150.5 -70.5t-56.5 -190.5t56 -190.5t158 -70.5zM756 178q-106 -121 -264 -121q-188 0 -323.5 133t-135.5 365t123 378t316 146t296 -143h4v113h320v-947q0 -221 -140 -348
q-133 -116 -368 -116q-234 0 -369 86t-160 251h324q35 -102 195 -102q190 0 190 201v104h-8z" />
    <glyph glyph-name="Gcommaaccent" unicode="&#x122;" horiz-adv-x="1509" 
d="M1155 176q-133 -209 -428 -209t-489 209q-195 209 -195 557t217 565q195 195 487 195t459.5 -135.5t204.5 -372.5h-352q-20 90 -91.5 149.5t-177.5 59.5t-174.5 -36t-113.5 -98.5t-67.5 -147.5t-22.5 -237t99 -283.5t269 -131.5q138 0 221.5 76.5t96.5 179.5v4h-275v266
h611v-786h-254l-21 176h-4zM741 -317h-129v221h281v-178q0 -184 -114.5 -222.5t-172.5 -42.5v99q135 31 135 123z" />
    <glyph glyph-name="gcommaaccent" unicode="&#x123;" horiz-adv-x="1171" 
d="M572 305q102 0 154 76t52 186q0 177 -81 218.5t-132 41.5q-94 0 -150.5 -70.5t-56.5 -190.5t56 -190.5t158 -70.5zM756 178q-106 -121 -264 -121q-188 0 -323.5 133t-135.5 365t123 378t316 146t296 -143h4v113h320v-947q0 -221 -140 -348q-133 -116 -368 -116
q-234 0 -369 86t-160 251h324q35 -102 195 -102q190 0 190 201v104h-8zM434 1380q0 123 79.5 188.5t209.5 76.5v-99q-137 -30 -137 -123h131v-221h-283v178z" />
    <glyph glyph-name="Hcircumflex" unicode="&#x124;" horiz-adv-x="1439" 
d="M559 1792h320l219 -256h-281l-92 111h-4l-94 -111h-287zM100 1464h363v-555h514v555h362v-1464h-362v610h-514v-610h-363v1464z" />
    <glyph glyph-name="hcircumflex" unicode="&#x125;" horiz-adv-x="1167" 
d="M428 1792h320l219 -256h-281l-92 111h-4l-94 -111h-287zM420 920q119 159 299 159t278.5 -109t98.5 -288v-682h-334v614q0 84 -41 135.5t-124 51.5t-133 -61.5t-50 -159.5v-580h-334v1464h334v-544h6z" />
    <glyph glyph-name="Hbar" unicode="&#x126;" horiz-adv-x="1439" 
d="M977 909v154h-514v-154h514zM-10 1239h110v225h363v-225h514v225h362v-225h111v-176h-111v-1063h-362v610h-514v-610h-363v1063h-110v176z" />
    <glyph glyph-name="hbar" unicode="&#x127;" horiz-adv-x="1167" 
d="M420 920q119 159 299 159t278.5 -109t98.5 -288v-682h-334v614q0 84 -41 135.5t-124 51.5t-133 -61.5t-50 -159.5v-580h-334v1159h-105v168h105v137h334v-137h248v-168h-248v-239h6z" />
    <glyph glyph-name="Itilde" unicode="&#x128;" horiz-adv-x="565" 
d="M-57 1538q0 139 61.5 208t137.5 69t147 -39q35 -16 56 -26.5t49 -10.5t40 19.5t17 51.5h172q0 -121 -52.5 -195.5t-140.5 -74.5t-158.5 36t-95.5 36q-51 0 -61 -74h-172zM102 1464h363v-1464h-363v1464z" />
    <glyph glyph-name="itilde" unicode="&#x129;" horiz-adv-x="493" 
d="M-61 1169q0 139 55 208t122 69t118 -26t68 -35t40 -9t32 16.5t13 49.5h166q0 -121 -46 -196t-136 -75q-64 1 -112 25t-66.5 33.5t-34.5 9.5q-45 0 -52 -70h-167zM80 1049h334v-1049h-334v1049z" />
    <glyph glyph-name="Imacron" unicode="&#x12a;" horiz-adv-x="565" 
d="M-10 1767h585v-206h-585v206zM102 1464h363v-1464h-363v1464z" />
    <glyph glyph-name="imacron" unicode="&#x12b;" horiz-adv-x="493" 
d="M-20 1409h534v-207h-534v207zM80 1049h334v-1049h-334v1049z" />
    <glyph glyph-name="Ibreve" unicode="&#x12c;" horiz-adv-x="565" 
d="M282 1724q64 0 102 29t42 68h188q-6 -131 -95 -214t-231 -83t-236.5 80.5t-98.5 216.5h188q4 -43 40.5 -70t100.5 -27zM102 1464h363v-1464h-363v1464z" />
    <glyph glyph-name="ibreve" unicode="&#x12d;" horiz-adv-x="493" 
d="M251 1159q-134 0 -219 80t-89 217h184q4 -43 33.5 -69.5t85.5 -26.5t85 28.5t34 67.5h184q-4 -133 -84 -215t-214 -82zM80 1049h334v-1049h-334v1049z" />
    <glyph glyph-name="Iogonek" unicode="&#x12e;" horiz-adv-x="565" 
d="M342 -362q-252 0 -252 176q0 110 123 186h-111v1464h363v-1454q-123 -83 -123 -139q0 -51 66 -51q37 0 61 10h2v-174q-45 -18 -129 -18z" />
    <glyph glyph-name="iogonek" unicode="&#x12f;" horiz-adv-x="493" 
d="M80 1464h334v-270h-334v270zM45 -190q0 120 141 190h-106v1049h334v-1041q-117 -79 -117 -137q0 -51 61 -51q37 0 62 10h2v-174q-45 -18 -131 -18q-246 0 -246 172z" />
    <glyph glyph-name="Idotaccent" unicode="&#x130;" horiz-adv-x="565" 
d="M117 1808h332v-266h-332v266zM102 1464h363v-1464h-363v1464z" />
    <glyph glyph-name="dotlessi" unicode="&#x131;" horiz-adv-x="493" 
d="M80 1049h334v-1049h-334v1049z" />
    <glyph glyph-name="IJ" unicode="&#x132;" horiz-adv-x="1667" 
d="M1067 272q152 0 152 172v1020h362v-1028q0 -320 -181 -391.5t-371.5 -71.5t-320.5 126t-130 341v129h329v-120q0 -177 160 -177zM102 1464h363v-1464h-363v1464z" />
    <glyph glyph-name="ij" unicode="&#x133;" horiz-adv-x="985" 
d="M571 1464h334v-270h-334v270zM566 -352q-94 0 -171 16v232q102 0 139 17t37 95v1041h334v-1057q0 -178 -80 -262q-45 -45 -105 -63.5t-154 -18.5zM80 1464h334v-270h-334v270zM80 1049h334v-1049h-334v1049z" />
    <glyph glyph-name="Jcircumflex" unicode="&#x134;" horiz-adv-x="1116" 
d="M686 1792h320l219 -256h-281l-92 111h-4l-94 -111h-287zM516 272q152 0 152 172v1020h362v-1028q0 -320 -181 -391.5t-371.5 -71.5t-320.5 126t-130 341v129h329v-120q0 -177 160 -177z" />
    <glyph glyph-name="jcircumflex" unicode="&#x135;" horiz-adv-x="493" 
d="M75 -352q-93 0 -171 16v232q101 0 138.5 17.5t37.5 94.5v1041h334v-1057q0 -178 -80 -262q-45 -45 -105.5 -63.5t-153.5 -18.5zM80 1456h336l162 -280h-265l-61 127h-4l-64 -127h-270z" />
    <glyph glyph-name="Kcommaaccent" unicode="&#x136;" horiz-adv-x="1427" 
d="M100 1464h363v-530l504 530h430l-561 -587l594 -877h-422l-422 633l-123 -129v-504h-363v1464zM692 -317h-129v221h281v-178q0 -184 -115 -222.5t-172 -42.5v99q135 31 135 123z" />
    <glyph glyph-name="kcommaaccent" unicode="&#x137;" horiz-adv-x="1146" 
d="M80 1464h330v-770l311 355h385l-369 -394l412 -655h-387l-252 428l-100 -106v-322h-330v1464zM578 -317h-129v221h280v-178q0 -184 -114.5 -222.5t-172.5 -42.5v99q136 31 136 123z" />
    <glyph glyph-name="kgreenlandic" unicode="&#x138;" horiz-adv-x="1146" 
d="M80 1049h330v-355l311 355h385l-369 -394l412 -655h-387l-252 428l-100 -106v-322h-330v1049z" />
    <glyph glyph-name="Lacute" unicode="&#x139;" horiz-adv-x="1157" 
d="M100 1464h363v-1157h657v-307h-1020v1464zM238 1802h383l-218 -266h-253z" />
    <glyph glyph-name="lacute" unicode="&#x13a;" horiz-adv-x="501" 
d="M82 1464h338v-1464h-338v1464zM205 1802h383l-217 -266h-254z" />
    <glyph glyph-name="Lcommaaccent" unicode="&#x13b;" horiz-adv-x="1157" 
d="M100 1464h363v-1157h657v-307h-1020v1464zM602 -317h-129v221h281v-178q0 -184 -115 -222.5t-172 -42.5v99q135 31 135 123z" />
    <glyph glyph-name="lcommaaccent" unicode="&#x13c;" horiz-adv-x="501" 
d="M82 1464h338v-1464h-338v1464zM244 -317h-129v221h280v-178q0 -184 -114.5 -222.5t-171.5 -42.5v99q135 31 135 123z" />
    <glyph glyph-name="Lcaron" unicode="&#x13d;" horiz-adv-x="1157" 
d="M100 1464h363v-1157h657v-307h-1020v1464zM803 1245h-121v219h268v-170q0 -175 -107.5 -207t-164.5 -34v100q57 8 91 28.5t34 63.5z" />
    <glyph glyph-name="lcaron" unicode="&#x13e;" horiz-adv-x="501" 
d="M82 1464h338v-1464h-338v1464zM610 1257h-116v207h256v-161q0 -165 -101.5 -196.5t-156.5 -33.5v96q118 18 118 88z" />
    <glyph glyph-name="Ldot" unicode="&#x13f;" horiz-adv-x="1157" 
d="M729 891h350v-344h-350v344zM100 1464h363v-1157h657v-307h-1020v1464z" />
    <glyph glyph-name="ldot" unicode="&#x140;" horiz-adv-x="845" 
d="M510 885h328v-338h-328v338zM82 1464h338v-1464h-338v1464z" />
    <glyph glyph-name="Lslash" unicode="&#x141;" horiz-adv-x="1171" 
d="M117 1464h362v-590l391 205v-239l-391 -205v-328h658v-307h-1020v444l-125 -63v240l125 63v780z" />
    <glyph glyph-name="lslash" unicode="&#x142;" horiz-adv-x="565" 
d="M113 1464h338v-503l122 90v-240l-122 -90v-721h-338v471l-109 -80v240l109 80v753z" />
    <glyph glyph-name="Nacute" unicode="&#x143;" horiz-adv-x="1454" 
d="M455 0h-355v1464h365l434 -735q8 -16 34.5 -63t65.5 -123h5q-5 122 -5 133v788h355v-1464h-365l-430 725q-26 36 -53 94q-28 58 -51 103h-4q0 -53 2 -101l2 -139v-682zM694 1802h383l-217 -266h-254z" />
    <glyph glyph-name="nacute" unicode="&#x144;" horiz-adv-x="1167" 
d="M731 1079q168 0 266.5 -109t98.5 -288v-682h-334v614q0 84 -41 135.5t-124 51.5t-133 -61.5t-50 -159.5v-580h-334v1049h321v-144h7q119 174 323 174zM575 1475h386l-248 -304h-254z" />
    <glyph glyph-name="Ncommaaccent" unicode="&#x145;" horiz-adv-x="1454" 
d="M455 0h-355v1464h365l434 -735q8 -16 34.5 -63t65.5 -123h5q-5 122 -5 133v788h355v-1464h-365l-430 725q-26 36 -53 94q-28 58 -51 103h-4q0 -53 2 -101l2 -139v-682zM713 -315h-129v221h280v-178q0 -185 -114.5 -222.5t-171.5 -42.5v99q135 31 135 123z" />
    <glyph glyph-name="ncommaaccent" unicode="&#x146;" horiz-adv-x="1167" 
d="M731 1079q168 0 266.5 -109t98.5 -288v-682h-334v614q0 84 -41 135.5t-124 51.5t-133 -61.5t-50 -159.5v-580h-334v1049h321v-144h7q119 174 323 174zM580 -317h-129v221h280v-178q0 -184 -114.5 -222.5t-172.5 -42.5v99q136 31 136 123z" />
    <glyph glyph-name="Ncaron" unicode="&#x147;" horiz-adv-x="1454" 
d="M455 0h-355v1464h365l434 -735q8 -16 34.5 -63t65.5 -123h5q-5 122 -5 133v788h355v-1464h-365l-430 725q-26 36 -53 94q-28 58 -51 103h-4q0 -53 2 -101l2 -139v-682zM362 1792h281l92 -111h4l92 111h287l-217 -256h-321z" />
    <glyph glyph-name="ncaron" unicode="&#x148;" horiz-adv-x="1167" 
d="M731 1079q168 0 266.5 -109t98.5 -288v-682h-334v614q0 84 -41 135.5t-124 51.5t-133 -61.5t-50 -159.5v-580h-334v1049h321v-144h7q119 174 323 174zM217 1452h281l92 -135h4l92 135h287l-217 -283h-322z" />
    <glyph glyph-name="napostrophe" unicode="&#x149;" horiz-adv-x="1167" 
d="M37 1251h-121v213h264v-168q0 -166 -104.5 -199.5t-161.5 -35.5v100q123 14 123 90zM731 1079q168 0 266.5 -109t98.5 -288v-682h-334v614q0 84 -41 135.5t-124 51.5t-133 -61.5t-50 -159.5v-580h-334v1049h321v-144h7q119 174 323 174z" />
    <glyph glyph-name="Eng" unicode="&#x14a;" horiz-adv-x="1454" 
d="M455 0h-355v1464h365l434 -735q8 -16 34.5 -63t65.5 -123h5q-5 122 -5 133v788h355v-1370q0 -329 -164 -391.5t-264 -62.5t-181 14v293q72 -10 93 -10q111 0 147 65l-426 723q-26 36 -53 94q-28 58 -51 103h-4q0 -53 2 -101l2 -139v-682z" />
    <glyph glyph-name="eng" unicode="&#x14b;" horiz-adv-x="1167" 
d="M731 1079q168 0 266.5 -109t98.5 -288v-690q0 -178 -80 -262q-82 -82 -242 -82q-110 0 -188 16v232q101 0 138.5 17.5t37.5 94.5v606q0 84 -41 135.5t-124 51.5t-133 -61.5t-50 -159.5v-580h-334v1049h321v-144h7q119 174 323 174z" />
    <glyph glyph-name="Omacron" unicode="&#x14c;" horiz-adv-x="1529" 
d="M764 -35q-166 0 -300 57.5t-227.5 160t-144.5 242.5t-51 304t51 304.5t144.5 242.5t227.5 159.5t300 57.5t300 -57.5t228 -159.5t145.5 -242.5t51.5 -304.5t-51.5 -304t-145.5 -242.5t-228 -160t-300 -57.5zM766 260q88 0 154.5 36t111.5 98.5t66.5 148.5t21.5 186
t-21.5 186t-66.5 149.5t-111.5 99.5t-154.5 36t-154.5 -36t-111.5 -99.5t-67.5 -149.5t-22.5 -186t22.5 -186t67.5 -148.5t111.5 -98.5t154.5 -36zM471 1767h586v-206h-586v206z" />
    <glyph glyph-name="omacron" unicode="&#x14d;" horiz-adv-x="1185" 
d="M594 -33q-127 0 -230.5 42t-177 117t-113.5 176t-40 220t40 220.5t113.5 176t177 116.5t230.5 42t230.5 -42t176 -116.5t112.5 -176t40 -220.5t-40 -220t-112.5 -176t-176 -117t-230.5 -42zM591.5 205q110.5 0 167 87t56.5 230.5t-56.5 231.5t-167 88t-165.5 -88
t-55 -231.5t55 -230.5t165.5 -87zM301 1409h586v-207h-586v207z" />
    <glyph glyph-name="Obreve" unicode="&#x14e;" horiz-adv-x="1529" 
d="M764 -35q-166 0 -300 57.5t-227.5 160t-144.5 242.5t-51 304t51 304.5t144.5 242.5t227.5 159.5t300 57.5t300 -57.5t228 -159.5t145.5 -242.5t51.5 -304.5t-51.5 -304t-145.5 -242.5t-228 -160t-300 -57.5zM766 260q88 0 154.5 36t111.5 98.5t66.5 148.5t21.5 186
t-21.5 186t-66.5 149.5t-111.5 99.5t-154.5 36t-154.5 -36t-111.5 -99.5t-67.5 -149.5t-22.5 -186t22.5 -186t67.5 -148.5t111.5 -98.5t154.5 -36zM764 1724q64 0 101.5 29t41.5 68h189q-6 -131 -95.5 -214t-230.5 -83t-236.5 80.5t-99.5 216.5h189q4 -43 40.5 -70
t100.5 -27z" />
    <glyph glyph-name="obreve" unicode="&#x14f;" horiz-adv-x="1185" 
d="M592 1360q64 0 101.5 28.5t41.5 67.5h189q-6 -131 -95.5 -214t-230.5 -83t-236.5 81.5t-99.5 215.5h189q4 -43 40.5 -69.5t100.5 -26.5zM594 -33q-127 0 -230.5 42t-177 117t-113.5 176t-40 220t40 220.5t113.5 176t177 116.5t230.5 42t230.5 -42t176 -116.5t112.5 -176
t40 -220.5t-40 -220t-112.5 -176t-176 -117t-230.5 -42zM591.5 205q110.5 0 167 87t56.5 230.5t-56.5 231.5t-167 88t-165.5 -88t-55 -231.5t55 -230.5t165.5 -87z" />
    <glyph glyph-name="Ohungarumlaut" unicode="&#x150;" horiz-adv-x="1529" 
d="M946 1823h324l-211 -287h-207zM545 1823h323l-209 -287h-206zM764 -35q-166 0 -300 57.5t-227.5 160t-144.5 242.5t-51 304t51 304.5t144.5 242.5t227.5 159.5t300 57.5t300 -57.5t228 -159.5t145.5 -242.5t51.5 -304.5t-51.5 -304t-145.5 -242.5t-228 -160t-300 -57.5z
M766 260q88 0 154.5 36t111.5 98.5t66.5 148.5t21.5 186t-21.5 186t-66.5 149.5t-111.5 99.5t-154.5 36t-154.5 -36t-111.5 -99.5t-67.5 -149.5t-22.5 -186t22.5 -186t67.5 -148.5t111.5 -98.5t154.5 -36z" />
    <glyph glyph-name="ohungarumlaut" unicode="&#x151;" horiz-adv-x="1185" 
d="M594 -33q-127 0 -230.5 42t-177 117t-113.5 176t-40 220t40 220.5t113.5 176t177 116.5t230.5 42t230.5 -42t176 -116.5t112.5 -176t40 -220.5t-40 -220t-112.5 -176t-176 -117t-230.5 -42zM591.5 205q110.5 0 167 87t56.5 230.5t-56.5 231.5t-167 88t-165.5 -88
t-55 -231.5t55 -230.5t165.5 -87zM782 1475h324l-217 -304h-207zM383 1475h324l-218 -304h-206z" />
    <glyph glyph-name="OE" unicode="&#x152;" horiz-adv-x="2205" 
d="M754 1200q-164 0 -254 -132.5t-90 -339t90.5 -337.5t257.5 -131t228 75t75 105v574q-96 186 -307 186zM731 -35q-304 0 -497 216t-193 548t191.5 548t482.5 216q224 0 368 -131v102h1039v-301h-699v-264h590v-281h-590v-301h719v-317h-1059v102q-153 -137 -352 -137z" />
    <glyph glyph-name="oe" unicode="&#x153;" horiz-adv-x="1921" 
d="M1344 842q-90 0 -141.5 -55.5t-67.5 -149.5h413q-10 94 -62 149.5t-142 55.5zM591.5 205q110.5 0 167 87t56.5 230.5t-56.5 231.5t-167 88t-165.5 -88t-55 -231.5t55 -230.5t165.5 -87zM1133 438q35 -229 249 -229q116 0 162 104h324q-33 -148 -172 -246t-332 -98
q-246 0 -387 152q-141 -154 -388 -154t-401.5 158t-154.5 398t155 397t401 157t386 -151q140 153 363 153t366 -131q186 -174 182 -510h-753z" />
    <glyph glyph-name="Racute" unicode="&#x154;" horiz-adv-x="1374" 
d="M627 1802h383l-217 -266h-254zM735 817q109 0 163 47t54 129t-52 133.5t-157 51.5h-280v-361h272zM1313 1042q0 -265 -254 -354v-6q181 -62 211 -249q14 -91 17 -159.5t9.5 -156t36.5 -99.5v-18h-352q-22 13 -30.5 92.5t-12.5 136t-12 111.5q-14 102 -70.5 155.5
t-173.5 53.5h-219v-549h-363v1464h701q226 0 369 -110.5t143 -311.5z" />
    <glyph glyph-name="racute" unicode="&#x155;" horiz-adv-x="784" 
d="M406 885q106 180 262 180q72 0 90 -8v-287h-8q-154 23 -245 -52t-91 -247v-471h-334v1049h319v-164h7zM430 1475h385l-248 -304h-254z" />
    <glyph glyph-name="Rcommaaccent" unicode="&#x156;" horiz-adv-x="1374" 
d="M735 817q109 0 163 47t54 129t-52 133.5t-157 51.5h-280v-361h272zM1313 1042q0 -265 -254 -354v-6q181 -62 211 -249q14 -91 17 -159.5t9.5 -156t36.5 -99.5v-18h-352q-22 13 -30.5 92.5t-12.5 136t-12 111.5q-14 102 -70.5 155.5t-173.5 53.5h-219v-549h-363v1464h701
q226 0 369 -110.5t143 -311.5zM684 -317h-129v221h281v-178q0 -184 -115 -222.5t-172 -42.5v99q135 31 135 123z" />
    <glyph glyph-name="rcommaaccent" unicode="&#x157;" horiz-adv-x="784" 
d="M406 885q106 180 262 180q72 0 90 -8v-287h-8q-154 23 -245 -52t-91 -247v-471h-334v1049h319v-164h7zM229 -317h-129v221h281v-178q0 -184 -114.5 -222.5t-172.5 -42.5v99q135 31 135 123z" />
    <glyph glyph-name="Rcaron" unicode="&#x158;" horiz-adv-x="1374" 
d="M735 817q109 0 163 47t54 129t-52 133.5t-157 51.5h-280v-361h272zM1313 1042q0 -265 -254 -354v-6q181 -62 211 -249q14 -91 17 -159.5t9.5 -156t36.5 -99.5v-18h-352q-22 13 -30.5 92.5t-12.5 136t-12 111.5q-14 102 -70.5 155.5t-173.5 53.5h-219v-549h-363v1464h701
q226 0 369 -110.5t143 -311.5zM297 1792h281l92 -111h4l92 111h287l-217 -256h-322z" />
    <glyph glyph-name="rcaron" unicode="&#x159;" horiz-adv-x="784" 
d="M406 885q106 180 262 180q72 0 90 -8v-287h-8q-154 23 -245 -52t-91 -247v-471h-334v1049h319v-164h7zM70 1452h280l92 -135h4l93 135h286l-217 -283h-321z" />
    <glyph glyph-name="Sacute" unicode="&#x15a;" horiz-adv-x="1331" 
d="M612 1802h383l-217 -266h-254zM479 301q72 -49 217 -49t183.5 56.5t38.5 98.5q0 77 -67.5 111t-208.5 68q-140 33 -233.5 61.5t-213 108t-119.5 293.5t160 328t416 114q255 0 413 -114t170 -337h-354q-10 86 -71.5 131.5t-161.5 45.5t-157 -38.5t-57 -88.5t21.5 -75.5
t65 -45t195.5 -55.5t360 -104t208 -368q0 -223 -170 -350t-439 -127q-289 0 -464.5 129t-179.5 367h364q12 -111 84 -160z" />
    <glyph glyph-name="sacute" unicode="&#x15b;" horiz-adv-x="1032" 
d="M524 184q76 0 120 27t44 70t-22.5 64.5t-59.5 34.5t-84.5 20.5t-107.5 18.5q-173 32 -271 95.5t-98 225.5q0 163 129 251t338 88t327.5 -90t131.5 -246h-307q-10 72 -54.5 97.5t-109.5 25.5t-107.5 -23.5t-42.5 -62.5t20.5 -55t58.5 -28.5t140 -29.5q103 -17 269 -59.5
t166 -292.5q0 -168 -132.5 -258t-354.5 -90t-357 99.5t-144 273.5h316q20 -156 192 -156zM496 1475h385l-248 -304h-254z" />
    <glyph glyph-name="Scircumflex" unicode="&#x15c;" horiz-adv-x="1331" 
d="M500 1792h319l219 -256h-280l-92 111h-4l-95 -111h-286zM479 301q72 -49 217 -49t183.5 56.5t38.5 98.5q0 77 -67.5 111t-208.5 68q-140 33 -233.5 61.5t-213 108t-119.5 293.5t160 328t416 114q255 0 413 -114t170 -337h-354q-10 86 -71.5 131.5t-161.5 45.5t-157 -38.5
t-57 -88.5t21.5 -75.5t65 -45t195.5 -55.5t360 -104t208 -368q0 -223 -170 -350t-439 -127q-289 0 -464.5 129t-179.5 367h364q12 -111 84 -160z" />
    <glyph glyph-name="scircumflex" unicode="&#x15d;" horiz-adv-x="1032" 
d="M524 184q76 0 120 27t44 70t-22.5 64.5t-59.5 34.5t-84.5 20.5t-107.5 18.5q-173 32 -271 95.5t-98 225.5q0 163 129 251t338 88t327.5 -90t131.5 -246h-307q-10 72 -54.5 97.5t-109.5 25.5t-107.5 -23.5t-42.5 -62.5t20.5 -55t58.5 -28.5t140 -29.5q103 -17 269 -59.5
t166 -292.5q0 -168 -132.5 -258t-354.5 -90t-357 99.5t-144 273.5h316q20 -156 192 -156zM354 1456h320l219 -280h-281l-92 135h-4l-94 -135h-287z" />
    <glyph glyph-name="Scedilla" unicode="&#x15e;" horiz-adv-x="1331" 
d="M596 -180q-36 0 -72 -15l-35 50l113 114q-400 25 -484.5 202t-86.5 290h364q12 -111 84 -160t217 -49t183.5 56.5t38.5 98.5q0 77 -67.5 111t-208.5 68q-140 33 -233.5 61.5t-213 108t-119.5 293.5t160 328t416 114q255 0 413 -114t170 -337h-354q-10 86 -71.5 131.5
t-161.5 45.5t-157 -38.5t-57 -88.5t21.5 -75.5t65 -45t195.5 -55.5t360 -104t208 -368q0 -212 -156.5 -339.5t-404.5 -135.5l-74 -63v-4q88 10 152.5 -24t64.5 -111t-72 -118.5t-164 -41.5q-151 0 -249 59l41 72q64 -31 141 -31q111 -1 111 57t-78 58z" />
    <glyph glyph-name="scedilla" unicode="&#x15f;" horiz-adv-x="1032" 
d="M524 184q76 0 120 27t44 70t-22.5 64.5t-59.5 34.5t-84.5 20.5t-107.5 18.5q-173 32 -271 95.5t-98 225.5q0 163 129 251t338 88t327.5 -90t131.5 -246h-307q-10 72 -54.5 97.5t-109.5 25.5t-107.5 -23.5t-42.5 -62.5t20.5 -55t58.5 -28.5t140 -29.5q103 -17 269 -59.5
t166 -292.5q0 -154 -115.5 -244t-306.5 -102l-78 -65v-4q88 10 152.5 -24t64.5 -111t-72.5 -118.5t-164.5 -41.5q-151 0 -248 59l40 72q64 -31 142 -31q110 -1 110 57t-77 58q-38 0 -72 -15l-35 50l115 114q-203 16 -319.5 112.5t-123.5 258.5h316q20 -156 192 -156z" />
    <glyph glyph-name="Scaron" unicode="&#x160;" horiz-adv-x="1331" 
d="M283 1792h280l92 -111h4l93 111h286l-217 -256h-321zM479 301q72 -49 217 -49t183.5 56.5t38.5 98.5q0 77 -67.5 111t-208.5 68q-140 33 -233.5 61.5t-213 108t-119.5 293.5t160 328t416 114q255 0 413 -114t170 -337h-354q-10 86 -71.5 131.5t-161.5 45.5t-157 -38.5
t-57 -88.5t21.5 -75.5t65 -45t195.5 -55.5t360 -104t208 -368q0 -223 -170 -350t-439 -127q-289 0 -464.5 129t-179.5 367h364q12 -111 84 -160z" />
    <glyph glyph-name="scaron" unicode="&#x161;" horiz-adv-x="1032" 
d="M524 184q76 0 120 27t44 70t-22.5 64.5t-59.5 34.5t-84.5 20.5t-107.5 18.5q-173 32 -271 95.5t-98 225.5q0 163 129 251t338 88t327.5 -90t131.5 -246h-307q-10 72 -54.5 97.5t-109.5 25.5t-107.5 -23.5t-42.5 -62.5t20.5 -55t58.5 -28.5t140 -29.5q103 -17 269 -59.5
t166 -292.5q0 -168 -132.5 -258t-354.5 -90t-357 99.5t-144 273.5h316q20 -156 192 -156zM135 1452h281l92 -135h4l92 135h287l-217 -283h-322z" />
    <glyph glyph-name="uni0162" unicode="&#x162;" horiz-adv-x="1288" 
d="M461 1157h-426v307h1218v-307h-430v-1157h-362v1157zM635 -317h-129v221h280v-178q0 -185 -114.5 -223t-171.5 -42v99q135 31 135 123z" />
    <glyph glyph-name="uni0163" unicode="&#x163;" horiz-adv-x="718" 
d="M162 276v564h-139v209h139v331h325v-331h191v-209h-191v-492q0 -61 32 -81.5t85 -20.5l74 2v-244q-61 -16 -159 -16q-183 0 -270 64t-87 224zM391 -317h-129v221h281v-178q0 -184 -115 -222.5t-172 -42.5v99q135 31 135 123z" />
    <glyph glyph-name="Tcaron" unicode="&#x164;" horiz-adv-x="1288" 
d="M461 1157h-426v307h1218v-307h-430v-1157h-362v1157zM266 1792h281l92 -111h4l92 111h287l-217 -256h-322z" />
    <glyph glyph-name="tcaron" unicode="&#x165;" horiz-adv-x="718" 
d="M678 1270h-117v194h256v-157q0 -109 -71.5 -160t-186.5 -55v96q119 13 119 82zM162 276v564h-139v209h139v331h325v-331h191v-209h-191v-492q0 -59 32 -80.5t85 -21.5l74 2v-244q-61 -16 -159 -16q-183 0 -270 64t-87 224z" />
    <glyph glyph-name="Tbar" unicode="&#x166;" horiz-adv-x="1288" 
d="M186 819h275v338h-426v307h1218v-307h-430v-338h279v-215h-279v-604h-362v604h-275v215z" />
    <glyph glyph-name="tbar" unicode="&#x167;" horiz-adv-x="718" 
d="M162 276v271h-142v168h142v125h-139v209h139v331h325v-331h191v-209h-191v-125h191v-168h-191v-199q0 -59 32 -80.5t85 -21.5l74 2v-244q-61 -16 -159 -16q-183 0 -270 64t-87 224z" />
    <glyph glyph-name="Utilde" unicode="&#x168;" horiz-adv-x="1404" 
d="M703 -27q-307 0 -460 142.5t-153 400.5v948h363v-960q0 -109 57.5 -174.5t189.5 -65.5t192 68.5t60 177.5v954h363v-948q0 -254 -152.5 -398.5t-459.5 -144.5zM362 1538q0 139 61.5 208t138.5 69t147 -39q35 -16 56 -26.5t49 -10.5q47 0 56 71h172q0 -121 -52 -195.5
t-142 -74.5t-158.5 36t-93.5 36q-51 0 -61 -74h-173z" />
    <glyph glyph-name="utilde" unicode="&#x169;" horiz-adv-x="1159" 
d="M238 1169q0 139 61 208t138 69t147 -39q35 -16 56.5 -26.5t49.5 -10.5q47 0 55 72h173q0 -121 -52.5 -196t-140.5 -75t-158.5 36t-95.5 36q-51 0 -61 -74h-172zM403 430q0 -178 158 -178q86 0 135 58.5t49 152.5v586h334v-1049h-319v129h-6q-57 -78 -130 -119t-184 -41
q-182 0 -275 107.5t-93 283.5v689h331v-619z" />
    <glyph glyph-name="Umacron" unicode="&#x16a;" horiz-adv-x="1404" 
d="M703 -27q-307 0 -460 142.5t-153 400.5v948h363v-960q0 -109 57.5 -174.5t189.5 -65.5t192 68.5t60 177.5v954h363v-948q0 -254 -152.5 -398.5t-459.5 -144.5zM408 1767h585v-206h-585v206z" />
    <glyph glyph-name="umacron" unicode="&#x16b;" horiz-adv-x="1159" 
d="M285 1409h585v-207h-585v207zM403 430q0 -178 158 -178q86 0 135 58.5t49 152.5v586h334v-1049h-319v129h-6q-57 -78 -130 -119t-184 -41q-182 0 -275 107.5t-93 283.5v689h331v-619z" />
    <glyph glyph-name="Ubreve" unicode="&#x16c;" horiz-adv-x="1404" 
d="M703 -27q-307 0 -460 142.5t-153 400.5v948h363v-960q0 -109 57.5 -174.5t189.5 -65.5t192 68.5t60 177.5v954h363v-948q0 -254 -152.5 -398.5t-459.5 -144.5zM700 1724q63 0 101.5 29t42.5 68h188q-6 -131 -95 -214t-231 -83t-236.5 80.5t-98.5 216.5h188q4 -43 41 -70
t100 -27z" />
    <glyph glyph-name="ubreve" unicode="&#x16d;" horiz-adv-x="1159" 
d="M576 1360q64 0 101.5 28.5t41.5 67.5h188q-6 -131 -95 -214t-231 -83t-236.5 81.5t-98.5 215.5h188q4 -43 41 -69.5t101 -26.5zM403 430q0 -178 158 -178q86 0 135 58.5t49 152.5v586h334v-1049h-319v129h-6q-57 -78 -130 -119t-184 -41q-182 0 -275 107.5t-93 283.5v689
h331v-619z" />
    <glyph glyph-name="Uring" unicode="&#x16e;" horiz-adv-x="1404" 
d="M700 1489q-43 0 -80.5 15.5t-66.5 42t-45 63.5t-16 80t16 78.5t45 63.5t66.5 43t80.5 15t81 -15t67 -43t45 -63.5t16 -78.5t-16 -80t-45 -63.5t-67 -42t-81 -15.5zM701 1602q38 0 61.5 26.5t23.5 61t-23.5 61.5t-61.5 27t-61.5 -27t-23.5 -61.5t23.5 -61t61.5 -26.5z
M703 -27q-307 0 -460 142.5t-153 400.5v948h363v-960q0 -109 57.5 -174.5t189.5 -65.5t192 68.5t60 177.5v954h363v-948q0 -254 -152.5 -398.5t-459.5 -144.5z" />
    <glyph glyph-name="uring" unicode="&#x16f;" horiz-adv-x="1159" 
d="M403 430q0 -178 158 -178q86 0 135 58.5t49 152.5v586h334v-1049h-319v129h-6q-57 -78 -130 -119t-184 -41q-182 0 -275 107.5t-93 283.5v689h331v-619zM575 1143q-43 0 -80.5 15.5t-66.5 43t-45 63t-16 78.5t16 80t45 65t66.5 43t80.5 15t81 -15t67 -43t45 -65t16 -80
t-16 -78.5t-45 -63t-67 -43t-81 -15.5zM576 1257q38 0 62 26t24 60.5t-24 61.5t-62 27t-61 -27t-23 -61.5t23 -60.5t61 -26z" />
    <glyph glyph-name="Uhungarumlaut" unicode="&#x170;" horiz-adv-x="1404" 
d="M883 1823h323l-211 -287h-207zM481 1823h324l-209 -287h-207zM703 -27q-307 0 -460 142.5t-153 400.5v948h363v-960q0 -109 57.5 -174.5t189.5 -65.5t192 68.5t60 177.5v954h363v-948q0 -254 -152.5 -398.5t-459.5 -144.5z" />
    <glyph glyph-name="uhungarumlaut" unicode="&#x171;" horiz-adv-x="1159" 
d="M766 1475h324l-218 -304h-206zM367 1475h323l-217 -304h-207zM403 430q0 -178 158 -178q86 0 135 58.5t49 152.5v586h334v-1049h-319v129h-6q-57 -78 -130 -119t-184 -41q-182 0 -275 107.5t-93 283.5v689h331v-619z" />
    <glyph glyph-name="Uogonek" unicode="&#x172;" horiz-adv-x="1404" 
d="M565 -190q0 91 90 165q-285 10 -425 151.5t-140 389.5v948h363v-960q0 -109 57.5 -174.5t189.5 -65.5t192 68.5t60 177.5v954h363v-948q0 -346 -289 -479q-100 -47 -154.5 -83t-54.5 -85t66 -49q37 0 61 10h2v-174q-45 -18 -129 -18q-252 0 -252 172z" />
    <glyph glyph-name="uogonek" unicode="&#x173;" horiz-adv-x="1159" 
d="M954 -362q-247 0 -247 172q0 120 145 190h-92v129h-6q-57 -78 -130 -119t-184 -41q-182 0 -275 107.5t-93 283.5v689h331v-619q0 -178 158 -178q86 0 135 58.5t49 152.5v586h334v-1037q-121 -86 -121 -141q0 -51 64 -51q37 0 61 10h2v-174q-45 -18 -131 -18z" />
    <glyph glyph-name="Wcircumflex" unicode="&#x174;" horiz-adv-x="1925" 
d="M803 1792h319l219 -256h-280l-92 111h-4l-95 -111h-286zM0 1464h367l147 -614q15 -67 35 -184q20 -116 33 -179h4q21 121 40 207t31 142l138 628h335l138 -624q34 -159 45 -226q12 -67 24 -127h4q12 63 27 140t47 227l146 610h364l-401 -1464h-355l-153 702
q-10 43 -18.5 91.5t-16.5 92.5t-16 89h-4q-9 -45 -17 -89t-15 -92.5t-18 -91.5l-153 -702h-357z" />
    <glyph glyph-name="wcircumflex" unicode="&#x175;" horiz-adv-x="1603" 
d="M-4 1049h340l115 -435q8 -33 17 -67.5t16 -68.5t14 -66h4l14 71q13 70 33 138l110 428h283l115 -428q8 -35 16.5 -72t16.5 -71l16 -68h4l16 68t15.5 69t17.5 67l117 435h330l-322 -1049h-313l-123 475q-21 65 -45 189h-4q-11 -57 -25 -107.5t-22 -81.5l-125 -475h-310z
M641 1456h320l219 -280h-281l-92 135h-4l-94 -135h-287z" />
    <glyph glyph-name="Ycircumflex" unicode="&#x176;" horiz-adv-x="1357" 
d="M522 1792h320l219 -256h-281l-92 111h-4l-94 -111h-287zM860 0h-362v541l-496 923h395l189 -379q46 -100 96 -223h4q23 60 52.5 122.5t47.5 100.5l187 379h383l-496 -923v-541z" />
    <glyph glyph-name="ycircumflex" unicode="&#x177;" horiz-adv-x="1083" 
d="M387 1456h320l219 -280h-281l-92 135h-4l-94 -135h-287zM229 -86q138 0 138 111q0 54 -64 217l-309 807h352l141 -447q15 -47 35 -124t31 -118h4q23 120 61 242l138 447h334l-363 -1063q-62 -184 -150.5 -258t-244.5 -74h-217v260h114z" />
    <glyph glyph-name="Ydieresis" unicode="&#x178;" horiz-adv-x="1357" 
d="M745 1804h314v-262h-314v262zM305 1804h313v-262h-313v262zM860 0h-362v541l-496 923h395l189 -379q46 -100 96 -223h4q23 60 52.5 122.5t47.5 100.5l187 379h383l-496 -923v-541z" />
    <glyph glyph-name="Zacute" unicode="&#x179;" horiz-adv-x="1327" 
d="M633 1802h383l-217 -266h-254zM784 1161q-62 -4 -72 -4h-608v307h1141v-284l-614 -738q-14 -16 -33.5 -36.5t-40.5 -44.5t-45 -50v-6q33 0 63 2l99 2h598v-309h-1219v289l633 758q10 10 36 41t62 67v6z" />
    <glyph glyph-name="zacute" unicode="&#x17a;" horiz-adv-x="1034" 
d="M989 258v-258h-940v248l416 448q10 10 25.5 24t30.5 32t34 36v7q-29 -2 -53 -2h-404v254h860v-244l-397 -432l-65 -66q-20 -20 -41 -43v-6h59l96 2h379zM532 1475h386l-248 -304h-254z" />
    <glyph glyph-name="Zdotaccent" unicode="&#x17b;" horiz-adv-x="1327" 
d="M784 1161q-62 -4 -72 -4h-608v307h1141v-284l-614 -738q-14 -16 -33.5 -36.5t-40.5 -44.5t-45 -50v-6q33 0 63 2l99 2h598v-309h-1219v289l633 758q10 10 36 41t62 67v6zM514 1808h332v-266h-332v266z" />
    <glyph glyph-name="zdotaccent" unicode="&#x17c;" horiz-adv-x="1034" 
d="M385 1464h332v-270h-332v270zM989 258v-258h-940v248l416 448q10 10 25.5 24t30.5 32t34 36v7q-29 -2 -53 -2h-404v254h860v-244l-397 -432l-65 -66q-20 -20 -41 -43v-6h59l96 2h379z" />
    <glyph glyph-name="Zcaron" unicode="&#x17d;" horiz-adv-x="1327" 
d="M784 1161q-62 -4 -72 -4h-608v307h1141v-284l-614 -738q-14 -16 -33.5 -36.5t-40.5 -44.5t-45 -50v-6q33 0 63 2l99 2h598v-309h-1219v289l633 758q10 10 36 41t62 67v6zM303 1792h281l92 -111h4l92 111h287l-217 -256h-322z" />
    <glyph glyph-name="zcaron" unicode="&#x17e;" horiz-adv-x="1034" 
d="M989 258v-258h-940v248l416 448q10 10 25.5 24t30.5 32t34 36v7q-29 -2 -53 -2h-404v254h860v-244l-397 -432l-65 -66q-20 -20 -41 -43v-6h59l96 2h379zM174 1452h281l92 -135h4l92 135h287l-217 -283h-322z" />
    <glyph glyph-name="florin" unicode="&#x192;" horiz-adv-x="870" 
d="M59 645v209h189l39 264q20 158 112 234q120 107 424 67v-233q-45 2 -114.5 2t-85.5 -107l-33 -227h198v-209h-229l-96 -668q-33 -234 -160 -269.5t-206 -29t-132 12.5v217q81 -5 115 12.5t45 95.5l92 629h-158z" />
    <glyph glyph-name="AEacute" unicode="&#x1fc;" horiz-adv-x="2037" 
d="M883 510v653h-150l-211 -653h361zM1956 1464v-301h-707v-264h600v-281h-600v-301h729v-317h-1095v258h-443l-84 -258h-358l496 1464h1462zM1159 1802h383l-217 -266h-254z" />
    <glyph glyph-name="aeacute" unicode="&#x1fd;" horiz-adv-x="1812" 
d="M1235 842q-90 0 -141.5 -55.5t-67.5 -149.5h414q-10 94 -62.5 149.5t-142.5 55.5zM348 303q0 -117 166 -117q80 0 140.5 51.5t60.5 137.5v125q-52 -25 -166 -52t-157.5 -56.5t-43.5 -88.5zM1024 438q35 -229 248 -229q115 0 164 104h323q-34 -145 -166 -239
q-136 -105 -338 -105q-257 0 -403 168q-80 -84 -174 -125t-261 -41t-276.5 83t-109.5 239q0 227 159.5 272t239.5 57q171 25 224 44.5t53 71.5q0 114 -155 114t-167 -135h-307q4 157 127.5 258.5t351.5 101.5q111 0 201 -22.5t149 -87.5q133 112 333 112t337 -114
q205 -173 201 -527h-754zM905 1475h385l-248 -304h-254z" />
    <glyph glyph-name="Oslashacute" unicode="&#x1fe;" horiz-adv-x="1529" 
d="M717 1802h383l-217 -266h-254zM1120 729q0 138 -39 238l-546 -615q88 -92 244 -92t248.5 128.5t92.5 340.5zM410 729q0 -148 41 -244l548 619q-92 96 -233 96q-170 0 -263 -131.5t-93 -339.5zM209 215q-168 205 -168 526t197 536.5t526 215.5q263 0 450 -147l156 174
l115 -101l-162 -180q166 -208 166 -525t-198 -533t-527 -216q-254 0 -447 144l-159 -181l-113 103z" />
    <glyph glyph-name="oslashacute" unicode="&#x1ff;" horiz-adv-x="1185" 
d="M575 1475h386l-248 -304h-254zM582 842q-100 0 -155.5 -88t-55.5 -232q0 -78 18 -135l352 389q-59 66 -159 66zM602 205q100 0 156.5 87t56.5 230q0 70 -16 131l-350 -389q53 -59 153 -59zM172 143q-139 152 -139 386t155 391t406 157q185 0 330 -96l118 131l91 -86
l-115 -127q135 -151 135 -383t-153 -390.5t-406 -158.5q-186 0 -328 94l-121 -135l-90 88z" />
    <glyph glyph-name="Scommaaccent" unicode="&#x218;" horiz-adv-x="1331" 
d="M479 301q72 -49 217 -49t183.5 56.5t38.5 98.5q0 77 -67.5 111t-208.5 68q-140 33 -233.5 61.5t-213 108t-119.5 293.5t160 328t416 114q255 0 413 -114t170 -337h-354q-10 86 -71.5 131.5t-161.5 45.5t-157 -38.5t-57 -88.5t21.5 -75.5t65 -45t195.5 -55.5t360 -104
t208 -368q0 -223 -170 -350t-439 -127q-289 0 -464.5 129t-179.5 367h364q12 -111 84 -160zM651 -317h-129v221h281v-178q0 -184 -115 -222.5t-172 -42.5v99q135 31 135 123z" />
    <glyph glyph-name="scommaaccent" unicode="&#x219;" horiz-adv-x="1032" 
d="M524 184q76 0 120 27t44 70t-22.5 64.5t-59.5 34.5t-84.5 20.5t-107.5 18.5q-173 32 -271 95.5t-98 225.5q0 163 129 251t338 88t327.5 -90t131.5 -246h-307q-10 72 -54.5 97.5t-109.5 25.5t-107.5 -23.5t-42.5 -62.5t20.5 -55t58.5 -28.5t140 -29.5q103 -17 269 -59.5
t166 -292.5q0 -168 -132.5 -258t-354.5 -90t-357 99.5t-144 273.5h316q20 -156 192 -156zM506 -317h-129v221h280v-178q0 -184 -114.5 -222.5t-171.5 -42.5v99q135 31 135 123z" />
    <glyph glyph-name="uni021A" unicode="&#x21a;" horiz-adv-x="1288" 
d="M461 1157h-426v307h1218v-307h-430v-1157h-362v1157zM635 -317h-129v221h280v-178q0 -185 -114.5 -223t-171.5 -42v99q135 31 135 123z" />
    <glyph glyph-name="uni021B" unicode="&#x21b;" horiz-adv-x="718" 
d="M162 276v564h-139v209h139v331h325v-331h191v-209h-191v-492q0 -61 32 -81.5t85 -20.5l74 2v-244q-61 -16 -159 -16q-183 0 -270 64t-87 224zM391 -317h-129v221h281v-178q0 -184 -115 -222.5t-172 -42.5v99q135 31 135 123z" />
    <glyph glyph-name="uni0237" unicode="&#x237;" horiz-adv-x="493" 
d="M75 -352q-93 0 -171 16v232q101 0 138.5 17.5t37.5 94.5v1041h334v-1057q0 -178 -80 -262q-45 -45 -105.5 -63.5t-153.5 -18.5z" />
    <glyph glyph-name="circumflex" unicode="&#x2c6;" 
d="M352 1456h320l219 -280h-281l-92 135h-4l-94 -135h-287z" />
    <glyph glyph-name="caron" unicode="&#x2c7;" 
d="M135 1452h281l92 -135h4l92 135h287l-217 -283h-322z" />
    <glyph glyph-name="uni02C9" unicode="&#x2c9;" 
d="M225 1419h586v-207h-586v207z" />
    <glyph glyph-name="breve" unicode="&#x2d8;" 
d="M550 1360q64 0 102 28.5t42 67.5h189q-6 -131 -95.5 -214t-230.5 -83t-236.5 81.5t-99.5 215.5h189q4 -43 40 -69.5t100 -26.5z" />
    <glyph glyph-name="dotaccent" unicode="&#x2d9;" 
d="M346 1464h332v-270h-332v270z" />
    <glyph glyph-name="ring" unicode="&#x2da;" 
d="M512 1143q-43 0 -81 15.5t-66.5 43t-45 63t-16.5 78.5t16.5 80t45 65t66.5 43t81 15t81 -15t66.5 -43t45 -65t16.5 -80t-16.5 -78.5t-45 -63t-66.5 -43t-81 -15.5zM513 1257q38 0 61.5 26t23.5 60.5t-23.5 61.5t-61.5 27t-61.5 -27t-23.5 -61.5t23.5 -60.5t61.5 -26z" />
    <glyph glyph-name="ogonek" unicode="&#x2db;" 
d="M248 -190q0 72 47 119.5t96 70.5h207q-41 -35 -69.5 -65.5t-28.5 -63.5q0 -51 63 -51q37 0 62 10h2v-174q-45 -18 -125 -18q-254 0 -254 172z" />
    <glyph glyph-name="tilde" unicode="&#x2dc;" 
d="M172 1169q0 139 61.5 208t137.5 69t147 -39q35 -16 56.5 -26.5t49.5 -10.5q48 0 56 72h172q0 -121 -52 -196t-141 -75t-159 36t-94 36q-51 0 -62 -74h-172z" />
    <glyph glyph-name="hungarumlaut" unicode="&#x2dd;" 
d="M696 1475h324l-217 -304h-207zM297 1475h324l-218 -304h-206z" />
    <glyph glyph-name="uni0394" unicode="&#x394;" horiz-adv-x="1392" 
d="M1350 0h-1305v225l465 1239h371l469 -1237v-227zM971 272l-217 623q-25 73 -62 217h-4q-12 -43 -28 -103t-35 -114l-219 -623h565z" />
    <glyph glyph-name="uni03A9" unicode="&#x3a9;" horiz-adv-x="1517" 
d="M412 743q0 -425 274 -481v-262h-627v272h207v7q-223 141 -223 501q0 313 198.5 513t517.5 200t517.5 -200.5t198.5 -512.5q0 -164 -53.5 -296t-168.5 -205v-7h205v-272h-627v262q275 57 275 481q0 215 -86 336t-260 121t-261 -121t-87 -336z" />
    <glyph glyph-name="uni03BC" unicode="&#x3bc;" horiz-adv-x="1167" 
d="M514 -27q-61 0 -102 31h-4v-350h-328v1395h332v-621q0 -178 157 -178q86 0 135.5 57.5t49.5 153.5v588h333v-1049h-319v129h-6q-94 -156 -248 -156z" />
    <glyph glyph-name="pi" unicode="&#x3c0;" horiz-adv-x="1296" 
d="M1090 -10q-154 0 -236 64.5t-82 213.5v572h-270v-840h-326v840h-145v209h1216v-209h-149v-521q0 -47 17.5 -66.5t54.5 -19.5t57 5v-234q-63 -14 -137 -14z" />
    <glyph glyph-name="Wgrave" unicode="&#x1e80;" horiz-adv-x="1925" 
d="M0 1464h367l147 -614q15 -67 35 -184q20 -116 33 -179h4q21 121 40 207t31 142l138 628h335l138 -624q34 -159 45 -226q12 -67 24 -127h4q12 63 27 140t47 227l146 610h364l-401 -1464h-355l-153 702q-10 43 -18.5 91.5t-16.5 92.5t-16 89h-4q-9 -45 -17 -89t-15 -92.5
t-18 -91.5l-153 -702h-357zM639 1802h383l88 -266h-254z" />
    <glyph glyph-name="wgrave" unicode="&#x1e81;" horiz-adv-x="1603" 
d="M446 1475h385l117 -304h-254zM-4 1049h340l115 -435q8 -33 17 -67.5t16 -68.5t14 -66h4l14 71q13 70 33 138l110 428h283l115 -428q8 -35 16.5 -72t16.5 -71l16 -68h4l16 68t15.5 69t17.5 67l117 435h330l-322 -1049h-313l-123 475q-21 65 -45 189h-4q-11 -57 -25 -107.5
t-22 -81.5l-125 -475h-310z" />
    <glyph glyph-name="Wacute" unicode="&#x1e82;" horiz-adv-x="1925" 
d="M0 1464h367l147 -614q15 -67 35 -184q20 -116 33 -179h4q21 121 40 207t31 142l138 628h335l138 -624q34 -159 45 -226q12 -67 24 -127h4q12 63 27 140t47 227l146 610h364l-401 -1464h-355l-153 702q-10 43 -18.5 91.5t-16.5 92.5t-16 89h-4q-9 -45 -17 -89t-15 -92.5
t-18 -91.5l-153 -702h-357zM915 1802h383l-217 -266h-254z" />
    <glyph glyph-name="wacute" unicode="&#x1e83;" horiz-adv-x="1603" 
d="M-4 1049h340l115 -435q8 -33 17 -67.5t16 -68.5t14 -66h4l14 71q13 70 33 138l110 428h283l115 -428q8 -35 16.5 -72t16.5 -71l16 -68h4l16 68t15.5 69t17.5 67l117 435h330l-322 -1049h-313l-123 475q-21 65 -45 189h-4q-11 -57 -25 -107.5t-22 -81.5l-125 -475h-310z
M782 1475h385l-247 -304h-254z" />
    <glyph glyph-name="Wdieresis" unicode="&#x1e84;" horiz-adv-x="1925" 
d="M0 1464h367l147 -614q15 -67 35 -184q20 -116 33 -179h4q21 121 40 207t31 142l138 628h335l138 -624q34 -159 45 -226q12 -67 24 -127h4q12 63 27 140t47 227l146 610h364l-401 -1464h-355l-153 702q-10 43 -18.5 91.5t-16.5 92.5t-16 89h-4q-9 -45 -17 -89t-15 -92.5
t-18 -91.5l-153 -702h-357zM1026 1804h313v-262h-313v262zM586 1804h313v-262h-313v262z" />
    <glyph glyph-name="wdieresis" unicode="&#x1e85;" horiz-adv-x="1603" 
d="M-4 1049h340l115 -435q8 -33 17 -67.5t16 -68.5t14 -66h4l14 71q13 70 33 138l110 428h283l115 -428q8 -35 16.5 -72t16.5 -71l16 -68h4l16 68t15.5 69t17.5 67l117 435h330l-322 -1049h-313l-123 475q-21 65 -45 189h-4q-11 -57 -25 -107.5t-22 -81.5l-125 -475h-310z
M874 1444h314v-262h-314v262zM414 1444h313v-262h-313v262z" />
    <glyph glyph-name="Ygrave" unicode="&#x1ef2;" horiz-adv-x="1357" 
d="M358 1802h383l88 -266h-254zM860 0h-362v541l-496 923h395l189 -379q46 -100 96 -223h4q23 60 52.5 122.5t47.5 100.5l187 379h383l-496 -923v-541z" />
    <glyph glyph-name="ygrave" unicode="&#x1ef3;" horiz-adv-x="1083" 
d="M193 1475h385l116 -304h-254zM229 -86q138 0 138 111q0 54 -64 217l-309 807h352l141 -447q15 -47 35 -124t31 -118h4q23 120 61 242l138 447h334l-363 -1063q-62 -184 -150.5 -258t-244.5 -74h-217v260h114z" />
    <glyph glyph-name="uni2009" unicode="&#x2009;" horiz-adv-x="112" 
 />
    <glyph glyph-name="endash" unicode="&#x2013;" 
d="M0 666h1024v-287h-1024v287z" />
    <glyph glyph-name="emdash" unicode="&#x2014;" horiz-adv-x="2048" 
d="M205 666h1638v-287h-1638v287z" />
    <glyph glyph-name="quoteleft" unicode="&#x2018;" horiz-adv-x="446" 
d="M70 1130q0 150 88 238q84 89 223 102v-118q-59 -18 -102 -67.5t-43 -117.5h139v-305h-305v268z" />
    <glyph glyph-name="quoteright" unicode="&#x2019;" horiz-adv-x="446" 
d="M211 1159h-139v305h305v-268q0 -150 -86 -238t-225 -102v119q59 18 102 67.5t43 116.5z" />
    <glyph glyph-name="quotesinglbase" unicode="&#x201a;" horiz-adv-x="446" 
d="M211 0h-139v305h305v-268q0 -148 -88 -240q-84 -84 -223 -102v121q59 16 102 65t43 119z" />
    <glyph glyph-name="quotedblleft" unicode="&#x201c;" horiz-adv-x="876" 
d="M500 1130q0 150 88 238q84 88 223 102v-118q-59 -18 -102 -67.5t-43 -117.5h139v-305h-305v268zM70 1130q0 150 88 238q84 89 223 102v-118q-59 -18 -102 -67.5t-43 -117.5h139v-305h-305v268z" />
    <glyph glyph-name="quotedblright" unicode="&#x201d;" horiz-adv-x="876" 
d="M641 1159h-139v305h305v-268q0 -150 -86 -238t-225 -102v119q59 18 102 67.5t43 116.5zM211 1159h-139v305h305v-268q0 -150 -86 -238t-225 -102v119q59 18 102 67.5t43 116.5z" />
    <glyph glyph-name="quotedblbase" unicode="&#x201e;" horiz-adv-x="876" 
d="M641 0h-139v305h305v-268q0 -148 -88 -240q-84 -84 -223 -102v121q59 16 102 65t43 119zM211 0h-139v305h305v-268q0 -148 -88 -240q-84 -84 -223 -102v121q59 16 102 65t43 119z" />
    <glyph glyph-name="dagger" unicode="&#x2020;" horiz-adv-x="1206" 
d="M430 780h-360v275h360v409h348v-409h359v-275h-359v-1073h-348v1073z" />
    <glyph glyph-name="daggerdbl" unicode="&#x2021;" horiz-adv-x="1208" 
d="M430 119h-360v274h360v387h-360v275h360v409h348v-409h359v-275h-359v-387h359v-274h-359v-412h-348v412z" />
    <glyph glyph-name="bullet" unicode="&#x2022;" horiz-adv-x="765" 
d="M382.5 348q-63.5 0 -118.5 24.5t-97 66.5t-66.5 97.5t-24.5 119t24.5 118.5t66.5 97t97 67t118.5 25t119 -25t97.5 -67t66.5 -97t24.5 -118.5t-24.5 -119t-66.5 -97.5t-97.5 -66.5t-119 -24.5z" />
    <glyph glyph-name="ellipsis" unicode="&#x2026;" horiz-adv-x="1548" 
d="M1135 344h348v-344h-348v344zM600 344h350v-344h-350v344zM66 344h350v-344h-350v344z" />
    <glyph glyph-name="perthousand" unicode="&#x2030;" horiz-adv-x="2594" 
d="M1804 376q0 182 105.5 296t272.5 114t270.5 -111t103.5 -298t-105 -299.5t-271 -112.5q-164 0 -270 114.5t-106 296.5zM2181 612q-123 0 -123 -234.5t123 -234.5t123 234q0 102 -29.5 168.5t-93.5 66.5zM979 377q0 185 104.5 297t271.5 112t270.5 -112t103.5 -297.5
t-105 -298.5t-269 -113t-270 113.5t-106 298.5zM1325 612q-94 0 -94 -234.5t123 -234.5t123 234q0 102 -29 168.5t-123 66.5zM1167 1405h191l-756 -1405h-192zM147 725.5q-106 113.5 -106 299.5t106.5 297.5t270.5 111.5t268.5 -113.5t104.5 -297.5t-105 -297.5t-269 -113.5
t-270 113.5zM293 1026q0 -234 123 -234.5t123 234t-123 234.5t-123 -234z" />
    <glyph glyph-name="uni2032" unicode="&#x2032;" horiz-adv-x="456" 
d="M123 1464h291l-80 -551h-291z" />
    <glyph glyph-name="uni2033" unicode="&#x2033;" horiz-adv-x="870" 
d="M537 1464h290l-79 -551h-291zM123 1464h291l-80 -551h-291z" />
    <glyph glyph-name="guilsinglleft" unicode="&#x2039;" horiz-adv-x="542" 
d="M90 358v316l348 287v-306l-174 -139v-4l174 -139v-303z" />
    <glyph glyph-name="guilsinglright" unicode="&#x203a;" horiz-adv-x="542" 
d="M104 375l175 139v4l-175 139v304l349 -289v-316l-349 -286v305z" />
    <glyph glyph-name="fraction" unicode="&#x2044;" horiz-adv-x="581" 
d="M743 1464h209l-1116 -1464h-207z" />
    <glyph glyph-name="zero.superior" unicode="&#x2070;" horiz-adv-x="854" 
d="M155.5 1365q106.5 116 274.5 116q167 0 271 -115.5t104 -308.5t-105 -308.5t-272 -115.5t-273 116.5t-106 308t106.5 307.5zM428 1317q-145 0 -145 -258t145 -258t145 186.5t-35.5 258t-109.5 71.5z" />
    <glyph glyph-name="four.superior" unicode="&#x2074;" horiz-adv-x="839" 
d="M223 991h213v250h-2l-211 -248v-2zM676 1475v-484h119v-170h-119v-170h-240v170h-391v195l391 459h240z" />
    <glyph glyph-name="five.superior" unicode="&#x2075;" horiz-adv-x="796" 
d="M510 932q0 120 -130 119q-64 0 -99 -50h-207l84 463h532v-176h-368l-29 -135h4q59 51 174 51q116 0 195 -73t79 -203q0 -131 -95 -213t-247 -82t-251 70t-111 190h219q8 -43 45 -64.5t89 -21.5t84 33.5t32 91.5z" />
    <glyph glyph-name="six.superior" unicode="&#x2076;" horiz-adv-x="776" 
d="M395.5 795q59.5 0 94 36.5t34.5 92.5t-34.5 92.5t-94 36.5t-95.5 -36t-36 -93.5t36 -93t95.5 -35.5zM258 1135q75 71 193 71q117 0 203.5 -77t86.5 -207q0 -131 -92.5 -210t-258.5 -79t-260.5 114.5t-94.5 311.5t96 310q96 112 277 112q131 0 209.5 -59.5t101.5 -164.5
h-213q-19 70 -92 70q-142 0 -158 -192h2z" />
    <glyph glyph-name="seven.superior" unicode="&#x2077;" horiz-adv-x="735" 
d="M442 1270h-397v194h639v-174q-109 -106 -180.5 -268t-75.5 -371h-262q7 358 276 617v2z" />
    <glyph glyph-name="eight.superior" unicode="&#x2078;" horiz-adv-x="813" 
d="M405.5 1149q51.5 0 78 25.5t26.5 66.5t-26.5 66.5t-78 25.5t-78 -25.5t-26.5 -66.5t26.5 -66.5t78 -25.5zM408 793q57 0 89.5 28.5t32.5 76.5t-32.5 79t-90 31t-91 -31t-33.5 -79t34 -76.5t91 -28.5zM405.5 633q-174.5 0 -268.5 67.5t-94 180.5q0 66 39 119t111 81v4
q-55 25 -85 69t-30 97q0 100 88 165t241 65t239.5 -60.5t86.5 -165.5q0 -53 -29.5 -96t-80.5 -67v-5q72 -27 109.5 -80t37.5 -120q0 -119 -95 -186.5t-269.5 -67.5z" />
    <glyph glyph-name="nine.superior" unicode="&#x2079;" horiz-adv-x="772" 
d="M378.5 1059q59.5 0 95.5 37t36 92t-36 93t-95.5 38t-95 -38t-35.5 -93t35.5 -92t95 -37zM512 973q-74 -74 -189 -74t-202.5 81t-87.5 210t95.5 210t246.5 81t239 -80q121 -102 121 -328q0 -227 -93 -334q-94 -106 -246 -106t-238 61.5t-105 163.5h211q26 -70 99 -70
q143 0 151 185h-2z" />
    <glyph glyph-name="zero.inferior" unicode="&#x2080;" horiz-adv-x="854" 
d="M155 405.5q106 116.5 275 116.5t272 -116t103 -309t-105.5 -308t-271.5 -115t-272.5 116t-106.5 307.5t106 308zM428 358q-145 0 -145 -258t145 -258t145 186.5t-35.5 258t-109.5 71.5z" />
    <glyph glyph-name="one.inferior" unicode="&#x2081;" horiz-adv-x="557" 
d="M475 514v-821h-248v479h-186v166q205 9 238 176h196z" />
    <glyph glyph-name="two.inferior" unicode="&#x2082;" horiz-adv-x="811" 
d="M506 252q0 86 -94 86q-53 0 -86 -37t-33 -104h-225q0 160 97 242.5t250 82.5t239.5 -74.5t86.5 -169.5q0 -94 -30.5 -144t-70.5 -84q-45 -38 -137 -90.5t-116 -78.5v-2h356v-186h-688q3 180 152 299q59 51 119.5 84.5t102.5 63.5t59.5 53.5t17.5 58.5z" />
    <glyph glyph-name="three.inferior" unicode="&#x2083;" horiz-adv-x="798" 
d="M731 291q0 -108 -119 -160v-2q61 -23 102.5 -71t41.5 -122q0 -132 -97 -198t-265 -66t-258.5 83t-92.5 214h231q9 -123 127 -123q55 0 83 27t28 68q0 94 -129 94h-47v155h41q119 0 119 84q0 35 -24 57.5t-76 22.5t-75.5 -30.5t-27.5 -71.5h-225q4 117 93 193.5t241 76.5
t240.5 -61.5t88.5 -169.5z" />
    <glyph glyph-name="four.inferior" unicode="&#x2084;" horiz-adv-x="839" 
d="M223 33h213v250h-2l-211 -248v-2zM676 516v-483h119v-170h-119v-170h-240v170h-391v194l391 459h240z" />
    <glyph glyph-name="five.inferior" unicode="&#x2085;" horiz-adv-x="796" 
d="M510 -27q0 119 -130 119q-64 0 -99 -49h-207l84 463h532v-176h-368l-29 -135h4q59 51 175 51t194.5 -73.5t78.5 -204.5q0 -130 -95 -213t-248 -83t-251 70.5t-110 191.5h219q8 -43 45 -64.5t89 -21.5t84 34t32 91z" />
    <glyph glyph-name="six.inferior" unicode="&#x2086;" horiz-adv-x="776" 
d="M395.5 -164q59.5 0 94 37t34.5 93t-34.5 92t-94 36t-95.5 -35.5t-36 -93t36 -93.5t95.5 -36zM258 176q76 72 194 72q117 0 203 -77.5t86 -208.5q0 -130 -92.5 -209t-258.5 -79t-260.5 115t-94.5 311t96 310q96 113 277 112q131 0 209.5 -59.5t101.5 -163.5h-213
q-19 70 -92 70q-142 0 -158 -193h2z" />
    <glyph glyph-name="seven.inferior" unicode="&#x2087;" horiz-adv-x="735" 
d="M442 311h-397v195h639v-174q-109 -106 -180.5 -268t-75.5 -371h-262q7 357 276 616v2z" />
    <glyph glyph-name="eight.inferior" unicode="&#x2088;" horiz-adv-x="813" 
d="M405.5 190q51.5 0 78 26t26.5 67t-26.5 66.5t-78 25.5t-78 -25.5t-26.5 -66.5t26.5 -67t78 -26zM408 -166q57 0 89.5 29t32.5 77t-32.5 78.5t-90 30.5t-91 -30.5t-33.5 -78.5t34 -77t91 -29zM405.5 -328q-174.5 0 -268.5 69t-94 181q0 66 39 119t111 82v4q-55 25 -85 69
t-30 97q0 100 88 164.5t241 64.5t239.5 -60.5t86.5 -164.5q0 -53 -29.5 -96t-80.5 -68v-4q72 -27 109.5 -80t37.5 -121q0 -119 -95 -187.5t-269.5 -68.5z" />
    <glyph glyph-name="nine.inferior" unicode="&#x2089;" horiz-adv-x="772" 
d="M378.5 100q59.5 0 95.5 37t36 92.5t-36 93t-95.5 37.5t-95 -37t-35.5 -93t35.5 -93t95 -37zM512 14q-73 -73 -188 -73t-203 80.5t-88 209.5t95.5 210t246.5 81t239 -80q121 -102 121 -329t-94 -332q-92 -109 -262 -109q-135 0 -221 62.5t-105 165.5h211q26 -70 99 -70
q143 0 151 184h-2z" />
    <glyph glyph-name="Euro" unicode="&#x20ac;" horiz-adv-x="1333" 
d="M31 502v131h96q-2 16 -2 21v96h-94v133h110q47 251 209.5 401t404.5 150t383.5 -137.5t164.5 -366.5h-340q-31 229 -218 229q-104 0 -166.5 -73.5t-84.5 -202.5h315v-133h-328q-2 -8 -2 -12v-16l2 -89h328v-131h-313q55 -258 258 -258q109 0 162 73.5t65 180.5h332
q-12 -239 -159.5 -385t-391.5 -146t-405.5 142.5t-213.5 392.5h-112z" />
    <glyph glyph-name="afii61289" unicode="&#x2113;" horiz-adv-x="821" 
d="M553 1155q0 115 -57 115t-58 -115v-397q115 115 115 397zM560 246q70 0 118 6v-244q-54 -18 -174 -18t-252.5 27t-132.5 290v53q-28 -9 -99 -26v196l99 33v576q0 174 92 258t250 84t239.5 -79t81.5 -261q0 -236 -89 -389.5t-255 -253.5v-123q0 -76 26 -102.5t96 -26.5z
" />
    <glyph glyph-name="trademark" unicode="&#x2122;" horiz-adv-x="1431" 
d="M223 1317h-160v147h502v-147h-159v-416h-183v416zM643 1464h248l88 -317h4l90 317h250v-563h-168v338h-4l-104 -338h-134l-102 338h-4v-338h-164v563z" />
    <glyph glyph-name="Omega" unicode="&#x2126;" horiz-adv-x="1517" 
d="M412 743q0 -425 274 -481v-262h-627v272h207v7q-223 141 -223 501q0 313 198.5 513t517.5 200t517.5 -200.5t198.5 -512.5q0 -164 -53.5 -296t-168.5 -205v-7h205v-272h-627v262q275 57 275 481q0 215 -86 336t-260 121t-261 -121t-87 -336z" />
    <glyph glyph-name="estimated" unicode="&#x212e;" horiz-adv-x="1271" 
d="M640 1192q-160 0 -269 -88v-397h536v419q-107 66 -267 66zM670 -23q-288 0 -453.5 180t-165.5 472t171 473.5t437 181.5q223 0 363 -121q115 -96 157 -232t40 -315h-848v-454q111 -86 297 -86t286.5 81t151.5 224h104q-42 -183 -180 -293.5t-360 -110.5z" />
    <glyph glyph-name="onethird" unicode="&#x2153;" horiz-adv-x="1759" 
d="M1686 599q0 -108 -119 -161v-2q61 -23 102 -70.5t41 -121.5q0 -133 -95.5 -198.5t-265.5 -65.5q-169 0 -259.5 82.5t-92.5 213.5h232q9 -122 127 -122q55 0 82.5 26.5t27.5 67.5q0 94 -129 94h-47v156h41q119 0 119 84q0 35 -23.5 57.5t-75.5 22.5t-76 -31t-28 -72h-225
q4 117 93 193.5t241 76.5t241 -61t89 -169zM1268 1464h209l-1117 -1464h-206zM481 1473v-822h-248v479h-186v166q205 9 238 177h196z" />
    <glyph glyph-name="twothirds" unicode="&#x2154;" horiz-adv-x="1923" 
d="M1849 599q0 -108 -118 -161v-2q61 -23 102 -70.5t41 -121.5q0 -134 -96.5 -199t-264.5 -65q-169 0 -259.5 82.5t-92.5 213.5h232q9 -122 127 -122q55 0 82.5 26.5t27.5 67.5q0 94 -129 94h-47v156h41q119 0 119 84q0 35 -23.5 57.5t-75.5 22.5t-76 -31t-28 -72h-225
q4 117 93 193.5t241 76.5t240.5 -61t88.5 -169zM1462 1464h209l-1116 -1464h-207zM512 1210q0 86 -94 86q-53 0 -86 -36.5t-33 -104.5h-225q0 160 97 243t251 83t240 -75.5t86 -168.5q0 -94 -31 -144.5t-71 -84.5q-42 -35 -135.5 -89t-117.5 -79v-2h357v-187h-689
q3 180 152 299q61 53 122.5 88t115.5 72q61 48 61 100z" />
    <glyph glyph-name="oneeighth" unicode="&#x215b;" horiz-adv-x="1773" 
d="M1360 498q51 0 77.5 25.5t26.5 66.5t-26.5 66.5t-77.5 25.5t-78 -25.5t-27 -66.5t27 -66.5t78 -25.5zM1362 141q57 0 90 29t33 77t-33 78.5t-90 30.5t-91 -30.5t-34 -78.5t34 -77t91 -29zM1360 -20q-174 0 -268.5 68.5t-94.5 180.5q0 66 39 119t111 82v4q-55 25 -85 69
t-30 97q0 100 88 164.5t241 64.5t240 -60t87 -165q0 -53 -30 -96t-81 -68v-4q72 -27 109.5 -80t37.5 -120q0 -119 -95 -187.5t-269 -68.5zM1272 1464h209l-1116 -1464h-207zM481 1473v-822h-248v479h-186v166q205 9 238 177h196z" />
    <glyph glyph-name="threeeighths" unicode="&#x215c;" horiz-adv-x="1878" 
d="M1464.5 498q51.5 0 78 25.5t26.5 66.5t-26.5 66.5t-78 25.5t-78 -25.5t-26.5 -66.5t26.5 -66.5t78 -25.5zM1466 141q57 0 90 29t33 77t-32.5 78.5t-90 30.5t-91.5 -30.5t-34 -78.5t34 -77t91 -29zM1792 601q0 -108 -111 -161v-4q72 -27 110 -80t38 -120
q0 -119 -95.5 -187.5t-269.5 -68.5t-268 68.5t-94 180.5q0 66 39 119t110 82v4q-55 25 -84.5 69t-29.5 97q0 100 88.5 164.5t240.5 64.5t239 -60t87 -168zM1405 1464h209l-1116 -1464h-207zM762 889q0 -188 -136 -222t-208 -34q-186 0 -276.5 82t-92.5 213h232
q9 -123 127 -123q55 0 82.5 26.5t27.5 67.5q0 94 -129 94h-47v156h41q119 0 119 84q0 35 -23.5 57.5t-75.5 22.5t-76 -31t-28 -72h-225q4 117 93 194t241 77t240.5 -61.5t88.5 -170.5t-119 -159v-3q144 -54 144 -198z" />
    <glyph glyph-name="fiveeighths" unicode="&#x215d;" horiz-adv-x="1853" 
d="M1440 498q51 0 77.5 25.5t26.5 66.5t-26.5 66.5t-77.5 25.5t-78 -25.5t-27 -66.5t27 -66.5t78 -25.5zM1442 141q57 0 90 29t33 77t-33 78.5t-90.5 30.5t-91 -30.5t-33.5 -78.5t34 -77t91 -29zM1440 -20q-174 0 -268.5 68.5t-94.5 180.5q0 66 39 119t111 82v4
q-55 25 -85 69t-30 97q0 100 88 164.5t241 64.5t239.5 -60t86.5 -165q0 -53 -29.5 -96t-80.5 -68v-4q72 -27 109.5 -80t37.5 -120q0 -119 -95 -187.5t-269 -68.5zM1372 1464h209l-1116 -1464h-207zM516 932q0 120 -130 119q-65 0 -99 -50h-207l84 463h532v-176h-368
l-29 -135h4q59 51 174 51t195 -72.5t80 -203.5t-95.5 -213t-253.5 -82q-226 0 -288 99t-68 161h219q8 -43 45 -64.5t89 -21.5t84 33.5t32 91.5z" />
    <glyph glyph-name="seveneighths" unicode="&#x215e;" horiz-adv-x="1722" 
d="M449 1270h-398v194h639v-174q-109 -106 -180.5 -268t-75.5 -371h-262q5 278 114 422t163 195v2zM1308.5 498q51.5 0 78 25.5t26.5 66.5t-26.5 66.5t-78 25.5t-78 -25.5t-26.5 -66.5t26.5 -66.5t78 -25.5zM1311 141q57 0 90 29t33 77t-33 78.5t-90.5 30.5t-91 -30.5
t-33.5 -78.5t34 -77t91 -29zM1309 -20q-174 0 -268.5 68.5t-94.5 180.5q0 66 39 119t111 82v4q-55 25 -85 69t-30 97q0 100 88 164.5t241 64.5t239.5 -60t86.5 -165q0 -53 -29.5 -96t-80.5 -68v-4q72 -27 109.5 -80t37.5 -120q0 -119 -95 -187.5t-269 -68.5zM1212 1464h209
l-1116 -1464h-207z" />
    <glyph glyph-name="partialdiff" unicode="&#x2202;" horiz-adv-x="1187" 
d="M544 207q124 0 183 91t59 210q0 225 -180 225q-104 0 -167.5 -76.5t-63.5 -206.5t49.5 -186.5t119.5 -56.5zM233.5 40q-192.5 71 -192.5 411q0 224 143 369t363 145q155 0 237 -78q-35 141 -157.5 214t-321.5 95v283q412 -20 623 -231.5t211 -604.5q0 -317 -146 -495.5
t-430 -178.5q-137 0 -329.5 71z" />
    <glyph glyph-name="Delta" unicode="&#x2206;" horiz-adv-x="1392" 
d="M1350 0h-1305v225l465 1239h371l469 -1237v-227zM971 272l-217 623q-25 73 -62 217h-4q-12 -43 -28 -103t-35 -114l-219 -623h565z" />
    <glyph glyph-name="product" unicode="&#x220f;" horiz-adv-x="1472" 
d="M109 1464h1255v-1669h-356v1372h-543v-1372h-356v1669z" />
    <glyph glyph-name="summation" unicode="&#x2211;" horiz-adv-x="1251" 
d="M66 1464h1105v-282h-698v-4l457 -453v-143l-471 -492v-4h733v-291h-1126v297l516 553v4l-516 529v286z" />
    <glyph glyph-name="minus" unicode="&#x2212;" horiz-adv-x="1159" 
d="M82 809h995v-268h-995v268z" />
    <glyph glyph-name="uni2215" unicode="&#x2215;" horiz-adv-x="581" 
d="M743 1436h209l-1116 -1436h-207z" />
    <glyph glyph-name="uni2219" unicode="&#x2219;" horiz-adv-x="481" 
d="M66 823h350v-344h-350v344z" />
    <glyph glyph-name="radical" unicode="&#x221a;" horiz-adv-x="1335" 
d="M29 410v282h383l100 -254q16 -45 31.5 -86.5t26.5 -75.5t22 -67h4q8 35 21 93t42 138l330 1024h332l-551 -1669h-321l-267 615h-153z" />
    <glyph glyph-name="infinity" unicode="&#x221e;" horiz-adv-x="1484" 
d="M1079 485q55 0 82 40.5t27 98.5t-26 98t-82 40t-94 -42t-71 -97q33 -53 71 -95.5t93 -42.5zM408 485q55 0 96 42t74 96q-33 55 -74 97t-96 42t-81 -40t-26 -98t26 -98.5t81 -40.5zM365 1006q143 0 228 -62.5t155 -161.5q79 111 160 167.5t196 56.5q151 0 243.5 -105
t92.5 -278t-92.5 -276t-249.5 -103q-197 0 -350 221q-70 -98 -155 -159.5t-228 -61.5t-231.5 108t-88.5 271t88.5 273t231.5 110z" />
    <glyph glyph-name="integral" unicode="&#x222b;" horiz-adv-x="747" 
d="M543 1153v-1171q0 -170 -78 -252q-90 -90 -281 -90q-111 0 -194 22v246h2q40 -8 98 -8q57 0 88 21.5t31 84.5v1170q0 167 78 254q88 88 282 88q107 0 193 -21v-248h-4q-138 24 -176.5 -5.5t-38.5 -90.5z" />
    <glyph glyph-name="approxequal" unicode="&#x2248;" horiz-adv-x="1118" 
d="M352 1028q87 0 229.5 -33.5t187.5 -33.5q44 0 58.5 16t18.5 51h219q0 -160 -63.5 -247t-204.5 -87q-80 0 -188.5 22.5t-159 33t-84.5 10.5q-68 0 -76 -76h-219q2 182 79.5 263t202.5 81zM352 602q83 0 235 -35t189 -35t51.5 16.5t18.5 51.5h219q0 -160 -63.5 -247
t-204.5 -87q-80 0 -188.5 22.5t-159 33t-84.5 10.5q-68 0 -76 -76h-219q2 184 79.5 265t202.5 81z" />
    <glyph glyph-name="notequal" unicode="&#x2260;" horiz-adv-x="1153" 
d="M104 981h543l80 172h211l-80 -172h205v-256h-326l-84 -182h410v-256h-531l-77 -168h-211l78 168h-218v256h338l84 182h-422v256z" />
    <glyph glyph-name="lessequal" unicode="&#x2264;" horiz-adv-x="1028" 
d="M88 231h844v-231h-844v231zM88 547v311l844 281v-267l-375 -116q-32 -11 -96 -27t-99 -27v-4q101 -23 195 -49l375 -108v-275z" />
    <glyph glyph-name="greaterequal" unicode="&#x2265;" horiz-adv-x="1028" 
d="M96 231h844v-231h-844v231zM96 539l375 112q94 26 195 49v5q-35 10 -99 26t-96 27l-375 112v269l844 -281v-311l-844 -281v273z" />
    <glyph glyph-name="uni24C5" unicode="&#x24c5;" horiz-adv-x="1673" 
d="M837.5 -35q-157.5 0 -296 57.5t-240.5 159t-160.5 241.5t-58.5 304t58.5 304t160.5 242.5t240.5 160t296 57.5t296 -57.5t240 -160t159.5 -242.5t58 -304t-58 -304t-159.5 -241.5t-240 -159t-296 -57.5zM837.5 72q135.5 0 250 50t198.5 137t132 207t48 261t-48 262
t-132 208t-198.5 137t-250 50t-251 -50t-199.5 -137t-132 -208t-48 -262t48 -261t132 -207t199.5 -137t251 -50zM897 748q53 0 82 27.5t29 74.5t-29 74.5t-82 27.5h-137v-204h137zM524 1145h394q148 0 237 -79q88 -79 88 -210t-81.5 -210t-207.5 -79h-194v-270h-236v848z
" />
    <glyph glyph-name="lozenge" unicode="&#x25ca;" horiz-adv-x="1220" 
d="M33 733l411 731h330l414 -733l-412 -731h-330zM614 285l232 440l-236 457h-4l-231 -445l235 -452h4z" />
    <glyph glyph-name="f_i" unicode="&#xf001;" horiz-adv-x="1204" 
d="M791 1464h333v-270h-333v270zM791 1049h333v-1049h-333v1049zM156 836h-138v213h138v75q0 135 61 209q117 163 467 125v-235q-104 4 -150.5 -19.5t-46.5 -103.5v-51h197v-213h-197v-836h-331v836z" />
    <glyph glyph-name="f_l" unicode="&#xf002;" horiz-adv-x="1214" 
d="M795 1464h338v-1464h-338v1464zM158 836h-135v213h135v75q0 131 61 209q86 120 239.5 126.5t229.5 -1.5v-235q-104 4 -150 -19t-46 -104v-51h196v-213h-196v-836h-334v836z" />
    <glyph glyph-name="uniF8FF" unicode="&#xf8ff;" horiz-adv-x="1732" 
d="M133 1466h1466v-1466h-1466v1466zM1014 242v346h344v295h-344v334h-295v-334h-344v-295h344v-346h295z" />
    <glyph glyph-name="dotlessj" horiz-adv-x="493" 
d="M75 -352q-93 0 -171 16v232q101 0 138.5 17.5t37.5 94.5v1041h334v-1057q0 -178 -80 -262q-45 -45 -105.5 -63.5t-153.5 -18.5z" />
    <glyph glyph-name="commaaccent" 
d="M504 -317h-129v221h280v-178q0 -184 -114.5 -222.5t-171.5 -42.5v99q135 31 135 123z" />
    <glyph glyph-name="zero.denominator" horiz-adv-x="854" 
d="M49 405.5q0 190.5 106 307t275 116.5t272 -116t103 -308t-105 -307.5t-272 -115.5t-273 116.5t-106 307zM428 666q-145 0 -145 -258t145 -258t145 186t-35.5 258t-109.5 72z" />
    <glyph glyph-name="one.denominator" horiz-adv-x="557" 
d="M475 821v-821h-248v479h-186v166q205 9 238 176h196z" />
    <glyph glyph-name="two.denominator" horiz-adv-x="811" 
d="M506 559q0 86 -94 86q-53 0 -86 -37t-33 -104h-225q0 160 97 242.5t250 82.5t239.5 -74.5t86.5 -169.5q0 -94 -30.5 -144t-70.5 -84t-134 -87.5t-119 -81.5v-2h356v-186h-688q3 180 152 299q59 51 119.5 85t102.5 64t59.5 53t17.5 58z" />
    <glyph glyph-name="three.denominator" horiz-adv-x="798" 
d="M731 599q0 -108 -119 -161v-2q61 -23 102.5 -70.5t41.5 -121.5q0 -133 -96 -198.5t-265 -65.5t-259.5 82.5t-92.5 213.5h231q9 -122 127 -122q55 0 83 26.5t28 67.5q0 94 -129 94h-47v156h41q119 0 119 84q0 35 -24 57.5t-76 22.5t-75.5 -31t-27.5 -72h-225
q4 117 93 193.5t241 76.5t240.5 -61t88.5 -169z" />
    <glyph glyph-name="four.denominator" horiz-adv-x="839" 
d="M223 340h213v250h-2l-211 -248v-2zM676 823v-483h119v-170h-119v-170h-240v170h-391v195l391 458h240z" />
    <glyph glyph-name="five.denominator" horiz-adv-x="796" 
d="M510 280q0 118 -130 119q-64 0 -99 -49h-207l84 463h532v-176h-368l-29 -135h4q59 51 175 51t194.5 -73.5t78.5 -203.5t-95 -213t-253 -83q-230 0 -290 100t-66 162h219q8 -43 45 -64.5t89 -21.5t84 33t32 91z" />
    <glyph glyph-name="six.denominator" horiz-adv-x="776" 
d="M395.5 143q59.5 0 94 37t34.5 93t-34.5 92t-94 36t-95.5 -35.5t-36 -93t36 -93.5t95.5 -36zM258 483q76 72 194 72q117 0 203 -77.5t86 -208.5q0 -130 -92.5 -208.5t-258.5 -78.5t-260.5 114.5t-94.5 310.5t96 310q96 113 277 112q131 0 209.5 -59t101.5 -164h-213
q-19 70 -92 70q-142 0 -158 -193h2z" />
    <glyph glyph-name="seven.denominator" horiz-adv-x="735" 
d="M442 618h-397v195h639v-174q-109 -106 -180.5 -268t-75.5 -371h-262q7 357 276 616v2z" />
    <glyph glyph-name="eight.denominator" horiz-adv-x="813" 
d="M405.5 498q51.5 0 78 25.5t26.5 66.5t-26.5 66.5t-78 25.5t-78 -25.5t-26.5 -66.5t26.5 -66.5t78 -25.5zM408 141q57 0 89.5 29t32.5 77t-32.5 78.5t-90 30.5t-91 -30.5t-33.5 -78.5t34 -77t91 -29zM405.5 -20q-174.5 0 -268.5 68.5t-94 180.5q0 66 39 119t111 82v4
q-55 25 -85 69t-30 97q0 100 88 164.5t241 64.5t239.5 -60t86.5 -165q0 -53 -29.5 -96t-80.5 -68v-4q72 -27 109.5 -80t37.5 -120q0 -119 -95 -187.5t-269.5 -68.5z" />
    <glyph glyph-name="nine.denominator" horiz-adv-x="772" 
d="M378.5 408q59.5 0 95.5 36.5t36 92t-36 93.5t-95.5 38t-95 -38t-35.5 -93t35.5 -92t95 -37zM512 322q-74 -74 -189 -74t-202.5 81t-87.5 210t96 209.5t246 80.5t239 -79q121 -102 121 -329q0 -228 -94 -333q-93 -108 -245 -108t-238 62t-105 165h211q26 -70 99 -70
q143 0 151 185h-2z" />
    <glyph glyph-name="zero.numerator" horiz-adv-x="854" 
d="M155.5 1365q106.5 116 274.5 116q167 0 271 -115.5t104 -308.5t-105 -308.5t-272 -115.5t-273 116.5t-106 308t106.5 307.5zM428 1317q-145 0 -145 -258t145 -258t145 186.5t-35.5 258t-109.5 71.5z" />
    <glyph glyph-name="one.numerator" horiz-adv-x="557" 
d="M475 1473v-822h-248v479h-186v166q205 9 238 177h196z" />
    <glyph glyph-name="two.numerator" horiz-adv-x="811" 
d="M506 1210q0 86 -94 86q-53 0 -86 -36.5t-33 -104.5h-225q0 160 97 243t251 83t239.5 -75.5t85.5 -168.5q0 -94 -30.5 -144.5t-70.5 -84.5t-133.5 -87.5t-119.5 -80.5v-2h356v-187h-688q3 180 152 299q61 53 122.5 88t102.5 65t57.5 52.5t16.5 54.5z" />
    <glyph glyph-name="three.numerator" horiz-adv-x="798" 
d="M756 889q0 -188 -136 -222t-208 -34q-186 0 -276.5 82t-92.5 213h231q9 -123 127 -123q55 0 83 26.5t28 67.5q0 94 -129 94h-47v156h41q119 0 119 84q0 35 -24 57.5t-76 22.5t-75.5 -31t-27.5 -72h-225q4 117 93 194t241 77t240.5 -61.5t88.5 -170.5t-119 -159v-3
q144 -54 144 -198z" />
    <glyph glyph-name="four.numerator" horiz-adv-x="839" 
d="M223 991h213v250h-2l-211 -248v-2zM676 1475v-484h119v-170h-119v-170h-240v170h-391v195l391 459h240z" />
    <glyph glyph-name="five.numerator" horiz-adv-x="796" 
d="M510 932q0 120 -130 119q-64 0 -99 -50h-207l84 463h532v-176h-368l-29 -135h4q59 51 174 51q116 0 195 -73t79 -203q0 -131 -95 -213t-247 -82t-251 70t-111 190h219q8 -43 45 -64.5t89 -21.5t84 33.5t32 91.5z" />
    <glyph glyph-name="six.numerator" horiz-adv-x="776" 
d="M395.5 795q59.5 0 94 36.5t34.5 92.5t-34.5 92.5t-94 36.5t-95.5 -36t-36 -93.5t36 -93t95.5 -35.5zM258 1135q75 71 193 71q117 0 203.5 -77t86.5 -207q0 -131 -92.5 -210t-258.5 -79t-260.5 114.5t-94.5 311.5t96 310q96 112 277 112q131 0 209.5 -59.5t101.5 -164.5
h-213q-19 70 -92 70q-142 0 -158 -192h2z" />
    <glyph glyph-name="seven.numerator" horiz-adv-x="735" 
d="M442 1270h-397v194h639v-174q-109 -106 -180.5 -268t-75.5 -371h-262q7 358 276 617v2z" />
    <glyph glyph-name="eight.numerator" horiz-adv-x="813" 
d="M405.5 1149q51.5 0 78 25.5t26.5 66.5t-26.5 66.5t-78 25.5t-78 -25.5t-26.5 -66.5t26.5 -66.5t78 -25.5zM408 793q57 0 89.5 28.5t32.5 76.5t-32.5 79t-90 31t-91 -31t-33.5 -79t34 -76.5t91 -28.5zM405.5 633q-174.5 0 -268.5 67.5t-94 180.5q0 66 39 119t111 81v4
q-55 25 -85 69t-30 97q0 100 88 165t241 65t239.5 -60.5t86.5 -165.5q0 -53 -29.5 -96t-80.5 -67v-5q72 -27 109.5 -80t37.5 -120q0 -119 -95 -186.5t-269.5 -67.5z" />
    <glyph glyph-name="nine.numerator" horiz-adv-x="772" 
d="M378.5 1059q59.5 0 95.5 37t36 92t-36 93t-95.5 38t-95 -38t-35.5 -93t35.5 -92t95 -37zM512 973q-74 -74 -189 -74t-202.5 81t-87.5 210t95.5 210t246.5 81t239 -80q121 -102 121 -328q0 -227 -93 -334q-94 -106 -246 -106t-238 61.5t-105 163.5h211q26 -70 99 -70
q143 0 151 185h-2z" />
    <glyph glyph-name="acute.cap" 
d="M438 1802h383l-217 -266h-254z" />
    <glyph glyph-name="breve.cap" 
d="M550 1724q64 0 102 29t42 68h189q-6 -131 -95.5 -214t-230.5 -83t-236.5 80.5t-99.5 216.5h189q4 -43 40 -70t100 -27z" />
    <glyph glyph-name="caron.alt" 
d="M496 1257h-117v207h256v-161q0 -165 -101.5 -196.5t-156.5 -33.5v96q119 18 119 88z" />
    <glyph glyph-name="caron.cap" 
d="M135 1792h281l92 -111h4l92 111h287l-217 -256h-322z" />
    <glyph glyph-name="circumflex.cap" 
d="M352 1792h320l219 -256h-281l-92 111h-4l-94 -111h-287z" />
    <glyph glyph-name="commaaccent.alt" 
d="M504 -317h-129v221h280v-178q0 -184 -114.5 -222.5t-171.5 -42.5v99q135 31 135 123z" />
    <glyph glyph-name="dieresis.cap" 
d="M575 1804h314v-262h-314v262zM135 1804h314v-262h-314v262z" />
    <glyph glyph-name="dotaccent.cap" 
d="M346 1808h332v-266h-332v266z" />
    <glyph glyph-name="grave.cap" 
d="M203 1802h383l88 -266h-254z" />
    <glyph glyph-name="hungarumlaut.cap" 
d="M690 1823h324l-211 -287h-207zM289 1823h323l-209 -287h-206z" />
    <glyph glyph-name="macron.cap" 
d="M225 1767h586v-206h-586v206z" />
    <glyph glyph-name="ring.cap" 
d="M512 1513q-43 0 -81 15.5t-66.5 42t-45 63.5t-16.5 80t16.5 79t45 63.5t66.5 43t81 15.5t81 -15.5t66.5 -43t45 -63.5t16.5 -79t-16.5 -80t-45 -63.5t-66.5 -42t-81 -15.5zM513 1626q38 0 61.5 26.5t23.5 61.5t-23.5 61.5t-61.5 26.5t-61.5 -26.5t-23.5 -61.5t23.5 -61.5
t61.5 -26.5z" />
    <glyph glyph-name="tilde.cap" 
d="M172 1538q0 139 61.5 208t137.5 69t147 -39q35 -16 56.5 -26.5t49.5 -10.5q48 0 56 71h172q0 -121 -52 -195.5t-141 -74.5t-159 36t-94 36q-51 0 -62 -74h-172z" />
    <glyph glyph-name="R.alt" horiz-adv-x="1384" 
d="M745 803q98 0 150.5 47t52.5 133t-52 131t-151 45h-276v-356h276zM100 1464h666q382 0 465.5 -186t83.5 -315t-73 -234.5t-200 -159.5l340 -569h-407l-297 518h-209v-518h-369v1464z" />
    <glyph glyph-name="Racute.alt" horiz-adv-x="1384" 
d="M745 803q98 0 150.5 47t52.5 133t-52 131t-151 45h-276v-356h276zM100 1464h666q382 0 465.5 -186t83.5 -315t-73 -234.5t-200 -159.5l340 -569h-407l-297 518h-209v-518h-369v1464zM641 1802h383l-217 -266h-254z" />
    <glyph glyph-name="Rcaron.alt" horiz-adv-x="1384" 
d="M745 803q98 0 150.5 47t52.5 133t-52 131t-151 45h-276v-356h276zM100 1464h666q382 0 465.5 -186t83.5 -315t-73 -234.5t-200 -159.5l340 -569h-407l-297 518h-209v-518h-369v1464zM311 1792h281l92 -111h4l92 111h287l-217 -256h-322z" />
    <glyph glyph-name="Rcommaaccent.alt" horiz-adv-x="1384" 
d="M745 803q98 0 150.5 47t52.5 133t-52 131t-151 45h-276v-356h276zM100 1464h666q382 0 465.5 -186t83.5 -315t-73 -234.5t-200 -159.5l340 -569h-407l-297 518h-209v-518h-369v1464zM682 -317h-129v221h281v-178q0 -184 -115 -222.5t-172 -42.5v99q135 31 135 123z" />
    <glyph glyph-name="Tcommaaccent" horiz-adv-x="1288" 
d="M461 1157h-426v307h1218v-307h-430v-1157h-362v1157zM635 -317h-129v221h280v-178q0 -185 -114.5 -223t-171.5 -42v99q135 31 135 123z" />
    <glyph glyph-name="idotaccent" horiz-adv-x="493" 
d="M80 1464h334v-270h-334v270zM80 1049h334v-1049h-334v1049z" />
    <glyph glyph-name="tcommaaccent" horiz-adv-x="718" 
d="M162 276v564h-139v209h139v331h325v-331h191v-209h-191v-492q0 -61 32 -81.5t85 -20.5l74 2v-244q-61 -16 -159 -16q-183 0 -270 64t-87 224zM391 -317h-129v221h281v-178q0 -184 -115 -222.5t-172 -42.5v99q135 31 135 123z" />
    <glyph glyph-name="space_uni0326" 
d="M504 -317h-129v221h280v-178q0 -184 -114.5 -222.5t-171.5 -42.5v99q135 31 135 123z" />
    <glyph glyph-name="space_uni0326.alt" 
d="M371 1380q0 123 79.5 188.5t208.5 76.5v-99q-137 -30 -137 -123h131v-221h-282v178z" />
    <glyph glyph-name="a.alt" horiz-adv-x="1107" 
d="M352 303q0 -117 160 -117q78 0 136.5 51.5t58.5 137.5v125q-57 -31 -163 -55q-105 -24 -148.5 -53.5t-43.5 -88.5zM713 123q-107 -150 -301 -150q-186 0 -283.5 83t-97.5 235q0 231 159.5 276t273.5 59t174 37t60 75q0 114 -151 114t-164 -135h-307q4 157 125 258.5
t355 101.5q233 0 353 -98q117 -101 117 -287v-411q0 -51 15.5 -66.5t54.5 -9.5h6v-195q-56 -28 -156 -28q-197 0 -231 141h-2z" />
    <glyph glyph-name="agrave.alt" horiz-adv-x="1107" 
d="M205 1475h385l117 -304h-254zM352 303q0 -117 160 -117q78 0 136.5 51.5t58.5 137.5v125q-57 -31 -163 -55q-105 -24 -148.5 -53.5t-43.5 -88.5zM713 123q-107 -150 -301 -150q-186 0 -283.5 83t-97.5 235q0 231 159.5 276t273.5 59t174 37t60 75q0 114 -151 114
t-164 -135h-307q4 157 125 258.5t355 101.5q233 0 353 -98q117 -101 117 -287v-411q0 -51 15.5 -66.5t54.5 -9.5h6v-195q-56 -28 -156 -28q-197 0 -231 141h-2z" />
    <glyph glyph-name="aacute.alt" horiz-adv-x="1107" 
d="M352 303q0 -117 160 -117q78 0 136.5 51.5t58.5 137.5v125q-57 -31 -163 -55q-105 -24 -148.5 -53.5t-43.5 -88.5zM713 123q-107 -150 -301 -150q-186 0 -283.5 83t-97.5 235q0 231 159.5 276t273.5 59t174 37t60 75q0 114 -151 114t-164 -135h-307q4 157 125 258.5
t355 101.5q233 0 353 -98q117 -101 117 -287v-411q0 -51 15.5 -66.5t54.5 -9.5h6v-195q-56 -28 -156 -28q-197 0 -231 141h-2zM541 1475h385l-248 -304h-254z" />
    <glyph glyph-name="acircumflex.alt" horiz-adv-x="1107" 
d="M352 303q0 -117 160 -117q78 0 136.5 51.5t58.5 137.5v125q-57 -31 -163 -55q-105 -24 -148.5 -53.5t-43.5 -88.5zM713 123q-107 -150 -301 -150q-186 0 -283.5 83t-97.5 235q0 231 159.5 276t273.5 59t174 37t60 75q0 114 -151 114t-164 -135h-307q4 157 125 258.5
t355 101.5q233 0 353 -98q117 -101 117 -287v-411q0 -51 15.5 -66.5t54.5 -9.5h6v-195q-56 -28 -156 -28q-197 0 -231 141h-2zM399 1456h320l219 -280h-281l-92 135h-4l-94 -135h-287z" />
    <glyph glyph-name="atilde.alt" horiz-adv-x="1107" 
d="M219 1169q0 139 61.5 208t138.5 69t146 -39q35 -16 56.5 -26.5t49.5 -10.5t40 19.5t16 52.5h172q0 -121 -52 -196t-141 -75t-159 36t-94 36q-51 0 -62 -74h-172zM352 303q0 -117 160 -117q78 0 136.5 51.5t58.5 137.5v125q-57 -31 -163 -55q-105 -24 -148.5 -53.5
t-43.5 -88.5zM713 123q-107 -150 -301 -150q-186 0 -283.5 83t-97.5 235q0 231 159.5 276t273.5 59t174 37t60 75q0 114 -151 114t-164 -135h-307q4 157 125 258.5t355 101.5q233 0 353 -98q117 -101 117 -287v-411q0 -51 15.5 -66.5t54.5 -9.5h6v-195q-56 -28 -156 -28
q-197 0 -231 141h-2z" />
    <glyph glyph-name="adieresis.alt" horiz-adv-x="1107" 
d="M352 303q0 -117 160 -117q78 0 136.5 51.5t58.5 137.5v125q-57 -31 -163 -55q-105 -24 -148.5 -53.5t-43.5 -88.5zM713 123q-107 -150 -301 -150q-186 0 -283.5 83t-97.5 235q0 231 159.5 276t273.5 59t174 37t60 75q0 114 -151 114t-164 -135h-307q4 157 125 258.5
t355 101.5q233 0 353 -98q117 -101 117 -287v-411q0 -51 15.5 -66.5t54.5 -9.5h6v-195q-56 -28 -156 -28q-197 0 -231 141h-2zM633 1444h313v-262h-313v262zM172 1444h313v-262h-313v262z" />
    <glyph glyph-name="amacron.alt" horiz-adv-x="1107" 
d="M266 1409h586v-207h-586v207zM352 303q0 -117 160 -117q78 0 136.5 51.5t58.5 137.5v125q-57 -31 -163 -55q-105 -24 -148.5 -53.5t-43.5 -88.5zM713 123q-107 -150 -301 -150q-186 0 -283.5 83t-97.5 235q0 231 159.5 276t273.5 59t174 37t60 75q0 114 -151 114
t-164 -135h-307q4 157 125 258.5t355 101.5q233 0 353 -98q117 -101 117 -287v-411q0 -51 15.5 -66.5t54.5 -9.5h6v-195q-56 -28 -156 -28q-197 0 -231 141h-2z" />
    <glyph glyph-name="abreve.alt" horiz-adv-x="1107" 
d="M559 1360q63 0 101 28.5t42 67.5h189q-6 -131 -95.5 -214t-231.5 -83t-236.5 82t-98.5 215h189q4 -43 41 -69.5t100 -26.5zM352 303q0 -117 160 -117q78 0 136.5 51.5t58.5 137.5v125q-57 -31 -163 -55q-105 -24 -148.5 -53.5t-43.5 -88.5zM713 123q-107 -150 -301 -150
q-186 0 -283.5 83t-97.5 235q0 231 159.5 276t273.5 59t174 37t60 75q0 114 -151 114t-164 -135h-307q4 157 125 258.5t355 101.5q233 0 353 -98q117 -101 117 -287v-411q0 -51 15.5 -66.5t54.5 -9.5h6v-195q-56 -28 -156 -28q-197 0 -231 141h-2z" />
    <glyph glyph-name="aring.alt" horiz-adv-x="1107" 
d="M352 303q0 -117 160 -117q78 0 136.5 51.5t58.5 137.5v125q-57 -31 -163 -55q-105 -24 -148.5 -53.5t-43.5 -88.5zM713 123q-107 -150 -301 -150q-186 0 -283.5 83t-97.5 235q0 231 159.5 276t273.5 59t174 37t60 75q0 114 -151 114t-164 -135h-307q4 157 125 258.5
t355 101.5q233 0 353 -98q117 -101 117 -287v-411q0 -51 15.5 -66.5t54.5 -9.5h6v-195q-56 -28 -156 -28q-197 0 -231 141h-2zM559 1143q-43 0 -81 15.5t-66.5 43t-45 63t-16.5 78.5t16.5 80t45 65t66.5 43t81 15t81 -15t66.5 -43t45 -65t16.5 -80t-16.5 -78.5t-45 -63
t-66.5 -43t-81 -15.5zM560 1257q38 0 61.5 26t23.5 60.5t-23.5 61.5t-61.5 27t-61.5 -27t-23.5 -61.5t23.5 -60.5t61.5 -26z" />
    <glyph glyph-name="aogonek.alt" horiz-adv-x="1107" 
d="M352 303q0 -117 160 -117q78 0 136.5 51.5t58.5 137.5v125q-57 -31 -163 -55q-105 -24 -148.5 -53.5t-43.5 -88.5zM713 123q-107 -150 -301 -150q-186 0 -283.5 83t-97.5 235q0 231 159.5 276t273.5 59t174 37t60 75q0 114 -151 114t-164 -135h-307q4 157 125 258.5
t355 101.5q233 0 353 -98q117 -101 117 -287v-411q0 -51 15.5 -66.5t54.5 -9.5h6v-195q-47 -23 -88 -59.5t-41 -79.5q0 -51 63 -51q37 0 62 10h2v-174q-45 -18 -133 -18q-246 0 -246 172q0 112 129 186q-111 25 -135 127h-2z" />
    <glyph glyph-name="Ccedilla.alt" horiz-adv-x="1437" 
d="M737 -186h-131v174q-261 51 -413 252.5t-152 486.5q0 333 199.5 549.5t521.5 216.5q247 0 426 -134t211 -398h-363q-14 98 -86 164.5t-176 66.5t-169.5 -35t-108.5 -97.5t-64.5 -147.5t-21.5 -237t96.5 -281.5t255.5 -129.5q123 0 197.5 68.5t87.5 175.5h362
q-16 -224 -166 -365q-149 -141 -364 -166v-118q0 -113 -75 -159t-200 -46v76q133 8 133 84z" />
    <glyph glyph-name="Scedilla.alt" horiz-adv-x="1331" 
d="M535 -186v166q-229 29 -364.5 149.5t-139.5 331.5h364q12 -111 84 -160t217 -49t183.5 56.5t38.5 98.5q0 77 -67.5 111t-208.5 68q-140 33 -233.5 61.5t-213 108t-119.5 293.5t160 328t416 114q255 0 413 -114t170 -337h-354q-10 86 -71.5 131.5t-161.5 45.5t-157 -38.5
t-57 -88.5t21.5 -75.5t65 -45t195.5 -55.5t360 -104t208 -368q0 -196 -131.5 -317t-345.5 -148v-118q0 -113 -75 -159t-202 -46v76q132 8 136 84h-131z" />
    <glyph glyph-name="ccedilla.alt" horiz-adv-x="1114" 
d="M586 831q-109 0 -162 -82.5t-53 -224.5t53 -224.5t162 -82.5q160 0 182 180h319q-6 -158 -106 -270.5t-272 -142.5v-125q0 -113 -72 -159t-197 -46v76q125 8 129 84h-125v174q-189 39 -300 186.5t-111 347.5q0 241 151 398t398 157q210 0 341 -110.5t156 -290.5h-321
q-34 155 -172 155z" />
    <glyph glyph-name="scedilla.alt" horiz-adv-x="1032" 
d="M524 184q76 0 120 27t44 70t-22.5 64.5t-59.5 34.5t-84.5 20.5t-107.5 18.5q-173 32 -271 95.5t-98 225.5q0 163 129 251t338 88t327.5 -90t131.5 -246h-307q-10 72 -54.5 97.5t-109.5 25.5t-107.5 -23.5t-42.5 -62.5t20.5 -55t58.5 -28.5t140 -29.5q103 -17 269 -59.5
t166 -292.5q0 -145 -97.5 -230t-255.5 -108v-118q0 -113 -71.5 -159t-196.5 -46v76q125 8 129 84h-125v166q-170 29 -267 121t-104 239h316q20 -156 192 -156z" />
    <glyph glyph-name="hyphen.cap" horiz-adv-x="700" 
d="M49 817h602v-317h-602v317z" />
    <glyph glyph-name="endash.cap" 
d="M0 809h1024v-287h-1024v287z" />
    <glyph glyph-name="emdash.cap" horiz-adv-x="2048" 
d="M205 809h1638v-287h-1638v287z" />
    <glyph glyph-name="questiondown.cap" horiz-adv-x="1120" 
d="M418 1464h348v-344h-348v344zM35 389q0 183 91 257t169.5 122.5t110.5 87.5t32 131h297q0 -148 -25.5 -202t-52 -82.5t-62.5 -59.5t-73 -54.5t-86 -66t-49 -116.5q0 -75 50 -115.5t133 -40.5t139.5 56t58.5 157h328q-4 -221 -151 -355.5t-392 -134.5q-233 0 -375.5 116.5
t-142.5 299.5z" />
    <glyph glyph-name="exclamdown.cap" horiz-adv-x="540" 
d="M96 1464h348v-344h-348v344zM442 0h-344v348l86 639h172l86 -639v-348z" />
    <glyph glyph-name="parenleft.cap" horiz-adv-x="698" 
d="M383 -195q-269 407 -266 867q0 521 264 919h283q-215 -411 -218 -919q0 -355 138 -688q39 -94 80 -179h-281z" />
    <glyph glyph-name="parenright.cap" horiz-adv-x="698" 
d="M582 719q0 -518 -267 -914h-280q101 207 142 361q74 280 75 553q0 369 -135 696q-39 92 -82 176h282q265 -405 265 -872z" />
    <glyph glyph-name="bracketleft.cap" horiz-adv-x="815" 
d="M119 1591h629v-258h-314v-1272h314v-256h-629v1786z" />
    <glyph glyph-name="bracketright.cap" horiz-adv-x="815" 
d="M70 61h313v1272h-313v258h628v-1786h-628v256z" />
    <glyph glyph-name="braceleft.cap" horiz-adv-x="815" 
d="M696 -195q-247 0 -360 84t-113 312v223q0 76 -38 112.5t-134 41.5v245q96 4 134 41t38 113v219q0 227 113 311t360 84h52v-258h-37q-90 0 -131 -24.5t-41 -110.5v-274q0 -100 -34 -146.5t-99 -72.5v-7q66 -29 99.5 -73.5t33.5 -147.5v-276q0 -86 41 -113t131 -27h37v-256
h-52z" />
    <glyph glyph-name="braceright.cap" horiz-adv-x="815" 
d="M70 61h36q88 0 130.5 25t42.5 111v278q0 102 32.5 148.5t100.5 72.5v6q-68 27 -100.5 73t-32.5 147v272q0 86 -42 112.5t-131 26.5h-36v258h51q248 0 360.5 -84.5t112.5 -310.5v-219q0 -76 38 -113t132 -41v-245q-94 -4 -132 -42t-38 -112v-223q0 -226 -111 -311
t-362 -85h-51v256z" />
    <glyph glyph-name="guillemotleft.cap" horiz-adv-x="901" 
d="M487 485v320l310 268v-293l-162 -137v-4l162 -139v-287zM90 485v320l316 268v-293l-166 -137v-4l166 -139v-287z" />
    <glyph glyph-name="guillemotright.cap" horiz-adv-x="901" 
d="M496 506l166 137v4l-166 139v287l315 -272v-320l-315 -268v293zM104 506l162 137v4l-162 139v287l310 -272v-320l-310 -268v293z" />
    <glyph glyph-name="guilsinglleft.cap" horiz-adv-x="542" 
d="M90 485v316l348 289v-308l-174 -139v-4l174 -139v-303z" />
    <glyph glyph-name="guilsinglright.cap" horiz-adv-x="542" 
d="M104 504l175 139v4l-175 139v304l349 -289v-316l-349 -288v307z" />
    <glyph glyph-name="registered.alt" horiz-adv-x="1673" 
d="M837.5 -35q-157.5 0 -296 57.5t-240.5 159t-160.5 241.5t-58.5 304t58.5 304t160.5 242.5t240.5 160t296 57.5t296 -57.5t240 -160t159.5 -242.5t58 -304t-58 -304t-159.5 -241.5t-240 -159t-296 -57.5zM837.5 72q135.5 0 250 50t198.5 137t132 207t48 261t-48 262
t-132 208t-198.5 137t-250 50t-251 -50t-199.5 -137t-132 -208t-48 -262t48 -261t132 -207t199.5 -137t251 -50zM866 780q117 0 117 92t-113 93h-139v-185h135zM498 1145h409q131 0 221.5 -62t90.5 -182q0 -143 -142 -201v-4q100 -33 117 -139q8 -49 11 -85t8 -83.5
t22 -56.5v-17h-231q-18 11 -22.5 85.5t-12.5 117.5q-17 92 -123 92h-115v-295h-233v830z" />
    <glyph glyph-name="dollar.cap" horiz-adv-x="1314" 
d="M420 1079.5q0 -59.5 46 -89t132 -52.5v281q-82 -8 -130 -44t-48 -95.5zM907 412q0 66 -47 99.5t-133 57.5v-313q180 23 180 156zM217 1364.5q141 111.5 381 124.5v135h129v-135q216 -17 352 -129.5t148 -317.5h-332q-18 143 -168 170v-305q113 -27 321.5 -97t208.5 -370
q0 -209 -144 -329.5t-386 -135.5v-196h-129v198q-398 25 -480.5 200t-84.5 288h352q10 -98 60.5 -147.5t152.5 -59.5v342q-106 27 -201.5 56.5t-208 107.5t-112.5 284q0 205 141 316.5z" />
    <glyph glyph-name="Euro.cap" horiz-adv-x="1384" 
d="M1364 520q-12 -249 -165 -402t-409 -153t-424 151.5t-216 407.5h-117v138h100q-4 27 -4 60.5t2 59.5h-98v138h114q46 260 214.5 417.5t422.5 157.5t399.5 -142t168.5 -384h-353q-35 241 -225 241q-214 0 -266 -290h332v-138h-344q-2 -8 -2 -12v-18l2 -90h344v-138h-330
q60 -272 272 -272q106 0 164.5 74t71.5 194h346z" />
    <glyph glyph-name="sterling.cap" horiz-adv-x="1257" 
d="M887 287q102 0 196 86l148 -275q-63 -55 -151.5 -93t-177.5 -38t-146.5 16.5t-105.5 36t-96 36t-112 16.5t-117 -27t-106 -65l-172 260q90 57 146.5 131.5t56.5 160.5q0 43 -10 89h-183v194h86q-61 115 -61 217q0 205 148 334t408 129q261 0 409 -121q82 -66 123.5 -163
t46.5 -250h-340q0 135 -63.5 193t-162 58t-148.5 -50t-50 -122t21.5 -123t47.5 -102h303v-194h-239q2 -6 2 -9v-28q0 -158 -156 -271l4 -6q73 33 143 33q101 0 175.5 -26.5t132.5 -26.5z" />
    <glyph glyph-name="yen.cap" horiz-adv-x="1363" 
d="M506 274h-361v138h361v120h-361v138h306l-445 796h400l184 -370q16 -37 33.5 -74t30.5 -71t28 -66h4q12 33 28 67t32 70.5t34 73.5l183 370h389l-447 -796h307v-138h-360v-120h360v-138h-360v-274h-346v274z" />
    <glyph glyph-name="zero.cap" horiz-adv-x="1394" 
d="M49 730q0 348 178.5 556.5t473.5 208.5t470 -209t175 -557t-178.5 -556t-470.5 -208q-290 0 -469 208.5t-179 556.5zM732.5 254q107.5 0 176 126.5t68.5 350.5q0 344 -102.5 411.5t-211.5 67.5t-177 -129.5t-68 -349.5q0 -345 103.5 -411t211 -66z" />
    <glyph glyph-name="one.cap" horiz-adv-x="868" 
d="M371 940h-312v240q145 6 251 75.5t134 217.5h287v-1473h-360v940z" />
    <glyph glyph-name="two.cap" horiz-adv-x="1226" 
d="M813 1032q0 68 -47 120t-145 52q-158 0 -190 -102.5t-32 -179.5h-336q0 125 23 208.5t79 166.5t174.5 139.5t272.5 56.5q276 0 416.5 -130.5t140.5 -332.5t-114 -311t-199.5 -169.5t-177.5 -128.5t-148 -130v-2h639v-289h-1124q5 250 125.5 378t210.5 195.5t187.5 140
t149.5 121.5q52 50 73.5 89.5t21.5 107.5z" />
    <glyph glyph-name="three.cap" horiz-adv-x="1275" 
d="M862 446q0 193 -248 193h-86v246h78q104 0 166 44t62 125t-52 127t-156 46t-158 -65.5t-60 -160.5h-332q4 221 153 357.5t407 136.5q259 0 404.5 -108.5t145.5 -301.5q0 -115 -64.5 -186.5t-163.5 -110.5v-4q121 -37 195 -123t74 -219q0 -240 -165.5 -357.5
t-412.5 -117.5q-309 0 -469 152q-150 139 -149 385h336q6 -119 66.5 -190.5t187.5 -71.5t184 56t57 148z" />
    <glyph glyph-name="four.cap" horiz-adv-x="1320" 
d="M727 594v508h-4l-408 -504v-4h412zM727 326h-682v321l678 830h352v-883h211v-268h-211v-326h-348v326z" />
    <glyph glyph-name="five.cap" horiz-adv-x="1280" 
d="M438 907q94 94 296 94q214 0 356.5 -136.5t142.5 -369.5q0 -234 -161.5 -382t-425.5 -148q-261 0 -428 122t-191 351h348q18 -96 90.5 -142t176.5 -46t167 70.5t63 184.5t-64.5 177t-154.5 63q-164 0 -229 -92h-334l148 811h905v-282h-656l-53 -275h4z" />
    <glyph glyph-name="six.cap" horiz-adv-x="1316" 
d="M426 485.5q0 -110.5 70.5 -182.5t182.5 -72t183.5 73.5t71.5 182.5t-69.5 182.5t-185.5 73.5t-184.5 -73.5t-68.5 -184zM412 866q128 142 330 142q227 0 380.5 -145t153.5 -376t-163.5 -376.5t-418.5 -145.5q-311 0 -477 208.5t-166 547.5q-4 379 169 576
q173 198 474 198q231 0 368.5 -107.5t172.5 -285.5h-346q-33 135 -179 135q-284 0 -304 -371h6z" />
    <glyph glyph-name="seven.cap" horiz-adv-x="1165" 
d="M743 1167h-706v297h1083v-268q-327 -327 -413 -667.5t-93 -528.5h-374q11 362 160.5 662.5t342.5 500.5v4z" />
    <glyph glyph-name="eight.cap" horiz-adv-x="1298" 
d="M647 889q102 0 159.5 51t57.5 129t-57 128t-159 50t-158 -50t-56 -128t55.5 -129t157.5 -51zM648 231q114 0 183.5 58.5t69.5 155.5t-66.5 157t-182.5 60t-185.5 -60t-69.5 -158t68.5 -155.5t182.5 -57.5zM1196 1089q0 -191 -190 -290v-6q121 -47 186 -142.5t65 -213.5
t-44 -202.5t-123.5 -145t-191.5 -92.5t-315.5 -32t-372.5 123t-169 330q0 127 67.5 220t186.5 144v6q-195 94 -195 289t149 306.5t403 111.5q255 0 399.5 -107.5t144.5 -298.5z" />
    <glyph glyph-name="nine.cap" horiz-adv-x="1310" 
d="M827 1156.5q-74 72.5 -188 72.5t-186 -73.5t-72 -183.5q0 -111 70 -183t186 -72t190 72t74 183.5t-74 184zM575 457q-232 0 -382 142.5t-150 373.5t165.5 376.5t431.5 145.5q267 0 431 -164q191 -187 191 -570t-152 -587q-160 -209 -471 -209q-228 0 -379 109t-180 291
h342q16 -55 65 -98.5t157 -43.5t182 90t81 287h-4q-134 -143 -328 -143z" />
    <glyph glyph-name="percent.cap" horiz-adv-x="1773" 
d="M975 374q0 185 104 296.5t272 111.5t270.5 -112t102.5 -297.5t-105 -296.5t-268 -111t-269.5 112t-106.5 297zM1227 375.5q0 -232.5 123 -232t123 232.5t-123 232t-123 -232.5zM1208 1464h193l-836 -1464h-190zM49 1084q0 184 106 296.5t273 112.5t270 -112.5t103 -296.5
t-104.5 -296t-271.5 -112q-164 0 -270 112t-106 296zM426 1319q-123 -1 -123 -233t123 -232t123 167t-30 232.5t-93 65.5z" />
    <glyph glyph-name="perthousand.cap" horiz-adv-x="2598" 
d="M1798 373q0 184 106 296.5t273 112.5t270 -112.5t103 -297t-105.5 -296t-270.5 -111.5q-163 0 -269.5 112t-106.5 296zM2175 608q-123 0 -123 -232.5t123 -232.5t123 232q0 102 -30 167.5t-93 65.5zM975 374q0 185 104 296.5t272 111.5t270.5 -112t102.5 -297.5
t-105 -296.5t-268 -111t-269.5 112t-106.5 297zM1227 375.5q0 -232.5 123 -232t123 232.5t-123 232t-123 -232.5zM1208 1464h193l-836 -1464h-190zM49 1084q0 184 106 296.5t273 112.5t270 -112.5t103 -296.5t-104.5 -296t-271.5 -112q-164 0 -270 112t-106 296zM426 1319
q-123 -1 -123 -233t123 -232t123 167t-30 232.5t-93 65.5z" />
    </font>
</defs>
</svg>
